<svg id="Camada_1" data-name="Camada 1" xmlns="http://www.w3.org/2000/svg" viewBox="0 0 1920 1080"><defs><style>.cls-1{fill:#52b7c5;}.cls-2{fill:#53b8c6;}.cls-2,.cls-27,.cls-28{opacity:0.3;}.cls-10,.cls-13,.cls-2,.cls-26,.cls-28,.cls-34,.cls-39,.cls-4,.cls-54,.cls-61,.cls-7,.cls-71,.cls-9{isolation:isolate;}.cls-26,.cls-28,.cls-3,.cls-4{fill:#fddcbe;}.cls-4{opacity:0.44;}.cls-5{fill:#78ccd2;}.cls-6{fill:#f5fbfd;}.cls-7{fill:#bbbdbf;opacity:0.5;}.cls-10,.cls-8,.cls-9{fill:#fddbc5;}.cls-9{opacity:0.8;}.cls-10,.cls-62{opacity:0.75;}.cls-11{fill:#5e2f2a;}.cls-12{fill:#286d79;}.cls-13{fill:#1f6570;opacity:0.21;}.cls-14{fill:#e3dfe2;}.cls-15{fill:#6dacb9;}.cls-16{fill:#cbe3ee;}.cls-17{fill:#e7f5fd;}.cls-18{fill:#78b1dd;}.cls-19{fill:#776c6d;}.cls-20{fill:#c8ab99;}.cls-21{fill:#c6c5c3;}.cls-22{fill:#2b5865;}.cls-23{fill:#9dacb0;}.cls-24{fill:#c3c3b6;}.cls-25{fill:#552b16;}.cls-26,.cls-37,.cls-39{opacity:0.89;}.cls-29{fill:#603813;}.cls-30{fill:#552a14;}.cls-31{fill:#fff;}.cls-32,.cls-34,.cls-71{fill:#883f2a;}.cls-33{fill:#4b1c0d;}.cls-34,.cls-54{opacity:0.7;}.cls-35{fill:#c42a48;}.cls-36{fill:#f2808d;}.cls-38,.cls-39{fill:#ffdebf;}.cls-40{fill:#f79239;}.cls-41{fill:#ffce3a;}.cls-42{fill:#8c6239;}.cls-43{fill:#c69c6d;}.cls-44{fill:#a87c4f;}.cls-45{fill:#d6ecf3;}.cls-46{fill:#805342;}.cls-47{fill:#ffe87d;}.cls-48{fill:#562911;}.cls-49{fill:#c52a47;}.cls-50{fill:#f05b80;}.cls-51{fill:#68351d;}.cls-52,.cls-54,.cls-61{fill:#883e28;}.cls-53{fill:#4d1700;}.cls-55{fill:#b28e6b;}.cls-56{fill:#a0653f;}.cls-57{fill:#9f8c81;}.cls-58{fill:#8c6f6c;}.cls-59{fill:#239ec6;}.cls-60{fill:#63cec4;}.cls-61,.cls-71{opacity:0.61;}.cls-63{fill:#f0699a;}.cls-64{fill:#d85888;}.cls-65{fill:#f69d9c;}.cls-66{fill:#fffded;}.cls-67{fill:#f59fb7;}.cls-68{fill:#ec5a8d;}.cls-69{fill:#f4c0be;}.cls-70{fill:#ffce6d;}.cls-72{fill:#ef5c80;}.cls-73{fill:#48382f;}.cls-74{fill:#65504d;}.cls-75{fill:#e1d2c8;}.cls-76{fill:#005373;}.cls-77{fill:#004763;}.cls-78{fill:#0680c4;}.cls-79{fill:#fbc395;}.cls-80{fill:#45bea8;}.cls-81{fill:#abd040;}.cls-82{fill:#ebf7fd;}</style></defs><title>background-header</title><g id="Background"><path id="Caminho_1" data-name="Caminho 1" class="cls-1" d="M-110.32,969.88s988.43-72.75,1430-258.4S2158.8,873.29,2158.8,873.29L1935.53,1150.5-97.78,1130.44Z"/><path id="Caminho_326" data-name="Caminho 326" class="cls-2" d="M-128.46,971.78s987.2-89.55,1425.57-282.71S2139,836.62,2139,836.62l-218.55,281-2033.65,14.49Z"/><g id="kids_home" data-name="kids home"><g id="Layer_1" data-name="Layer 1"><path id="Caminho_2" data-name="Caminho 2" class="cls-3" d="M1633.56,591.92l29-24.2a2.51,2.51,0,0,1,1.13-.53c5.44-1,44.64-7.93,50.37-7.94,2.78,0,2.85-1.54,0-3.31a2.42,2.42,0,0,1-.73-3.34,2.52,2.52,0,0,1,.81-.78,1.39,1.39,0,0,0,.79-1.09c.06-1.34-2.74-2.45-7-3a2.36,2.36,0,0,1-2-2.66,2.43,2.43,0,0,1,.38-1,1.33,1.33,0,0,0,.22-1.26c-1-2.42-23.12,3.46-27.84,4.84a2.32,2.32,0,0,1-2-.33,1.73,1.73,0,0,1-.41-.4c-1.44-2.09,11.2-14.77,6-16.59-4.45-1.56-10.28,5.83-12,8.13a2.36,2.36,0,0,1-1.27.88c-3.25.94-15.65,5.14-19.08,15.16-2,5.87-20.57,19.76-26.87,24.36a2.42,2.42,0,0,0-.53,3.38l.09.12,7.72,9.27A2.42,2.42,0,0,0,1633.56,591.92Z"/><path id="Caminho_3" data-name="Caminho 3" class="cls-4" d="M1676.12,545.94a1.15,1.15,0,0,0,0,1,1.56,1.56,0,0,0,.41.4,2.32,2.32,0,0,0,2,.34c4.75-1.36,26.85-7.23,27.84-4.84a1.31,1.31,0,0,1-.22,1.25,2.38,2.38,0,0,0,.64,3.29,2.32,2.32,0,0,0,1,.39c4.24.54,7.05,1.65,7,3a1.4,1.4,0,0,1-.79,1.09,2.42,2.42,0,0,0-.84,3.32,2.53,2.53,0,0,0,.77.79c2.46,1.54,2.74,2.88,1,3.23a2.4,2.4,0,0,1-1.51-.23c-8.47-4.17-18.72-3.78-28.44-2.14a2.34,2.34,0,0,1-1.78-.39,17.73,17.73,0,0,0-9-3,2.42,2.42,0,0,1-1.21-4.33A15.47,15.47,0,0,0,1676.12,545.94Z"/><path id="Caminho_4" data-name="Caminho 4" class="cls-4" d="M1622.86,578.84c3.92-2.85,12.53-9.26,19-15.13a2.42,2.42,0,0,1,3.42.15l0,0a23.71,23.71,0,0,0,8.87,6.05,2.42,2.42,0,0,1,1.46,3.1,2.33,2.33,0,0,1-.75,1.06l-21.33,17.82a2.42,2.42,0,0,1-3.41-.3h0l-7.72-9.26a2.41,2.41,0,0,1,.3-3.41l.13-.11Z"/><path id="Caminho_5" data-name="Caminho 5" class="cls-5" d="M1652.83,577.32,1657,574,1644.92,557l-3.52,2.81S1648.06,574,1652.83,577.32Z"/><path id="Caminho_6" data-name="Caminho 6" class="cls-6" d="M1549.28,523.8a11.2,11.2,0,0,1,15.74,1.5c17.76,21.6,39.07,46.23,48.68,55.79h0c6.66-5,18.22-14.52,28.77-23.41a87.56,87.56,0,0,0,12.79,18.4h0c-32.47,27.44-36.75,28.73-38.86,29.36-7.7,2.29-13.4-3.11-22-12.1-5-5.24-11.67-12.61-19.72-21.9-13.6-15.7-26.8-31.74-26.92-31.91a11.17,11.17,0,0,1,1.56-15.72Z"/><path id="Caminho_7" data-name="Caminho 7" class="cls-3" d="M1394.34,566.4l9.75-7.1a2.42,2.42,0,0,0,.52-3.38l-.09-.12c-5-6-19.59-24-20.1-30.19-.88-10.56-11.87-17.66-14.79-19.36a2.34,2.34,0,0,1-1-1.16c-1.08-2.65-5-11.25-9.68-10.83-5.54.48,3.63,15.87,1.71,17.55a1.92,1.92,0,0,1-.5.29,2.31,2.31,0,0,1-2.06-.18c-4.27-2.48-24.27-13.58-25.84-11.5a1.31,1.31,0,0,0-.1,1.27,2.36,2.36,0,0,1-2.51,3.16c-4.23-.5-7.23-.12-7.5,1.21a1.38,1.38,0,0,0,.5,1.25,2.42,2.42,0,0,1-.94,4c-3.2,1-3.51,2.51-.81,3.2,5.55,1.42,41.84,17.75,46.9,20a2.54,2.54,0,0,1,1,.79l22.16,30.54a2.41,2.41,0,0,0,3.38.54l0,0Z"/><path id="Caminho_8" data-name="Caminho 8" class="cls-4" d="M1360.94,510.86a1.16,1.16,0,0,1-.26.93,1.56,1.56,0,0,1-.5.29,2.34,2.34,0,0,1-2.06-.17c-4.27-2.48-24.27-13.58-25.84-11.5a1.31,1.31,0,0,0-.1,1.26,2.38,2.38,0,0,1-2.5,3.17c-4.24-.51-7.24-.12-7.5,1.21a1.33,1.33,0,0,0,.5,1.24,2.43,2.43,0,0,1,0,3.43,2.4,2.4,0,0,1-.94.58c-2.76.89-3.36,2.12-1.73,2.89a2.34,2.34,0,0,0,1.52.15c9.25-2,19.08.91,28.1,4.88a2.37,2.37,0,0,0,1.81.06,17.81,17.81,0,0,1,9.46-.7,2.42,2.42,0,0,0,2.24-3.88,15.9,15.9,0,0,1-2.19-3.84Z"/><path id="Caminho_9" data-name="Caminho 9" class="cls-4" d="M1404.52,555.8c-3.1-3.73-9.88-12.06-14.7-19.32a2.43,2.43,0,0,0-3.36-.7l0,0a23.7,23.7,0,0,1-10.09,3.72,2.42,2.42,0,0,0-2.15,2.66,2.37,2.37,0,0,0,.45,1.17l16.34,22.5a2.41,2.41,0,0,0,3.38.54h0l9.75-7.1a2.41,2.41,0,0,0,.5-3.38.94.94,0,0,0-.09-.12Z"/><path id="Caminho_10" data-name="Caminho 10" class="cls-5" d="M1375.86,547l-3.26-4.24,15.94-13.6,2.72,3.59S1381.31,544.93,1375.86,547Z"/><path id="Caminho_11" data-name="Caminho 11" class="cls-6" d="M1489.33,520.43A11.2,11.2,0,0,0,1473.7,518c-22.51,16.6-49.2,35.27-60.86,42.18-5.23-6.52-14.11-18.51-22.17-29.74a86.93,86.93,0,0,1-16.9,14.72c24.77,34.56,28.61,36.86,30.5,38,6.91,4.1,13.75.26,24.34-6.37,6.17-3.86,14.4-9.37,24.48-16.41,17-11.88,33.76-24.2,33.92-24.32A11.18,11.18,0,0,0,1489.33,520.43Z"/><path id="Caminho_12" data-name="Caminho 12" class="cls-7" d="M1648.34,914.67c-.2,9.77-52.69,16.63-117.24,15.33s-116.71-10.27-116.51-20,52.65-16.64,117.22-15.34S1648.53,904.9,1648.34,914.67Z"/><path id="Caminho_13" data-name="Caminho 13" class="cls-8" d="M1509,509.52v-6.13a8.73,8.73,0,1,1,17.46-.46v7a43.63,43.63,0,0,1,12.2,4.18l-29,46.54L1493,517.83A29.34,29.34,0,0,1,1509,509.52Z"/><path id="Caminho_14" data-name="Caminho 14" class="cls-9" d="M1509,509.52v-6.13a8.73,8.73,0,1,1,17.46-.46,3.53,3.53,0,0,1,0,.46V510a44.38,44.38,0,0,1,10.5,3.37c-7,6.85-16.13,14.42-25.8,11.38a127.12,127.12,0,0,1-17.46-7.53A29.36,29.36,0,0,1,1509,509.52Z"/><path id="Caminho_15" data-name="Caminho 15" class="cls-8" d="M1486,876.24c-1.44-25-8.58-120.53-8.58-120.53-4.59-42.64-6.26-51.76-5.13-78.43l94-1.74c2.24,39.6-10.59,110.65-9.4,114.7C1561.9,807.32,1567,889,1567,889s10.33,11.69,13.58,16.14c5.32,7.32,4,19.69-2.58,19.32s-15.86-7.76-18.1-12.43a112.47,112.47,0,0,1-7.08-20.4s-7.26-46.15-12.7-63.34c-4.52-14.26-2.24-20.05-3.73-29.34-1.89-11.86-19.53-87.42-19.53-87.42s-10.41,32.35-12.62,49.32c-2.28,17.58,2.49,28.89.47,43.89-1.4,10.41-5,72.06-5,72.06s2.73,7.5,3.08,10.6-4.3,6-5.67,7.31-3.54,13.52-18.52,19.2c0,0-7.3,2.81-11.61-1.76-.63-2.27,7-12.22,12.8-20.8A43.39,43.39,0,0,0,1486,876.24Z"/><path id="Caminho_16" data-name="Caminho 16" class="cls-10" d="M1511.72,732.41c1.69-7.39,3.56-14.53,4.89-19.43a192.65,192.65,0,0,1-39.69-4.31c.51,4.49,1.16,9.38,2,15.13A62.59,62.59,0,0,0,1511.72,732.41Z"/><path id="Caminho_17" data-name="Caminho 17" class="cls-10" d="M1565.2,721.33c0-4.84.08-9.85,0-14.84a174.79,174.79,0,0,1-44.32,6.45c1.81,4.52,4.44,11.07,7.31,18.33C1541.48,734.09,1553.65,727.69,1565.2,721.33Z"/><path id="Caminho_18" data-name="Caminho 18" class="cls-11" d="M1577.86,910.84c3-1,2.9-3.9,1.71-7l1,1.37c5.33,7.31,4,19.69-2.57,19.31s-15.87-7.76-18.1-12.43a102.48,102.48,0,0,1-6.82-19.4C1560.82,905.13,1560.84,918.44,1577.86,910.84Z"/><path id="Caminho_19" data-name="Caminho 19" class="cls-11" d="M1471.86,902.71c3.08,1.32,5.6,3.63,9.76,2.28,11.5-4.72,14.27-10.78,16.15-23.31a4.49,4.49,0,0,1,2.19-4.08c.7,2,2.53,7.34,2.81,9.84.34,3.08-4.3,6-5.67,7.31s-3.54,13.52-18.52,19.2c0,0-7.3,2.81-11.61-1.76C1466.64,910.94,1468.75,907.15,1471.86,902.71Z"/><path id="Caminho_20" data-name="Caminho 20" class="cls-12" d="M1474.23,768.71c-4.77-23.3-3.89-77.46-1.92-101.57.52-6.39,4-19.12,8.11-31.12,23.89,5.53,50.39,4.24,70.51-7.26a107.05,107.05,0,0,1,9,20c4.6,14,8.11,78.75,6,114.12C1534.47,772.07,1505.92,777.34,1474.23,768.71Z"/><path id="Caminho_21" data-name="Caminho 21" class="cls-13" d="M1475.57,667.19c.51-6.38,3.86-19.12,7.86-31.12,23.08,5.52,48.67,4.2,68.11-7.32a109.19,109.19,0,0,1,8.66,20c3.79,12,8.22,36.79,8.12,65.86a109.7,109.7,0,0,1-52,5.55l-4.84-17.78-1.59,20c-11,1.48-22,.26-33-1.85A240.25,240.25,0,0,1,1475.57,667.19Z"/><path id="Caminho_22" data-name="Caminho 22" class="cls-14" d="M1501.89,633.09c7.26-33.66-.7-68.23-23.05-94a41.75,41.75,0,0,0-4.23,15.35c-1.73,16.94,16.34,42.28,15.61,58.6-.27,6.1-2.18,11.76-4.6,17.45C1491.5,633.56,1500.26,638,1501.89,633.09Z"/><path id="Caminho_23" data-name="Caminho 23" class="cls-5" d="M1471.19,566.66c-3.79-9.26,10.72-21.07,10.72-21.07s.46-16.9,11.13-27.76l.82,2.1.39-.44c.4-.48.81-1,1.21-1.46,1.47-1.76,5.34-2.82,10-3.42,1,14.52,3.63,15.65,5.62,30.26,8.35-14,13.92-15.53,19.81-30.63a56.27,56.27,0,0,1,6.79,1.48l1-1.53a34.41,34.41,0,0,1,5.65,3.75l.64.25a61.08,61.08,0,0,1,8.67,4.35l-2,3.67c11.66,18.5,5.26,45.15,5.26,45.15s-2,9.08-22.22,35c0,0,11,9.41,20,28.35-23.92,1-47.68,1.85-71.48,2.34,4.9-14.82,10.38-28.82,10.38-28.82S1476.45,579.5,1471.19,566.66Z"/><path id="Caminho_24" data-name="Caminho 24" class="cls-15" d="M1497.41,540.4l2.28-11.53c2.46-.92,4.9-1.86,7.26-2.93,1.21,5.56,2.8,9.33,4.11,18.9,6.35-10.66,11.09-14.09,15.57-21.72A83.24,83.24,0,0,1,1537,527.8c-.6,6.61-.87,13.51-3,19.63l-9.43-8.7-13.2,9.82-8.23-10.14c-3.13,22,1.38,45,9.51,65.63-16.87-16.26-18.11-41.47-15.09-63.7Z"/><path id="Caminho_25" data-name="Caminho 25" class="cls-5" d="M1498.76,511.88c1.9-1.14,7.58-2.92,10.15-3.49,1,14.52.51,19.23,2.53,33.82,8.35-14,9.42-18.2,15.3-33.28,4.35,2,8,2.42,10.67,4.27-1.06,8.16-2.38,17.3-5.38,26.63-3.36-4.11-7.33-9.29-8.47-11.53l-12.89,17.3-5.23-15-11.94,7.46Z"/><path id="Caminho_26" data-name="Caminho 26" class="cls-11" d="M1501.45,889.39s-1.43,5.56-.57,9.2c0,0-1.44,2.26-2.42,1.77a2.85,2.85,0,0,1-1.3-1.5s.53-3.58-.46-5.44Z"/><path id="Caminho_27" data-name="Caminho 27" class="cls-6" d="M1509.85,593.39c8.84-29,24.73-50.6,26.7-80.78,3.12,1.33,9.69,4,23.6,9.2l4.84,34.4s0,9.19-2,15.09c-.65,21.65-12.31,40.44-1.47,65.1,10.53,24,9.08,71.19,7.83,75.94-.54,2.06-49.69,6.16-51,4.84s-6.21-41.63-8.07-57.57C1509.85,640.07,1504.09,612.79,1509.85,593.39Z"/><path id="Caminho_28" data-name="Caminho 28" class="cls-16" d="M1547,560.91c-8.57,20.15-27.75,31.68-39.67,50.07a69.23,69.23,0,0,1,2.49-17.59c8.84-29,24.73-50.6,26.7-80.78.7.3,1.77.76,3.16,1.33l7.81,33.89-11.43,4.28,10.94,8.48Z"/><path id="Caminho_29" data-name="Caminho 29" class="cls-17" d="M1509.85,593.39c8.84-29,22.77-51.49,24.74-81.66,1.05.45,5.16,1.85,7.69,2.9l6.54,30.66-13.71,3.5,10.8,8.78a276.7,276.7,0,0,1-28.83,36.7c-8.47,9.5-9.25,21.56-9.23,33.43C1507,615.61,1506.87,603.44,1509.85,593.39Z"/><path id="Caminho_30" data-name="Caminho 30" class="cls-6" d="M1471.67,605.33c1.4,22.69,2.82,21.13-1,36.69-7.1,29.15-4.8,74-4.8,74s36.42,3.3,42,1.43c1.27-.43,4.44-108.24-.25-118.78-19.68-44.17-2.08-88.39-2.08-88.39-3.36-2.62-26.59,5-28.44,5.89s-10.17,6-13.18,14.52Z"/><path id="Caminho_31" data-name="Caminho 31" class="cls-16" d="M1491.75,547.12l-7.27-2.72,15-34.57a38.17,38.17,0,0,1,6.14-.31s-17.67,44.94,2,89.11l.12.31c-9.62-14.92-20.83-29.23-24.42-47Z"/><path id="Caminho_32" data-name="Caminho 32" class="cls-17" d="M1484.28,542l13.73-31.9c2.69-.56,5.69-1.51,8.58-1.32,0,0-18.6,45.64,1.08,89.81a29.64,29.64,0,0,1,1.35,7.53c-8.73-19.52-19.49-37.47-24.24-58.1l8.21-2.9Z"/><path id="Caminho_33" data-name="Caminho 33" class="cls-18" d="M1510.4,611.75a2.53,2.53,0,1,0,.73-1.8A2.52,2.52,0,0,0,1510.4,611.75Z"/><path id="Caminho_34" data-name="Caminho 34" class="cls-18" d="M1511.14,640.52a2.53,2.53,0,1,0,.74-1.8A2.53,2.53,0,0,0,1511.14,640.52Z"/><path id="Caminho_35" data-name="Caminho 35" class="cls-17" d="M1557.41,691c2.47-6.72,2.42-13.92,2.42-20.89l.72,24.81s-1.93,6.79-14,8.47-16.78-5.85-16.78-5.85v-.42a7.89,7.89,0,0,0,2.67,1.93C1540.91,701.8,1553.94,701,1557.41,691Z"/><path id="Caminho_36" data-name="Caminho 36" class="cls-16" d="M1559.76,668.15l-30.8,3.23S1556,671.93,1559.76,668.15Z"/><path id="Caminho_37" data-name="Caminho 37" class="cls-17" d="M1475.34,692.18c-2.54-6.73-2.5-13.95-2.55-20.95l-.66,24.91s2,6.81,14.26,8.44,17-6,17-6v-.42a8.23,8.23,0,0,1-2.71,2C1492.13,702.9,1478.86,702.16,1475.34,692.18Z"/><path id="Caminho_38" data-name="Caminho 38" class="cls-16" d="M1472.84,669.25l31.36,3.08S1476.7,673,1472.84,669.25Z"/><path id="Caminho_39" data-name="Caminho 39" class="cls-19" d="M1478.74,663.17a1.5,1.5,0,0,0-1.07-.5,1.39,1.39,0,0,0-1.52,1.26v0l-.22,6.46a1.44,1.44,0,0,0,1.42,1.44h.24l-.08,3a.7.7,0,0,0,.64.73.68.68,0,0,0,.69-.67h0l.31-11A.72.72,0,0,0,1478.74,663.17Z"/><path id="Caminho_40" data-name="Caminho 40" class="cls-20" d="M1531.8,603.62a7.26,7.26,0,0,0,.93-.06,1.1,1.1,0,1,1,.62,2.11l-.18,0a8.45,8.45,0,0,1-1.42.15h-.37A2.91,2.91,0,0,0,1531.8,603.62Z"/><path id="Caminho_41" data-name="Caminho 41" class="cls-21" d="M1532.42,575.56a1.09,1.09,0,0,1,1.33-.75h0a1.1,1.1,0,0,1,.75,1.37h0c-.06.2-6,20.57-4.72,26.62.15.72,1.21.84,2,.8a3,3,0,0,1-.41,2.24c-1.61-.06-3.34-.67-3.74-2.56C1526.22,596.7,1532.15,576.42,1532.42,575.56Z"/><path id="Caminho_42" data-name="Caminho 42" class="cls-21" d="M1553.88,605.3c1.17.34,2.66.54,3.06-.14,2.72-4.67,2.42-21.75,2.11-27.94a1.24,1.24,0,0,1,2.47-.13h0c0,.94,1.21,23-2.42,29.31a3.61,3.61,0,0,1-3.26,1.7,9.53,9.53,0,0,1-2.8-.45,2.89,2.89,0,0,1,.84-2.36Z"/><path id="Caminho_43" data-name="Caminho 43" class="cls-20" d="M1551.39,605.64A1.24,1.24,0,0,1,1553,605a6.61,6.61,0,0,0,.85.3,2.82,2.82,0,0,0-.84,2.35c-.51-.16-.88-.32-1-.37a1.23,1.23,0,0,1-.65-1.64Z"/><path id="Caminho_44" data-name="Caminho 44" class="cls-22" d="M1547.55,550.32v0c.61-23.78-4.13-32.74-8.22-36.08a14.26,14.26,0,0,0-6.17-3,1.76,1.76,0,1,1-1-3.38l.12,0a15.87,15.87,0,0,1,9.14,3.53c6.92,5.5,10.17,18.62,9.68,39a2.32,2.32,0,0,1,0,.38c12,3.58,11.28,26.84,11.25,27.84a2,2,0,1,1-4-.14c.24-6.46-1.06-23.39-9.8-24.2s-13,17.73-14,24.93a2,2,0,0,1-1.94,1.73h-.28a2,2,0,0,1-1.72-2.21C1530.78,577.54,1534.35,550.81,1547.55,550.32Z"/><path id="Caminho_45" data-name="Caminho 45" class="cls-21" d="M1474.76,589.93a8.59,8.59,0,1,0,10-7.46,8.75,8.75,0,0,0-10,7.36Z"/><path id="Caminho_46" data-name="Caminho 46" class="cls-23" d="M1476.85,590.74a5.07,5.07,0,1,0,5.88-4.39A5.19,5.19,0,0,0,1476.85,590.74Z"/><path id="Caminho_47" data-name="Caminho 47" class="cls-24" d="M1477.17,591.25a3.27,3.27,0,1,0,3.79-2.83A3.34,3.34,0,0,0,1477.17,591.25Z"/><path id="Caminho_48" data-name="Caminho 48" class="cls-22" d="M1499.45,506.1a2.74,2.74,0,0,1,2.77.27,1.75,1.75,0,0,1-1.58,3.06c-.52.36-2.49,2.27-5.22,11.3-3.5,11.58-6.94,30.31-10.26,55.68a1.74,1.74,0,0,1-2,1.52h-.08a1.78,1.78,0,0,1-1.46-2C1487.41,532.05,1493.39,508.54,1499.45,506.1Z"/><path id="Caminho_49" data-name="Caminho 49" class="cls-23" d="M1481.89,588.16h.1c1.09.15,2,.1,2.18-1,.39-3.31,1.07-7.48,1.49-10.65.13-1.08-1.05-.91-2.14-1.06s-1.88-.4-2,.69c-.41,3.17-.87,7.23-1.27,10.55-.13,1,.6,1.27,1.67,1.44Z"/><path id="Caminho_50" data-name="Caminho 50" class="cls-25" d="M1610.66,439.41c-.46,6.24-19.09,61.26,6.94,47.84h0c-5.55,9.34-17.34,18.23-28.66,11.13-2,8.9,5.92,14.36,13.58,14.22-15,5.17-28.94,5.54-42.18-3.78,1.21,2.18.34,4.9,1.52,7.77-13.69-3.09-31-3.67-39.08-17.47-14.8,2.42-39.1,11.06-52.23.36a24.44,24.44,0,0,0,4.84-9.4c-9.72,9-25.13.95-35.26-3.27h0c20.82.82,32.63-27.54,32.31-42.19Z"/><path id="Caminho_51" data-name="Caminho 51" class="cls-3" d="M1472.49,417.27a73,73,0,0,0,1.21-9.08c1-7,2.75-13.7,7.92-19.3,10-11.32,24-19.06,40.08-18.15,28.17,1.57,56.84,10,70.8,35.59,9.59,16,5.49,36-2.48,52.16a9,9,0,0,1,3.93,1.82c7,5,8,16.05,1.68,22.78-2.81,3.45-6.41,7.4-11.5,9-4,.74-9-.05-12-2.46-7.55,7.26-14.71,14.11-27.84,16.6-26.62,3.54-57.71-.05-74.69-24.25C1455.8,461,1468.18,439.47,1472.49,417.27Z"/><path id="Caminho_52" data-name="Caminho 52" class="cls-26" d="M1569,471.7c1.89-8.4,2.49-17.11,3.73-25.66-23.68,11.67-49.44-9.74-56.72-31.75-2.83,9.56-1.86,23.36,9.5,27.26-22.86-1.05-41.28-24.9-40.38-47.1a65.49,65.49,0,0,0-11.44,14.2c0-.14,0-.3,0-.44,1-7,2.75-13.71,7.92-19.3,10-11.33,24-19.06,40.07-18.16,28.18,1.57,56.85,10,70.8,35.59,9.6,16,5.5,36-2.47,52.16a3.31,3.31,0,0,1,.42.12C1582.08,459.91,1574.31,465.19,1569,471.7Z"/><path id="Caminho_53" data-name="Caminho 53" class="cls-26" d="M1505.32,459.51c.74,1.81,1.28,3.79,0,5.37-.79.5-2.29-1.88-3.44-2.82C1502.87,460.84,1504.29,460.29,1505.32,459.51Z"/><path id="Caminho_54" data-name="Caminho 54" class="cls-26" d="M1517.57,493.86a6.33,6.33,0,0,1-3.77,2.81c-2.09.21-3.23-.73-4.24-2.31a7.86,7.86,0,0,0,8-.5Z"/><path id="Caminho_55" data-name="Caminho 55" class="cls-25" d="M1466.75,439.64c-10.29-19.7-2.54-46.29-2.54-46.29,12.1-45.88,38.4-33.88,38.4-33.88,25.78-25.61,73.61,3.71,73.61,3.71,61.47,36.11,37.68,100.17,23.6,107.27-6.57-18.42-24.72-4.95-24.72-4.95,2.1-9.34,1.38-26,1.38-26-15.33,24.69-63.13-22.61-62.09-45.1,0,0-5.6,38.88,11.5,40.05,0,0-35.7,0-36.31-44.73,0,0-14.86,14.26-16.54,27.7Z"/><g id="Grupo_1" data-name="Grupo 1" class="cls-27"><path id="Caminho_56" data-name="Caminho 56" class="cls-25" d="M1568.78,397.22a4.63,4.63,0,0,0-3.39-.25c-6.17,3-9.35,11.25-16.17,11.17-14.11.68-26.77-12.61-28.3-26.78,9.65,7.95,21.29,17.75,34.9,12.35,5.27-2.17,6.22-9.35,9.83-12,3.21-3.18,9.24,1.95,14.38,1.47,4.27-.11,8.27-2.38,9.43-6.55a15.72,15.72,0,0,0,.76-3.51,73.09,73.09,0,0,1,20.9,28C1597.67,406.73,1581.54,404.22,1568.78,397.22Z"/></g><path id="Caminho_57" data-name="Caminho 57" class="cls-28" d="M1475,408.5a72.89,72.89,0,0,1-1.21,9.07C1474.2,414.54,1474.54,411.5,1475,408.5Z"/><path id="Caminho_58" data-name="Caminho 58" class="cls-29" d="M1555.44,447.93c1.82-7.19-2.86-15.93-10.37-17.4a1,1,0,0,1,.39-2h0c8.55,1.68,14.13,11.5,12,19.82C1557.16,449.6,1555.11,449.22,1555.44,447.93Z"/><path id="Caminho_59" data-name="Caminho 59" class="cls-29" d="M1492,416c-7-2.26-12.88.55-14.25,7-.23,1.08-2,.18-1.75-.87,1.52-7.14,8.17-10.4,16-7.87,1.15.36,1.21,2.14,0,1.76Z"/><path id="Caminho_60" data-name="Caminho 60" class="cls-30" d="M1485.67,431.42a6.13,6.13,0,0,0-1.82,4.38c0,1.71.8,3.87,2.32,3.95a.59.59,0,0,0,.51-.56,14.1,14.1,0,0,0-.68-3.63c-.22-1.34,0-2.75-.23-4.07,0-.05-.06-.1-.1-.06Z"/><path id="Caminho_61" data-name="Caminho 61" class="cls-31" d="M1494.93,446.92c-.61,6.09-4.43,10.82-8.47,10.57s-6.87-5.35-6.25-11.43,4.43-10.81,8.47-10.57S1495.55,440.87,1494.93,446.92Z"/><path id="Caminho_62" data-name="Caminho 62" class="cls-32" d="M1487.81,455.36c2.73-.25,5-3.86,5-8s-2.11-7.35-4.84-7.08-5,3.85-5,8S1485.07,455.61,1487.81,455.36Z"/><path id="Caminho_63" data-name="Caminho 63" class="cls-33" d="M1487.81,452.67c1.61-.15,2.94-2.27,3-4.74s-1.26-4.35-2.87-4.2-3,2.27-3,4.74S1486.19,452.83,1487.81,452.67Z"/><path id="Caminho_64" data-name="Caminho 64" class="cls-31" d="M1488.82,447.25c.7,0,1.3-.87,1.33-2.05s-.5-2.17-1.21-2.22-1.29.86-1.33,2S1488.12,447.21,1488.82,447.25Z"/><path id="Caminho_65" data-name="Caminho 65" class="cls-34" d="M1486.72,448.85a4.8,4.8,0,0,0-3.35,2.51c.74,2.52,2.42,4.16,4.43,4l.15,0c.08-1.64.55-3.46.71-4.84a1.59,1.59,0,0,0-1.51-1.67,1.46,1.46,0,0,0-.42,0Z"/><path id="Caminho_66" data-name="Caminho 66" class="cls-30" d="M1536.89,440.33a5.65,5.65,0,0,0-1.82,4.19c0,1.65.87,3.73,2.42,3.82a.52.52,0,0,0,.52-.52c.09-1.21-.51-2.37-.73-3.51-.25-1.29-.07-2.65-.29-3.91,0,0-.07-.1-.11-.07Z"/><path id="Caminho_67" data-name="Caminho 67" class="cls-31" d="M1546.51,455.37c-.55,5.84-4.36,10.35-8.47,10.06s-7-5.25-6.49-11.09,4.36-10.34,8.48-10.06S1547.05,449.53,1546.51,455.37Z"/><path id="Caminho_68" data-name="Caminho 68" class="cls-32" d="M1539.89,463.37c2.75-.21,5-3.63,5-7.66s-2.23-7.1-5-6.86-5,3.63-5,7.64S1537.12,463.59,1539.89,463.37Z"/><path id="Caminho_69" data-name="Caminho 69" class="cls-33" d="M1539.25,460.89c1.63-.13,3-2.16,3-4.52s-1.32-4.2-3-4.09-3,2.16-3,4.54S1537.63,461,1539.25,460.89Z"/><path id="Caminho_70" data-name="Caminho 70" class="cls-31" d="M1542,455.14c.72.05,1.31-.82,1.33-2s-.54-2.1-1.25-2.16-1.32.83-1.34,2S1541.26,455.09,1542,455.14Z"/><path id="Caminho_71" data-name="Caminho 71" class="cls-34" d="M1538.72,457.11a4.73,4.73,0,0,0-3.38,2.37c.79,2.42,2.52,4,4.55,3.9h.15c.06-1.57.52-3.33.66-4.63a1.64,1.64,0,0,0-1.61-1.68A1.55,1.55,0,0,0,1538.72,457.11Z"/><path id="Caminho_72" data-name="Caminho 72" class="cls-35" d="M1502.94,485.81c-4.74-6.69-7.61-15.74-7.61-15.74s11.24,4.8,27.58,3.88a51.6,51.6,0,0,1-1,5.78C1515.05,479.14,1508.53,481.72,1502.94,485.81Z"/><path id="Caminho_73" data-name="Caminho 73" class="cls-36" d="M1522,479.71c-1.34,6-4.34,14.29-10.55,12.92-3.21-.7-6.05-3.47-8.47-6.84C1508.53,481.72,1515.05,479.14,1522,479.71Z"/><g id="Grupo_2" data-name="Grupo 2" class="cls-37"><path id="Caminho_74" data-name="Caminho 74" class="cls-3" d="M1590.3,469.38c2.45.87,3.28,4.13,3.2,7.05-.8-2.72-2.49-5.4-5-5.23a7.37,7.37,0,0,0-5.25,2.24c1.67-.61,3.2-1.87,4.8-.74a5.75,5.75,0,0,1,2,5.58c-1.21-3.07-5.08-4.92-7.93-3.49a5,5,0,0,0-1.72,1.5,5.21,5.21,0,0,1,.79-.13c1.63-.16,3.25.42,2.42,1.81-.6,1-2.81,1-3,2.43-.52,2.33,2.75,3.17,4.77,2.39a5.28,5.28,0,0,1-7.18-1l-.1-.18a17.11,17.11,0,0,1-1.59,2.27C1577.11,476.56,1581.16,466.17,1590.3,469.38Z"/></g><ellipse id="Elipse_1" data-name="Elipse 1" class="cls-7" cx="1714.66" cy="888.18" rx="96.82" ry="9.08"/><path id="Caminho_75" data-name="Caminho 75" class="cls-38" d="M1734.37,707.19l-38.54-16.89-18.06-25.67.09,0c-5.41-7.47-7.43-11.29-7.31-14.85s.6-7,.72-10.43a19.29,19.29,0,0,0-.87-5.33c-2-7.47-2.5-14.47-4.47-21.93a4.45,4.45,0,0,0-.7-1.68,2.61,2.61,0,0,0-3.71,0l-.14.14c-1,1.08-.64,2.27-.63,3.8,0,5.62,3.73,10.58,1.34,17a136.68,136.68,0,0,0-10.66-18.91c-4.17-4.45-5.22.9-3.74,4.14.77,1.67,2.2,4.47,3,6.12,1.64,3.39,4,6.71,5.69,10.09-2.24-1.44-5.27-2.83-7.27-1a6.47,6.47,0,0,0-1.21,1.77,38.28,38.28,0,0,0-3.08,8.42,8.38,8.38,0,0,0-.29,3.41,9.2,9.2,0,0,0,1.38,3.12c2.19,3.63,6.52,6.87,9.55,9.75s5.67,8.7,10.1,13.8l19.74,28.08a7.13,7.13,0,0,0,3,2.42l40.36,17.7a7.11,7.11,0,0,0,5.72-13Z"/><path id="Caminho_76" data-name="Caminho 76" class="cls-39" d="M1656.14,649.67a9.41,9.41,0,0,1,4.42,8.12c-1.62-4.21-4.72-5.8-8.41-8.1A9.42,9.42,0,0,1,1656.14,649.67Z"/><path id="Caminho_77" data-name="Caminho 77" class="cls-39" d="M1645.92,642.14a.41.41,0,0,1,.34.46,3.09,3.09,0,0,0,1.62,3,2.74,2.74,0,0,0,3-.63v-.27l-.51-6.58a.44.44,0,0,1-.09-.27v-.61a.4.4,0,0,1,.38-.4.4.4,0,0,1,.39.38l.58,7.39a1.1,1.1,0,0,0,0,.36.54.54,0,0,1,0,.18,4,4,0,0,0,.6,2,2.67,2.67,0,0,0,2.19,1,7.64,7.64,0,0,0,2.36-.49c0-2.67.18-5.36.44-8a.4.4,0,0,1,.09-.21l-.09,0-.5-.18a6.74,6.74,0,0,1-2.42-1.29,3.67,3.67,0,0,1-1-3.77c.64-1.57,2.48-1.48,3.09-1.46,3,.14,7.32.67,10.8,3.63a4.79,4.79,0,0,1,1.25,1.51,7.07,7.07,0,0,1,.5,3l.17,8.75a.42.42,0,0,1-.38.43.4.4,0,0,1-.4-.4h0l-.17-8.74a6.45,6.45,0,0,0-.42-2.61,4.08,4.08,0,0,0-1-1.25c-3.27-2.81-7.26-3.33-10.36-3.47-1.32-.06-2,.23-2.33,1a2.81,2.81,0,0,0,.83,2.8,6,6,0,0,0,2.15,1.13l.51.19a15.37,15.37,0,0,1,4.84,3.07.42.42,0,0,1,.14.32.48.48,0,0,1-.15.32c-1.81,1.59-2,5.57-.37,7.74a.46.46,0,0,1-.06.61.42.42,0,0,1-.28.1.39.39,0,0,1-.27-.15c-1.81-2.42-1.67-6.54.15-8.58a15.06,15.06,0,0,0-3.52-2.28c-.27,2.72-.42,5.48-.43,8.22a.43.43,0,0,1-.28.4,8.86,8.86,0,0,1-2.87.6h-.3a3.25,3.25,0,0,1-2.49-1.28A3.91,3.91,0,0,1,1651,646a3.52,3.52,0,0,1-2.36.7,3.08,3.08,0,0,1-1.12-.28,3.91,3.91,0,0,1-2.08-3.86.41.41,0,0,1,.41-.4Z"/><g id="Grupo_3" data-name="Grupo 3" class="cls-37"><path id="Caminho_78" data-name="Caminho 78" class="cls-38" d="M1734.37,707.19l-30.86-13.53a40.25,40.25,0,0,1-9.68,11.27l34.83,15.28a7.11,7.11,0,0,0,5.71-13Z"/></g><path id="Caminho_79" data-name="Caminho 79" class="cls-40" d="M1702.83,693l-7.56,19.78s22.31,7.18,28.12,8.15,11.37-15.61,11.37-15.61Z"/><path id="Caminho_80" data-name="Caminho 80" class="cls-41" d="M1702.83,693l-7.56,19.78s1.63.53,4.11,1.31l7.5-19.52Z"/><path id="Caminho_81" data-name="Caminho 81" class="cls-41" d="M1712.44,696.71c-2.35,6.43-5,12.84-7.65,19.07,1.87.6,3.87,1.21,5.85,1.77,2.43-6.19,5.15-12.25,7.68-18.56Z"/><path id="Caminho_82" data-name="Caminho 82" class="cls-41" d="M1724,701.19c-3,5.83-6,11.69-8.42,17.81,2,.61,4.45,1.15,6,1.51,2.63-5.84,4.84-11.7,8.1-17.15Z"/><path id="Caminho_83" data-name="Caminho 83" class="cls-42" d="M1661.59,857.38a53.45,53.45,0,0,0,10.06-4.75,13.31,13.31,0,0,1-6.91-3.85c-1.92,1.27-4.91,3.31-8,5.68C1657.57,856.36,1659.28,857.82,1661.59,857.38Z"/><path id="Caminho_84" data-name="Caminho 84" class="cls-43" d="M1683.54,859.29c0-2.1-.24-5.68-1-7.62a18,18,0,0,1-10.86,1,53.08,53.08,0,0,1-10.05,4.75c-2.31.44-4-1-4.84-2.92-4.88,3.76-9.93,8.32-11.2,11.85C1657.6,873.31,1671.66,866.4,1683.54,859.29Z"/><path id="Caminho_85" data-name="Caminho 85" class="cls-44" d="M1645.57,866.31a4.23,4.23,0,0,0-.27,2.08c1.13,6.88,27.17,5.8,38.25-7.46v-1.64C1671.66,866.4,1657.6,873.31,1645.57,866.31Z"/><path id="Caminho_86" data-name="Caminho 86" class="cls-3" d="M1692,834.11l17.29-30.26-15.68-3.41-16.81,29.43C1680.8,833.42,1686.47,834.72,1692,834.11Z"/><path id="Caminho_87" data-name="Caminho 87" class="cls-45" d="M1676.72,829.88l-9.83,17.51s-.82.51-2.14,1.39c4.19,4.58,11.85,5.4,17.75,2.9a1.84,1.84,0,0,0-.19-.4l9.64-17.17C1686.47,834.72,1680.8,833.42,1676.72,829.88Z"/><path id="Caminho_88" data-name="Caminho 88" class="cls-3" d="M1749.84,845.47l-2.07-29.55-15.62.46,2.42,31.54A22.2,22.2,0,0,0,1749.84,845.47Z"/><path id="Caminho_89" data-name="Caminho 89" class="cls-45" d="M1734.55,847.92l1.65,20c2.68,2.59,6.82,2.42,10.07,1.89a9,9,0,0,0,5.07-3.58l-1.5-20.73A22.26,22.26,0,0,1,1734.55,847.92Z"/><path id="Caminho_90" data-name="Caminho 90" class="cls-42" d="M1759.52,875.47c1.38,0,2.2-1.15,2.7-2.55a121.87,121.87,0,0,0-10.89-6.61v-.13a8.82,8.82,0,0,1-4.49,3.39C1751.05,871.91,1754.68,875.9,1759.52,875.47Z"/><path id="Caminho_91" data-name="Caminho 91" class="cls-44" d="M1766.34,886.68c-11.9,4-22.56-3.24-30.81-8.8a6.71,6.71,0,0,0,1.48,3.43c3.3,3.58,25.19,12.1,33.32,7.14,0,0,2.51-1.74-.08-7.11C1769.17,883.09,1768.47,886,1766.34,886.68Z"/><path id="Caminho_92" data-name="Caminho 92" class="cls-43" d="M1762.23,873c-.52,1.4-1.34,2.6-2.71,2.55-4.84.4-8.47-3.59-12.71-5.9l-.6.19c-3.25.52-7.39.7-10.07-1.89v.16s-1.36,5.6-.61,9.84c8.25,5.56,18.9,12.77,30.8,8.8,2.14-.72,2.84-3.6,3.92-5.35a24.09,24.09,0,0,0-1.4-2.47C1767.7,877.07,1765.09,874.94,1762.23,873Z"/><path id="Caminho_93" data-name="Caminho 93" class="cls-46" d="M1706,763.79l-20.84,42.61s4.84,6,10.63,8.85a30.09,30.09,0,0,0,10.37,3s15.06-27.87,17.86-27.32,3.08,31.8,3.08,31.8c-.78-.5,3.94,3.42,12.71,2.45a61.68,61.68,0,0,0,11.8-2.36s-.56-40.95.7-45.53S1706,763.79,1706,763.79Z"/><path id="Caminho_94" data-name="Caminho 94" class="cls-38" d="M1774.29,741.25s41.79,28.4,43.79,33.48,7.54,6.28,7.54,6.28,5.12,7.43,8.38,5.67-6-11.5-5.2-13.14a2.47,2.47,0,0,1,1-.87c.6.2,15.8,5,16.39,2.93.29-1-1.29-2.15-3-3.1,4.67-.6,8.18-2.07,8-3.49-.11-1.17-2.49-1.34-5.17-1.16,5.76-2.62,6.94-5.44,4.24-5.15-3.92.45-25.06,1.21-25.06,1.21l-44.5-33.33Z"/><path id="Caminho_95" data-name="Caminho 95" class="cls-39" d="M1788.73,736.64l-8.08-6-6.36,10.66s4.41,3,10.43,7.22A17.31,17.31,0,0,0,1788.73,736.64Z"/><path id="Caminho_96" data-name="Caminho 96" class="cls-39" d="M1846.47,767.62c3.36-1.61,5-3.26,5.13-4.19-5.45,4.53-13.7,5-20,7.54-1.21.6-2.92,1.21-2.84,2.59h0a2.24,2.24,0,0,1,1-.87c.61.2,15.81,5,16.39,2.92.29-1-1.28-2.15-3-3.1,4.66-.6,8.17-2.07,8-3.49-.07-.71-1-1-2.28-1.17-2.37.39-4.74,1.21-7.11,1.57C1843.55,768.81,1844.89,768.22,1846.47,767.62Z"/><path id="Caminho_97" data-name="Caminho 97" class="cls-40" d="M1762.42,715.38c5.21,2.25,26.3,20.1,26.3,20.1s.4,7.41-9.8,13.92l-15.59-13.8S1758,713.45,1762.42,715.38Z"/><path id="Caminho_98" data-name="Caminho 98" class="cls-41" d="M1774.21,723.65c-1.6-1.25-3.21-2.48-4.69-3.59a51.62,51.62,0,0,1-6.72,13.24c.31,1.4.53,2.29.53,2.29l2.65,2.35A29.25,29.25,0,0,0,1774.21,723.65Z"/><path id="Caminho_99" data-name="Caminho 99" class="cls-41" d="M1782.87,730.62l-4.65-3.78a27.49,27.49,0,0,1-8.9,14l4.3,3.81A36.07,36.07,0,0,0,1782.87,730.62Z"/><path id="Caminho_100" data-name="Caminho 100" class="cls-41" d="M1786.22,733.38c-1.38,5.54-5.4,9.91-9.89,13.71l2.6,2.3c10.19-6.5,9.79-13.92,9.79-13.92Z"/><path id="Caminho_101" data-name="Caminho 101" class="cls-40" d="M1762.42,715.38c-3.57-1.53-.85,12.3.38,17.92a51.27,51.27,0,0,0,6.71-13.24A48.55,48.55,0,0,0,1762.42,715.38Z"/><path id="Caminho_102" data-name="Caminho 102" class="cls-38" d="M1751.32,715.11c3.42.13,6.27-1.68,8.78-4.07a50.87,50.87,0,0,0-10.28-4.15,31.55,31.55,0,0,0-11-1.82C1739.92,710.87,1745.54,714.84,1751.32,715.11Z"/><path id="Caminho_103" data-name="Caminho 103" class="cls-47" d="M1753.88,718.8c3.66-.68,6.54-3.13,9.29-5.72a22.92,22.92,0,0,0-3.07-2.07c-2.51,2.39-5.36,4.21-8.78,4.08-5.78-.25-11.4-4.24-12.49-10.07a37,37,0,0,0-4.07.31C1734.06,715,1744.83,720.59,1753.88,718.8Z"/><path id="Caminho_104" data-name="Caminho 104" class="cls-40" d="M1763.16,713.08c-2.75,2.59-5.63,5-9.29,5.72-9.08,1.79-19.82-3.77-19.12-13.47-1.56.18-1.67-.87-2.83-1.07-4.59-.77-11.15,17.37-11.15,17.37-.35,1.1-20.61,51-20.61,51s14.06,14,25.5,16.38,29.95.8,29.95.8l13.7-70.13A32.7,32.7,0,0,0,1763.16,713.08Z"/><path id="Caminho_105" data-name="Caminho 105" class="cls-41" d="M1735.81,711.07a11.24,11.24,0,0,1-1-5.74,12.58,12.58,0,0,0-2.83-1.07c-.47-.08-.79-.35-1.61-.6a10.87,10.87,0,0,0,5.49,7.41Z"/><path id="Caminho_106" data-name="Caminho 106" class="cls-41" d="M1768,726.7c-15.18-2.42-30.13-5.65-44.24-11.8-1.43,2.9-2.5,5.57-2.83,6.43,14,8.07,29.71,11.57,45.64,12.67Z"/><path id="Caminho_107" data-name="Caminho 107" class="cls-41" d="M1765,741.93a131.34,131.34,0,0,1-46.69-14.06c-1,2.42-2.17,5.41-3.49,8.68,14.52,9.31,31.35,12.7,48.16,15.69Z"/><path id="Caminho_108" data-name="Caminho 108" class="cls-41" d="M1761.19,761.3c-17.24-3.28-34.31-8.61-49.22-17.76-1.12,2.78-2.27,5.62-3.39,8.38,14.53,10.92,33.16,14.66,51.16,16.84Z"/><path id="Caminho_109" data-name="Caminho 109" class="cls-41" d="M1757.18,781.87l1-5.29c-18.24-2.6-38-5.56-52.65-17.27-1.06,2.59-2,5-2.82,7C1716.59,781.51,1737.74,782.66,1757.18,781.87Z"/><path id="Caminho_110" data-name="Caminho 110" class="cls-41" d="M1763.15,713.08a26.71,26.71,0,0,1-6.26,4.71c4,.69,8.14,1.21,12.24,1.66A34.07,34.07,0,0,0,1763.15,713.08Z"/><path id="Caminho_111" data-name="Caminho 111" class="cls-3" d="M1756.46,707a6.17,6.17,0,0,1-6.17,6.17h0a6.17,6.17,0,0,1-6.17-6.17h0V704.3a6.17,6.17,0,0,1,6.17-6.13h0a6.16,6.16,0,0,1,6.17,6.16Z"/><path id="Caminho_112" data-name="Caminho 112" class="cls-48" d="M1813.38,685.83c30.45-39.1,20.58-62.28,20.58-62.28-23.89-65.21-87-44.53-102.5-37.81s-30.72,15.13-31.7,15c0,0,1.08,5.84,3.91,7.09,0,0-2,37.61,7.6,57Z"/><path id="Caminho_113" data-name="Caminho 113" class="cls-3" d="M1830.33,685.67c.22-6.47-3.59-11.78-10-10.89a15.71,15.71,0,0,0-1.63.44c.16-.32.3-.61.43-.93l.11-.2c6.17-16-2.21-46-2.21-46-7.72,11.79-40.54,10.89-35.14,9.68s15.2-14.17,15.2-14.17c-15.25,18.2-68.54,1.64-68.54,1.64L1753.71,610c-17.22,7.33-29.65,7.75-36.88,6.89l-.19.17c-3.48,8.8-7.52,21.93-8.07,35.54a14.92,14.92,0,0,0-1.88-1.93c-5.22-3.83-11.08-1-14,4.84-5.4,11.92,7,24.12,18.66,19,5,14.56,17.08,27.15,42.09,32.32,24.52,5.07,41-1.41,52.15-12.39C1813.75,703.27,1829.48,698.34,1830.33,685.67Z"/><path id="Caminho_114" data-name="Caminho 114" class="cls-39" d="M1794.68,626.67c1.47-1.76,2.42-3,2.42-3-12,14.36-47.68,7.1-62.23,3.4a28.94,28.94,0,0,1-7.94,1.26C1748,637.11,1776.21,643.25,1794.68,626.67Z"/><path id="Caminho_115" data-name="Caminho 115" class="cls-39" d="M1738.78,619.09l14.94-9.08c-17.22,7.34-29.65,7.75-36.88,6.9l-.19.16a125,125,0,0,0-5.76,18.6c2.64-5.72,5.56-11.4,7.62-17.46A196,196,0,0,0,1738.78,619.09Z"/><path id="Caminho_116" data-name="Caminho 116" class="cls-39" d="M1814.36,636.1c1.6,11.73,6.08,23.2,5.87,34.94,4.2-16.47-3.18-42.91-3.18-42.91-5.45,8.31-23.34,10.29-31.55,10.35a23.36,23.36,0,0,1-7.77,2.5C1789.71,641.74,1803.7,643,1814.36,636.1Z"/><path id="Caminho_117" data-name="Caminho 117" class="cls-49" d="M1777.79,680c-7.86-2.42-11.26-3.84-17.21-5.16-12-3.39-20.34-3-20.34-3a42.67,42.67,0,0,0,1,11.82c0,.22.11.43.17.65,10.35-1.61,22.11,1.76,29,9.13.27-.27.54-.55.78-.82A33.32,33.32,0,0,0,1777.79,680Z"/><path id="Caminho_118" data-name="Caminho 118" class="cls-50" d="M1741.41,684.25c1.61,6.18,5.23,12.64,13.28,14.07a16.88,16.88,0,0,0,15.7-5C1763.52,686,1751.77,682.61,1741.41,684.25Z"/><path id="Caminho_119" data-name="Caminho 119" class="cls-51" d="M1724.09,642.09c.22-6.82,6.45-12,13.13-11.63a1,1,0,0,0,1-1,1,1,0,0,0-.93-1c-7.76-.37-15,5.62-15.28,13.56a1,1,0,0,0,2,.12Z"/><path id="Caminho_120" data-name="Caminho 120" class="cls-51" d="M1793.66,641.11c9,.54,12.94,9.43,11.08,17.51-.29,1.28,1.65,1.94,1.94.67,2.16-9.37-2.42-19.6-12.9-20.22a1,1,0,0,0-.12,2Z"/><path id="Caminho_121" data-name="Caminho 121" class="cls-39" d="M1781.76,666.23a7.35,7.35,0,0,0,4.28,9.5l.38.14a8.1,8.1,0,0,0,9.8-5.32,7.36,7.36,0,0,0-4.27-9.5l-.39-.14A8.12,8.12,0,0,0,1781.76,666.23Z"/><path id="Caminho_122" data-name="Caminho 122" class="cls-31" d="M1782.32,666.25a7,7,0,0,0,4,9.13l.42.15a7.86,7.86,0,0,0,9.43-5.17,7,7,0,0,0-4-9.13l-.42-.15A7.87,7.87,0,0,0,1782.32,666.25Z"/><path id="Caminho_123" data-name="Caminho 123" class="cls-52" d="M1786.19,672.7a5.1,5.1,0,0,1-3-6.5,5,5,0,0,1,6.07-3.47l.08,0a5.13,5.13,0,0,1,3,6.49,4.94,4.94,0,0,1-6.06,3.48Z"/><path id="Caminho_124" data-name="Caminho 124" class="cls-53" d="M1787,670.54a3,3,0,0,1-1.82-3.85,2.93,2.93,0,0,1,3.6-2.06h0a3.06,3.06,0,0,1,1.82,3.85,2.94,2.94,0,0,1-3.6,2.06Z"/><path id="Caminho_125" data-name="Caminho 125" class="cls-31" d="M1785.35,666.82a1.26,1.26,0,0,1-.87-1.56.49.49,0,0,0,0-.11,1.5,1.5,0,0,1,1.64-1.16,1.26,1.26,0,0,1,.86,1.56s0,.07,0,.11A1.49,1.49,0,0,1,1785.35,666.82Z"/><path id="Caminho_126" data-name="Caminho 126" class="cls-54" d="M1788.62,668.71a4.5,4.5,0,0,1,2.65,2.46,4.72,4.72,0,0,1-5.08,1.53l-.14,0a31.48,31.48,0,0,0,.37-3.35C1786.52,668.59,1787.69,668.32,1788.62,668.71Z"/><path id="Caminho_127" data-name="Caminho 127" class="cls-39" d="M1727.21,654.76a7.36,7.36,0,0,0,4.93,9.16l.42.11a8.1,8.1,0,0,0,9.39-6,7.38,7.38,0,0,0-5-9.17l-.39-.11A8.11,8.11,0,0,0,1727.21,654.76Z"/><path id="Caminho_128" data-name="Caminho 128" class="cls-31" d="M1727.77,654.74a7.08,7.08,0,0,0,4.7,8.83l.39.1a7.86,7.86,0,0,0,9-5.84,7.05,7.05,0,0,0-4.68-8.81l-.42-.12A7.88,7.88,0,0,0,1727.77,654.74Z"/><path id="Caminho_129" data-name="Caminho 129" class="cls-52" d="M1735.09,661.08a5.15,5.15,0,0,1-3.51-6.26,4.92,4.92,0,0,1,5.76-3.91l.12,0a5.13,5.13,0,0,1,3.5,6.25,4.94,4.94,0,0,1-5.78,3.92Z"/><path id="Caminho_130" data-name="Caminho 130" class="cls-53" d="M1736.13,658.92a3,3,0,0,1-2.07-3.7,2.92,2.92,0,0,1,3.43-2.32h0a3.07,3.07,0,0,1,2.08,3.72,2.94,2.94,0,0,1-3.44,2.31h0Z"/><path id="Caminho_131" data-name="Caminho 131" class="cls-31" d="M1733.82,655.27a1.26,1.26,0,0,1-1-1.49.56.56,0,0,1,0-.12,1.5,1.5,0,0,1,1.54-1.27,1.26,1.26,0,0,1,1,1.5l0,.1A1.49,1.49,0,0,1,1733.82,655.27Z"/><path id="Caminho_132" data-name="Caminho 132" class="cls-54" d="M1737.22,656.91a4.52,4.52,0,0,1,2.82,2.27,4.72,4.72,0,0,1-5,1.9L1735,661a31.17,31.17,0,0,0,.13-3.35C1735.12,657,1736.27,656.61,1737.22,656.91Z"/><path id="Caminho_133" data-name="Caminho 133" class="cls-39" d="M1702.19,654.55c-2.51-.72-4,1.64-4.6,4.28,1.88-2,5.13-2.65,7-1.67,3.76,2.36-2.36,3.77-1.7,5.86.24,1.34,3.85-.15,4.1,1.21.32,3.27-3.19,2.24-5.11,2.32-2.69.49,3.49,5.45,4.59,3.87C1710.36,665.81,1708.8,655.84,1702.19,654.55Z"/><path id="Caminho_134" data-name="Caminho 134" class="cls-39" d="M1822.12,681.64c2.57.49,2.87,3.29,2.17,5.89-.8-2.59-3.39-4.68-5.5-4.66-4.43.4.39,4.42-1.15,6-.83,1.08-3.36-1.88-4.19-.8-1.77,2.77,1.81,3.45,3.51,4.39,2.16,1.65-5.59,3.28-5.85,1.38C1809.75,688,1815.65,679.79,1822.12,681.64Z"/><path id="Caminho_135" data-name="Caminho 135" class="cls-39" d="M1759.11,669.6s3.45,1.52,4.17.53,0-2.91,0-2.91A5,5,0,0,1,1759.11,669.6Z"/><ellipse id="Elipse_2" data-name="Elipse 2" class="cls-7" cx="1319.01" cy="892.01" rx="119.84" ry="12.87"/><path id="Caminho_136" data-name="Caminho 136" class="cls-38" d="M1323.29,863.84l-11.42-61.25-13.45,2.68,11.41,61.25,13.46-2.68Z"/><path id="Caminho_137" data-name="Caminho 137" class="cls-39" d="M1299.75,812.38l-1.35-7.1,13.45-2.67,1.49,8C1309.81,814,1304.57,813.79,1299.75,812.38Z"/><path id="Caminho_138" data-name="Caminho 138" class="cls-31" d="M1309.83,866.52l-4.92-26.42c4.54,1.55,10,.8,13.32-3.37l5,27.11Z"/><path id="Caminho_139" data-name="Caminho 139" class="cls-55" d="M1276.75,886.89c3.75-10.53,21.85-21.36,32-26.78a4.38,4.38,0,0,0,2.92,3.5c3.84.47,10.37-1.25,10.66-5.67,4.85,6.31,8.26,14.09,6.83,19.85-.74,3-5,4.94-8.71,7.54C1314.14,889.78,1269.71,907,1276.75,886.89Z"/><path id="Caminho_140" data-name="Caminho 140" class="cls-56" d="M1276.36,888.18c.94,5.45,6.8,6.74,12.1,6.06,15-2.52,29.79-8.48,40.94-19.3a11.45,11.45,0,0,1-.31,2.86c-.75,3-5,4.94-8.72,7.54C1314.26,889.68,1271.73,906.2,1276.36,888.18Z"/><path id="Caminho_141" data-name="Caminho 141" class="cls-31" d="M1308.19,872.63c-.13,1.25-2,1.76-2.28.33-.49-2.6-3-4.67-5.2-5.78a10.36,10.36,0,0,0-2.85-.71c1.06-.67,2.12-1.31,3.14-1.92a20.25,20.25,0,0,1,2.08,1.05C1305.14,866.83,1308.45,869.91,1308.19,872.63Z"/><path id="Caminho_142" data-name="Caminho 142" class="cls-31" d="M1303.1,876c-.12,1.24-2,1.76-2.27.32-.5-2.59-3-4.66-5.2-5.78a10.5,10.5,0,0,0-2.82-.7c1-.67,2-1.34,3-2a18.52,18.52,0,0,1,2.23,1.11C1300.06,870.14,1303.37,873.22,1303.1,876Z"/><path id="Caminho_143" data-name="Caminho 143" class="cls-31" d="M1297.39,879.86c-.13,1.24-2,1.75-2.28.32-.5-2.59-3-4.67-5.19-5.77a9.12,9.12,0,0,0-2.46-.65c.85-.69,1.74-1.36,2.63-2a17.12,17.12,0,0,1,2.19,1.08C1294.35,874.05,1297.66,877.13,1297.39,879.86Z"/><path id="Caminho_144" data-name="Caminho 144" class="cls-38" d="M1288.38,731.93l.47-15.25-.24,7.63.26-7.63c-.14,0-14-.6-32.78-8.67-17.28-7.42-42.49-22.79-64.37-54.13l-12,8.92C1226.07,729.14,1285.86,731.84,1288.38,731.93Z"/><g id="Grupo_4" data-name="Grupo 4" class="cls-37"><path id="Caminho_145" data-name="Caminho 145" class="cls-38" d="M1264.79,711.36c14.22,4.88,24,5.32,24.08,5.32l-.26,7.63.24-7.63-.24,7.63-.23,7.62c-1.14,0-14-.61-32.07-7.38C1259.46,720.68,1261.68,715.15,1264.79,711.36Z"/></g><path id="Caminho_146" data-name="Caminho 146" class="cls-38" d="M1208.1,664.56c.07-5.44,2.06-19.57-1.1-24-7-9.86-8.6,7.48-8.48,12.14-1.4-5.1-10.11-20.24-16.09-21.31-10.34-1.84-.93,12.54,2,16.3-2.86-2.5-12.65-12-15.29-5.76-1.81,4.32,7.3,10,9.91,12.35-3.36-1.82-15.06-8.1-15.52.26-.3,5.23,11.37,9.07,14.28,9.83-3.47-.29-15.09-2.29-13.85,4.64.92,5.16,11.65,3.94,15,5.32,5.4,2.2,7.6,5.56,14.1,4.18a23.26,23.26,0,0,0,12.9-7.32Z"/><path id="Caminho_147" data-name="Caminho 147" class="cls-39" d="M1180.44,669.62c1-7.2,2.88-15,8.73-19C1181.68,652.41,1178.32,661.75,1180.44,669.62Z"/><path id="Caminho_148" data-name="Caminho 148" class="cls-39" d="M1197.25,668.58c-1-4.3-2.78-8,0-11.55C1193.16,659.78,1192.16,666.19,1197.25,668.58Z"/><path id="Caminho_149" data-name="Caminho 149" class="cls-38" d="M1316.59,729.59c71.2-16.34,101.06-61,102.27-62.87l-12.21-8.54c-.27.4-28.14,41.58-93.27,56.52l3.19,14.89Z"/><g id="Grupo_5" data-name="Grupo 5" class="cls-37"><path id="Caminho_150" data-name="Caminho 150" class="cls-38" d="M1313.4,714.71a188.25,188.25,0,0,0,24.17-7.27,40.23,40.23,0,0,1,8.8,12.92,203.83,203.83,0,0,1-29.77,9.23Z"/></g><path id="Caminho_151" data-name="Caminho 151" class="cls-38" d="M1392.57,667.38c.19-5.45-1.08-19.66,2.31-23.9,7.53-9.46,8.2,7.94,7.86,12.59,1.65-5,11.13-19.67,17.15-20.41,10.42-1.29.3,12.56-2.79,16.16,3-2.33,13.26-11.32,15.57-4.92,1.59,4.4-7.79,9.58-10.52,11.79,3.45-1.62,15.44-7.26,15.49,1.11,0,5.22-11.82,8.47-14.75,9,3.47-.1,15.18-1.48,13.59,5.38-1.21,5.1-11.84,3.31-15.25,4.5-5.51,1.92-7.87,5.14-14.29,3.42-5.21-1.4-9.52-5-13-9.07Z"/><path id="Caminho_152" data-name="Caminho 152" class="cls-39" d="M1419.94,673.92c-.67-7.26-2.13-15.13-7.78-19.37C1419.57,656.66,1422.46,666.17,1419.94,673.92Z"/><path id="Caminho_153" data-name="Caminho 153" class="cls-39" d="M1403.2,672c1.21-4.24,3.17-7.8.55-11.53C1407.74,663.39,1408.4,669.86,1403.2,672Z"/><path id="Caminho_154" data-name="Caminho 154" class="cls-38" d="M1351.55,818a6.81,6.81,0,0,0,4.19-2c8.32-8.6,22.08-22.74,23.6-24.12a5.83,5.83,0,0,1-.8.61l-7.1-12.1c-.83.52-1.41.89-21.18,21.26-4.41-3.46-8.47-6.76-9.34-7.67a5.86,5.86,0,0,1,1,1.62l-12.46,5.88c.78,1.76,1.26,2.83,17.3,15.21a6.66,6.66,0,0,0,4.75,1.37Z"/><path id="Caminho_155" data-name="Caminho 155" class="cls-39" d="M1334,806.38c-3.66-3.12-4-3.94-4.49-5l12.46-5.87a5.86,5.86,0,0,0-1-1.62c.61.63,2.78,2.42,5.53,4.66C1344,803.37,1339.12,806.55,1334,806.38Z"/><path id="Caminho_156" data-name="Caminho 156" class="cls-31" d="M1361.12,790.4c9.18-9.39,9.68-9.68,10.32-10.11l7.1,12.1a6,6,0,0,0,.8-.6c-.69.6-3.87,3.85-7.92,8C1369.75,795,1365.83,791,1361.12,790.4Z"/><path id="Caminho_157" data-name="Caminho 157" class="cls-57" d="M1336.21,768.88l11.13,27.36a29.67,29.67,0,0,1-24,10.25l-6.53-17.65-.9,19.78s-6.1,4-13.09,3.53a14,14,0,0,1-11.64-4.59s-3.48-20.19-4.43-26.31S1336.21,768.88,1336.21,768.88Z"/><path id="Caminho_158" data-name="Caminho 158" class="cls-58" d="M1286.76,781.25c-1-6.11,49.45-12.37,49.45-12.37l5.31,13.07a44.13,44.13,0,0,1-23.91,8.91l-.76-2.05-.29,2.13c-9.41.56-19.25-1.21-29.08-3.85C1287.23,784.7,1287,782.62,1286.76,781.25Z"/><path id="Caminho_159" data-name="Caminho 159" class="cls-59" d="M1304.66,723.66c4.93-1.69,8.33-5.74,6-10.69a22.76,22.76,0,0,0-2.71-.53l-2.45.24a43.83,43.83,0,0,0-9.9.77l-1.39-.18C1289.33,719.49,1298.64,725.44,1304.66,723.66Z"/><path id="Caminho_160" data-name="Caminho 160" class="cls-60" d="M1329.74,733.71c-.31-.9-.66-1.82-1-2.71h1a50.41,50.41,0,0,0,16.45-2.94s-6.83-23.84-10.77-22.35c-3.14,1.21-16.74,5.12-22.22,6.66L1311,713l-.25-.06c2.28,4.94-1.13,9-6,10.68-6.05,1.78-15.37-4.16-10.4-10.39-6.12-.79-24.21-3.2-27.56-4.36-4.06-1.4-8,23.72-8,23.72A40.37,40.37,0,0,0,1281,735a172,172,0,0,0,1.89,22.21c1,6.88,1.46,24.65,1.46,24.65s9.87,4.23,17.74,4.68c17,1.21,31.06-2.66,45-12.67C1340.51,761,1334.33,747.64,1329.74,733.71Z"/><path id="Caminho_161" data-name="Caminho 161" class="cls-59" d="M1332.9,742.52c-.56-1.45-1.1-2.92-1.63-4.39-15.66,6-33,7.13-50,4.45.09,1.36.21,2.71.34,4C1298.49,750.94,1316.38,748.27,1332.9,742.52Z"/><path id="Caminho_162" data-name="Caminho 162" class="cls-59" d="M1336.62,751.67c-.51-1.18-1-2.36-1.51-3.54-16.79,6.4-35,8.7-52.79,4.69.19,1.51.38,3,.57,4.43l0,.23C1301.21,762.85,1319,756.87,1336.62,751.67Z"/><path id="Caminho_163" data-name="Caminho 163" class="cls-38" d="M1295.78,717a5.81,5.81,0,0,0,6.55,4.94h0a5.87,5.87,0,0,0,5.53-6.13l-.73-8a5.81,5.81,0,0,0-6.55-4.95h0A5.89,5.89,0,0,0,1295,709Z"/><path id="Caminho_164" data-name="Caminho 164" class="cls-38" d="M1363.18,676.67c-12.51,33.42-51.26,43.57-82.82,29.9s-46.85-61.5-28.79-93c17.62-30.72,47.32-38.2,79.12-25.19C1363.41,601.76,1380.92,629.28,1363.18,676.67Z"/><path id="Caminho_165" data-name="Caminho 165" class="cls-39" d="M1251.57,613.58c17.62-30.72,47.32-38.2,79.12-25.19,32.29,13.2,49.76,40.16,33.17,86.43,0-8.35.24-16.59-1.06-24.93a149.14,149.14,0,0,0-3.44-16.34c-.46-1.56-1-3.63-2.33-4.58-16.87-9.84-35.21-15.28-54.22-18.12a101.38,101.38,0,0,0-15.17-1,97.91,97.91,0,0,0-29.41,4c-1.21,6.38-2.87,12.82-4.52,19.09a52.3,52.3,0,0,1-2.9,7.78,18.69,18.69,0,0,1-6.82,7.71C1243.26,636.28,1245.57,624,1251.57,613.58Z"/><path id="Caminho_166" data-name="Caminho 166" class="cls-30" d="M1347.54,616.75l-.45-.1-.25-.56Z"/><path id="Caminho_167" data-name="Caminho 167" class="cls-39" d="M1296.66,662.84c.88,3.52,3.47,4.63,6,4.11,1-.07,1.65-1.59,1.85-3.35C1302.64,665,1299.41,664,1296.66,662.84Z"/><path id="Caminho_168" data-name="Caminho 168" class="cls-38" d="M1350.59,688.08c1.92-6.5,12.71-23.67,22.76-15.68,8.79,7-3.32,23.35-12,25.23-4.38,1-9.5-.64-11.55-4.27Z"/><path id="Caminho_169" data-name="Caminho 169" class="cls-39" d="M1370,678c-4.93-1.32-8.56,1.91-10.69,5.92h0c-1.4,2.49-1.06,5.57-.87,8.37,1.08-2,1.5-6.19,4.57-5.4,1.1.06,1.54,1.92.67,3.28,2.63-1.06,3.49-5.44-.46-5.9,1.53-1.12,2-3.33,4.15-3.21,2,.73.67,3.29,1.56,5C1370.2,683.5,1373.69,679,1370,678Z"/><path id="Caminho_170" data-name="Caminho 170" class="cls-38" d="M1251.53,667c1-5.82-1.6-23.55-14-21.53-10.83,1.76-6.72,19.4.34,24.47,3.55,2.55,8.82,3.44,12.18,1.48Z"/><path id="Caminho_171" data-name="Caminho 171" class="cls-39" d="M1238.27,651.18c5,1,6.92,5,7.16,9h0c.22,2.51-1.36,4.75-2.7,6.84-.16-2,1.21-5.41-1.87-6-1-.4-2.19.84-2,2.26-1.91-1.91-.85-5.67,2.89-4.37-.92-1.51-.38-3.38-2.43-4.2-2.08-.26-2,2.26-3.46,3.19C1235.78,655.33,1234.49,650.43,1238.27,651.18Z"/><path id="Caminho_172" data-name="Caminho 172" class="cls-39" d="M1327.36,664.08c-.29,5.86,3.88,10.58,9.31,10.55s10-4.8,10.34-10.65-3.89-10.58-9.32-10.55S1327.64,658.23,1327.36,664.08Z"/><path id="Caminho_173" data-name="Caminho 173" class="cls-31" d="M1327.72,665c.2,5.69,4.44,10,9.5,9.63s9-5.3,8.82-11-4.44-10-9.51-9.61S1327.54,659.28,1327.72,665Z"/><path id="Caminho_174" data-name="Caminho 174" class="cls-52" d="M1334.47,670.75c-3.39-.37-5.84-3.79-5.45-7.6s3.44-6.66,6.85-6.24,5.82,3.77,5.44,7.61S1337.88,671.13,1334.47,670.75Z"/><path id="Caminho_175" data-name="Caminho 175" class="cls-53" d="M1334,667.71a4,4,0,0,1-3.23-4.52,3.83,3.83,0,0,1,4-3.68h.06A4,4,0,0,1,1338,664,3.89,3.89,0,0,1,1334,667.71Z"/><path id="Caminho_176" data-name="Caminho 176" class="cls-31" d="M1332.71,662.46a1.65,1.65,0,0,1-1.48-1.81.78.78,0,0,1,0-.14,2,2,0,0,1,1.77-2,1.66,1.66,0,0,1,1.48,1.8.78.78,0,0,0,0,.14A2,2,0,0,1,1332.71,662.46Z"/><path id="Caminho_177" data-name="Caminho 177" class="cls-61" d="M1335.22,665.69a9.39,9.39,0,0,1-4.5,3,5.8,5.8,0,0,0,3.75,2h.13C1335.92,669.2,1336.94,667.35,1335.22,665.69Z"/><path id="Caminho_178" data-name="Caminho 178" class="cls-39" d="M1261.74,651c-.28,5.86,3.89,10.58,9.31,10.55s10.06-4.8,10.34-10.65-3.88-10.58-9.31-10.55S1262,645.19,1261.74,651Z"/><path id="Caminho_179" data-name="Caminho 179" class="cls-31" d="M1262.1,651.93c.19,5.69,4.43,10,9.49,9.63s9-5.3,8.83-11-4.45-10-9.51-9.63S1261.92,646.24,1262.1,651.93Z"/><path id="Caminho_180" data-name="Caminho 180" class="cls-52" d="M1272.67,657.85c-3.24-.36-5.59-3.64-5.22-7.27s3.29-6.35,6.55-6,5.57,3.63,5.21,7.26S1275.92,658.23,1272.67,657.85Z"/><path id="Caminho_181" data-name="Caminho 181" class="cls-53" d="M1273.69,655.35a3.8,3.8,0,0,1-3.1-4.31,3.69,3.69,0,0,1,3.83-3.53h0a3.82,3.82,0,0,1,3.1,4.31,3.69,3.69,0,0,1-3.83,3.54Z"/><path id="Caminho_182" data-name="Caminho 182" class="cls-31" d="M1271,649.89a1.58,1.58,0,0,1-1.41-1.75.5.5,0,0,1,0-.12,1.92,1.92,0,0,1,1.69-1.89,1.57,1.57,0,0,1,1.41,1.73.59.59,0,0,1,0,.13,1.94,1.94,0,0,1-1.69,1.9Z"/><path id="Caminho_183" data-name="Caminho 183" class="cls-61" d="M1273.39,653a9.07,9.07,0,0,1-4.3,2.9,5.48,5.48,0,0,0,3.59,1.93h.13C1274.08,656.36,1275,654.6,1273.39,653Z"/><path id="Caminho_184" data-name="Caminho 184" class="cls-30" d="M1266,626c5.28-5.93,11.75-3.42,18.43-3.58a.75.75,0,0,0,.31-1.39,14.83,14.83,0,0,0-10.8-1.94c-4.08.82-6.11,3-8.56,6.31-.33.45.24,1,.61.61Z"/><path id="Caminho_185" data-name="Caminho 185" class="cls-30" d="M1349.84,648c.4-9.16-9.42-15.93-17.7-13-.78.27-.53,1.42.19,1.55,7,1.21,14.74,3.07,16.46,11.5.12.57,1,.66,1,0Z"/><path id="Caminho_186" data-name="Caminho 186" class="cls-49" d="M1319,672.91c-26.63,2.8-40.4-7.55-40.4-7.55s-3.56,9.22-1,17.93c12.17-3.74,26.13,1.13,35.47,10.45C1320.32,686.5,1319,672.91,1319,672.91Z"/><path id="Caminho_187" data-name="Caminho 187" class="cls-50" d="M1277.58,683.29c1.78,6.08,6.53,11.92,17.55,14.19,8.78,1.82,14.38-.21,17.92-3.74C1303.7,684.42,1289.74,679.55,1277.58,683.29Z"/><path id="Caminho_188" data-name="Caminho 188" class="cls-55" d="M1410.11,808.35c-9.57,1.82-25.69-7.71-34.23-13.31a4,4,0,0,0,1.36-3.92c-1.34-3.25-6.72-8.41-10.18-6.65,2.61-6.72,8.18-12.25,13.15-13.72,2.59-.76,5.91,1.73,9.52,3.53C1395.83,777.26,1428.35,804.85,1410.11,808.35Z"/><path id="Caminho_189" data-name="Caminho 189" class="cls-56" d="M1411.29,808.07c3.7-3.23,2.07-8.47-.82-12.4-8.47-10.77-19.5-19.9-32.57-23.88a10.71,10.71,0,0,1,2.31-1c2.59-.76,5.91,1.73,9.52,3.53C1395.7,777.19,1426.86,803.6,1411.29,808.07Z"/><path id="Caminho_190" data-name="Caminho 190" class="cls-31" d="M1385.54,789.76c1-.46,2.2.8,1.26,1.67-1.74,1.58-2.19,4.5-2.06,6.76a10.23,10.23,0,0,0,.71,2.6c-1-.55-1.91-1.1-2.82-1.64a16.91,16.91,0,0,1-.13-2.13C1382.52,794.83,1383.38,790.79,1385.54,789.76Z"/><path id="Caminho_191" data-name="Caminho 191" class="cls-31" d="M1390.28,792.32c1-.48,2.2.79,1.25,1.66-1.74,1.57-2.19,4.51-2.07,6.76a10.26,10.26,0,0,0,.72,2.56c-1-.47-1.89-.95-2.8-1.45a17.46,17.46,0,0,1-.15-2.28C1387.25,797.37,1388.11,793.34,1390.28,792.32Z"/><path id="Caminho_192" data-name="Caminho 192" class="cls-31" d="M1395.75,795.09c1-.47,2.2.8,1.24,1.66-1.74,1.58-2.2,4.52-2.07,6.77a8.27,8.27,0,0,0,.61,2.24c-.9-.36-1.82-.76-2.69-1.17a18.58,18.58,0,0,1-.14-2.24C1392.71,800.15,1393.57,796.12,1395.75,795.09Z"/><path id="Caminho_193" data-name="Caminho 193" class="cls-30" d="M1257.49,611.46c8.63-5.18,20.57-6.7,30.2-7.76,12.53-1.38,25.8-.33,37.92,4.69,6.33,2.73,13.19,5.9,19.75,9,4.53,2.32,12.32,7,15.43,11.6,2.81,4.53,2.67,12.61,3.41,18,.85,6.36-.69,22.56-1.1,28.95,3.07-7.09,8.6-24.33,10.84-31.94,1.15-4,3.4-8.63,3.29-12.55-.22-4.92-3.86-10-6.13-14-8-14.13-14.75-26.69-30.59-31.9-10.22-3.63-21.15-8.35-32.08-10.16l.54.44a120.63,120.63,0,0,0-17.34-15.93,18,18,0,0,0,1,12.89c-4-3.18-9-7.86-13.6-9.88,1.15,6.42.87,12.19,5,17.68l-.06.31h0l.06-.31c-9-2-17.9-4.38-26.88-6.41a76.07,76.07,0,0,0,8.36,16.82c-7.61,4.77-17.44,6.76-18,16.7-.61,7.32-4.46,31.42-3.37,41.08Z"/><ellipse id="Elipse_3" data-name="Elipse 3" class="cls-7" cx="1420.31" cy="971.21" rx="80.68" ry="10.89"/><path id="Caminho_194" data-name="Caminho 194" class="cls-38" d="M1384,798.69c-2,5-4.06,10-5.79,14.3l-16.6,26.52c-3.78,4.69-8.1,5.15-8.1,5.15-7.11,1.06-20.2,3-23.18,9.84-1.55,3.53,3,1.68,5.82.3a5.5,5.5,0,0,0-1,1.72c-1.93,5.76,4,1,5.9,0s8.14-1.21,11.74-2.73a3.49,3.49,0,0,1,0,1.07c-.16,3.15-3.4,2.56-4.3,5.21-1.33,4,3.17,2.42,5.68,1a25,25,0,0,0,5-3.35c1.16-.9,3.53-1,5.06-2,2.27-1.4,2.26-2.5,3.12-4.74,1.18-3.06,3.53-5.4,5.07-8.55l16.83-22.85a6.92,6.92,0,0,0,.61-1.18c2.57-6.33,4.74-11.67,6.56-16.2A49.18,49.18,0,0,0,1384,798.69Z"/><g id="Grupo_6" data-name="Grupo 6" class="cls-62"><path id="Caminho_195" data-name="Caminho 195" class="cls-38" d="M1349.5,851.31c-4.43,1.54-10,.39-13.37,3.51h0a5.47,5.47,0,0,0-1,1.72c-1.93,5.76,4,1,5.89,0s8.1-1.18,11.7-2.7c.1-1.31-.25-2.69-.21-4A14.93,14.93,0,0,1,1349.5,851.31Z"/></g><path id="Caminho_196" data-name="Caminho 196" class="cls-3" d="M1472.18,861.34a31.49,31.49,0,0,1-3.59-5.91c0-.1-.56-1.12-1.14-2.27h0l-12.71-29.23c-4.13-15.13-10.62-39.12-11.28-42.27a6.82,6.82,0,0,0-13.59.77c0,1.17,0,2.11,10.7,41.41a10.33,10.33,0,0,1,3.59,9l13.58,23.95h.08l.37.88c-.07.4-.14.8-.25,1.21-.57,2.1-1.17,2.9-.2,5.12.66,1.49,2.42,2.81,2.82,4.08a21.69,21.69,0,0,0,2,5.08c1.16,2.34,3.78,5.81,4.93,2.18.77-2.42-2-3.66-.45-6.05a3.08,3.08,0,0,1,.61-.73c1.92,3,6.55,6.4,7.53,8.1s2.89,8.28,4.56,3a4.66,4.66,0,0,0,.17-1.78c1.43,2.48,3.9,6.2,4.64,2.8C1486.05,874,1477.07,865.79,1472.18,861.34Z"/><path id="Caminho_197" data-name="Caminho 197" class="cls-63" d="M1460.35,836.19a7.73,7.73,0,0,1,.09-3.88,10.17,10.17,0,0,0,.75-3.12c-.11-3.63-5.29-5-6.66-8.36-1-2.63.53-5.63-.06-8.39a21.35,21.35,0,0,0-3.33-7.13c-1.87-2.86-2.25-6.39-2.8-9.75-.8-4.87-2.53-12.7-4.93-17s-6.73-6.82-11.61-8.28l-1.48,22.35q0,4.68-.08,9.35c0,3.87,0,7.87,1.39,11.44,2.92,7.39,11.52,12.36,12,20.28.14,2.62-.4,5.88,1.85,7.3a14.49,14.49,0,0,0,2.21.87,5.13,5.13,0,0,1,.77.4,7.78,7.78,0,0,1,1.31-2.48C1453.17,837.71,1457.34,837.82,1460.35,836.19Z"/><path id="Caminho_198" data-name="Caminho 198" class="cls-64" d="M1448.64,837.65c.49-6.35-3.42-8.8-5.37-13.19-1-1.46,3.9-3.91,5.37-6.84,1.46-2-3.42-1-4.4-3.42-2.42-5.85,0-11.72-1-18.07-1.69-8.44-7.39-14.33-11.74-21.44l-1.21,17.92c0,3.12,0,6.24-.08,9.35,0,3.87,0,7.87,1.39,11.44,2.92,7.39,11.52,12.36,12,20.28.14,2.62-.4,5.88,1.85,7.3a14.49,14.49,0,0,0,2.21.87,4.6,4.6,0,0,1,.76.4,8,8,0,0,1,1.32-2.48h0a2.8,2.8,0,0,1-1.1-2.13Z"/><path id="Caminho_199" data-name="Caminho 199" class="cls-65" d="M1449.73,839.77a8.68,8.68,0,0,0-1.31,2.48,5.54,5.54,0,0,1,2.55,3.89,20.19,20.19,0,0,0,11.54-5,16,16,0,0,1-2.16-4.9C1457.34,837.82,1453.17,837.7,1449.73,839.77Z"/><path id="Caminho_200" data-name="Caminho 200" class="cls-65" d="M1371.63,825.11c-.61-.3-.84-1.33-.92-2.54-1.26,1.86-2.79,3.63-3.91,5.57a3.46,3.46,0,0,0-.61,1.7,3.5,3.5,0,0,0,.86,1.94,20,20,0,0,0,9.34,6.86,12.7,12.7,0,0,1,4.74-5.27C1380.51,829.68,1375.26,827.67,1371.63,825.11Z"/><path id="Caminho_201" data-name="Caminho 201" class="cls-63" d="M1399.83,784.39l-5.51-12.1c-6.1,3.64-9.68,10.29-12.17,17s-4.24,13.66-8.06,19.64a9.87,9.87,0,0,0-1.32,2.56c-.44,1.64.16,3.35.16,5a10.87,10.87,0,0,1-2.25,6.1c.08,1.21.31,2.26.92,2.55,3.63,2.56,8.91,4.57,9.53,8.26a12.46,12.46,0,0,1,3.74-1.58,4.77,4.77,0,0,0,1.86-.66,4.7,4.7,0,0,0,1.3-2.93c1.16-5.44,4.84-9.94,7.6-14.77C1400.63,804.7,1402.81,794,1399.83,784.39Z"/><path id="Caminho_202" data-name="Caminho 202" class="cls-64" d="M1399.83,784.39l-5.52-12.1-.94.61a54.66,54.66,0,0,0-6.27,36.45c-1.95,0-5.37,0-5.37,1,0,2.93,4.88,5.86,2.93,9.28-1.47,2.93-5.38,3.42-9.28,4.39a4,4,0,0,0-2.54,2c3.5,2.18,7.73,4.14,8.28,7.42a12.5,12.5,0,0,1,3.75-1.57,4.69,4.69,0,0,0,1.85-.67c.88-.65,1.07-1.86,1.3-2.92,1.17-5.45,4.85-10,7.6-14.78C1400.63,804.7,1402.81,794,1399.83,784.39Z"/><g id="Grupo_7" data-name="Grupo 7" class="cls-62"><path id="Caminho_203" data-name="Caminho 203" class="cls-38" d="M1471.52,868.12c2.53,3.47,7.42,5.55,8.27,9.62v0a4.65,4.65,0,0,1-.2,1.78c-1.71,5.24-3.58-1.39-4.52-3.07s-5.53-5.12-7.44-8.14c.66-1,1.69-1.81,2.38-2.81a12.25,12.25,0,0,0,1.51,2.66Z"/></g><path id="Caminho_204" data-name="Caminho 204" class="cls-3" d="M1415.09,929.81l-.22-18-.41-37.27c0-3.94-3.74-7.1-8.26-7.06h-.08c-4.49.08-8.07,3.28-8,7.2l.42,37.26.21,18.22A23.36,23.36,0,0,0,1415.09,929.81Z"/><path id="Caminho_205" data-name="Caminho 205" class="cls-26" d="M1414.66,892.72l-.2-18.23c0-3.94-3.74-7.1-8.26-7.06h-.08c-4.49.08-8.07,3.29-8,7.2l.21,18.73C1403.77,894.34,1409.56,894.45,1414.66,892.72Z"/><path id="Caminho_206" data-name="Caminho 206" class="cls-66" d="M1404.4,953.21c1.4.81,1.87,2.85,3.27,3.67,3.45,1,5.67-.61,7.3-2.87v-.47a14.74,14.74,0,0,0,.35-3l-.24-20.72a23.19,23.19,0,0,1-16.37.31l.23,20.22a23.73,23.73,0,0,1-.74,3.13,7.5,7.5,0,0,1,6.2-.23Z"/><path id="Caminho_207" data-name="Caminho 207" class="cls-67" d="M1392.7,974.41a25.35,25.35,0,0,0,21-7.3l0-.11a24.68,24.68,0,0,0,1.1-7.19c.1-2.24.14-3.66.16-5.79-1.62,2.25-3.84,3.87-7.29,2.87-1.4-.82-1.87-2.86-3.27-3.67a7.48,7.48,0,0,0-6.19.26,28,28,0,0,1-7.58,11.95c-1.81,1.72-3.91,3.29-5.29,5.26a4.25,4.25,0,0,0-.25.39l.13.07C1387.09,973.18,1389.9,974,1392.7,974.41Z"/><path id="Caminho_208" data-name="Caminho 208" class="cls-68" d="M1392.7,974.4c-2.8-.4-5.61-1.21-7.48-3.26l-.13-.07a2.29,2.29,0,0,0-.4,1.39c.11,1.13,1.46,1.9,2.75,2.36,4.52,1.58,9.72,1.21,14.52.36a20.77,20.77,0,0,0,6.94-2.2,11.2,11.2,0,0,0,4.74-5.88A25.28,25.28,0,0,1,1392.7,974.4Z"/><path id="Caminho_209" data-name="Caminho 209" class="cls-3" d="M1436.7,925.53l-3-12.3c.12-2.49.48-9.73.8-17,.84-19.37.68-19.74,0-21.35-1.52-3.71-6.2-5.65-10.46-4.34-3.71,1.15-5.88,4.4-5.37,7.67.1,2.88-.61,20-1.4,35.28a6.47,6.47,0,0,0,.17,1.81l3.68,15.13A17.81,17.81,0,0,0,1436.7,925.53Z"/><path id="Caminho_210" data-name="Caminho 210" class="cls-26" d="M1434.63,893.49c.7-16.64.53-17.06-.09-18.6-1.52-3.71-6.21-5.65-10.46-4.33-3.71,1.15-5.88,4.39-5.38,7.66.06,1.6-.13,7.53-.45,15.1C1423.15,896.73,1429.05,895.57,1434.63,893.49Z"/><path id="Caminho_211" data-name="Caminho 211" class="cls-68" d="M1442.75,970.33c-4.68,4.48-11.7,4.07-17.3,1.63a7.93,7.93,0,0,1-4.29-4,5.33,5.33,0,0,0-.05,2.83c.52,1.62,2.28,2.75,4.05,3.53a24.62,24.62,0,0,0,6.16,1.81c3.41.53,7.26.26,9.8-1.71a9.11,9.11,0,0,0,3.14-6.12A23.83,23.83,0,0,1,1442.75,970.33Z"/><path id="Caminho_212" data-name="Caminho 212" class="cls-67" d="M1425.45,972c5.61,2.42,12.63,2.85,17.3-1.63a20.87,20.87,0,0,0,1.5-2.09c.1-.64.17-1.29.22-1.92a57.7,57.7,0,0,0-1.89-19.44,11.85,11.85,0,0,1-1.7,7.57,2.88,2.88,0,0,1-3.74.4c-3.28-1.63-5.15-4.48-8.89-2.85a6.49,6.49,0,0,0-2.94,2.17c-.06.25-.11.5-.18.75-1.07,4.28-2.85,8.42-3.89,12.71,0,.1,0,.21-.08.32A8.12,8.12,0,0,0,1425.45,972Z"/><path id="Caminho_213" data-name="Caminho 213" class="cls-66" d="M1428.25,952c3.74-1.63,5.61,1.21,8.89,2.85a2.87,2.87,0,0,0,3.74-.41,11.81,11.81,0,0,0,1.71-7.56c-.37-1.34-.77-2.66-1.21-4-.34-.95-.71-1.91-1.12-2.85l-3.54-14.53a17.83,17.83,0,0,1-15.54,4.89l4.79,19.69a29.11,29.11,0,0,1-.61,4A6.43,6.43,0,0,1,1428.25,952Z"/><path id="Caminho_216" data-name="Caminho 216" class="cls-63" d="M1442.38,786.89c0-10.68-5.64-15.87-14.23-18-1.12,8-12,13.07-19.44,8.9a10.64,10.64,0,0,1-5.45-9.38c-9.21,1.66-15.47,6.14-15.47,17.18l2.5,52.6c0,15.38,9.63,28.13,25,28.13h0c15.39,0,25.47-12.59,25.47-28Z"/><path id="Caminho_217" data-name="Caminho 217" class="cls-64" d="M1441.75,781.24c0,6.73,0,14-4.55,19.59-2.83,2.83-7.92,3.4-8.47,7.37-.56,4.52,5.67,7.35,4.54,12.45-1.74,6.23-6.82,11.33-12.49,12.47-10.2,2-20.86,3.63-30.73-.61l.26,5.67c0,15.38,9.63,28.13,25,28.13s25.47-12.59,25.47-28l1.6-51.44A24.56,24.56,0,0,0,1441.75,781.24Z"/><path id="Caminho_218" data-name="Caminho 218" class="cls-3" d="M1414.59,775.3c4.62,0,10.12-2.2,11.1-7a58.94,58.94,0,0,0-10.36-.82,82.36,82.36,0,0,0-8.6.39C1406.76,772.24,1410.45,774.84,1414.59,775.3Z"/><path id="Caminho_219" data-name="Caminho 219" class="cls-69" d="M1425.68,768.32c-1,4.79-6.48,7-11.1,7-4.12-.46-7.81-3.06-7.87-7.41-1.21.12-2.33.27-3.44.47a10.64,10.64,0,0,0,5.45,9.38c7.41,4.17,18.32-.88,19.44-8.9C1427.35,768.64,1426.52,768.47,1425.68,768.32Z"/><path id="Caminho_220" data-name="Caminho 220" class="cls-3" d="M1408.9,770.14c.09,2.9,3.31,5.14,7.2,5h0c3.89-.11,7-2.55,6.88-5.45l-.17-5.58c-.09-2.89-3.31-5.14-7.2-5h0c-3.88.12-7,2.56-6.88,5.45Z"/><path id="Caminho_221" data-name="Caminho 221" class="cls-30" d="M1349.71,761.34c-4-.43-8.75,1-12.51,2.1-10.38,3.43-1.14,6.52,5.14,4.85-1,1.53-4.06,10.77-1.6,11.78,2.15,1,5.44-5.45,6.13-7,.48,4.38,1.1,15,5.41,6.08,2.34-4.91,1.6-11.78.2-16.8,0,.32.29.61.27,1.26Z"/><path id="Caminho_222" data-name="Caminho 222" class="cls-30" d="M1371.63,736.18c1.61-6.9-13.46-.34-6.79,7.07,2.79,2.93,7.54.75,9.68-1.82,1.82-2.21,1.49-7.32-2.42-5.87Z"/><path id="Caminho_223" data-name="Caminho 223" class="cls-30" d="M1365.29,743.44c1.62-6.9-13.46-.32-6.78,7.08,2.79,2.93,7.54.74,9.68-1.82,1.81-2.22,1.48-7.33-2.42-5.87Z"/><path id="Caminho_224" data-name="Caminho 224" class="cls-30" d="M1359.1,751.17c1.62-6.9-13.45-.33-6.78,7.08,2.78,2.93,7.54.74,9.68-1.82,1.82-2.21,1.49-7.33-2.45-5.87Z"/><path id="Caminho_225" data-name="Caminho 225" class="cls-30" d="M1355.11,756.2c1.61-6.9-13.46-.33-6.79,7.08,2.79,2.92,7.54.73,9.68-1.82,1.82-2.22,1.49-7.33-2.42-5.87Z"/><path id="Caminho_226" data-name="Caminho 226" class="cls-70" d="M1361.65,766c-.5-5-6.42-5.59-11-4.72a1.72,1.72,0,0,0-1.63-1.51,1.64,1.64,0,0,0-1,.3,46.17,46.17,0,0,0-2.68-6.8c-2-2.74-6.05-4-6.84,1.48-1.15,6.3,4.52,7.87,8.83,7.41l-.11.18.15,0a1.69,1.69,0,0,0,1.52,1.13,1.52,1.52,0,0,0,.66-.12,45.18,45.18,0,0,0,4.94,5.13C1357.48,770.32,1362.37,770.68,1361.65,766Z"/><path id="Caminho_227" data-name="Caminho 227" class="cls-30" d="M1455.63,755.55c-6.22-3.4-3.9,12.89,5,8.41,3.57-1.9,2.73-7.06.83-9.8-1.66-2.34-6.66-3.38-6.32.8Z"/><path id="Caminho_228" data-name="Caminho 228" class="cls-30" d="M1461,763.59c-6.22-3.4-3.9,12.88,5,8.42,3.56-1.91,2.72-7.07.83-9.8-1.66-2.34-6.66-3.38-6.32.8Z"/><path id="Caminho_229" data-name="Caminho 229" class="cls-30" d="M1466.75,771.61c-6.22-3.39-3.9,12.89,5,8.42,3.55-1.91,2.71-7.06.82-9.8-1.65-2.34-6.66-3.39-6.31.79Z"/><path id="Caminho_230" data-name="Caminho 230" class="cls-30" d="M1470.54,776.84c-6.22-3.4-3.9,12.88,5,8.41,3.55-1.9,2.71-7.06.82-9.79-1.66-2.34-6.66-3.39-6.31.79Z"/><path id="Caminho_231" data-name="Caminho 231" class="cls-30" d="M1474.2,784.16c-1.5,3.78-1.39,8.69-1.3,12.63.54,10.9,6,2.82,6-3.67,1.21,1.35,9.3,6.78,10.93,4.68,1.53-1.82-3.8-6.72-5.1-7.77,4.35.7,14.72,2.93,7.3-3.63-4.12-3.54-10.94-4.68-16.15-4.66.3.09.69-.11,1.29.08Z"/><path id="Caminho_232" data-name="Caminho 232" class="cls-70" d="M1481.76,773.1c-5-.85-7.1,4.71-7.46,9.32a1.73,1.73,0,0,0-1.89,1.16,1.52,1.52,0,0,0,0,1,44.41,44.41,0,0,0-7.27.78c-3.16,1.15-5.5,4.75-.38,7,5.77,2.77,8.78-2.27,9.49-6.53l.14.13v-.16a1.7,1.7,0,0,0,1.49-1.16,1.56,1.56,0,0,0,.06-.68,44,44,0,0,0,6.26-3.39C1484.79,778.28,1486.41,773.65,1481.76,773.1Z"/><path id="Caminho_233" data-name="Caminho 233" class="cls-3" d="M1465.42,734.05c2.22-4.85,10-8.55,11.78-1,1.46,6.22-7.57,17.46-13.17,10.68Z"/><path id="Caminho_234" data-name="Caminho 234" class="cls-3" d="M1469.73,674.41c14,10.66,11.5,30.26,4.62,43.7-3.15,6.12-6,12.16-6.66,19.22-.56,6.62.24,12.27-4.18,18.07-12.28,16.1-33.1,14.15-50.45,11.78-14-1.89-28.78-7.87-37-20-17.46-25.94-22.12-70.37,9.8-87.82,24-13.14,54.23-6.9,75.1,7.55a32,32,0,0,1,4,3.06Z"/><path id="Caminho_235" data-name="Caminho 235" class="cls-26" d="M1385.88,659.31c24-13.13,54.22-6.9,75.09,7.56a31,31,0,0,1,4,3.06l4.77,4.48c14,10.66,11.5,30.26,4.62,43.7-1,1.88-1.91,3.75-2.77,5.65-9.93-6-13.91-17.68-16-28.23-7.7,9.08-19.85,11.43-31.6,11.9-5.77-.21-15.27-1.21-15.59-9.07-5.65,8.54-18.69,5.84-26.71,7.1-6.91.51-8.9,18.46-10.44,25.9-3-7.14-3-19.36-8.72-24.27C1361.34,688,1367.66,669.28,1385.88,659.31Z"/><path id="Caminho_236" data-name="Caminho 236" class="cls-26" d="M1458.16,733.7a6.85,6.85,0,0,1-8.26,5l-.27-.08a7.41,7.41,0,0,1-4.75-9,6.82,6.82,0,0,1,8.24-5l.3.08A7.35,7.35,0,0,1,1458.16,733.7Z"/><path id="Caminho_237" data-name="Caminho 237" class="cls-31" d="M1457.74,734.21c-1.33,3.66-5.12,5.6-8.47,4.31a6.91,6.91,0,0,1-3.64-8.95c1.36-3.68,5.11-5.59,8.48-4.31S1459.06,730.55,1457.74,734.21Z"/><path id="Caminho_238" data-name="Caminho 238" class="cls-32" d="M1449.39,736.15a4.74,4.74,0,0,0,5.31-3.83,4.42,4.42,0,0,0-3.16-5.4l-.16,0a4.72,4.72,0,0,0-5.3,3.84,4.42,4.42,0,0,0,3.16,5.4Z"/><path id="Caminho_239" data-name="Caminho 239" class="cls-33" d="M1450.37,734.72a2.8,2.8,0,0,0,3.13-2.27,2.64,2.64,0,0,0-1.9-3.21h0a2.79,2.79,0,0,0-3.15,2.26,2.64,2.64,0,0,0,1.89,3.22Z"/><path id="Caminho_240" data-name="Caminho 240" class="cls-31" d="M1452.45,731.28a1.16,1.16,0,0,0,1.38-.89s0,0,0-.08a1.36,1.36,0,0,0-.77-1.64,1.16,1.16,0,0,0-1.39.87s0,.06,0,.09a1.36,1.36,0,0,0,.78,1.65Z"/><path id="Caminho_241" data-name="Caminho 241" class="cls-71" d="M1450,732.71a6.62,6.62,0,0,0,2.42,2.89,4.27,4.27,0,0,1-3,.55h-.1C1448.73,734.83,1448.44,733.43,1450,732.71Z"/><path id="Caminho_242" data-name="Caminho 242" class="cls-26" d="M1410,725.3c-1.1,4.24-5.08,6.66-8.88,5.45s-6-5.64-4.92-9.84,5.07-6.66,8.88-5.45S1411.09,721.1,1410,725.3Z"/><path id="Caminho_243" data-name="Caminho 243" class="cls-31" d="M1409.56,725.86c-1.4,4-5.34,6.13-8.82,4.74s-5.16-5.75-3.77-9.76,5.34-6.12,8.82-4.72S1411,721.86,1409.56,725.86Z"/><path id="Caminho_244" data-name="Caminho 244" class="cls-32" d="M1401.58,727.61c2.46.49,4.94-1.4,5.52-4.19s-.95-5.45-3.43-5.94-4.93,1.4-5.51,4.2S1399.11,727.13,1401.58,727.61Z"/><path id="Caminho_245" data-name="Caminho 245" class="cls-33" d="M1402.76,726.17a3,3,0,0,0,3.27-2.51,2.83,2.83,0,0,0-2-3.48l-.06,0a3,3,0,0,0-3.28,2.48,2.85,2.85,0,0,0,2,3.51Z"/><path id="Caminho_246" data-name="Caminho 246" class="cls-31" d="M1404.77,722.29c.61.2,1.26-.27,1.46-1.07a1.49,1.49,0,0,0-.82-1.81,1.21,1.21,0,0,0-1.43.94s0,.08,0,.12A1.5,1.5,0,0,0,1404.77,722.29Z"/><path id="Caminho_247" data-name="Caminho 247" class="cls-71" d="M1402.17,723.86a7.21,7.21,0,0,0,2.49,3.15,4.23,4.23,0,0,1-3.08.61h-.1C1400.89,726.19,1400.59,724.65,1402.17,723.86Z"/><path id="Caminho_248" data-name="Caminho 248" class="cls-3" d="M1365,711.84c-3.8-1.91-7.82-.43-9.68,7.71-1.48,5.53-1.62,12.71,2.9,16.72,3.73,3.77,8.86,2.85,12.39-.46C1369.45,727.86,1370.72,717.73,1365,711.84Z"/><path id="Caminho_249" data-name="Caminho 249" class="cls-30" d="M1361.16,711.61c5.95-3,7.26,10.15,8.47,13.89,1.48-14,4.37-25.31,15.08-35.39-1.13,2.6-4.18,6.27-5.5,9.39,12.9,2.42,30.91-7.92,39.7-17.37-2.06,3.26-11,14.07-8.15,16.19s12.67,1.68,15.31,1c11.35-2.92,22.65-7.4,30.21-17.63,0,0,1.51,25.79,15.67,39.57,0,0-2.75,10.45-6.36,13.51,4.91-4.17,9.74-4.5,10.62-5.76,2.52-3.63,38.47-39-3-71,0,0-4.72-20.5-44.17-22-29.78-1.1-63.14,7.16-72.54,46.76C1353.25,705.7,1361.16,711.61,1361.16,711.61Z"/><path id="Caminho_250" data-name="Caminho 250" class="cls-32" d="M1464.63,721.16a15.79,15.79,0,0,0-2.05-5.95c-1.06-1.75-2.92-2.5-4.37-3.84a.49.49,0,0,1,0-.68.45.45,0,0,1,.21-.12c2.23-.34,4.19,1.07,5.41,2.87,1.6,2.39,1.62,4.9,1.3,7.65C1465.12,721.37,1464.67,721.48,1464.63,721.16Z"/><path id="Caminho_251" data-name="Caminho 251" class="cls-32" d="M1401.35,704.3c-4.94-2.14-8.66,2.48-11.53,5.66-.27.3-.64-.05-.61-.36.44-2.85,2.68-4.89,5.09-6.24a8.27,8.27,0,0,1,3.74-1c1.5-.05,2.35.7,3.5,1.52.21.15.07.55-.2.44Z"/><path id="Caminho_252" data-name="Caminho 252" class="cls-35" d="M1409.93,749.92a21.79,21.79,0,0,1-4.56-11.92c21.51,8.21,35.16,7.26,35.16,7.26a20,20,0,0,1-5.53,8C1427.54,748.77,1418.38,748.84,1409.93,749.92Z"/><path id="Caminho_253" data-name="Caminho 253" class="cls-72" d="M1435,753.27a15.18,15.18,0,0,1-12.46,3.38,19.18,19.18,0,0,1-12.62-6.72C1418.38,748.84,1427.54,748.77,1435,753.27Z"/><path id="Caminho_254" data-name="Caminho 254" class="cls-26" d="M1429.72,736c-1.59,2-6.59,1.49-6.59,1.49s4.89,2.53,6,1.65S1429.72,736,1429.72,736Z"/><g id="Grupo_8" data-name="Grupo 8" class="cls-37"><path id="Caminho_255" data-name="Caminho 255" class="cls-3" d="M1358.23,719.35c.19-1.37,1.9-3.59,3.37-3.5,2.43.24,3.25,4.1,3.68,5.91a9.16,9.16,0,0,1,0,5.29c-.67,2.42-.34,3.9,0,6.23-2.88.61-4.12-1.81-3.55-4.43.28-1.14,1.06-1.81,0-2.64-.82-.47-2.42.18-3.28.23-.3-2.13,2.77-4.17,4.72-3.1-.14-1.17-.82-6-2.9-4.84Z"/></g><path id="Caminho_256" data-name="Caminho 256" class="cls-73" d="M1440.78,836.52a143.14,143.14,0,0,1-25.23,1.94c-15.43,0-25.42-4.06-25.42-4.06l-11.4,46.4s1.07,10.19,39.2,8.94,35.7-8.62,35.7-8.62Z"/><path id="Caminho_257" data-name="Caminho 257" class="cls-74" d="M1394.58,835.81l-10.11,50.12a38.78,38.78,0,0,0,9.4,2.64l7.08-51.36C1398.42,836.75,1396.27,836.27,1394.58,835.81Z"/><path id="Caminho_258" data-name="Caminho 258" class="cls-74" d="M1407.77,838.11l-5.57,51.44c3.2.23,6.85.34,11,.3l-.18-51.43C1411.18,838.37,1409.42,838.26,1407.77,838.11Z"/><path id="Caminho_259" data-name="Caminho 259" class="cls-74" d="M1419.8,838.42l3.63,51.09c4.1-.23,7.66-.52,10.72-.88l-8.21-50.47Q1423.09,838.34,1419.8,838.42Z"/><path id="Caminho_260" data-name="Caminho 260" class="cls-74" d="M1437.59,837c-1.27.17-2.9.39-4.84.6L1444.19,887a23.47,23.47,0,0,0,7.44-2.85Z"/><ellipse id="Elipse_4" data-name="Elipse 4" class="cls-7" cx="1591.63" cy="978.12" rx="87.91" ry="12.33"/><path id="Caminho_261" data-name="Caminho 261" class="cls-3" d="M1633.18,810.16c5.8,11.86,8.6,34.27,8.6,34.27.12.67,2.85,16.21,1.21,28.76a37.53,37.53,0,0,1,7.66,6.33c4.23,5.08.84,7.35-4.48,3.76.53,1.51,5,7.71,3.5,9.15-1.9,2.1-6.09-4.6-6.82-6-.16,2.69,1.06,7.51-.72,8.24-3.75-.32-4.12-5.8-4.3-8.54-.22,3-.1,13.2-4.24,7.42-1.69-2.22-2.19-9.53-1.66-12.17-2.84.9-4.17,4.16-7.27,4.3-2-3.57,4.5-8.35,7.13-12.33a6.87,6.87,0,0,1,0-1.11c1.3-8.84-.18-20.29-.79-24.36,0,0-3.5-27.34-7.54-33.28Z"/><path id="Caminho_262" data-name="Caminho 262" class="cls-26" d="M1630.21,842.13c-1.27-8.36-3.85-23.3-6.72-27.51l9.69-4.46c3.55,7.26,6,18.48,7.32,26.08C1636.68,837.77,1632.51,839.38,1630.21,842.13Z"/><path id="Caminho_263" data-name="Caminho 263" class="cls-3" d="M1573.87,938.79c1.07-13.31,3.54-33.5,5.9-50.23a23.41,23.41,0,0,0,.43-3.74,7.26,7.26,0,0,0-14.47-.6c0,.36-.16,1.12-.32,2.24-2.42,17-4.9,37.52-6,51.16A24.57,24.57,0,0,0,1573.87,938.79Zm-8.17-53.94a2.53,2.53,0,0,1,0-.55C1565.71,884.48,1565.7,884.67,1565.7,884.85Z"/><path id="Caminho_264" data-name="Caminho 264" class="cls-31" d="M1559.41,937.63q-1.19,14.52-1.38,26.37a7.33,7.33,0,0,0,7.13,7.5h.11a7.33,7.33,0,0,0,7.26-7.27c.13-7.56.57-16.06,1.34-25.41a24.58,24.58,0,0,1-14.46-1.19Z"/><path id="Caminho_265" data-name="Caminho 265" class="cls-42" d="M1573.05,957.57c-.15-.1-.31-.17-.46-.26-2.36,1.91-5.58,3-8.2,2.24-2,0-5.07-.69-5.92-3.5-7.26,4.91-16.07,6.89-23.32,12.37-2.54,1.88-6.71,5.68-6.9,9.71,16.52,4.32,33.09.68,48-6.77.07-.52.13-1.06.16-1.67C1576.72,965.07,1577,959.94,1573.05,957.57Z"/><path id="Caminho_266" data-name="Caminho 266" class="cls-75" d="M1528.24,978.13a5.84,5.84,0,0,0,.43,2.55c1.6,3.36,7.47,2.92,10.52,3.2a63.47,63.47,0,0,0,30.09-5.28c4.24-1.82,6.35-3,7-7.27C1561.33,978.8,1544.76,982.45,1528.24,978.13Z"/><path id="Caminho_267" data-name="Caminho 267" class="cls-31" d="M1539.15,965.36c1.71.4,3.46.3,5.16.69a5.86,5.86,0,0,1,2.93,1.66,12.05,12.05,0,0,0,1.86,2,.32.32,0,0,0,.43-.1.28.28,0,0,0,0-.12c.57-2.39-1.65-4-3.4-4.84a7.26,7.26,0,0,0-7,.6v.06Z"/><path id="Caminho_268" data-name="Caminho 268" class="cls-31" d="M1543.49,963.36a5.92,5.92,0,0,1,5.33.54c1.53.93,2.56,2.71,4.14,3.49a.41.41,0,0,0,.56-.17.39.39,0,0,0,0-.3c-.45-4.52-7.87-8.2-10.16-3.71a.1.1,0,0,0,0,.14h.06Z"/><path id="Caminho_269" data-name="Caminho 269" class="cls-31" d="M1549.65,960.92c1.28.6,2.86,0,4.23.6,1.82.77,2.32,2.56,3.7,3.77a.31.31,0,0,0,.43,0,.21.21,0,0,0,.06-.1c1.07-2.21-1.38-4.5-3-5.29-1.4-.71-4.84-1.42-5.54.79a.23.23,0,0,0,.1.24Z"/><path id="Caminho_270" data-name="Caminho 270" class="cls-3" d="M1621,937.69c-1.14-13.65-2.19-34.15-4.62-51.16-.15-1.12-.26-1.88-.31-2.25a7.26,7.26,0,0,0-14.44.65,29.21,29.21,0,0,0,.45,3.73c2.38,16.7,3.39,36.91,4.5,50.23a24.69,24.69,0,0,0,14.42-1.2ZM1616,884.35v.57a1.82,1.82,0,0,0,0-.57Z"/><path id="Caminho_271" data-name="Caminho 271" class="cls-26" d="M1577.28,907.58c.82-6.72,1.68-13.31,2.48-19a22.33,22.33,0,0,0,.44-3.74,7.26,7.26,0,0,0-14.48-.61c0,.37-.15,1.13-.31,2.25-.56,3.91-1.14,8.24-1.71,12.74,2.75,1,5.73,1.27,9,2.64A7.07,7.07,0,0,1,1577.28,907.58Zm-11.56-23.28v.56A5.23,5.23,0,0,1,1565.72,884.3Z"/><path id="Caminho_272" data-name="Caminho 272" class="cls-26" d="M1618.05,902.45c-.46-5.63-1-11.08-1.7-15.91-.15-1.12-.26-1.88-.31-2.25a7.26,7.26,0,0,0-14.46.64,29.21,29.21,0,0,0,.45,3.73c1.21,8.51,2,19,2.58,29a28.06,28.06,0,0,1,2.9-13.5C1609,901.83,1613.82,903.06,1618.05,902.45Zm-2-18.1v.57A2.72,2.72,0,0,0,1616,884.35Z"/><path id="Caminho_273" data-name="Caminho 273" class="cls-31" d="M1621,937.69c.78,9.68,1.27,18.49,1.39,26.36a7.35,7.35,0,0,1-7.13,7.52h-.12a7.34,7.34,0,0,1-7.26-7.27c-.12-7.57-.6-16.07-1.35-25.41a24.66,24.66,0,0,0,14.46-1.2Z"/><path id="Caminho_274" data-name="Caminho 274" class="cls-42" d="M1607.33,957.64l.46-.26c2.35,1.9,5.56,3,8.21,2.23,2,0,5.07-.69,5.9-3.53,7.27,4.92,16.09,6.88,23.33,12.36,2.56,1.89,6.71,5.68,6.92,9.71-16.51,4.35-33.08.71-48-6.72a15.48,15.48,0,0,1-.17-1.67C1603.67,965.14,1603.4,960,1607.33,957.64Z"/><path id="Caminho_275" data-name="Caminho 275" class="cls-75" d="M1652.16,978.15a5.72,5.72,0,0,1-.43,2.55c-1.6,3.36-7.48,2.92-10.51,3.22a63.41,63.41,0,0,1-30.11-5.26c-4.24-1.78-6.35-3-7-7.26C1619.07,978.86,1635.64,982.49,1652.16,978.15Z"/><path id="Caminho_276" data-name="Caminho 276" class="cls-31" d="M1641.25,965.4c-1.73.4-3.47.3-5.18.71a5.63,5.63,0,0,0-2.91,1.64,11.63,11.63,0,0,1-1.86,2,.31.31,0,0,1-.44-.1.18.18,0,0,1,0-.1c-.57-2.38,1.66-4.05,3.4-4.84a7.29,7.29,0,0,1,7,.61v0Z"/><path id="Caminho_277" data-name="Caminho 277" class="cls-31" d="M1636.88,963.4a6,6,0,0,0-5.33.55c-1.53.92-2.55,2.7-4.13,3.49a.43.43,0,0,1-.57-.19.39.39,0,0,1,0-.26c.47-4.53,7.86-8.23,10.17-3.73a.09.09,0,0,1,0,.13Z"/><path id="Caminho_278" data-name="Caminho 278" class="cls-31" d="M1630.74,961c-1.29.61-2.87,0-4.24.61-1.82.77-2.32,2.56-3.69,3.78a.31.31,0,0,1-.44,0,.33.33,0,0,1-.06-.1c-1.07-2.2,1.38-4.5,3-5.29,1.41-.7,4.87-1.41,5.55.79a.23.23,0,0,1-.1.24Z"/><path id="Caminho_279" data-name="Caminho 279" class="cls-76" d="M1568.35,858.34c-.43.92-12.54,97-12.54,97s3.1,5.69,19.61,4.4l18-80.54L1605,958.79a20.37,20.37,0,0,0,18.86-2.23l-3.67-95.2Z"/><path id="Caminho_280" data-name="Caminho 280" class="cls-77" d="M1568.35,858.34l51.88,3,.61,15.94a52.32,52.32,0,0,1-27,5.06l-.46-3.12-.7,3A88.41,88.41,0,0,1,1566,875.4C1567.3,865.46,1568.24,858.58,1568.35,858.34Z"/><path id="Caminho_281" data-name="Caminho 281" class="cls-78" d="M1602,801.88h-.1l.07.12a.44.44,0,0,0,.11-.09Z"/><path id="Caminho_282" data-name="Caminho 282" class="cls-3" d="M1604.82,802.19a14.7,14.7,0,0,0,9.16-4.78,20.31,20.31,0,0,0-2.52-.88l-9.92-2.76a21.25,21.25,0,0,0-2.1-.47A14.77,14.77,0,0,0,1604.82,802.19Z"/><path id="Caminho_283" data-name="Caminho 283" class="cls-78" d="M1599.43,793.17c0-.08-.11-.06-.21.06h.22A.13.13,0,0,1,1599.43,793.17Z"/><path id="Caminho_284" data-name="Caminho 284" class="cls-3" d="M1600.78,789.3a7.32,7.32,0,0,1,9-5.1h0a7.32,7.32,0,0,1,5.1,9l-.54,2a7.32,7.32,0,0,1-9,5.08h0a7.32,7.32,0,0,1-5.1-9Z"/><path id="Caminho_285" data-name="Caminho 285" class="cls-79" d="M1600.72,789.49l.06-.19a7.32,7.32,0,1,1,14.11,3.92l-.54,2a7.25,7.25,0,0,1-2.36,3.63,44.19,44.19,0,0,1-11.27-9.33Z"/><path id="Caminho_286" data-name="Caminho 286" class="cls-3" d="M1608.11,788.76l-.14.15A.34.34,0,0,1,1608.11,788.76Z"/><path id="Caminho_287" data-name="Caminho 287" class="cls-3" d="M1608,789.08h-.22a1.43,1.43,0,0,0,.23-.2A.17.17,0,0,0,1608,789.08Z"/><path id="Caminho_288" data-name="Caminho 288" class="cls-30" d="M1658.51,786.57c-3.13,3.83-8.73,6-12.8,8.61l-.82-.54a45.84,45.84,0,0,0,1.13-12.41Z"/><path id="Caminho_289" data-name="Caminho 289" class="cls-30" d="M1562.08,753.7c.15,5,3.23,10.13,4.89,14.65l1,.06a46.32,46.32,0,0,1,6.65-10.51Z"/><path id="Caminho_290" data-name="Caminho 290" class="cls-3" d="M1562.51,731.57c-5.23,33.21,22.87,60.29,56.17,64.48s69-27.16,68.58-61.51c-.4-33.49-22.08-54-55.27-58.88C1597.85,670.63,1569.93,684.48,1562.51,731.57Z"/><path id="Caminho_291" data-name="Caminho 291" class="cls-26" d="M1655.9,723.64c-.44,7.55.25,15.13.95,22.67-8.62-8.38-16.85-17.88-22-28.87.31,8.69,3.27,16.26,5.45,24.58-15-12.57-28.87-25.9-42.73-40-3.44,5.63-9.88,8.22-14.44,12.7-1.15,1.5,1.08,6.06-1.95,7.54-5.68,2.22-11.73,4.05-15.54,8.56-1.15,1.26-2.29,2.52-3.48,3.71.09-1,.21-2,.38-3,7.41-47.1,35.33-60.94,69.47-55.91,33.2,4.88,54.88,25.41,55.28,58.87a53.91,53.91,0,0,1-5.26,23.42A153.6,153.6,0,0,1,1655.9,723.64Z"/><path id="Caminho_292" data-name="Caminho 292" class="cls-26" d="M1624.54,755.47c-2.45,2.3-5,1.82-6.66.14-.73-.57-.47-2.1.26-3.59C1618.86,754.06,1621.82,755,1624.54,755.47Z"/><path id="Caminho_293" data-name="Caminho 293" class="cls-3" d="M1569.7,756.66c1.81-6.1,2.1-25.17-9.66-24.1-10.28.93-9.2,20-3.43,26,2.9,3,7.65,4.43,11.06,2.63Z"/><path id="Caminho_294" data-name="Caminho 294" class="cls-26" d="M1559.83,738.71c4.46,1.52,5.64,5.94,5.26,10.19h0c-.18,2.68-2,4.93-3.56,7,.15-2.1,2-5.64-.8-6.62-.87-.52-2.16.71-2.16,2.23-1.49-2.19.06-6.1,3.33-4.39-.61-1.68.16-3.63-1.58-4.67-1.9-.45-2.18,2.24-3.7,3.08C1556.87,742.9,1556.43,737.59,1559.83,738.71Z"/><path id="Caminho_295" data-name="Caminho 295" class="cls-3" d="M1657,783.12c2-6,12.53-22,21.64-14.45,8,6.57-3.78,21.7-11.94,23.42-4.11.85-8.82-.66-10.62-4.05Z"/><path id="Caminho_296" data-name="Caminho 296" class="cls-26" d="M1675.33,773.88c-4.54-1.26-8,1.73-10.12,5.45h0c-1.37,2.31-1.15,5.18-1,7.8,1.07-1.82,1.58-5.77,4.42-5,1,.07,1.37,1.82.52,3.07,2.48-1,3.4-5.08-.25-5.51,1.46-1,1.92-3.09,4-3,1.81.69.53,3.07,1.29,4.62C1675.41,779,1678.77,774.85,1675.33,773.88Z"/><path id="Caminho_297" data-name="Caminho 297" class="cls-26" d="M1639.6,757.08a7.72,7.72,0,0,0,2,10.74l.14.09a8,8,0,0,0,10.89-2.61,7.72,7.72,0,0,0-2-10.74l-.13-.09A8,8,0,0,0,1639.6,757.08Z"/><path id="Caminho_298" data-name="Caminho 298" class="cls-31" d="M1640.1,757.29a7.58,7.58,0,0,0,1.92,10.54l.14.1a7.9,7.9,0,0,0,10.71-2.57A7.58,7.58,0,0,0,1651,754.8l-.14-.09A7.88,7.88,0,0,0,1640.1,757.29Z"/><path id="Caminho_299" data-name="Caminho 299" class="cls-32" d="M1642.09,766.33a6.15,6.15,0,0,1-1.56-8.29,5.52,5.52,0,0,1,7.49-2.18l.33.2a6.14,6.14,0,0,1,1.54,8.28,5.51,5.51,0,0,1-7.49,2.18Z"/><path id="Caminho_300" data-name="Caminho 300" class="cls-33" d="M1642.29,763.48a3.62,3.62,0,0,1-.93-4.91,3.29,3.29,0,0,1,4.47-1.28l.16.1a3.68,3.68,0,0,1,.93,4.92,3.28,3.28,0,0,1-4.47,1.26Z"/><path id="Caminho_301" data-name="Caminho 301" class="cls-31" d="M1646.93,760.4a1.54,1.54,0,0,1-.49-2.1l0,0a1.69,1.69,0,0,1,2.15-.8,1.51,1.51,0,0,1,.49,2.08l0,.06a1.68,1.68,0,0,1-2.15.8Z"/><path id="Caminho_302" data-name="Caminho 302" class="cls-71" d="M1644.55,762.69a8.25,8.25,0,0,1-4.76.46,5.66,5.66,0,0,0,2.28,3.18l.1.07C1643.84,765.74,1645.33,764.73,1644.55,762.69Z"/><path id="Caminho_303" data-name="Caminho 303" class="cls-26" d="M1584.3,738.24a7.71,7.71,0,0,0,2,10.74l.13.09a8,8,0,0,0,10.9-2.61,7.72,7.72,0,0,0-2-10.73l-.15-.1A8,8,0,0,0,1584.3,738.24Z"/><path id="Caminho_304" data-name="Caminho 304" class="cls-31" d="M1584.8,738.43a7.59,7.59,0,0,0,1.92,10.57l.13.08a7.9,7.9,0,0,0,10.72-2.57,7.58,7.58,0,0,0-1.93-10.55l-.14-.1A7.9,7.9,0,0,0,1584.8,738.43Z"/><path id="Caminho_305" data-name="Caminho 305" class="cls-32" d="M1589.57,748.18a6.17,6.17,0,0,1-1.57-8.3,5.51,5.51,0,0,1,7.47-2.18l.35.21a6.17,6.17,0,0,1,1.55,8.29,5.51,5.51,0,0,1-7.49,2.17Z"/><path id="Caminho_306" data-name="Caminho 306" class="cls-33" d="M1591.38,746.39a3.68,3.68,0,0,1-.91-4.92,3.29,3.29,0,0,1,4.46-1.28l.16.1a3.67,3.67,0,0,1,.94,4.92,3.29,3.29,0,0,1-4.47,1.28Z"/><path id="Caminho_307" data-name="Caminho 307" class="cls-31" d="M1594.39,742.25a1.55,1.55,0,0,1-.47-2.12l0,0a1.68,1.68,0,0,1,2.19-.77,1.52,1.52,0,0,1,.47,2.1l0,.05A1.71,1.71,0,0,1,1594.39,742.25Z"/><path id="Caminho_308" data-name="Caminho 308" class="cls-71" d="M1592,744.53a8.13,8.13,0,0,1-4.75.47,5.57,5.57,0,0,0,2.28,3.18.21.21,0,0,0,.1.06C1591.29,747.58,1592.8,746.58,1592,744.53Z"/><path id="Caminho_309" data-name="Caminho 309" class="cls-30" d="M1669,749.88c-2.64-2.77-4.75-5.63-8-7.72s-7.11-2.6-10.49-4.33c-.55-.28-.3-1.16.25-1.25,7.75-1.3,18,4.8,19.07,12.91a.47.47,0,0,1-.8.39Z"/><path id="Caminho_310" data-name="Caminho 310" class="cls-30" d="M1607.15,720.71c-3-1.57-5.61-3.23-9.07-3.86-3.68-.66-7.2.35-10.5,1.9a.83.83,0,0,1-1.11-.36.84.84,0,0,1,.07-.85c4-6.25,19.46-5.13,21,2.87a.27.27,0,0,1-.22.32.27.27,0,0,1-.19,0Z"/><path id="Caminho_311" data-name="Caminho 311" class="cls-30" d="M1569,755.61a1.22,1.22,0,0,1,0,.27Z"/><path id="Caminho_312" data-name="Caminho 312" class="cls-30" d="M1557.61,733.39a33.51,33.51,0,0,0,4.91-1.21c1.08-.53,6.13,20.78,6.52,23.43,0-2.69.86-24.81,5.45-29.46,4.94-5,8.72-19.22,8.88-19.71s.39,5.72.39,5.72c6.15-5.84,11.36-16.88,11.36-16.88,4.75,8.3,9.54,10.66,15.93,16.8,7.41,6.86,15.4,15.17,24.29,19.82-.51-4.84-4.31-10.13-5.74-14.94-1-3.26-3.71-9.75-1.91-12.93,2.1,1.26,3.85,5.64,5.44,7.82,2.63,3.42,5.32,6.66,7.94,10.1,2.79,3.48,5.44,6.9,8.25,10.21,1.82,2.07,3.7,5.05,6.34,6.32.6-2.32-.84-5.52-1.14-7.8a59.82,59.82,0,0,1-.9-8.44c-.1-1.3-.78-5.68,1.21-5.71,1.24.06,4.13,4.84,4.71,5.75,7.71,10.21,10.89,17.8,16.66,29,0,0-14.79,30.7-13.54,30.23S1677,767.4,1677,767.4l3,3.21s21.71-25.73,15-55.23c-.73-7.14-2.42-14-6.55-20.38-7.77-12.51-21-21.18-34.38-26,3.38-1,7.13,0,10.57-.51-11.45-7.15-25.63-8.11-37.41-5.22-5-4.16-8.83-5.51-15.84-5.76,1.52,1.55,3.43,2.72,5.18,4.35-9.93-6.23-21.78-1.51-30.25,5.16a26.64,26.64,0,0,1,6,.27,13.23,13.23,0,0,0-5.8,3.85,27.48,27.48,0,0,0-10.48,10.13C1561,706.82,1555.9,720.35,1557.61,733.39Z"/><path id="Caminho_313" data-name="Caminho 313" class="cls-72" d="M1628.06,777.55a16.09,16.09,0,0,1-18.67,5.14c-9.07-3.25-11.94-11.62-11.74-18.1C1608.91,765.87,1619.7,770,1628.06,777.55Z"/><path id="Caminho_314" data-name="Caminho 314" class="cls-35" d="M1602.26,756.26c10,9.48,27,10.19,27,10.19,3.36.6,2.62,6.36-1.21,11.08-8.35-7.55-19.14-11.68-30.4-13C1597.82,759.51,1599.87,755.6,1602.26,756.26Z"/><path id="Caminho_315" data-name="Caminho 315" class="cls-3" d="M1496.15,730.61c-2.42-6.09,4-4.43,7.2-2.51-2.26-2.63-10-6.93-10.34-10.7-.74-6.42,10.08.92,12,2.63-1.11-2-12.51-11.59-10.49-14.87,2.85-5,15.09,7.38,17.64,9.2-.87-1.43-2-2.74-3-4.46-4-5.44-9.49-18.44,1.56-9.8,5.32,4.24,10.61,15.18,15.68,8.91,2-2.57,2.51-6.66,6.27-6.38,5.82.15,1.75,4.5.7,7.87-2.58,8.12,2.55,16.73.06,20.77,7,14.59,18.22,35.5,47.94,57a126.17,126.17,0,0,0-9.07,11.05,136,136,0,0,1-10.85-8.89,190.09,190.09,0,0,1-28.71-33.32c-8.64-12.51-6.78-8.75-10.68-16.65a22.6,22.6,0,0,1-13.68-.6C1505,738.37,1497.5,734.68,1496.15,730.61Z"/><path id="Caminho_316" data-name="Caminho 316" class="cls-26" d="M1564.92,774.82a172.38,172.38,0,0,0,16.43,13.46,126.17,126.17,0,0,0-9.07,11.05,138.18,138.18,0,0,1-10.85-8.89,166.84,166.84,0,0,1-14.31-14.7C1553.17,777.72,1559.31,778.68,1564.92,774.82Z"/><path id="Caminho_317" data-name="Caminho 317" class="cls-26" d="M1524.73,729a8.46,8.46,0,0,1-2.42-9.11C1522.34,723,1524.12,726.09,1524.73,729Z"/><path id="Caminho_318" data-name="Caminho 318" class="cls-26" d="M1516,716a34.74,34.74,0,0,0-10,15.28C1505.05,724.76,1510.43,719.22,1516,716Z"/><path id="Caminho_319" data-name="Caminho 319" class="cls-80" d="M1643,831.15l.72,3.15-16.54,2.31.14-3.56Z"/><path id="Caminho_320" data-name="Caminho 320" class="cls-80" d="M1567.46,772.67c.86.72,1.87,1.56,2.94,2.47l-18,17.9c-1.21-1-2.29-2-3.15-2.79Z"/><path id="Caminho_321" data-name="Caminho 321" class="cls-81" d="M1573.22,809.32c-5-4.24-14.67-11.17-20.79-16.28l18-17.9c5.45,4.58,13.22,11.1,17.93,14.53,4.85,1.94,7.27,2.36,10.9,3.58h.22a14.74,14.74,0,0,0,5.38,8.92h-.1l.06.13.11-.08-.07-.06a16.63,16.63,0,0,0,9-5.32l.27.12c4,1.08,5.84,1.26,8.51,2,.16,0,2.15.75,2.32.76,0,0,11.08,3,15.58,20.22l2.53,11.19-15.67,1.9-.14,3.56h0l-3.83,33.69s-11.08,10.05-32.21,6.57-25.64-9.72-25.64-9.72L1572,815C1572.33,813.88,1572.84,810.84,1573.22,809.32Z"/><path id="Caminho_322" data-name="Caminho 322" class="cls-80" d="M1598.8,816.44l2.71-13.05a25.38,25.38,0,0,0,3.6-1.21,16.35,16.35,0,0,1,1.68,1.94l-3.53,13.7Z"/><path id="Caminho_323" data-name="Caminho 323" class="cls-80" d="M1612.43,811.77c-2.72-2.59-4.6-7-7.32-9.57-4.28,1.81-9.45,2-13.75,4.58a53.34,53.34,0,0,1,4.45-14.59c1.09.33,2.18.65,3.41,1.06h.22a14.75,14.75,0,0,0,5.38,8.91h-.09l0,.13.11-.07-.07-.06a16.75,16.75,0,0,0,9-5.32,1.23,1.23,0,0,1,.26.12c1.35.35,2.42.6,3.4.83C1618.22,803,1614.06,807.4,1612.43,811.77Z"/><path id="Caminho_324" data-name="Caminho 324" class="cls-82" d="M1602.19,807a1.17,1.17,0,1,0,.94-1.42A1.21,1.21,0,0,0,1602.19,807Z"/><path id="Caminho_325" data-name="Caminho 325" class="cls-82" d="M1600.65,814.11a1.17,1.17,0,1,0,.94-1.42A1.21,1.21,0,0,0,1600.65,814.11Z"/></g></g></g></svg>