<svg xmlns="http://www.w3.org/2000/svg" xmlns:xlink="http://www.w3.org/1999/xlink" viewBox="0 0 182 323.56"><defs><style>.cls-1{fill:#fff;}.cls-2{font-size:12px;fill:#52b7c5;font-family:Montserrat-Bold, Montserrat;font-weight:700;}.cls-3{letter-spacing:0em;}.cls-4{letter-spacing:0em;}.cls-5{letter-spacing:-0.01em;}.cls-6{fill:url(#linear-gradient);}.cls-7{fill:#dcd5cf;}.cls-8{fill:#8a8399;}.cls-9{fill:#f9a877;}.cls-10{fill:#bebe8d;}.cls-11{fill:#ec9328;}.cls-12{fill:#4564a3;}.cls-13{fill:#fbaf2a;}.cls-14{fill:#e76320;}.cls-15{fill:#f47b2d;}.cls-16{fill:#ffca9f;}.cls-17{fill:#da9469;}.cls-18{fill:#ee3b24;}.cls-19{fill:#de1a23;}.cls-20{fill:#9f8ec3;}.cls-21{fill:#eeecae;}.cls-22{fill:#32528d;}.cls-23{fill:#587acc;}.cls-24{fill:#d6895a;}.cls-25{fill:#695298;}.cls-26{fill:#2c1846;}.cls-27{fill:#3d2a5c;}.cls-28{fill:#b1591b;}.cls-29{fill:#7c8155;}.cls-30{fill:#f05324;}.cls-31{fill:#b4b586;}.cls-32{fill:#836eba;}.cls-33{fill:#e9e794;}.cls-34{fill:#426bb4;}.cls-35{fill:#3d5993;}.cls-36{fill:#959770;}.cls-37{fill:#ccc0df;}.cls-38{fill:#ef4e6c;}.cls-39{fill:#af374e;}.cls-40{fill:#ef3d5b;}.cls-41{fill:#785b3f;}.cls-42{fill:#926e4e;}.cls-43{fill:#ab8d73;}.cls-44{fill:#b3c4dc;}.cls-45{fill:#e2996c;}.cls-46{fill:#e1e9f6;}.cls-47{fill:#eef2fa;}.cls-48{fill:#96a9c3;}.cls-49{fill:#bdd1ec;}.cls-50{fill:#574086;}.cls-51{fill:#432a72;}.cls-52{fill:#f6a1a5;}.cls-53{fill:#f27180;}.cls-54{fill:#a7c1e2;}.cls-55{fill:#ccdbf1;}.cls-56{fill:#2a0200;}.cls-57{fill:#dd1f26;}.cls-58{fill:#785c40;}.cls-59{fill:#f9a98d;}.cls-60{fill:#cf8558;}.cls-61{fill:#b89f88;}.cls-62{fill:#a18165;}.cls-63{fill:#e6e0f0;}.cls-64{fill:#f48355;}.cls-65{fill:#cdc6e3;}.cls-66{fill:#4d2902;}.cls-67{font-size:7px;fill:#808d9c;font-family:NotoSans, Noto Sans;}.cls-68{letter-spacing:-0.01em;}</style><linearGradient id="linear-gradient" x1="103.56" y1="373.8" x2="85.74" y2="-42.51" gradientUnits="userSpaceOnUse"><stop offset="0" stop-color="#8fccff"/><stop offset="1" stop-color="#fff"/></linearGradient></defs><title>card1</title><g id="Camada_2" data-name="Camada 2"><g id="OBJECTS"><rect class="cls-1" width="182" height="323.56" rx="15"/><text class="cls-2" transform="translate(29.05 194.73)"><tspan class="cls-3">L</tspan><tspan class="cls-4" x="7.2" y="0">o</tspan><tspan class="cls-5" x="15.06" y="0">r</tspan><tspan x="20.12" y="0">em </tspan><tspan x="0" y="14.4">ipsum dolor</tspan></text><path class="cls-6" d="M182,15V140.2c-12.3-3.62-16.75-12.76-31.39-12.31-21,.64-55.25,40-94,40-11.32,0-19.79-1.68-26.41-4.11a52.91,52.91,0,0,1-8.32-3.88A78,78,0,0,1,12.11,153c-4.27-3.37-7.76-6.17-12.11-6.93V15A15,15,0,0,1,15,0H167A15,15,0,0,1,182,15Z"/><path class="cls-7" d="M126.42,135c0,5.06-17.74,9.17-39.62,9.17S47.18,140.1,47.18,135s17.74-9.17,39.62-9.17S126.42,130,126.42,135Z"/><path class="cls-8" d="M84,50.9a2.39,2.39,0,0,1,.93.58c.25.22.62-.15.36-.36a3,3,0,0,0-1.15-.72c-.32-.08-.46.42-.14.5Z"/><path class="cls-8" d="M92.18,56.75c-.1-.24-.35-.38-.55-.54-.38-.31-.76-.61-1.13-.93s-.7-.67-1-1-.46-.53-.78-.43a.23.23,0,0,0-.16.21c-.06.55,1.32,1.1,1.69,1.33a15,15,0,0,1,1.32.93,2.1,2.1,0,0,0,.65.45v0Z"/><path class="cls-9" d="M67.38,22.06a.75.75,0,0,1-.1.2c0-.11-.07-.22-.1-.32A.82.82,0,0,1,67.38,22.06Z"/><path class="cls-10" d="M89.67,73.35a3.64,3.64,0,0,0,1.11,1.23,5.86,5.86,0,0,1-1-.07C89.76,74.12,89.72,73.74,89.67,73.35Z"/><path class="cls-11" d="M99.49,77.25c1.08-.17,2.19-.32,3.3-.54a6.26,6.26,0,0,0,1.67.74,23.46,23.46,0,0,1-5.36.79h-.66a22.74,22.74,0,0,1-3.72-.3c0-.27-.08-.54-.11-.81A12.08,12.08,0,0,0,99.49,77.25Z"/><path class="cls-12" d="M106.08,77.77A4,4,0,0,1,104.6,79a13.23,13.23,0,0,1-5.08,1.1c-.17-.56-.28-1.18-.42-1.85a23.46,23.46,0,0,0,5.36-.79c.68-.17,1.36-.38,2-.61v1Z"/><path class="cls-13" d="M102.79,76.71a17.62,17.62,0,0,0,3.72-1.07c0,.4,0,.8,0,1.2-.68.23-1.36.44-2,.61A6.26,6.26,0,0,1,102.79,76.71Z"/><path class="cls-14" d="M100,58.57h0c-1.94.77-2.79,4.15-2.66,6,.2,2.53,1.56,4.67,2.73,6.81a18.85,18.85,0,0,0-2.53-1.55c-.33,1.74,1.36,4.28,2.72,5.19.59.38,1.55,1.1,2.52,1.66-1.11.22-2.22.37-3.3.54a12.08,12.08,0,0,1-4.88-.11c-.09-.8-.16-1.59-.2-2.38,0-.13,0-.27,0-.4h-.05a38.25,38.25,0,0,1,1.53-12.53c.15-.56.32-1.12.5-1.68l-.34.24c.83-1.9,1.29-4.23.08-6h0l0,0a4.44,4.44,0,0,1,4.24.74A5.12,5.12,0,0,0,100,58.57Z"/><path class="cls-15" d="M100.08,71.41c-1.17-2.14-2.53-4.28-2.73-6.81-.13-1.88.72-5.26,2.66-6h0a2.75,2.75,0,0,0,1.75,1.62c1.64.64,6-.19,5.62-2.55A9.2,9.2,0,0,1,109.87,60a10.58,10.58,0,0,1,1.75,3.69,7.32,7.32,0,0,0-1.68,1.65,3.27,3.27,0,0,1-.24.27c-.23-.26-.44-.55-.65-.84a11.57,11.57,0,0,1-1.32-2.6c-.25,1-.14,2.15-.32,3.18l.08,0a46.6,46.6,0,0,0-.94,8.52c0,.59,0,1.19,0,1.78a17.62,17.62,0,0,1-3.72,1.07c-1-.56-1.93-1.28-2.52-1.66-1.36-.91-3-3.45-2.72-5.19A18.85,18.85,0,0,1,100.08,71.41Z"/><path class="cls-16" d="M87.9,65.48a1.34,1.34,0,0,1,.21.2l-.29-.09Z"/><path class="cls-17" d="M123.88,77.71a6.18,6.18,0,0,0-1-.61,7.92,7.92,0,0,1,1.44-.26c.94.51,1.93,1.42,1.81,2C125.83,80,124.23,78,123.88,77.71Z"/><path class="cls-17" d="M122.41,77.24c.82.48,2,1.91,1.29,2.51-.55.39-1.44-1.49-2-2.19A6.62,6.62,0,0,1,122.41,77.24Z"/><path class="cls-17" d="M121.37,79.62c-.16-.5-.39-1-.5-1.42a2.77,2.77,0,0,1,.66-.54c.61.54.91,1.47.22,2A.89.89,0,0,0,121.37,79.62Z"/><path class="cls-12" d="M115.23,91.54c.63-1,1.52-2,2.23-3.07a18.08,18.08,0,0,0-1.56,5.36,9.52,9.52,0,0,1-1.89-.68C114.48,92.52,114.92,92,115.23,91.54Z"/><path class="cls-18" d="M115.58,42.41l.09-.08a2.38,2.38,0,0,1-.18.3Z"/><path class="cls-19" d="M116.43,42.32a2,2,0,0,1-1.2,2.22c0,1.6.33,3.77-.34,5.37a6.7,6.7,0,0,1-2.68-1.14,5.55,5.55,0,0,1-.26,1,10.73,10.73,0,0,1-1.36-.57c0-1,0-2,.12-2.91v0a7.28,7.28,0,0,0,2.81-1A4,4,0,0,0,115.35,43C115.7,42.76,116.11,42.54,116.43,42.32Z"/><path class="cls-20" d="M114.57,105a4.86,4.86,0,0,1,0,1.8.49.49,0,0,1,0,.11h0a9.45,9.45,0,0,1-2.88-2.47,3.15,3.15,0,0,1,2.47-1.13c.05.13.1.26.14.4Q114.42,104.32,114.57,105Z"/><path class="cls-18" d="M115.58,42.41c-.85.73-3.17.84-4.15.71-2.14-.26-4.21-1.68-6.29-1.88a2.12,2.12,0,0,0,1.3,1.17c-1.37-.26-3,0-4.43-.53h0c1.34-2,3.44-3.93,6.08-3.8,2.13.13,6.39,1.6,6.52,4.25l0,0A3.34,3.34,0,0,0,116,40.07a4,4,0,0,1-.36,2.26Z"/><path class="cls-10" d="M114.53,106.78c1.22,11.52,2.6,24,2.9,28.25h-.2c-.26,1-1.07,1-1.8.53a.33.33,0,0,1,0-.14l-.12,0c-.25-4-1.68-16.93-2.94-28.76a2.3,2.3,0,0,0,.47.32c1,.53,1.45.37,1.65-.08A.49.49,0,0,0,114.53,106.78Z"/><path class="cls-21" d="M114.17,103.28c0,.14,0,.27,0,.41,0-.14-.09-.27-.14-.4Z"/><path class="cls-22" d="M114,93.15a9.52,9.52,0,0,0,1.89.68,6.49,6.49,0,0,0,0,1.08,9.25,9.25,0,0,1-2.63-.47l0-.25Z"/><path class="cls-10" d="M111.51,97.93a6.08,6.08,0,0,1,1.17-2.9c.14-.21.28-.43.43-.64l.16,0c.26,2.65.56,5.67.9,8.84h-.1a37.8,37.8,0,0,0-2.22-4.56l-.34-.67Z"/><path class="cls-22" d="M113.24,94.19l0,.25-.16,0Z"/><path class="cls-23" d="M112.88,81.08c3.73,1.77,1.07,4.25-.71,7.09-.71,1.29-1.15,3.33-1.85,5l-.65-.32q-.21.83-.45,1.65a9.84,9.84,0,0,1-1.27-.32l-.2-.07a14.35,14.35,0,0,1-1.75-.72c1.84-2.74,4.07-6.1,4.27-9.19a4.43,4.43,0,0,0-2.08,0,3.33,3.33,0,0,1,.65-1.5,2.27,2.27,0,0,0-1.43,1.24c-1.88-.59-4.09-.52-5.84-1.3a3.83,3.83,0,0,1-2-2.55A13.23,13.23,0,0,0,104.6,79l.13,0C108.31,79.6,109.45,79.36,112.88,81.08Z"/><path class="cls-22" d="M115.91,83.35c.13,1.17-1,2.34-1.43,3.37-.58,1.56-1.49,3.31-1.3,5a1.82,1.82,0,0,0,.83,1.43l-.77,1-.13.2a23.8,23.8,0,0,1-2.79-1.22c.7-1.67,1.14-3.71,1.85-5,1.78-2.84,4.44-5.32.71-7.09-3.43-1.72-4.57-1.48-8.15-2.07,2.78.12,5.42-.06,7.94,1.36C113.77,81,115.78,82,115.91,83.35Z"/><path class="cls-24" d="M111.74,51.77c.38.26.73.64.6,1-.18.65-.84.3-1.31-.06a7.68,7.68,0,0,0,.51-.8A.74.74,0,0,1,111.74,51.77Z"/><path class="cls-16" d="M120.59,75.78c1.35.2,2.79-.35,4.23-.12h0l.26.07-.17,0a28.31,28.31,0,0,1-4,1.1c-1.69.19-3-1.1-4.15-2.2A26.37,26.37,0,0,1,113,70.37c-.76-1.18-1.38-2.5-2.13-3.7-.13-.1-.26-.2-.38-.31A13.66,13.66,0,0,1,112,64.77c0,.15.11.29.16.43C113.72,69.5,117.68,72.3,120.59,75.78Z"/><path class="cls-13" d="M109.94,65.31a7.32,7.32,0,0,1,1.68-1.65c.12.38.25.76.39,1.11a13.66,13.66,0,0,0-1.53,1.59,9.57,9.57,0,0,1-.78-.78A3.27,3.27,0,0,0,109.94,65.31Z"/><path class="cls-9" d="M112.49,51.54A1.26,1.26,0,0,1,113.77,53a1.84,1.84,0,0,1-3.43.6l.2-.22c.17-.2.34-.41.49-.62.47.36,1.13.71,1.31.06.13-.38-.22-.76-.6-1A1.3,1.3,0,0,1,112.49,51.54Z"/><path class="cls-25" d="M110.2,98.81a3.09,3.09,0,0,0,1.65-.08,37.8,37.8,0,0,1,2.22,4.56,3.15,3.15,0,0,0-2.47,1.13,6.19,6.19,0,0,1-.5-.82.7.7,0,0,0,.16-.19c.36-.61-.37-1.58-1.44-2.57l-.5-.45a2.22,2.22,0,0,0,.38-1.73A2.07,2.07,0,0,0,110.2,98.81Z"/><path class="cls-16" d="M110.2,98.81c.25-1.48,1.21-4.3,2.48-3.78a6.08,6.08,0,0,0-1.17,2.9v.13l.34.67A3.09,3.09,0,0,1,110.2,98.81Z"/><path class="cls-20" d="M111,103.4a11.57,11.57,0,0,1-2.12-.59c-.55-.16-1.13-.26-1.71-.38.28-1,1.56-1.32,2.64-1.59,1.07,1,1.8,2,1.44,2.57Z"/><path class="cls-26" d="M114.48,106.89h0c-.2.45-.67.61-1.65.08a2.3,2.3,0,0,1-.47-.32,10.07,10.07,0,0,1-1.63-2c-.18-.25-.34-.49-.52-.72l.22,0a1.56,1.56,0,0,0,.66-.31,6.19,6.19,0,0,0,.5.82A9.45,9.45,0,0,0,114.48,106.89Z"/><path class="cls-27" d="M111.1,103.6l-.09-.2h.25A.7.7,0,0,1,111.1,103.6Z"/><path class="cls-9" d="M121.53,77.66a2.77,2.77,0,0,0-.66.54c.11.42.34.92.5,1.42a2.07,2.07,0,0,1,.11,1.28c-1.19-.25-1.9-1.6-2.35-2.81-2.63-1.11-5.65-4.24-7.31-6.5-.52-.78-1-1.59-1.5-2.4-.27-.47-.53-.92-.8-1.37a8,8,0,0,1,1-1.46c.12.11.25.21.38.31.75,1.2,1.37,2.52,2.13,3.7a26.37,26.37,0,0,0,3.83,4.29c1.1,1.1,2.46,2.39,4.15,2.2a28.31,28.31,0,0,0,4-1.1l.17,0c1.11.31,2.5,1,1.35,1.43v0a3.66,3.66,0,0,0-2.16-.35,7.92,7.92,0,0,0-1.44.26l-.43.14a6.62,6.62,0,0,0-.71.32Z"/><path class="cls-9" d="M110.7,46.28h0Z"/><path class="cls-18" d="M111.54,51.93a7.68,7.68,0,0,1-.51.8c-.15.21-.32.42-.49.62a5.69,5.69,0,0,1-.9-.78,5.33,5.33,0,0,0,1-3.34,10.73,10.73,0,0,0,1.36.57,5.55,5.55,0,0,0,.26-1,6.7,6.7,0,0,0,2.68,1.14,3.12,3.12,0,0,1-1.39,1.6l-1,0a1.3,1.3,0,0,0-.75.23A.74.74,0,0,0,111.54,51.93Z"/><path class="cls-9" d="M112.68,95c-1.27-.52-2.23,2.3-2.48,3.78a2.07,2.07,0,0,1-.5-.15,2,2,0,0,1-1.23-1.46c.22-.9.49-1.8.75-2.7l.39,0a7.78,7.78,0,0,0,.71-1.38,23.8,23.8,0,0,0,2.79,1.22C113,94.6,112.82,94.82,112.68,95Z"/><path class="cls-28" d="M110.32,69.19a1.2,1.2,0,0,1-1.19.24.57.57,0,0,1-.13-.14,4.47,4.47,0,0,1,.52-1.47C109.79,68.27,110.05,68.72,110.32,69.19Z"/><path class="cls-23" d="M109.22,94.5q.24-.82.45-1.65l.65.32a7.78,7.78,0,0,1-.71,1.38Z"/><path class="cls-11" d="M108.84,66.73a9,9,0,0,1,.86-1.15,9.57,9.57,0,0,0,.78.78,8,8,0,0,0-1,1.46,3.21,3.21,0,0,0-.19-.31C109.19,67.27,109,67,108.84,66.73Z"/><path class="cls-25" d="M109.7,98.66a2.22,2.22,0,0,1-.38,1.73c-.42-.36-.87-.72-1.33-1.06l.06-.08a18.17,18.17,0,0,1,.42-2A2,2,0,0,0,109.7,98.66Z"/><path class="cls-11" d="M109,69.29a3.74,3.74,0,0,1-.66-1.29,4.06,4.06,0,0,1,.5-1.27c.18.27.35.54.49.78a3.21,3.21,0,0,1,.19.31A4.47,4.47,0,0,0,109,69.29Z"/><path class="cls-10" d="M110.22,104c.18.23.34.47.52.72-1,0-2,0-3,0,0-.36,0-.72,0-1.08A6.61,6.61,0,0,0,110.22,104Z"/><path class="cls-9" d="M107.75,94.11l.2.07-.2.24Z"/><path class="cls-29" d="M107.72,99.12c-.57-.43-1.12-.81-1.57-1.13l-.93-.65c.81-.87,1.7-1.91,2.53-2.92C107.74,95.94,107.73,97.52,107.72,99.12Z"/><path class="cls-14" d="M107.67,64.52a8.25,8.25,0,0,0,1.17,2.21,4.06,4.06,0,0,0-.5,1.27c-.34-1-.48-2.31-.72-3.28A1.46,1.46,0,0,1,107.67,64.52Z"/><path class="cls-29" d="M105.57,104.78l2.13-.06c0,10.77,0,21.78-.18,25.66h-.2c-.36.95-1.16.84-1.85.34a.59.59,0,0,1,0-.14l-.11,0C105.54,126.9,105.54,115.73,105.57,104.78Z"/><path class="cls-14" d="M107.62,64.72c-.05.2-.09.41-.13.62l-.08,0c.18-1,.07-2.13.32-3.18a11.57,11.57,0,0,0,1.32,2.6c.21.29.42.58.65.84a9,9,0,0,0-.86,1.15,8.25,8.25,0,0,1-1.17-2.21A1.46,1.46,0,0,0,107.62,64.72Z"/><path class="cls-13" d="M107.19,75.32a3.19,3.19,0,0,0,.81,1c-.5.2-1,.38-1.5.55,0-.4,0-.8,0-1.2Z"/><path class="cls-15" d="M106.55,73.86a7.1,7.1,0,0,0,.64,1.46l-.68.32C106.52,75.05,106.53,74.45,106.55,73.86Z"/><path class="cls-29" d="M107.56,87.82c-.58.86-1.5,1.67-1.91,2.25,0-.77,0-1.5,0-2.2A15.14,15.14,0,0,1,107.56,87.82Z"/><path class="cls-10" d="M105.58,102.86a15.84,15.84,0,0,0,2.13.78c0,.36,0,.72,0,1.08l-2.13.06C105.57,104.14,105.57,103.5,105.58,102.86Z"/><path class="cls-24" d="M106.14,57.14c.65,1.68-1.68,2.69-3.5,2.12a4.65,4.65,0,0,0,1.33-3,6.11,6.11,0,0,0,2-.1,6.09,6.09,0,0,0-.19.89l.15,0a1.45,1.45,0,0,1,.28,0Z"/><path class="cls-27" d="M105.58,102.77v.09l-.19-.08Z"/><path class="cls-10" d="M97.78,102.87c1.1.09,5.76-.08,7.6-.09h0l.19.08c0,.64,0,1.28,0,1.92-2.64.09-5.25.22-7.87.32C97.73,104.35,97.75,103.6,97.78,102.87Z"/><path class="cls-16" d="M106.15,98v0a15,15,0,0,1-2.48-.58,19.79,19.79,0,0,1,2.34-4,14.35,14.35,0,0,0,1.75.72v.31c-.83,1-1.72,2-2.53,2.92Z"/><path class="cls-12" d="M106.5,77.82c4.14.55,11.32,2.26,12.06,6.67a5.27,5.27,0,0,1-1.1,4c-.71,1.07-1.6,2.07-2.23,3.07-.31.42-.75,1-1.22,1.61a1.82,1.82,0,0,1-.83-1.43c-.19-1.69.72-3.44,1.3-5,.46-1,1.56-2.2,1.43-3.37-.13-1.36-2.14-2.33-3.24-3-2.52-1.42-5.16-1.24-7.94-1.36l-.13,0a4,4,0,0,0,1.48-1.22Z"/><path class="cls-9" d="M104.25,92.38a11.79,11.79,0,0,0,1.75,1,19.79,19.79,0,0,0-2.34,4,2.42,2.42,0,0,1-1.33-1.37h0C102.92,94.84,103.57,93.59,104.25,92.38Z"/><path class="cls-30" d="M115.58,42.41l-.09.22a2.27,2.27,0,0,1-.39.49l.25-.15a4,4,0,0,1-1.84,2.36,7.28,7.28,0,0,1-2.81,1h0l0,0a5.68,5.68,0,0,1-3.81-.38,15.84,15.84,0,0,1,2.53-.4c-2.14-.39-5.42-.64-7.39-2.26.25-.37.51-.74.77-1.1a4.57,4.57,0,0,1-.75-.28c1.39.48,3.06.27,4.43.53a2.12,2.12,0,0,1-1.3-1.17c2.08.2,4.15,1.62,6.29,1.88C112.41,43.25,114.73,43.14,115.58,42.41Z"/><path class="cls-20" d="M102,96.72l.25-.52a4.87,4.87,0,0,1,.61,4.21A8.51,8.51,0,0,1,101,98a1.89,1.89,0,0,1,.29-.51h0A7.15,7.15,0,0,1,102,96.72Z"/><path class="cls-31" d="M102.68,101.19c-1.29,0-2.58-.14-3.87-.07a7.37,7.37,0,0,0-1-.07c0-.56,0-1.12.07-1.67,1,0,2.09.11,3.16,0A5.36,5.36,0,0,0,102.68,101.19Z"/><path class="cls-30" d="M101.36,42.65a4,4,0,0,1-.81-1.51c.22.12.44.25.67.36a.05.05,0,0,0,0,0,2.67,2.67,0,0,0,.7.34l0,.07,0-.06h0a4.57,4.57,0,0,0,.75.28c-.26.36-.52.73-.77,1.1A4,4,0,0,1,101.36,42.65Z"/><path class="cls-32" d="M106.15,98c.45.32,1,.7,1.57,1.13l.27.21c.46.34.91.7,1.33,1.06l.5.45c-1.08.27-2.36.55-2.64,1.59-.44-.09-.88-.17-1.3-.29a7.86,7.86,0,0,1-3-1.73,4.87,4.87,0,0,0-.61-4.21s0-.1.07-.14h0a2.42,2.42,0,0,0,1.33,1.37,15,15,0,0,0,2.48.58Z"/><path class="cls-9" d="M110.71,46.32c-.12.89-.08,1.91-.12,2.91a5.33,5.33,0,0,1-1,3.34,5.69,5.69,0,0,0,.9.78l-.2.22a8.84,8.84,0,0,1-4.42,2.56,6.11,6.11,0,0,1-2,.1A4.73,4.73,0,0,1,101.35,55,6.14,6.14,0,0,1,100,53.25a5.11,5.11,0,0,0,6.09,1.23c2.78-1.36,3.43-5.06,4.21-7.72-1.43.32-3.31.91-4.61-.19a1.2,1.2,0,0,0,.78-1.11c-1.32.4-3.83-.37-5-1.32.17-.3.35-.59.54-.88,2,1.62,5.25,1.87,7.39,2.26a15.84,15.84,0,0,0-2.53.4,5.68,5.68,0,0,0,3.81.38h0Z"/><path class="cls-18" d="M101.26,41.52c.23.12.46.24.7.34A2.67,2.67,0,0,1,101.26,41.52Z"/><path class="cls-33" d="M106.77,85a1.53,1.53,0,0,1,1,.57c.57.69.32,1.47-.18,2.22a15.14,15.14,0,0,0-1.88.05c-2.28.16-4.93.62-7.16.26a6.74,6.74,0,0,1-.89-.2,9.5,9.5,0,0,1,.12-2.55h0c.86,0,2.29-.09,3.83-.16h0l1,0a12,12,0,0,0,1.4-.14C105,85.06,106,85,106.77,85Z"/><path class="cls-16" d="M105.72,46.57c1.3,1.1,3.18.51,4.61.19-.78,2.66-1.43,6.36-4.21,7.72A5.11,5.11,0,0,1,100,53.25c0-.06-.07-.12-.1-.19a7,7,0,0,1-.27-4.75,6.61,6.61,0,0,1,.22-.76c.08-.26.17-.51.27-.76a16.68,16.68,0,0,1,1.3-2.65c1.22,1,3.73,1.72,5,1.32A1.2,1.2,0,0,1,105.72,46.57Z"/><path class="cls-17" d="M101.05,55.73c.1-.26.22-.5.3-.72A4.73,4.73,0,0,0,104,56.23a4.65,4.65,0,0,1-1.33,3,2.79,2.79,0,0,1-2-2.73h.18A4.22,4.22,0,0,1,101.05,55.73Z"/><path class="cls-27" d="M108.89,102.81a11.57,11.57,0,0,0,2.12.59l.09.2a1.56,1.56,0,0,1-.66.31l-.22,0a6.61,6.61,0,0,1-2.51-.31,15.84,15.84,0,0,1-2.13-.78v-.09h-.2a14.44,14.44,0,0,1-2.7-1.59,5.36,5.36,0,0,1-1.59-1.77A1.77,1.77,0,0,1,101,98a8.51,8.51,0,0,0,1.88,2.46,7.86,7.86,0,0,0,3,1.73c.42.12.86.2,1.3.29S108.34,102.65,108.89,102.81Z"/><path class="cls-13" d="M106.16,57.09a3.77,3.77,0,0,1,1.23.55c.4,2.36-4,3.19-5.62,2.55A2.75,2.75,0,0,1,100,58.57a5.12,5.12,0,0,1,.41-3.43,2.43,2.43,0,0,1,.48.58h.14a4.22,4.22,0,0,0-.23.79h-.18a2.79,2.79,0,0,0,2,2.73c1.82.57,4.15-.44,3.5-2.12Z"/><path class="cls-19" d="M100.12,45.22c.07-.19.16-.37.24-.56.36-.74.77-1.45,1-2a4,4,0,0,0,.63.61c-.19.29-.37.58-.54.88a16.68,16.68,0,0,0-1.3,2.65,3.61,3.61,0,0,1-.42-.16A4.47,4.47,0,0,1,100.12,45.22Z"/><path class="cls-24" d="M99.49,45.33a.7.7,0,0,1,.63-.11,4.47,4.47,0,0,0-.39,1.41C99.11,46.36,98.61,45.9,99.49,45.33Z"/><path class="cls-18" d="M100.15,46.79c-.1.25-.19.5-.27.76a1.57,1.57,0,0,1-.15-.92A3.61,3.61,0,0,0,100.15,46.79Z"/><path class="cls-9" d="M99.49,45.33c-.88.57-.38,1,.24,1.3a1.57,1.57,0,0,0,.15.92,6.61,6.61,0,0,0-.22.76c-3.53-.89-.1-5.38.7-3.65-.08.19-.17.37-.24.56A.7.7,0,0,0,99.49,45.33Z"/><path class="cls-34" d="M110.27,84.2c-.2,3.09-2.43,6.45-4.27,9.19a11.79,11.79,0,0,1-1.75-1c.44-.78.89-1.54,1.36-2.26l0-.05c.41-.58,1.33-1.39,1.91-2.25s.75-1.53.18-2.22a1.53,1.53,0,0,0-1-.57,8.69,8.69,0,0,0-2.77.08l-2.36.11h0a9.53,9.53,0,0,1-3.27-.66,4.59,4.59,0,0,1-2.84-2.69q-.12-.27-.24-.57A11.36,11.36,0,0,1,94.8,80a29.68,29.68,0,0,0,4.72.13,3.83,3.83,0,0,0,2,2.55c1.75.78,4,.71,5.84,1.3a2.27,2.27,0,0,1,1.43-1.24,3.33,3.33,0,0,0-.65,1.5A4.43,4.43,0,0,1,110.27,84.2Z"/><path class="cls-10" d="M96.39,88l0-.14a10.37,10.37,0,0,0,1.22.14h0s0,0,0-.07a6.74,6.74,0,0,0,.89.2v0c-.19,2.39-.39,6.43-.59,11.21,0,.55-.05,1.11-.07,1.67s0,1.21-.08,1.82,0,1.48-.08,2.23c-.48,12.32-1,26.82-1.29,31.41h-.2c-.4.93-1.2.8-1.86.27a.34.34,0,0,1,0-.1l-.1-.08c.34-4.3.82-19.18,1.31-31.75,0-.68.05-1.35.08-2s0-1.24.07-1.85.06-1.24.08-1.84C96,94.39,96.2,90.37,96.39,88Z"/><path class="cls-10" d="M89.12,82.14c2.66.71,5.41,2.64,7.89,3.21a4,4,0,0,0,.74,0,9.5,9.5,0,0,0-.12,2.55s0,0,0,.07h0a10.37,10.37,0,0,1-1.22-.14,17.48,17.48,0,0,1-3.81-1.2c-.7-.29-1.39-.62-2-1-.45-.23-.87-.46-1.28-.69-.92-.51-.69-1.75-.39-3.07l0,0h.19Z"/><path class="cls-29" d="M95.52,81.87a4.59,4.59,0,0,0,2.84,2.69,9.53,9.53,0,0,0,3.27.66c-1.54.07-3,.14-3.83.16a12.67,12.67,0,0,1-2-.86c-.75-.34-2.12-1.73-1.74-2.57Z"/><path class="cls-28" d="M95.35,59.36c-.23.72-.53,1.39-.78,1.46s-.33-.19-.4-.93A10.38,10.38,0,0,1,95.35,59.36Z"/><path class="cls-35" d="M94.61,78v0h.1a22.74,22.74,0,0,0,3.72.3h.66c.14.67.25,1.29.42,1.85A29.68,29.68,0,0,1,94.8,80,3.79,3.79,0,0,1,94.61,78Z"/><path class="cls-11" d="M94.62,77.94l-.8-.14a6.45,6.45,0,0,0,.27-.85,4,4,0,0,0,.52.19c0,.27.07.54.11.81Z"/><path class="cls-11" d="M94.57,60.82c.25-.07.55-.74.78-1.46a6.57,6.57,0,0,0,.33-1.6,6.64,6.64,0,0,0-.52-3c.32-.15.66-.29,1-.43,1.21,1.81.75,4.14-.08,6a3.84,3.84,0,0,1-1.72.73v-.43c0-.06.15.18.24.15Z"/><path class="cls-15" d="M94.41,74.76c0,.79.11,1.58.2,2.38a4,4,0,0,1-.52-.19A12.44,12.44,0,0,0,94.41,74.76Z"/><path class="cls-33" d="M94.38,74.36,93,74.48a17.75,17.75,0,0,1-.86-5.36,18.59,18.59,0,0,1,1.15-7.25,18.63,18.63,0,0,1,2.6,0A38.25,38.25,0,0,0,94.38,74.36Z"/><path class="cls-21" d="M92,74.56c-.4,0-.79,0-1.17,0a3.64,3.64,0,0,1-1.11-1.23c-1.23-2.08-1-5.39-1-7.64.38-.07.49-.4,0-1.11a25.26,25.26,0,0,1,2.07-2.19,11,11,0,0,1,2.62-.54,18.59,18.59,0,0,0-1.15,7.25A17.75,17.75,0,0,0,93,74.48Z"/><path class="cls-31" d="M91.56,98.73a39.35,39.35,0,0,0,4,.39l.19,0c0,.6,0,1.22-.08,1.84h0c-1.07-.19-2.26,0-3.26-.26h0a10.31,10.31,0,0,0-1.25-.68c0-.45.09-.9.13-1.34Z"/><path class="cls-31" d="M92.42,100.72c1.17.74,2.33,1.65,3.23,2.11,0,.66-.05,1.33-.08,2a21.34,21.34,0,0,1-4.64-2.38c.08-.82.16-1.63.24-2.42A10.31,10.31,0,0,1,92.42,100.72Z"/><path class="cls-29" d="M91.17,100a4.47,4.47,0,0,0-.86-.31,2.67,2.67,0,0,0-.48-.08l-.76-.07c.58-5.78,1.1-10.86,1.5-13.87.64.33,1.33.66,2,1-.36,2.84-.81,7.14-1.3,12C91.26,99.14,91.21,99.59,91.17,100Z"/><path class="cls-29" d="M90.78,74.58c.38,0,.77,0,1.17,0,.28,2.63.33,5.13.67,7.46-.72,0-1.45,0-2.16,0a53.39,53.39,0,0,0-.64-7.53A5.86,5.86,0,0,0,90.78,74.58Z"/><path class="cls-31" d="M91.17,100c-.08.79-.16,1.6-.24,2.42-1-.78-1.42-1.69-.62-2.73A4.47,4.47,0,0,1,91.17,100Z"/><path class="cls-29" d="M89.83,99.65a2.67,2.67,0,0,1,.48.08c-.8,1-.33,2,.62,2.73-1.13,11.58-2.36,25.05-3,30.29a19,19,0,0,0-2-.87c.7-6,2-20.59,3.19-32.3Z"/><path class="cls-36" d="M90.46,82c.71,0,1.44,0,2.16,0L94.06,82c-.38.84,1,2.23,1.74,2.57a12.67,12.67,0,0,0,2,.86h0a4,4,0,0,1-.74,0c-2.48-.57-5.23-2.5-7.89-3.21V82C89.56,82,90,82,90.46,82Z"/><path class="cls-16" d="M87.9,65.48c.24-.3.47-.59.72-.88.54.71.43,1,0,1.11a1.58,1.58,0,0,1-.56,0A1.34,1.34,0,0,0,87.9,65.48Z"/><path class="cls-37" d="M86.88,53.74c-.77-.53-1.58-1.06-2.42-1.64l0,0a6.47,6.47,0,0,1,1.06-2l4.08,3,.19.26c-.08,0-.22.07-.31.12a11.78,11.78,0,0,1-1.43.56,3,3,0,0,1-.45.21C87.41,54.08,87.1,53.89,86.88,53.74Z"/><path class="cls-38" d="M88.24,132.93c-.85,0-1.68.17-2.52.22,0-.36.1-.79.16-1.27a19,19,0,0,1,2,.87Z"/><path class="cls-16" d="M87.82,65.59a2.81,2.81,0,0,1-.51-.22c.36-.35.73-.69,1.07-1a.34.34,0,0,1,.09.08l.07.09.08.1c-.25.29-.48.58-.72.88Z"/><path class="cls-16" d="M86.86,66.87c.3-.43.63-.86,1-1.28l.29.09c.31.31.45.67.06,1.06S87.35,67,86.86,66.87Z"/><path class="cls-39" d="M86.25,134l1,0A.93.93,0,0,1,86.25,134Z"/><path class="cls-10" d="M87.33,67.84a1.3,1.3,0,0,0-.5-.92l0,0c.49.13,1,.16,1.31-.13s.25-.75-.06-1.06a1.58,1.58,0,0,0,.56,0c0,2.25-.23,5.56,1,7.64,0,.39.09.77.15,1.16a2.68,2.68,0,0,1-1.23-.44C87,73,87.3,69.7,87.34,67.84Z"/><path class="cls-16" d="M86.87,65.09c-.47-.35-.79-.81-.63-1.28a2,2,0,0,1,2.14.52c-.34.35-.71.69-1.07,1A4.08,4.08,0,0,1,86.87,65.09Z"/><path class="cls-16" d="M86.73,66.83a4.78,4.78,0,0,1-.52-.2,9.28,9.28,0,0,1,1.1-1.26,2.81,2.81,0,0,0,.51.22c-.33.42-.66.85-1,1.28Z"/><path class="cls-16" d="M86,68.14c.27-.4.55-.81.85-1.22a1.3,1.3,0,0,1,.5.92c0,.36-.26.61-.74.54A1.7,1.7,0,0,1,86,68.14Z"/><path class="cls-16" d="M86.83,66.92c-.3.41-.58.82-.85,1.22a.39.39,0,0,1-.14-.08l-.22-.15a3.93,3.93,0,0,1,.59-1.28,4.78,4.78,0,0,0,.52.2Z"/><path class="cls-16" d="M85.42,69l.12-.2.44-.65a1.7,1.7,0,0,0,.61.24c-.31.71-.73.82-1.1.65Z"/><path class="cls-40" d="M85.72,133.15c.84-.05,1.67-.17,2.52-.22.52.32.86.66.88,1H89l-1.79,0-1,0a2,2,0,0,1-.5-.34.29.29,0,0,1,0-.09l-.1-.09C85.69,133.39,85.71,133.27,85.72,133.15Z"/><path class="cls-16" d="M85.54,68.79a3.61,3.61,0,0,1,.08-.88l.22.15a.39.39,0,0,0,.14.08Z"/><path class="cls-16" d="M85.08,67.44c-.3-.33-.45-.7,0-1a.62.62,0,0,1,.76,0h0a2.33,2.33,0,0,0,.36.23l0,0a3.93,3.93,0,0,0-.59,1.28A3.37,3.37,0,0,1,85.08,67.44Z"/><path class="cls-16" d="M85.42,69c-.57-.33-.92-1.29-.34-1.55a3.37,3.37,0,0,0,.54.47,3.61,3.61,0,0,0-.08.88Z"/><path class="cls-16" d="M85,64.76l.11-.09c.27-.13,1.47.34,1.73.47l0,0a4.08,4.08,0,0,0,.44.28,9.28,9.28,0,0,0-1.1,1.26l0,0a2.33,2.33,0,0,1-.36-.23C85.26,66,84.55,65.17,85,64.76Z"/><path class="cls-9" d="M85.1,64.67l-.11.09-.21-.15a4.85,4.85,0,0,1,.31-.4c1-1.23,1.69-.91,2.92-1.29a8.07,8.07,0,0,0,2.34-1.5A19.24,19.24,0,0,0,93.07,59c.77-1.07.41-2.13,0-3.25.7-.35,1.4-.69,2.1-1a6.64,6.64,0,0,1,.52,3,6.57,6.57,0,0,1-.33,1.6,10.38,10.38,0,0,0-1.18.53,16.22,16.22,0,0,0-3.48,2.52,25.26,25.26,0,0,0-2.07,2.19l-.08-.1-.07-.09a.34.34,0,0,0-.09-.08,2,2,0,0,0-2.14-.52c-.16.47.16.93.63,1.28l0,0C86.57,65,85.37,64.54,85.1,64.67Z"/><path class="cls-37" d="M83.43,50.31a7.18,7.18,0,0,0,.31-1A3.1,3.1,0,0,1,84,49c.25.12.7.41.87.52a9.12,9.12,0,0,1-1.11,2.1l-.63-.47a7.2,7.2,0,0,0,.35-.78Z"/><path class="cls-9" d="M84.46,52.1c.84.58,1.65,1.11,2.42,1.64a3.34,3.34,0,0,1-1.77-.19,7.87,7.87,0,0,1-1.51-.91c-.3-.21-1.47-.65-1.56-1.08s.48-.82.56-1.08a2.86,2.86,0,0,0,.26-1.35,2.6,2.6,0,0,0-.28-1.39c0-.05,0-.07,0-.07,1.28-.32,1.35.67,1.11,1.68a4.32,4.32,0,0,1-.31,1h0a7.2,7.2,0,0,1-.35.78l.63.47Z"/><path class="cls-16" d="M88.07,54c-.94.4-1.65,1.31-2.83,1.42a5.38,5.38,0,0,1-3.85-1.6c-.3.82-.91,2.29-2,2.08-.54-.12-.94-.81-1.35-1.21l.57-.59,0,0,.34-.34c.07-.52.29-1.7.78-1.84l.07-.09c1.5-.76,2.5-3.58,2.77-4.09a2.6,2.6,0,0,1,.28,1.39,2.86,2.86,0,0,1-.26,1.35c-.08.26-.6.78-.56,1.08s1.26.87,1.56,1.08a7.87,7.87,0,0,0,1.51.91,3.34,3.34,0,0,0,1.77.19c.22.15.55.35.76.5.18,0,.25-.15.43-.22Z"/><path class="cls-9" d="M85,66.4c-.41.34-.26.71,0,1-.58.26-.23,1.22.34,1.55l.07,0a12.77,12.77,0,0,0,0,2.64c-1,.74-1.49-.51-1.5-1.38A8.94,8.94,0,0,0,81.7,72.2a9.2,9.2,0,0,1,.8-1.76c.71-1,1.49-1.43,1.56-2.47,0-1.45-.11-2.23.72-3.36l.21.15c-.44.41.27,1.19.82,1.61h0A.62.62,0,0,0,85,66.4Z"/><path class="cls-38" d="M83.58,132.2c.4-.1,1-.47,1.5-.61l.8.29c-.06.48-.11.91-.16,1.27a8.54,8.54,0,0,1-2.25-.1,5.19,5.19,0,0,1-1.65-.69A4.91,4.91,0,0,0,83.58,132.2Z"/><path class="cls-9" d="M80,67.06a7.48,7.48,0,0,1,0-1.88l.59.2c1.3.39,1.49-.65,2.15-1.69a13,13,0,0,0,1.39-2.23c.45,0,.4.88,0,1.58l0,0c-.82,1.46-1.5,3.06-2.23,4.71a5.47,5.47,0,0,1-1,0v0C80.72,67.5,80.36,67.28,80,67.06Z"/><path class="cls-41" d="M79.32,23.22a1.82,1.82,0,0,0,1.9-2.09,6.15,6.15,0,0,1,.43,1.75c.13,1.69.33,2.53-1,3.63a4,4,0,0,1-2.72,1.06A13,13,0,0,0,79.32,23.22Z"/><path class="cls-40" d="M83.47,133.05a8.54,8.54,0,0,0,2.25.1c0,.12,0,.24,0,.35l.1.09a.29.29,0,0,0,0,.09,2,2,0,0,0,.5.34,38,38,0,0,1-9.33-.49l0,0a1,1,0,0,1-.15-.38,5.26,5.26,0,0,1,0-1.71l.12,0a26.26,26.26,0,0,0,4.57.84l.46,0A5.19,5.19,0,0,0,83.47,133.05Z"/><path class="cls-42" d="M79.59,17.55a.22.22,0,0,0,0-.08c0-.57,0-1.15,0-1.71l.65-.29,1-.2a6.84,6.84,0,0,0,.21,1c.9,2.92,3.88,5.44,3.24,8-.7,2.88-4.18,5.56-7.16,4.35l-.32,0a4.53,4.53,0,0,0,.52-.73,2.91,2.91,0,0,0,.17-.3,4,4,0,0,0,2.72-1.06c1.37-1.1,1.17-1.94,1-3.63a6.15,6.15,0,0,0-.43-1.75,1.46,1.46,0,0,0-.53-1.08l-.34-.61a4.52,4.52,0,0,1-.76-1.8v-.09Z"/><path class="cls-9" d="M81.22,21.13a10.75,10.75,0,0,0-.53-1.08A1.46,1.46,0,0,1,81.22,21.13Z"/><path class="cls-16" d="M82.76,63.69c-.66,1-.85,2.08-2.15,1.69l-.59-.2a4.84,4.84,0,0,1,.54-1.66,2.65,2.65,0,0,0,1.5,0,2,2,0,0,1,.26-.12,2.81,2.81,0,0,0,.85-.69c.18-.21.17-.8.38-.93a1.1,1.1,0,0,1,.6-.29A13,13,0,0,1,82.76,63.69Z"/><path class="cls-41" d="M80.35,19.44l.34.61a1,1,0,0,0-1.1-.25q0-1.08,0-2.16A4.52,4.52,0,0,0,80.35,19.44Z"/><path class="cls-43" d="M80.12,11.16l.16.19-.09.09A2.29,2.29,0,0,0,80.12,11.16Z"/><path class="cls-42" d="M80.12,11.16a2.29,2.29,0,0,1,.07.28c-2.2,2.25-6.14,2.62-8.92,1.84.65.65,1.3,1.56,1.82,2.2-1.46-.29-6.28-1.53-8.16-3.17a4.38,4.38,0,0,1-.11-.94,9.83,9.83,0,0,1,8.27-3.26c3,.28,5.47,1.18,7,3.05Z"/><path class="cls-44" d="M80.56,63.52A4.84,4.84,0,0,0,80,65.18c-1.2-.42-2.87-1.27-3.37-2.2s.29-1.83,1-2.47A5.25,5.25,0,0,0,80.56,63.52Z"/><path class="cls-45" d="M79.55,20.72c.39-.27,1,.29.93.82a1,1,0,0,1-1,.82C79.5,21.81,79.53,21.27,79.55,20.72Z"/><path class="cls-9" d="M79.59,19.8a1,1,0,0,1,1.1.25,10.75,10.75,0,0,1,.53,1.08,1.82,1.82,0,0,1-1.9,2.09c.05-.29.08-.57.12-.86a1,1,0,0,0,1-.82c.08-.53-.54-1.09-.93-.82C79.57,20.41,79.58,20.11,79.59,19.8Z"/><path class="cls-16" d="M79.59,17.6a.07.07,0,0,1,0-.05h0Z"/><path class="cls-16" d="M79.58,17.47a.22.22,0,0,1,0,.08h0Z"/><path class="cls-43" d="M79.22,15.9c.6-.31,1.14-.89,1.72-1.26-.78,0-1.62,0-2.4-.06a2.39,2.39,0,0,0,1.65-3.14l.09-.09a8,8,0,0,1,1.5,4.82l-.34.1a6.84,6.84,0,0,1-.21-1l-1,.2-.65.29-.34.16Z"/><path class="cls-43" d="M78.54,14.58c.78.06,1.62.06,2.4.06-.58.37-1.12.95-1.72,1.26v0c-1.78.88-2.82,1.77-5.09,1.9a15.15,15.15,0,0,1-6-1.1l.07.11a7.62,7.62,0,0,1-3.32-4.52c1.88,1.64,6.7,2.88,8.16,3.17-.52-.64-1.17-1.55-1.82-2.2,2.78.78,6.72.41,8.92-1.84A2.39,2.39,0,0,1,78.54,14.58Z"/><path class="cls-16" d="M79.37,127.75l.08,0a21.94,21.94,0,0,0,3.73,3.06,13,13,0,0,0,1.9.81c-.46.14-1.1.51-1.5.61a4.91,4.91,0,0,1-1.76.16c-1.73-1.13-2.69-3.19-3.8-5-1.3-2.07-7.53-11.81-3.38-13l.24-.07C76.26,118.85,78,123.41,79.37,127.75Z"/><path class="cls-9" d="M77.19,70.2c.56-1,2.38-.59,3.37-.37C79.52,70.07,78.06,70.52,77.19,70.2Z"/><path class="cls-9" d="M77.83,68.2c.74-.54,2.41-.52,2.22.44a9.34,9.34,0,0,0-2.34-.12A.82.82,0,0,1,77.83,68.2Z"/><path class="cls-46" d="M62.2,36.52a2,2,0,0,1,1.41-.92,1.48,1.48,0,0,1,1.14.5c-1,1-.79,3.79-.79,5.08a76.58,76.58,0,0,0,.43,7.7c.26,2.59.78,5.27,1.3,7.87.52,2.33,1.3,4.58,4.15,4.24,2.69-.35,6.58-3.11,8.57-4.93v0A11.16,11.16,0,0,0,80,57.37c-.84.74-1.77,1.54-2.74,2.32A35.5,35.5,0,0,1,74.15,62a13.61,13.61,0,0,1-4.05,1.85,5.31,5.31,0,0,1-3.14-.1,3.78,3.78,0,0,1-1-.51c-1.86-1.54-2.49-5.72-2.84-7.73A60.9,60.9,0,0,1,62,45.26C61.85,42.46,61.35,39.21,62.2,36.52Z"/><path class="cls-16" d="M88,62.92c-1.23.38-2,.06-2.92,1.29a4.85,4.85,0,0,0-.31.4c-.83,1.13-.72,1.91-.72,3.36-.07,1-.85,1.5-1.56,2.47a9.2,9.2,0,0,0-.8,1.76c-.49.51-1,1-1.45,1.47l-.1-.11a1.06,1.06,0,0,1-.49.08v-.08c.08-1.37,1.23-2,2.17-2.9l-.3,0c-.56.24-3.79,2.13-4,1.19v0c0-.62,2.25-1.48,3.26-1.87l.26-.11,0-.05-.48.09c-1-.22-2.81-.59-3.37.37l-.13,0a5.09,5.09,0,0,1,3.09-1.31l0-.17-.14,0c.19-1-1.48-1-2.22-.44.48-.71,2.06-.55,3.22-.45a5.47,5.47,0,0,0,1,0c.73-1.65,1.41-3.25,2.23-4.71a12.82,12.82,0,0,1,4.86-5.2c1.28-.69,2.61-1.42,4-2.1.42,1.12.78,2.18,0,3.25a19.24,19.24,0,0,1-2.72,2.4A8.07,8.07,0,0,1,88,62.92Z"/><path class="cls-9" d="M79.36,55.93c1.12.21,1.73-1.26,2-2.08a5.38,5.38,0,0,0,3.85,1.6c1.18-.11,1.89-1,2.83-1.42h0a11.78,11.78,0,0,0,1.39-.66s.59-.34,1-.09a7,7,0,0,1-1.63,1.64,6.87,6.87,0,0,1-1.17,1.74l0,.07a5.64,5.64,0,0,1-3.79.33c-.61-.13-1.8-.31-2.79-.61-.34.29-.69.61-1.07.93A11.16,11.16,0,0,1,78.42,56a4.54,4.54,0,0,1-.75-1l.34-.33C78.42,55.12,78.82,55.81,79.36,55.93Z"/><path class="cls-47" d="M64.75,36.1c1,1.08,1.2,3.68,1.28,5.36h0A92.59,92.59,0,0,0,68.54,56c.17.48.18,1.13.34,1.66a1.15,1.15,0,0,0,.8.91c.61.19,1.93-.56,3.35-1.55,1.19-.84,2.44-1.83,3.4-2.58.43-.35.8-.64,1.08-.85a.92.92,0,0,0-.07.26,1.7,1.7,0,0,0,.23,1.17,4.54,4.54,0,0,0,.75,1v0c-2,1.82-5.88,4.58-8.57,4.93-2.85.34-3.63-1.91-4.15-4.24-.52-2.6-1-5.28-1.3-7.87a76.58,76.58,0,0,1-.43-7.7C64,39.89,63.74,37.11,64.75,36.1Z"/><path class="cls-48" d="M74.15,62a35.5,35.5,0,0,0,3.13-2.27,7.11,7.11,0,0,0,.34.82c-.68.64-1.39,1.5-1,2.47s2.17,1.78,3.37,2.2a7.48,7.48,0,0,0,0,1.88C77.76,65.8,74.87,64.63,74.15,62Z"/><path class="cls-39" d="M76.92,133.53a38,38,0,0,0,9.33.49.93.93,0,0,0,1,0L89,134h.09V134h.11a4.8,4.8,0,0,1,0,.93c-2.2.67-5,.27-7.32.27a11.88,11.88,0,0,1-4.32-.47c-.86-.37-.9-.84-.87-1.59a1,1,0,0,0,.15.38Z"/><path class="cls-48" d="M73.19,54.58c1.36-2.31,2.94-5,4-7-.62,2-1.3,5.22-.84,6.84l0,0c-1,.75-2.21,1.74-3.4,2.58A13.44,13.44,0,0,1,73.19,54.58Z"/><path class="cls-49" d="M75.35,105.79l-.36.33c-4.12-6.22-5.8-13.72-6.31-21.21-.33-4.73-1.78-12.61.7-17.52a52.13,52.13,0,0,0,1,14.82C72.19,89.92,74,98,75.35,105.79Z"/><path class="cls-50" d="M75.23,113.06q-.32.16-.63.3c-.38-1.29-.73-2.58-1-3.85l.57-.21h0C74.48,110.57,74.78,111.84,75.23,113.06Z"/><path class="cls-50" d="M74.6,113.36h0a31.46,31.46,0,0,1-6,2c-1.64.39-3.31.7-5,1-1.19.19-2.5.39-3.85.51,0-1.54,0-3,0-4.25,2.18-.35,4.7-.22,6.49-.47.26-1.3.52-2.73.91-4A7.86,7.86,0,0,0,68.29,111c1.64-.82,3.49-.9,5.27-1.48C73.87,110.78,74.22,112.07,74.6,113.36Z"/><path class="cls-9" d="M68.56,115.37a31.46,31.46,0,0,0,6-2c.09.3.18.61.28.92l-.24.07c-4.15,1.17,2.08,10.91,3.38,13,1.11,1.83,2.07,3.89,3.8,5l-.46,0a26.26,26.26,0,0,1-4.57-.84l-.12,0a12.89,12.89,0,0,1,.43-2.23C74.35,124.49,70.68,120.29,68.56,115.37Z"/><path class="cls-51" d="M73.57,107.25c.22.68.41,1.36.58,2h0l-.57.21c-.15-.66-.3-1.31-.43-2Z"/><path class="cls-52" d="M70.93,33.63a5.27,5.27,0,0,0,1.78-.39l.11-.05q0,.81,0,1.59a4.84,4.84,0,0,1-3.39.33c-.21-.62-.44-1.25-.67-1.85A4.72,4.72,0,0,0,70.93,33.63Z"/><path class="cls-53" d="M72.85,34.78a54.47,54.47,0,0,1-.62,10.42.06.06,0,0,1,0,0,90.72,90.72,0,0,0-2.76-10A4.84,4.84,0,0,0,72.85,34.78Z"/><path class="cls-47" d="M72.23,45.2a54.47,54.47,0,0,0,.62-10.42q0-.78,0-1.59l-.11.05a26.83,26.83,0,0,1,.19-3.16h0a7.16,7.16,0,0,1,2.32,2.8h0a8,8,0,0,1,.31,1.64c.17,1.74,0,3.78.2,5.41l-1.06-.14c.24.93.19,1.27,1.38,1.79-1.89,2.94-3.49,6.08-5.2,9.06.22-.76.44-1.52.64-2.29a32.6,32.6,0,0,0,.69-3.2A.06.06,0,0,0,72.23,45.2Z"/><path class="cls-9" d="M71.1,28.93a6.08,6.08,0,0,0,1.9.86,1.63,1.63,0,0,0-.1.29,26.83,26.83,0,0,0-.19,3.16,5.27,5.27,0,0,1-1.78.39c-.43-.85-1.33-4.55.15-4.71Z"/><path class="cls-16" d="M79.55,20.72c0,.55,0,1.09-.11,1.64,0,.29-.07.57-.12.86a13,13,0,0,1-1.43,4.35,2.91,2.91,0,0,1-.17.3,4.53,4.53,0,0,1-.52.73,3.86,3.86,0,0,1-3.72,1.29A8.71,8.71,0,0,1,69,19.83a5,5,0,0,1,1.36.26,2.73,2.73,0,0,1-.13-1.23c2,1.27,7.21.49,9.35-1.31a.07.07,0,0,0,0,.05v0q0,1.08,0,2.16C79.58,20.11,79.57,20.41,79.55,20.72Z"/><path class="cls-54" d="M69.68,58.6a1.15,1.15,0,0,1-.8-.91l.12,0a68.57,68.57,0,0,1,1.89-7c1.71-3,3.31-6.12,5.2-9.06-1.19-.52-1.14-.86-1.38-1.79l1.06.14c-.16-1.63,0-3.67-.2-5.41,1.16,3.4,3.63,7.23,3,10.55a26.51,26.51,0,0,1-1.33,2.51c-1.1,1.95-2.68,4.68-4,7A13.44,13.44,0,0,0,73,57.05C71.61,58,70.29,58.79,69.68,58.6Z"/><path class="cls-54" d="M66.39,65.78c.17-.71.35-1.39.57-2.07a5.31,5.31,0,0,0,3.14.1,15.25,15.25,0,0,0-.72,3.58c-2.48,4.91-1,12.79-.7,17.52.51,7.49,2.19,15,6.31,21.21-.45.39-.93.78-1.42,1.13l-.44.31a7.23,7.23,0,0,1-3.61,1.31c-.44-3.45-2-6.87-2.77-10.37-.28-1.09-1.06-4.46-1.5-7.22,0-1.68,0-3.37,0-5.06C65.18,79.71,64.84,72.31,66.39,65.78Z"/><path class="cls-45" d="M67.71,25.43a1.49,1.49,0,0,0,.37-.31l.16-.07a7.81,7.81,0,0,0,2.84,3.87c-1.48.16-.58,3.86-.15,4.71a4.72,4.72,0,0,1-2.14-.37c-.23-.62-.47-1.22-.73-1.81q.07-.73.12-1.44c0-.21,0-.41,0-.61a15.05,15.05,0,0,0,0-1.65A9.18,9.18,0,0,0,67.71,25.43Z"/><path class="cls-47" d="M63.83,33.23A37.24,37.24,0,0,1,68.11,30h.07q0,.7-.12,1.44c.26.59.5,1.19.73,1.81s.46,1.23.67,1.85a90.72,90.72,0,0,1,2.76,10,32.6,32.6,0,0,1-.69,3.2l-.24-.06c-1.6-2.89-3.19-5.78-2.05-9a1.74,1.74,0,0,0-1,.59C66.47,37.74,65.73,35.24,63.83,33.23Z"/><path class="cls-9" d="M69,19.83a8.71,8.71,0,0,0,4.48,10.06,2.73,2.73,0,0,1-.48-.1,6.08,6.08,0,0,1-1.9-.86h0a7.81,7.81,0,0,1-2.84-3.87c-.13-.34-.25-.68-.37-1s-.31-.92-.46-1.37c0-.14-.08-.27-.13-.4a.75.75,0,0,0,.1-.2,5.3,5.3,0,0,0,.12-3.72c0-.08,0-.17-.08-.26A15,15,0,0,0,69.2,19a8,8,0,0,0-1-2.16l-.07-.11a15.15,15.15,0,0,0,6,1.1c2.27-.13,3.31-1,5.09-1.9l.34-.16c0,.56,0,1.14,0,1.71v.08c-2.14,1.8-7.39,2.58-9.35,1.31a2.73,2.73,0,0,0,.13,1.23A5,5,0,0,0,69,19.83Z"/><path class="cls-41" d="M63.74,24.05c.13-2.4,3.19-3.31,3.51-5.65l.25-.06a5.3,5.3,0,0,1-.12,3.72.82.82,0,0,0-.2-.12c-.75-.32-1.67.5-1.86,1.5-.24,1.31,1.24,2.71,2.39,2a9.18,9.18,0,0,1,.46,2.32C66,27.56,63.64,26.47,63.74,24.05Z"/><path class="cls-45" d="M67.87,24c-.68.15-1.6,0-1.36-.85a.87.87,0,0,1,.9-.52C67.56,23.11,67.71,23.57,67.87,24Z"/><path class="cls-42" d="M62.48,19.94c1-1.66.52-3.83,1.22-5.7a4.93,4.93,0,0,0,0,1.08l1.49,0a4.14,4.14,0,0,0,2.2,2.74c0,.09,0,.18.08.26l-.25.06c-.32,2.34-3.38,3.25-3.51,5.65s2.3,3.51,4.43,3.7a15.05,15.05,0,0,1,0,1.65c-3.67.25-9.65-2.44-8.44-6.35C60.1,21.77,61.82,21.17,62.48,19.94Z"/><path class="cls-9" d="M67.71,25.43c-1.15.72-2.63-.68-2.39-2,.19-1,1.11-1.82,1.86-1.5,0,.1.07.21.1.32s.09.26.13.4a.87.87,0,0,0-.9.52c-.24.84.68,1,1.36.85.12.34.24.68.37,1l-.16.07A1.49,1.49,0,0,1,67.71,25.43Z"/><path class="cls-49" d="M49.76,72.7c-.59-14,9-16.43,11.21-34l.31,0a4.9,4.9,0,0,1,.92-2.19c-.85,2.69-.35,5.94-.18,8.74a60.9,60.9,0,0,0,1.1,10.21c.35,2,1,6.19,2.84,7.73a3.78,3.78,0,0,0,1,.51c-.22.68-.4,1.36-.57,2.07-2.83.71-4.75-4.28-6.15-5.92a20.71,20.71,0,0,0-3.4,7.22c-.81.23-1.62.47-2.4.76a13.33,13.33,0,0,0,.36,1.8c.53-.1,1.07-.26,1.62-.42-1,6.8,1.23,13.86,3.43,20.75-1.3-1.17-2.33-2.6-3.63-3.63-1.12,7.84-.57,15.94,2.7,23.23a26.6,26.6,0,0,1-6.35-.51l-.94-.23a21.12,21.12,0,0,1-3.57-1.31C50.08,98.14,49.4,84,49.76,72.7Z"/><path class="cls-43" d="M65.22,15.34l-1.49,0a4.93,4.93,0,0,1,0-1.08,5.06,5.06,0,0,1,.79-2.39,3.14,3.14,0,0,0,.44.46,7.62,7.62,0,0,0,3.32,4.52,8,8,0,0,1,1,2.16,15,15,0,0,1-1.78-.91A4.14,4.14,0,0,1,65.22,15.34Z"/><path class="cls-51" d="M65.18,109.19c-.15-5.65,0-11.74.07-17.91.44,2.76,1.22,6.13,1.5,7.22.8,3.5,2.33,6.92,2.77,10.37a7.23,7.23,0,0,0,3.61-1.31c.13.64.28,1.29.43,2-1.78.58-3.63.66-5.27,1.48a7.86,7.86,0,0,1-1.17-2.85c-.39,1.29-.65,2.72-.91,4-1.79.25-4.31.12-6.49.47,0-1.25,0-2.31.08-3.09,1.73-.05,3.49-.17,5.38-.17Z"/><path class="cls-55" d="M65.18,109.19v.18c-1.89,0-3.65.12-5.38.17l-.88,0c-3.27-7.29-3.82-15.39-2.7-23.23,1.3,1,2.33,2.46,3.63,3.63-2.2-6.89-4.42-14-3.43-20.75a17,17,0,0,1,4.14-1c-.17-.71-.26-1.5-.44-2.22H60a22.15,22.15,0,0,1-3.19,1.08,20.71,20.71,0,0,1,3.4-7.22c1.4,1.64,3.32,6.63,6.15,5.92-1.55,6.53-1.21,13.93-1.12,20.44,0,1.69,0,3.38,0,5.06C65.2,97.45,65,103.54,65.18,109.19Z"/><path class="cls-43" d="M64.82,11.37a4.38,4.38,0,0,0,.11.94,3.14,3.14,0,0,1-.44-.46Z"/><path class="cls-38" d="M61.85,136.46c.58-.23.89-.63,1.55-.71l.05-.08c1.69,1,3.43,1.82,4.21,2.43-3.18.75-5.38.08-6.89-1.44A2.36,2.36,0,0,0,61.85,136.46Z"/><path class="cls-55" d="M63.61,35.6a2,2,0,0,0-1.41.92,4.9,4.9,0,0,0-.92,2.19l-.31,0,.15-1.28a8.92,8.92,0,0,1,2.71-4.17c1.9,2,2.64,4.51,4.44,6.63a1.74,1.74,0,0,1,1-.59c-1.14,3.25.45,6.14,2.05,9l.24.06c-.2.77-.42,1.53-.64,2.29a68.57,68.57,0,0,0-1.89,7l-.12,0c-.16-.53-.17-1.18-.34-1.66a92.59,92.59,0,0,1-2.48-14.57h0c-.08-1.68-.24-4.28-1.28-5.36A1.48,1.48,0,0,0,63.61,35.6Z"/><path class="cls-47" d="M60.56,68.22a17,17,0,0,0-4.14,1,19.73,19.73,0,0,1,.42-2.14A22.15,22.15,0,0,0,60,66h.09C60.3,66.72,60.39,67.51,60.56,68.22Z"/><path class="cls-16" d="M63.4,135.75c-.66.08-1,.48-1.55.71a2.36,2.36,0,0,1-1.08.2c-4.07-4.1-3.15-14.43-3.12-19.67.69,0,1.39,0,2.08-.11,0,5.69.21,12.67.26,16.07a12.35,12.35,0,0,0,3.46,2.72Z"/><path class="cls-40" d="M68,138.77c-2.27.64-7-.08-9.27-.48-1.28-.23-2.71-.4-3.19-1a1.07,1.07,0,0,1-.23-.52,2.88,2.88,0,0,1,.19-1.34c.45.72,3.14.93,3.94,1.06a8.71,8.71,0,0,0,1.36.16c1.51,1.52,3.71,2.19,6.89,1.44.36.27.51.49.35.66Z"/><path class="cls-50" d="M57.65,117h-.14a16.9,16.9,0,0,1-2-.12,4,4,0,0,1,1.26-3.15,6.9,6.9,0,0,1,3-1.09c0,1.26,0,2.71,0,4.25C59,116.94,58.34,117,57.65,117Z"/><path class="cls-51" d="M52.57,109.06a26.6,26.6,0,0,0,6.35.51l.88,0c0,.78-.06,1.84-.08,3.09a6.9,6.9,0,0,0-3,1.09,4,4,0,0,0-1.26,3.15,11.14,11.14,0,0,1-1.94-.42A27,27,0,0,1,52.57,109.06Z"/><path class="cls-9" d="M55.48,116.87a16.9,16.9,0,0,0,2,.12h.14c0,5.24-.95,15.57,3.12,19.67a8.71,8.71,0,0,1-1.36-.16c-.8-.13-3.49-.34-3.94-1.06a25.22,25.22,0,0,1,1.1-2.66h0c.55-5.58-1.68-10.94-3-16.33A11.14,11.14,0,0,0,55.48,116.87Z"/><path class="cls-39" d="M58.7,138.29c2.25.4,7,1.12,9.27.48.76,1.75-5.22,1.27-6.87,1.1s-4.44-.18-5.68-1.06c-.61-.44-.32-1-.27-2l.13,0a1.07,1.07,0,0,0,.23.52C56,137.89,57.42,138.06,58.7,138.29Z"/><path class="cls-46" d="M56.42,69.22c-.55.16-1.09.32-1.62.42a13.33,13.33,0,0,1-.36-1.8c.78-.29,1.59-.53,2.4-.76A19.73,19.73,0,0,0,56.42,69.22Z"/><path class="cls-51" d="M52.85,116.19a50.64,50.64,0,0,0-1.24-7.27l0-.09.94.23a27,27,0,0,0,1,7.39C53.31,116.37,53.07,116.29,52.85,116.19Z"/><circle class="cls-47" cx="64.81" cy="65.02" r="0.88"/><circle class="cls-47" cx="64.13" cy="71.22" r="0.88"/><circle class="cls-47" cx="63.55" cy="79.59" r="0.88"/><circle class="cls-47" cx="69.32" cy="51.23" r="0.88"/><circle class="cls-56" cx="102.48" cy="47.3" r="0.8"/><circle class="cls-56" cx="106.93" cy="49.42" r="0.8"/><circle class="cls-56" cx="72.31" cy="21.52" r="0.8"/><circle class="cls-56" cx="77.54" cy="20.76" r="0.8"/><path class="cls-57" d="M101.58,45.51a2.35,2.35,0,0,1,1.12-.36,3.71,3.71,0,0,1,1.13.3s0,0,0-.05a1.26,1.26,0,0,0-2.37,0,.06.06,0,0,0,.08.08Z"/><path class="cls-57" d="M108.86,49.45a2.26,2.26,0,0,0-1.14-2.55.34.34,0,0,0-.46.12.3.3,0,0,0,0,.08.34.34,0,0,0,.16.38,3.37,3.37,0,0,1,1,.61c.34.34.32.92.39,1.36,0,0,.07,0,.08,0Z"/><path class="cls-58" d="M70.08,19.66A1.79,1.79,0,0,1,71.34,19a2.48,2.48,0,0,1,1.21.08.48.48,0,0,0,.53,0,.1.1,0,0,0,0-.14c-.3-.58-1.51-.44-2-.19-.31.15-1.29.48-1.11,1a0,0,0,0,0,.09,0Z"/><path class="cls-58" d="M78.83,19a2.17,2.17,0,0,0-1.31-.91c-.43-.14-1.17-.19-1.44.22a.14.14,0,0,0,.08.21.61.61,0,0,0,.42,0,2.89,2.89,0,0,1,.88,0,4.69,4.69,0,0,1,1.36.53,0,0,0,0,0,0,0Z"/><path class="cls-59" d="M70,23.48a2.5,2.5,0,0,0,1.82,1,.75.75,0,0,0,.74-.56A.77.77,0,0,0,72,23a3.1,3.1,0,0,0-1.75-.24.48.48,0,0,0-.28.69Z"/><path class="cls-59" d="M77.12,23.56a2,2,0,0,0,1.55-.38A.67.67,0,0,0,78,22a2.33,2.33,0,0,0-1.16.83.48.48,0,0,0,.28.7Z"/><path class="cls-59" d="M100.4,48.19c-.38.51.22,1.24.7,1.4s.84-.51.51-.87c-.1-.11-.23-.2-.33-.32a1.2,1.2,0,0,0-.36-.35.39.39,0,0,0-.52.14Z"/><path class="cls-59" d="M105.9,51.15c.1.46.66.63,1.06.7a.6.6,0,0,0,.72-.41.58.58,0,0,0-.41-.72,1.56,1.56,0,0,0-1.29.13.3.3,0,0,0-.08.3Z"/><path class="cls-60" d="M104,48.42c-.59.43-1.07.15-1.71.22a.77.77,0,0,0-.64.61c-.14.61.41,1.81,1.11,1.85a.15.15,0,0,0,.12-.22c-.31-.55-1-1-.79-1.71.16-.49.89-.29,1.26-.3a.89.89,0,0,0,.68-.41s0-.06,0,0Z"/><path class="cls-60" d="M75.54,19.44a5.91,5.91,0,0,0-.26,2.86,9.91,9.91,0,0,0,.43,1.62c.13.41.42.46-.52.53a5.32,5.32,0,0,0-.57,0,.11.11,0,0,0-.05.18c.49.58,1.3.26,1.82-.14a.28.28,0,0,0,0-.38c-1.07-1.27-1-3.1-.82-4.68a0,0,0,0,0,0,0Z"/><path class="cls-60" d="M75.83,26.08a1.71,1.71,0,0,1-1.53.39,1.56,1.56,0,0,1-.7-.36c-.2-.18-.11-.46-.31-.64a.19.19,0,0,0-.3,0c-.32.57.69,1.1,1.12,1.22a1.61,1.61,0,0,0,1.83-.57c0-.07-.06-.14-.11-.08Z"/><path class="cls-61" d="M66.21,12.74c.47,1.51,2,2.45,3.37,3s3.51,1.2,4.88.43a.23.23,0,0,0-.06-.42c-1.29-.3-2.72-.06-4.05-.32a6.2,6.2,0,0,1-4-2.79.09.09,0,0,0-.16.07Z"/><path class="cls-61" d="M68.76,12.42a6.23,6.23,0,0,0,4.15,2,20.23,20.23,0,0,0,5.44.08.11.11,0,0,0,0-.22A28.63,28.63,0,0,0,74,14.11a8.78,8.78,0,0,1-5.15-1.79.07.07,0,0,0-.09.1Z"/><path class="cls-61" d="M71.71,12.14a5.26,5.26,0,0,0,3.07,1.14,17.48,17.48,0,0,0,4.09,0c.11,0,.09-.18,0-.2a10.32,10.32,0,0,0-2.94-.11,7.65,7.65,0,0,1-4.16-.87s-.1,0-.06.07Z"/><path class="cls-61" d="M75.35,11.36a7.52,7.52,0,0,0,3.53-.16.13.13,0,0,0,0-.26,9.16,9.16,0,0,0-1.73.12c-.58,0-1.15.06-1.73.07-.13,0-.16.21,0,.23Z"/><path class="cls-62" d="M66.85,18.12c-.5,2.17-2.73,3.35-3.3,5.52S65.21,27,67,27.28c.06,0,.1-.07,0-.1C66,26.55,64.68,26.3,64.28,25c-.29-.93.43-2,.89-2.81a10.64,10.64,0,0,0,1.83-4c0-.08-.13-.09-.15,0Z"/><path class="cls-62" d="M81.33,21.71c.08,1.25.37,2.36-.2,3.56-.41.86-1.18,1.21-1.72,1.93-.06.08,0,.16.12.13a4.79,4.79,0,0,0,2.27-2c.48-1.09-.08-2.55-.35-3.62,0-.07-.13-.06-.12,0Z"/><path class="cls-62" d="M65.22,18.33a5.62,5.62,0,0,1-2.29,2.89,4.38,4.38,0,0,0-1.46,2.3c-.41,1.46.23,3.26,1.86,3.5.09,0,.15-.09.06-.14-1.1-.63-1.81-1.31-1.58-2.68a5.54,5.54,0,0,1,1-2.26c.89-1.24,2.42-1.93,2.46-3.6,0,0-.07-.05-.08,0Z"/><path class="cls-62" d="M80.85,17.52a13.55,13.55,0,0,0,.86,2.33c.57,1.16,1.54,1.93,1.71,3.29A4.94,4.94,0,0,1,82,26.54c-.77.9-1.65,1-2.63,1.5a.09.09,0,0,0,0,.17,5,5,0,0,0,4.39-4,3.68,3.68,0,0,0-.76-2.89c-.38-.54-.84-1-1.17-1.58s-.63-1.51-1-2.24c0,0,0,0,0,0Z"/><path class="cls-63" d="M85.4,51c-.17.33.24.68.46.87s.67.54,1,.8a.44.44,0,0,0,.43,0,.46.46,0,0,0,.19-.26.44.44,0,0,0-.19-.48,9.2,9.2,0,0,0-1-.54c-.23-.13-.52-.47-.8-.47a.17.17,0,0,0-.14.08Z"/><path class="cls-63" d="M88,53.22a.23.23,0,0,0,.07.07c.43.34.91-.32.45-.58a.43.43,0,0,0-.45,0,.33.33,0,0,0-.07.52Z"/><path class="cls-64" d="M101.75,42.1c2.68,3.35,8.4,3.34,11.92,1.53,0,0,0-.12,0-.1a8.24,8.24,0,0,1-3.15.55c-.87-.08-1.73-.09-2.61-.12-2.12-.07-4.5-.32-6.08-1.89a0,0,0,0,0,0,0Z"/><path class="cls-64" d="M108.77,46c1.7.12,4-.19,5.06-1.69.09-.13-.08-.26-.2-.2a27.1,27.1,0,0,1-2.45,1.28,13.25,13.25,0,0,1-2.41.59s0,0,0,0Z"/><path class="cls-64" d="M111.48,46.76a5.87,5.87,0,0,1-.25,2.46c-.19.62-.59,1.3-.36,1.94a.12.12,0,0,0,.19.05c.53-.44.56-1.28.64-1.93a8,8,0,0,0-.1-2.54c0-.06-.13-.05-.12,0Z"/><path class="cls-64" d="M112.44,47.71c0,.4,0,.8-.06,1.2s-.15.87-.15,1.31a.09.09,0,0,0,.15.06c.71-.61.46-1.8.33-2.61,0-.16-.26-.11-.27,0Z"/><path class="cls-64" d="M113.66,48.53c0,.3-.13.57-.1.87a.1.1,0,0,0,.15.08,1,1,0,0,0,.3-.95c0-.22-.37-.23-.35,0Z"/><path class="cls-64" d="M105.31,41.48c1.15.79,2.58,1.86,4.07,1.66.11,0,.15-.17,0-.2a13.69,13.69,0,0,1-2.19-.62,14,14,0,0,1-1.82-1c-.1-.06-.19.1-.09.17Z"/><path class="cls-64" d="M101.27,43.45a1.9,1.9,0,0,0-.68,1.32.09.09,0,0,0,.16.06,1.7,1.7,0,0,0,.34-.6,5.16,5.16,0,0,1,.32-.67.09.09,0,0,0-.14-.11Z"/><path class="cls-64" d="M111.35,39.79A4.14,4.14,0,0,1,112.83,41a4.24,4.24,0,0,1,.62,1.6s.06,0,.08,0c.42-1.24-1.1-2.57-2.15-2.86,0,0-.08.06,0,.08Z"/><path class="cls-64" d="M111.32,40.88c.21.27.45.51.65.79s.32.56.49.83a0,0,0,0,0,.07,0c.09-.7-.65-1.27-1.11-1.7-.07-.06-.15,0-.1.1Z"/><path class="cls-64" d="M111.23,42c.13.09.24.2.37.29s.09,0,.07,0a.82.82,0,0,0-.34-.42c-.1-.07-.19.1-.1.17Z"/><path class="cls-65" d="M105.85,99.31c.17.12.38-.12.5-.21a4.89,4.89,0,0,1,.72-.37c.47-.25,0-1-.42-.72a1.93,1.93,0,0,0-.64.75c-.07.12-.34.41-.16.55Z"/><path class="cls-65" d="M106.86,100.05a1.22,1.22,0,0,0,.54-.25,5.67,5.67,0,0,1,.65-.33c.34-.21.11-.83-.28-.67a1.77,1.77,0,0,0-.64.51,1,1,0,0,0-.36.65s0,.09.09.09Z"/><path class="cls-65" d="M107.64,100.77a1.57,1.57,0,0,0,.63-.15,2.49,2.49,0,0,0,.73-.36c.31-.25-.11-.79-.43-.56s-.38.32-.58.46a.87.87,0,0,0-.41.53.06.06,0,0,0,.06.08Z"/><path class="cls-65" d="M111,100.35a1.09,1.09,0,0,0,.5-.1,2.32,2.32,0,0,1,.83,0c.45,0,.45-.68,0-.69a1.43,1.43,0,0,0-.82.26c-.21.12-.49.23-.54.5,0,0,0,0,0,0Z"/><path class="cls-65" d="M111.77,101.5c.19,0,.39,0,.58-.06a5,5,0,0,1,.67,0,.33.33,0,0,0,0-.66,1.36,1.36,0,0,0-.71.17,1.85,1.85,0,0,0-.58.45s0,.08,0,.08Z"/><path class="cls-65" d="M112.24,102.64a1.41,1.41,0,0,0,.53-.12,1.72,1.72,0,0,1,.78-.06c.52.09.55-.71.09-.67a4.46,4.46,0,0,0-.8.2,1.46,1.46,0,0,0-.71.39.15.15,0,0,0,.11.26Z"/><path class="cls-66" d="M101.57,51.93a1.29,1.29,0,0,0,.28.25,2.79,2.79,0,0,0,.72.34h0a3.1,3.1,0,0,1-.57-.3,2.7,2.7,0,0,1-.31-.28l-.1-.15a3.73,3.73,0,0,1,.15-.47,3,3,0,0,1-.32-.41,1.76,1.76,0,0,0,.17,1.58h0A.89.89,0,0,1,101.57,51.93Z"/><path class="cls-66" d="M104.4,52.34c0,.08,0,.18,0,.28l-.32.09a2.45,2.45,0,0,1-1.14-.08h0a2.94,2.94,0,0,0,1.44.2,4,4,0,0,1-.08.4,3.34,3.34,0,0,0,1-1.12A2,2,0,0,1,104.4,52.34Z"/><path class="cls-1" d="M102.93,52.63h0a2.45,2.45,0,0,0,1.14.08l.32-.09c0-.1,0-.2,0-.28a3.77,3.77,0,0,1-2.66-1,3.73,3.73,0,0,0-.15.47l.1.15a2.7,2.7,0,0,0,.31.28,3.1,3.1,0,0,0,.57.3h0a2.79,2.79,0,0,1-.72-.34,1.29,1.29,0,0,1-.28-.25.89.89,0,0,0,0,.55h0a2.1,2.1,0,0,0,1.11,1.06,1.75,1.75,0,0,0,1.59-.31,4,4,0,0,0,.08-.4A2.94,2.94,0,0,1,102.93,52.63Z"/><text class="cls-67" transform="translate(28.26 227.34)">Lo<tspan class="cls-68" x="7.9" y="0">r</tspan><tspan x="10.73" y="0">em ipsum dolor sit amet, </tspan><tspan x="0" y="11.2">consectetuer adipiscing elit, sed diam </tspan><tspan x="0" y="22.4">nonummy nibh euismod tincidunt ut </tspan><tspan x="0" y="33.6">lao</tspan><tspan class="cls-68" x="9.97" y="33.6">r</tspan><tspan x="12.79" y="33.6">eet dolo</tspan><tspan class="cls-68" x="39.61" y="33.6">r</tspan><tspan x="42.43" y="33.6">e magna aliquam e</tspan><tspan class="cls-68" x="105.46" y="33.6">r</tspan><tspan x="108.28" y="33.6">at </tspan><tspan x="0" y="44.8">volutpat. Ut wisi enim ad minim </tspan><tspan x="0" y="56">veniam, quis </tspan></text></g></g></svg>