<svg xmlns="http://www.w3.org/2000/svg" xmlns:xlink="http://www.w3.org/1999/xlink" viewBox="0 0 182 323.56"><defs><style>.cls-1{fill:#fff;}.cls-2{fill:url(#linear-gradient);}.cls-3{fill:#dcd5cf;}.cls-4{fill:#f1ac79;}.cls-5{fill:#d86c78;}.cls-6{fill:#9ec9d4;}.cls-7{fill:#ab8d73;}.cls-8{fill:#f68c2e;}.cls-9{fill:#b75b20;}.cls-10{fill:#fbcecc;}.cls-11{fill:#e97f1f;}.cls-12{fill:#aea1ce;}.cls-13{fill:#4f83a8;}.cls-14{fill:#ffca9f;}.cls-15{fill:#84411a;}.cls-16{fill:#f4878f;}.cls-17{fill:#467394;}.cls-18{fill:#c66d24;}.cls-19{fill:#d7751c;}.cls-20{fill:#974a1d;}.cls-21{fill:#e6888f;}.cls-22{fill:#7dacb8;}.cls-23{fill:#4e3f6c;}.cls-24{fill:#9c4893;}.cls-25{fill:#836eba;}.cls-26{fill:#cee1e7;}.cls-27{fill:#cd8c63;}.cls-28{fill:#ae8aab;}.cls-29{fill:#50270d;}.cls-30{fill:#94578f;}.cls-31{fill:#c9875d;}.cls-32{fill:#ed995b;}.cls-33{fill:#c59cc2;}.cls-34{fill:#c5c474;}.cls-35{fill:#f9a877;}.cls-36{fill:#406a89;}.cls-37{fill:#6c95a0;}.cls-38{fill:#b5581e;}.cls-39{fill:#211100;}.cls-40{fill:#423020;}.cls-41{fill:#b5d4dd;}.cls-42{fill:#9c4d1e;}.cls-43{fill:#f69ea2;}.cls-44{fill:#8b4418;}.cls-45{fill:#ebe497;}.cls-46{fill:#6f56a4;}.cls-47{fill:#353424;}.cls-48{fill:#272714;}.cls-49{fill:#bf713f;}.cls-50{fill:#c4cfdd;}.cls-51{fill:#ee9c61;}.cls-52{fill:#7799b8;}.cls-53{fill:#95adc6;}.cls-54{fill:#728599;}.cls-55{fill:#d4ab89;}.cls-56{fill:#62255c;}.cls-57{fill:#eeecae;}.cls-58{fill:#843b7d;}.cls-59{fill:#a763a1;}.cls-60{fill:#886240;}.cls-61{fill:#df9659;}.cls-62{fill:#9b795b;}.cls-63{fill:#b72e29;}.cls-64{fill:#8f6a4a;}.cls-65{fill:#f9a98d;}.cls-66{fill:#cf8558;}.cls-67{fill:#d7bcd5;}.cls-68{fill:#85a2be;}.cls-69{fill:#c1ab96;}.cls-70{fill:#ad9076;}.cls-71{fill:#f89d4f;}.cls-72{fill:#faae6d;}.cls-73{fill:#c27748;}.cls-74{fill:#746355;}.cls-75{fill:#fac1c1;}.cls-76{fill:#cf956e;}.cls-77{fill:#e7eaef;}.cls-78{fill:#2a0200;}.cls-79{fill:#272816;}.cls-80{font-size:11px;fill:#52b7c5;font-family:Montserrat-Bold, Montserrat;font-weight:700;letter-spacing:0em;}.cls-81{letter-spacing:0em;}.cls-82{letter-spacing:-0.01em;}.cls-83{letter-spacing:0em;}.cls-84{font-size:7px;fill:#808d9c;font-family:NotoSans, Noto Sans;}.cls-85{letter-spacing:-0.01em;}</style><linearGradient id="linear-gradient" x1="167.97" y1="415.16" x2="73.87" y2="-7.21" gradientUnits="userSpaceOnUse"><stop offset="0" stop-color="#8fccff"/><stop offset="1" stop-color="#fff"/></linearGradient></defs><title>card2</title><g id="Camada_2" data-name="Camada 2"><g id="OBJECTS"><rect class="cls-1" width="182" height="323.56" rx="15"/><path class="cls-2" d="M182,15V133.12c-35.3-4.6-33.18,32.77-76.63,37.26C81.06,172.89,63,162.9,46.55,143.29l0,0A75.12,75.12,0,0,0,37,133.68a57.73,57.73,0,0,0-6.22-4.6c-.62-.4-1.24-.77-1.85-1.13C17.82,121.46,7.13,120.88,0,126V15A15,15,0,0,1,15,0H167A15,15,0,0,1,182,15Z"/><path class="cls-3" d="M123.63,126a89.75,89.75,0,0,0-23.33,2.72c-5.93-1.84-15.21-3-25.66-3-17.9,0-32.41,3.47-32.41,7.75s14.51,7.74,32.41,7.74A110.27,110.27,0,0,0,95,139.51c5.57,2.8,16.3,4.7,28.64,4.7,18.06,0,32.7-4.07,32.7-9.09S141.69,126,123.63,126Z"/><path class="cls-4" d="M109.39,36.34h-.09v-.42A3.15,3.15,0,0,0,109.39,36.34Z"/><path class="cls-5" d="M110,41.67c0,.06,0,.12,0,.18l-.11-.16Z"/><path class="cls-5" d="M111.05,41.54v.31l-.09-.3Z"/><path class="cls-6" d="M110.08,51.72l-.22-.38.22.18Z"/><path class="cls-7" d="M66.57,67.2a.75.75,0,0,1,.05.16,1.37,1.37,0,0,1-.18-.16Z"/><path class="cls-8" d="M87,111.24a7.12,7.12,0,0,0-1-1.42l1.37-.43A5,5,0,0,1,89,112.77l-1.24.53A9.11,9.11,0,0,0,87,111.24Z"/><path class="cls-9" d="M57.82,102.16c.24,1.1.48,2.21.82,3.25a2.83,2.83,0,0,1-.68,1.27c-.65.65-1.51,1-2,1.66-1.27-2.24-1.75-5.19-2.34-7.53a65.16,65.16,0,0,1-1.9-11.38c-.14-4.06,1.35-5.55,5.16-6.91a32.5,32.5,0,0,1,3.71-1.28l0,.12A9,9,0,0,0,56,85c-1.36,2.16-.72,5.58-.28,7.94C56.42,96.79,57.28,99.18,57.82,102.16Z"/><path class="cls-10" d="M111.33,39a4.84,4.84,0,0,1-1.94-2.62,4.58,4.58,0,0,0,2.23-.94,3.85,3.85,0,0,0,1.47-2.19h0a12.79,12.79,0,0,0,.68,3.84,7.31,7.31,0,0,1-1.77,2.3A3.19,3.19,0,0,1,111.33,39Z"/><path class="cls-5" d="M111.28,41.53a10.77,10.77,0,0,0,2,4.43c.2.53.4,1,.56,1.44,1,2.91,2.17,5.83,3.21,8.66-.92-.59-1.86-1.17-2.78-1.74-1.14-4.16-2-8.56-3.2-12.47v-.31Z"/><path class="cls-11" d="M89,112.77a5,5,0,0,0-1.61-3.38l1.36-.42a3.88,3.88,0,0,1,.66,1.37,10.11,10.11,0,0,1,.32,2.12Z"/><path class="cls-12" d="M79.13,125.71a2.4,2.4,0,0,1,1.33-1.07,3.94,3.94,0,0,0,.73,1.24,4.93,4.93,0,0,1-1,3.23C79.13,127.89,78.62,126.65,79.13,125.71Z"/><path class="cls-13" d="M78.38,105.12a2.11,2.11,0,0,1,.34.16.35.35,0,0,1-.11,0c1.28.84,2.74,1.5,4.13,2.24A12.74,12.74,0,0,1,86,109.82a7.12,7.12,0,0,1,1,1.42,9.11,9.11,0,0,1,.7,2.06c.94,4.41-1.34,9.36-3.8,13.07-.27-.12-.52-.27-.82-.43-.75-.35-.85-.2-.65-1,.4-1.49,1.24-2.88,1.64-4.37a15.32,15.32,0,0,0,.45-4.27c0-.8-.4-1.49-.5-2.19s.4-.74.79-1.34c-.49-.44-1.34-.1-1.88-.14A8.56,8.56,0,0,0,83.6,111a2.19,2.19,0,0,0-1,.64c-1.5-1.74-3.78-2.58-5.73-3.67-1.74-1-4.23-1.39-5.72-2.63,1.08-.72,2.45-1.07,3.47-1.91.59.3,1.17.61,1.6.81.65.3,1.35.6,2,.85Z"/><path class="cls-14" d="M70.62,75.19a2.46,2.46,0,0,0,.74,1.8l.09.07a1.23,1.23,0,0,0,.35.15c.76.22,1.9-.13,2-.95.5-.09,1-.22,1.61-.35-.05.1-.09.19-.15.29a5.67,5.67,0,0,1-3.62,2.91,2.41,2.41,0,0,1-.35.07c-2.42-.17-5.49-2-6.2-4.45a4.12,4.12,0,0,1,0-1.64c.22-1,.3-.74.9-1.19,1.12-.9,1.64-1.27,1.49-2.83,1.84.25,5.51-.35,6.49-2.41.16.32.32.64.46,1s.2.46.29.68c.18.45.34.9.48,1.36.08.23.15.47.21.7a11.4,11.4,0,0,1,.43,3.73l-.52.3c-.58.13-1.15.28-1.65.44l0-.09a1.82,1.82,0,0,0-.64-1,1.48,1.48,0,0,0-1.72-.15A1.77,1.77,0,0,0,70.62,75.19Z"/><path class="cls-15" d="M77.48,128.64c.64-3.36,1.91-10.07-.2-10.54,0-.34.09-.67.13-1,.78-.24,1.55-.51,2.29-.78-.53,4-1.06,8.12-1.33,10.15h0a1.93,1.93,0,0,0-.22,1.52A1.09,1.09,0,0,1,77.48,128.64Z"/><path class="cls-16" d="M109.24,50.25a26.06,26.06,0,0,1-2.85-10.37c1.1.73,1.78,1.11,2,2.56C109,45,108.68,47.61,109.24,50.25Z"/><path class="cls-17" d="M77.18,100.28a8.71,8.71,0,0,0,2.44.89c.87.19,1.78.3,2.69.41a15,15,0,0,1,6,1.55,9.2,9.2,0,0,1,2.7,2,9.61,9.61,0,0,1,1.88,2.76c.05.1.09.19.13.29a12.86,12.86,0,0,1,.68,3.5,17.16,17.16,0,0,1,0,2.15,22.17,22.17,0,0,1-1.11,5.52A22.91,22.91,0,0,1,91,123c-.54,0-1.49.13-1.7-.12s.25-1,.34-1.39a23.83,23.83,0,0,0,1.1-4.61c.2-1.3.25-2.68.35-4,.05-.74-.1-1.44-.1-2.18s.35-.84.89-1.39c-.29-.35-.94-.4-1.34-.45a4.59,4.59,0,0,0,.4-1.64,3.31,3.31,0,0,0-1,1.09,6.24,6.24,0,0,0-.79-.89c-1.85-1.58-4.24-2.13-6.52-2.83a20.22,20.22,0,0,0-3.39-.64c-.65-.09-1.32-.36-2-.43-.79-.58-1.77-.86-2.78-1.51v0A10.65,10.65,0,0,0,77.18,100.28Z"/><path class="cls-9" d="M70.81,118.06a11,11,0,0,1-1.17-.18l-1.15-.31a27.37,27.37,0,0,1-6.88-3.15c-.21-1.15-.42-2.58.41-3,.67-.37,1.72.74,2.62.6l.06-.11a.2.2,0,0,1,.08,0,16.28,16.28,0,0,0,4.59,1.64,9.9,9.9,0,0,0,2.28.11,13.31,13.31,0,0,0,.64,4.44A12.1,12.1,0,0,1,70.81,118.06Z"/><path class="cls-18" d="M78.72,105.28c3.37.75,8.13,1.16,10,3.69l-1.36.42a7,7,0,0,0-4.62-1.9c-1.39-.74-2.85-1.4-4.13-2.24A.35.35,0,0,0,78.72,105.28Z"/><path class="cls-4" d="M109.12,36.29a2.83,2.83,0,0,1-1-1,7.6,7.6,0,0,0,1.24-2.15c1,.4,2.11,1.27,2.24,2.29a4.58,4.58,0,0,1-2.23.94,3.15,3.15,0,0,1-.09-.42v.42l-.18,0Z"/><path class="cls-19" d="M87.36,109.39l-1.37.43a12.74,12.74,0,0,0-3.25-2.33A7,7,0,0,1,87.36,109.39Z"/><path class="cls-20" d="M59.5,107.42a3.65,3.65,0,0,0-2.22,1.47,10.43,10.43,0,0,0-.37,1.22,2,2,0,0,1-.44-1,7.6,7.6,0,0,1-.52-.82c.5-.67,1.36-1,2-1.66a2.83,2.83,0,0,0,.68-1.27A11.16,11.16,0,0,0,59.5,107.42Z"/><path class="cls-21" d="M113.79,37.05c1.66,5,6.14,8.72,11.09,10.61a11.5,11.5,0,0,0,1.45.45,31.24,31.24,0,0,0,5.38.76l0,.79c-3.37-.13-6.8,0-10.09-1.26-3.72-1.53-6.71-4-8.08-7.75a5.17,5.17,0,0,0-1,2.09,8.78,8.78,0,0,0,.73,3.22,10.77,10.77,0,0,1-2-4.43h-.23a17.42,17.42,0,0,1,.28-2.58,3.19,3.19,0,0,0,.69.39A7.31,7.31,0,0,0,113.79,37.05Z"/><path class="cls-18" d="M61.67,108.94c1.3,0,1,1.76,2,1.9.58.06.87-.07,1-.32.31-.7-.87-2.33-1.44-2.85,0-.16,0-.31,0-.46.78-.78,2.43-1.07,3.7-1.31,2.91,2,7.28,3,11,4.13h0a13,13,0,0,1,2.24,1.44A20.78,20.78,0,0,0,78,112a10.09,10.09,0,0,0-2.41-1c-1.72-.59-3.52-.89-5.24-1.49a25.36,25.36,0,0,0-4.62-1.48c1.18,1,.83,4-1,3.8a.2.2,0,0,0-.08,0c-1.42-.74-2.77-1.59-4-2.38l0,0a1.62,1.62,0,0,1,1-.5Z"/><path class="cls-22" d="M121.38,36.54c.12,2.25,2.41,3.9,4.19,5.1-.6.3-1.3.7-1.9,1,2.3,3.78,10.36,4.47,14.25,3.68-1.8-.6-4.39-.6-5.88-1.79a17.13,17.13,0,0,0,4.81-.58L140.18,45c-.13.31-.26.62-.4.93.21.07.42.15.64.21a15.86,15.86,0,0,1-.69,2.69,11.94,11.94,0,0,0-2.41-.42,15.29,15.29,0,0,1-5.61.47,31.24,31.24,0,0,1-5.38-.76v0c-2.15-.61-3.08-4.43-7.53-5.64.68-.27,3.62-1.2,3.62-1.2a16.43,16.43,0,0,1-4.93-4.93,17.33,17.33,0,0,0,3.37-.85h0l-.1.05.08.16A6,6,0,0,0,121.38,36.54Z"/><path class="cls-23" d="M86.48,125.87a9.3,9.3,0,0,0,.23,1.35A16.37,16.37,0,0,0,88,130.7h0a6.05,6.05,0,0,0,1.71,2.2c.68.51,1.07.57,1.27.34-.12,1.62-1.69.79-2.5,0a.49.49,0,0,1-.12-.13,10.76,10.76,0,0,1-1.48-2.18,9.29,9.29,0,0,1-.88-2.3c-.34-1.35-.92-4.66,1.11-5.12l0,.06,0-.07.08,0-.09.14A4.32,4.32,0,0,0,86.48,125.87Z"/><path class="cls-24" d="M78.08,89.54a4.08,4.08,0,0,0-.74.48,9,9,0,0,1-1-5.12c.41.49.79.95,1.08,1.37.39.58.93,1.24,1.39,1.92a6.2,6.2,0,0,1,.78,1.38.61.61,0,0,0-.6-.28h-.1A2.37,2.37,0,0,0,78.08,89.54Z"/><path class="cls-25" d="M88.08,124.34a3.59,3.59,0,0,0,2.15,0l0,0a25.36,25.36,0,0,0,.14,3.77c0,.57.28,1.49.48,2.41a4.38,4.38,0,0,0-1.57-.29,3.63,3.63,0,0,0-1.3.54,16.37,16.37,0,0,1-1.32-3.48A3.55,3.55,0,0,0,88.08,124.34Z"/><path class="cls-26" d="M104.61,44.64c-.27.57-.51,1.16-.74,1.71-.1-.2-.19-.41-.27-.62a13.85,13.85,0,0,1,0-8.45,6,6,0,0,0,2.34-.41,5.45,5.45,0,0,0,.55-.25c-.06.53-.09,1.07-.1,1.62s0,1.08,0,1.64a26.06,26.06,0,0,0,2.85,10.37c.2.37.4.74.62,1.09A19.59,19.59,0,0,1,108,49.7a14.62,14.62,0,0,1-2.58-3.38,9.53,9.53,0,0,0-.18-2.82A8.81,8.81,0,0,0,104.61,44.64Z"/><path class="cls-27" d="M145.92,52.37c-.2-1-.63-2.24.47-2.36a.11.11,0,0,0,0,.07,4.16,4.16,0,0,0,.73,1.81,3.61,3.61,0,0,1-.3,1l-.34.16A4.85,4.85,0,0,0,145.92,52.37Z"/><path class="cls-17" d="M73,102.64c.52-.19,1-.39,1.48-.6v0c1,.65,2,.93,2.78,1.51a3.41,3.41,0,0,1,1.16,1.55l-.2-.08c-.65-.25-1.35-.55-2-.85-.43-.2-1-.51-1.6-.81S73.42,102.82,73,102.64Z"/><path class="cls-14" d="M77.82,74.36a1.14,1.14,0,0,1,.53-.59l.55-.1v0a34.53,34.53,0,0,1,3.52-2.6,6.52,6.52,0,0,1,4.17.25,12.08,12.08,0,0,0,2.25,0h0A17.94,17.94,0,0,1,90,73.83l-.06,0a3.35,3.35,0,0,0-1.14.84,7.6,7.6,0,0,1-5,.5l-.06,0a1.43,1.43,0,0,1-.1.55,3.06,3.06,0,0,1-1.19,1.42,4.08,4.08,0,0,1-.86.39h0c-1,.34-2.12.37-1.43-.84l0-.14c1.2-.16,2.55-.76,2.39-1.79l.23-.06a1.75,1.75,0,0,0-.28-.17,1.71,1.71,0,0,0-1-.22c-.82.13-2,1.26-2.85,1.39a.77.77,0,0,1-.43,0,.78.78,0,0,1-.35-.37,1.1,1.1,0,0,1,0-.92Z"/><path class="cls-11" d="M76.39,84.9A33,33,0,0,0,74,82.42c-.1-.11-.21-.2-.31-.3s-.1-.24-.14-.37a1.36,1.36,0,0,0-.53-.56h0a3.77,3.77,0,0,0-1.4-.62l-.06,0a2.46,2.46,0,0,1,0-.67c.27,0,.72-.06,1.22-.08a46.36,46.36,0,0,1,5.56,5.47c.22,1,.4,1.93.56,2.92-.46-.68-1-1.34-1.39-1.92C77.18,85.85,76.8,85.39,76.39,84.9Z"/><path class="cls-28" d="M68.55,102.27a6.74,6.74,0,0,0,1.91,1.13v0c-1.81.5-3.62.87-5,1.2a6.87,6.87,0,0,1-1.09-1.53A13.87,13.87,0,0,0,68.55,102.27Z"/><path class="cls-6" d="M121.38,36.54c2.13,3.09,6.28,4.1,9.52,5.34,2,.75,4,1.43,5.95,2.06a17.13,17.13,0,0,1-4.81.58c1.49,1.19,4.08,1.19,5.88,1.79-3.89.79-11.95.1-14.25-3.68.6-.29,1.3-.69,1.9-1C123.79,40.44,121.5,38.79,121.38,36.54Z"/><path class="cls-17" d="M77.9,110c-3.7-1.12-8.07-2.13-11-4.13a9.26,9.26,0,0,1-1.5-1.26c1.43-.33,3.24-.7,5-1.2.84-.24,1.67-.5,2.48-.8.47.18,1,.46,1.63.74-1,.84-2.39,1.19-3.47,1.91,1.49,1.24,4,1.64,5.72,2.63,2,1.09,4.23,1.93,5.73,3.67a2.19,2.19,0,0,1,1-.64,8.56,8.56,0,0,1-.64,1.69c.54,0,1.39-.3,1.88.14-.39.6-.89.55-.79,1.34s.45,1.39.5,2.19a15.32,15.32,0,0,1-.45,4.27c-.4,1.49-1.24,2.88-1.64,4.37-.2.79-.1.64.65,1,.3.16.55.31.82.43-.2.3-.41.59-.61.88h0a3.61,3.61,0,0,1-2.13-1.38,3.94,3.94,0,0,1-.73-1.24h0a10.61,10.61,0,0,0,2.26-9.43.84.84,0,0,0,0-.17,7.8,7.8,0,0,0-2.52-3.56A13,13,0,0,0,77.92,110Z"/><path class="cls-12" d="M88,130.7a3.63,3.63,0,0,1,1.3-.54,4.38,4.38,0,0,1,1.57.29c.25,1.22.46,2.43.11,2.8s-.59.17-1.27-.34a6.05,6.05,0,0,1-1.71-2.2Z"/><path class="cls-29" d="M71.36,77a2.46,2.46,0,0,1-.74-1.8A6.51,6.51,0,0,1,73,73.73a1.82,1.82,0,0,1,.64,1l0,.09a7.54,7.54,0,0,0-1.28.51h0c-.54.29-.7.6-.16.91A5.9,5.9,0,0,0,71.36,77Z"/><path class="cls-30" d="M72.54,82.88c.3-.67.69-1.06.46-1.69a1.36,1.36,0,0,1,.53.56c0,.13.09.25.14.37s.1.29.16.43a14.41,14.41,0,0,1-3.42,2.13c-1.4.75-1.34,1.74-1.64,3.23-.5,2.68-1.1,6.7.64,9,.2.2.4.44.6.64a8.1,8.1,0,0,1-2.39-.89c-.4,1.14.8,2.43,1.45,3.22-.4,0-1.4-.39-1.64-.24-.51.3,0,1.34.24,1.69a4.84,4.84,0,0,0,.88,1,13.87,13.87,0,0,1-4.22.84,6.54,6.54,0,0,1-.69-3.2q.12-1,.3-2a37.26,37.26,0,0,1,1-4.45c.66.35,1.19.3,1.41,0,.49-.24.78-1,1-2a32.34,32.34,0,0,0,.36-4.69c.09-.18.19-.36.29-.54a3.75,3.75,0,0,0-.25-2.12l-.09-.17c-.39-.67-1.51-1.87-2-1.18,0,0,0,0,0,0a6.18,6.18,0,0,1,.78-1,5.67,5.67,0,0,0,3.72,2c.17-.72.26-1.52.46-2.25h0l.22-.07A3.18,3.18,0,0,0,72.54,82.88Z"/><path class="cls-31" d="M138.51,57.53h0a.13.13,0,0,0,0,.06Z"/><path class="cls-32" d="M111.62,35.4c-.13-1-1.27-1.89-2.24-2.29a9.81,9.81,0,0,0,.53-4.24c1,1.38,2.12,2.64,3.17,3.91l.06.07c0,.12,0,.25,0,.36A3.85,3.85,0,0,1,111.62,35.4Z"/><path class="cls-33" d="M71.82,101a32,32,0,0,0,4.93-2.26,9.43,9.43,0,0,0,.32,1.53l.11.06A10.65,10.65,0,0,1,74.43,102c-.47.21-1,.41-1.48.6-.81.3-1.64.56-2.48.8v0a6.74,6.74,0,0,1-1.91-1.13C69.72,101.87,70.84,101.39,71.82,101Z"/><path class="cls-14" d="M59.31,113.48a1.12,1.12,0,0,1-.5-.58c-.78.29-1.12-.1-1.19-.77h-.1a3.8,3.8,0,0,1,.89-3A7.25,7.25,0,0,1,62,107.77c-.55-.3-.8-.2-1-.75a4.26,4.26,0,0,1,0-1.38,51.92,51.92,0,0,1,1-8.74c.25-1.34.6-2.73.89-4.07.25-.9.5-.9,1.45-.8a1.79,1.79,0,0,1,1,.29c-.11.37-.23.73-.34,1.1a37.26,37.26,0,0,0-1,4.45q-.18,1-.3,2a61.15,61.15,0,0,0-.42,7.3c0,.15,0,.3,0,.46.57.52,1.75,2.15,1.44,2.85a2.81,2.81,0,0,0-3-1.58h0a1.62,1.62,0,0,0-1,.5,6,6,0,0,0-.67.66,4.89,4.89,0,0,0,.05,3.07l.3.28-.19.07A1.13,1.13,0,0,1,59.31,113.48Z"/><path class="cls-34" d="M74.64,75.3c-.5.18-2.51,1-2.26.07h0a7.54,7.54,0,0,1,1.28-.51c.5-.16,1.07-.31,1.65-.44a4.54,4.54,0,0,1,.5-.12c1-.22,1.89-.4,2.54-.52a1.14,1.14,0,0,0-.53.59h0A24.26,24.26,0,0,1,74.64,75.3Z"/><path class="cls-35" d="M146.85,52.85a3.61,3.61,0,0,0,.3-1,4.57,4.57,0,0,1,.32.56C147.29,52.57,147.08,52.72,146.85,52.85Z"/><path class="cls-28" d="M61.08,90.58c1-1.69,3-6.33,4.41-7.7l.09-.09h0s0,0,0,0c.51-.69,1.63.51,2,1.18-1.62,0-3,2.83-3.27,4.08-.19,1.09-.44,1.54.6,1.94a5.12,5.12,0,0,1,2.36,1.5c-.19,1-.48,1.72-1,2,.23-.3.17-.85-.35-1.5a5.36,5.36,0,0,0-.43-.4,5.48,5.48,0,0,0-3.3-.84H61A.22.22,0,0,1,61.08,90.58Z"/><path class="cls-36" d="M77.22,103.57c.63.07,1.3.34,2,.43a20.22,20.22,0,0,1,3.39.64c2.28.7,4.67,1.25,6.52,2.83a6.24,6.24,0,0,1,.79.89,3.31,3.31,0,0,1,1-1.09,4.59,4.59,0,0,1-.4,1.64c.4,0,1,.1,1.34.45-.54.55-.89.59-.89,1.39s.15,1.44.1,2.18c-.1,1.3-.15,2.68-.35,4a23.83,23.83,0,0,1-1.1,4.61c-.09.35-.59,1.14-.34,1.39s1.16.16,1.7.12q-.33.61-.69,1.17a.17.17,0,0,1,0,.07l0,0a3.59,3.59,0,0,1-2.15,0,1.38,1.38,0,0,1-.89-.74l.09-.14-.08,0c1.32-3,2.67-7.41,2.5-11a10.11,10.11,0,0,0-.32-2.12,3.88,3.88,0,0,0-.66-1.37c-1.87-2.53-6.63-2.94-10-3.69a2.11,2.11,0,0,0-.34-.16A3.41,3.41,0,0,0,77.22,103.57Z"/><path class="cls-31" d="M140.16,60.76c-.45-.8-.86-1.71-1.28-2.53-.11-.23-.22-.45-.34-.65a.13.13,0,0,1,0-.06c.29-.18.64-.37.91-.53a3.57,3.57,0,0,0,.21.6c.18.43.42.86.65,1.3a7.84,7.84,0,0,1,.61,1.32,3.53,3.53,0,0,1,.16.64,4.16,4.16,0,0,1-.64.42C140.35,61.11,140.25,60.94,140.16,60.76Z"/><path class="cls-20" d="M64.64,112c-.9.14-2-1-2.62-.6-.83.47-.62,1.9-.41,3l-.24-.16q-.57-.41-1-.81l-.3-.28A4.89,4.89,0,0,1,60,110.1a6,6,0,0,1,.67-.66l0,0c1.25.79,2.6,1.64,4,2.38Z"/><path class="cls-35" d="M58.41,109.11a3.8,3.8,0,0,0-.89,3c-.87-.09-.85-1.05-.61-2a10.43,10.43,0,0,1,.37-1.22,3.65,3.65,0,0,1,2.22-1.47l.36-.08a46.9,46.9,0,0,1,1.63-14.16c.11-.4.23-.8.36-1.21s.28-.87.44-1.3a5.48,5.48,0,0,1,3.3.84l-.29.81a1.79,1.79,0,0,0-1-.29c-1-.1-1.2-.1-1.45.8-.29,1.34-.64,2.73-.89,4.07a51.92,51.92,0,0,0-1,8.74A4.26,4.26,0,0,0,61,107c.2.55.45.45,1,.75A7.25,7.25,0,0,0,58.41,109.11Z"/><path class="cls-12" d="M86.48,125.87a4.32,4.32,0,0,1,.71-2.27,1.38,1.38,0,0,0,.89.74,3.55,3.55,0,0,1-1.37,2.88A9.3,9.3,0,0,1,86.48,125.87Z"/><path class="cls-6" d="M156.38,59c-.09.24-.19.48-.29.73a38.48,38.48,0,0,1-2.6,4.87,32.39,32.39,0,0,1-1.09-3.2c-.72-2.29-1.53-4.59-3.49-5.9a14,14,0,0,1,1.94,1.39c.11-1.19-.89-2.28-1.49-3.27,1.23-.16,2.46-.06,3.68-.3A21.24,21.24,0,0,1,156.38,59Z"/><path class="cls-22" d="M142.85,47.6c.06-.31.13-.62.2-.91a12.46,12.46,0,0,0,2.5.09c0,.08,0,.16-.05.23,2.24.62,5.23,3.39,7.54,6.35-1.22.24-2.45.14-3.68.3.6,1,1.6,2.08,1.49,3.27a14,14,0,0,0-1.94-1.39h0A6,6,0,0,0,147,54.7a5.25,5.25,0,0,0,1.94-2.48c-.15-.85-.75-2.37-1.45-2.48s-1,0-1.05.34a.11.11,0,0,1,0-.07c-1.1.12-.67,1.33-.47,2.36a10.32,10.32,0,0,0-3.5-2.16C142.54,49.38,142.68,48.47,142.85,47.6Z"/><path class="cls-37" d="M148.9,55.53h0c2,1.31,2.77,3.61,3.49,5.9-1.37,1-2.69,2.11-3.88,2.85a35,35,0,0,0-3.45-8.37A15.42,15.42,0,0,0,147,54.7,6,6,0,0,1,148.9,55.53Z"/><path class="cls-38" d="M148.52,64.29c2.78,10.06,1.92,21.24,1.35,28.52-1.32,12.9-3.51,25.14-4.52,37.75a10.5,10.5,0,0,1,.58.95,7.27,7.27,0,0,1-4-.09c0-2.18.19-4.48.35-6.63,1.07-20.3,3.56-42.87-5.39-62.19a23.27,23.27,0,0,0,3.29-1.84c.09.18.19.35.29.51a4.16,4.16,0,0,0,.64-.42,3.53,3.53,0,0,0-.16-.64,8.32,8.32,0,0,0,2.91-3.6l0,0,1.21-.67A35,35,0,0,1,148.52,64.29Z"/><path class="cls-35" d="M147.15,51.89a4.16,4.16,0,0,1-.73-1.81c0-.34.3-.52,1.05-.34s1.3,1.63,1.45,2.48A5.25,5.25,0,0,1,147,54.7a15.42,15.42,0,0,1-1.91,1.22l-1.21.67h0a9.41,9.41,0,0,1-1.84-1.5,14,14,0,0,1-2.78-4,11.27,11.27,0,0,1,.51-2.27,15.86,15.86,0,0,0,.69-2.69,14.72,14.72,0,0,0,2.63.56c-.07.29-.14.6-.2.91-1.89-.35-1.43,3.54-1,4.57,1.22,2.25,4,2.76,5,.68.23-.13.44-.28.62-.4A4.57,4.57,0,0,0,147.15,51.89Z"/><path class="cls-14" d="M146.51,53l.34-.16c-1,2.08-3.74,1.57-5-.68-.47-1-.93-4.92,1-4.57-.17.87-.31,1.78-.43,2.61a10.32,10.32,0,0,1,3.5,2.16A4.85,4.85,0,0,1,146.51,53Z"/><path class="cls-39" d="M146.69,133.73c.05,1.63-.25,1.74-2.07,2.71s-3.67,2.16-5.43,2.84c-1.18.53-7.53,2.05-6.53-.63a2.67,2.67,0,0,0,1.64.59C137.87,139.59,144.09,136.08,146.69,133.73Z"/><path class="cls-40" d="M146.69,133.53v.2c-2.6,2.35-8.82,5.86-12.39,5.51a2.67,2.67,0,0,1-1.64-.59c-.74-.86,1.81-2.32,3.2-3.43,1.14-1,3.18-2.54,4-4.27h0c.62.13,1.33.31,2,.47a7.27,7.27,0,0,0,4,.09A7.33,7.33,0,0,1,146.69,133.53Z"/><path class="cls-26" d="M142.81,29.24c3.62,2.89,4,9.93,3.26,13.54-.09.44-.14.89-.19,1.35-1.27,0-1.95,0-2.39-1.2s-.1-3.17-.1-4.47a6.7,6.7,0,0,0-.9-3.67c-.79-1.39-2.29-2-1-3.18a3.86,3.86,0,0,0-2.59.6,5,5,0,0,1,.1-2.09c-.58.41-1.14.88-1.66,1.25a24.54,24.54,0,0,0-3.72-.16,24.22,24.22,0,0,0-8.36.7c-1.89.5-5.68,2.68-7.57,1.49-1.39-.79-.9-2.68-.39-3.77l-.06-.08h0c4.64-2.59,13-2.34,16.5-2.47C136.83,26.89,140.27,27.25,142.81,29.24Z"/><path class="cls-41" d="M137.35,31.37c.52-.37,1.08-.84,1.66-1.25a5,5,0,0,0-.1,2.09,3.86,3.86,0,0,1,2.59-.6c-1.3,1.19.2,1.79,1,3.18a6.7,6.7,0,0,1,.9,3.67c0,1.3-.3,3.18.1,4.47s1.12,1.22,2.39,1.2a25.92,25.92,0,0,1-.33,2.65,12.46,12.46,0,0,1-2.5-.09,14.72,14.72,0,0,1-2.63-.56c-.22-.06-.43-.14-.64-.21.14-.31.27-.62.4-.93,2.08-5.06,3-11.13-4.08-12.14a27.27,27.27,0,0,0-15.23,2.59h0a17.33,17.33,0,0,1-3.37.85,11.68,11.68,0,0,1-1.88-4.7,5.25,5.25,0,0,1-.06-.79h0a7.2,7.2,0,0,1,1.69-1.25l.06.08c-.51,1.09-1,3,.39,3.77,1.89,1.19,5.68-1,7.57-1.49a24.22,24.22,0,0,1,8.36-.7A24.54,24.54,0,0,1,137.35,31.37Z"/><path class="cls-40" d="M143.84,56.59v0a8.32,8.32,0,0,1-2.91,3.6,7.84,7.84,0,0,0-.61-1.32c-.23-.44-.47-.87-.65-1.3a12.62,12.62,0,0,0,2.33-2.5A9.41,9.41,0,0,0,143.84,56.59Z"/><path class="cls-42" d="M136.87,62.6c8.95,19.32,6.46,41.89,5.39,62.19-.16,2.15-.32,4.45-.35,6.63-.72-.16-1.43-.34-2-.47a.22.22,0,0,0,0-.08c3.09-17.53-.67-39.16-3.4-56.18,0-.16-.05-.32-.08-.48l-.06-.39h0a2.29,2.29,0,0,1,.12-.37,5.91,5.91,0,0,1,.56-1.22c-.72-2.89-1.81-5.78-2.8-8.58l.55-.19C135.41,63.22,136.13,62.94,136.87,62.6Z"/><path class="cls-21" d="M142,55.09a12.62,12.62,0,0,1-2.33,2.5,3.57,3.57,0,0,1-.21-.6c-.27.16-.62.35-.91.53.12-1.8-.79-4.26-.93-5.55a9.62,9.62,0,0,1-2.69,1.19,8,8,0,0,0,1.29-3,24.78,24.78,0,0,0-4.55-.52l0-.79a15.29,15.29,0,0,0,5.61-.47,11.94,11.94,0,0,1,2.41.42,11.27,11.27,0,0,0-.51,2.27A14,14,0,0,0,142,55.09Z"/><path class="cls-38" d="M139.87,130.87a.22.22,0,0,1,0,.08h0A.13.13,0,0,0,139.87,130.87Z"/><path class="cls-40" d="M138.23,58.71l.65-.48c.42.82.83,1.73,1.28,2.53a23.27,23.27,0,0,1-3.29,1.84c-.74.34-1.46.62-2.11.86a7.51,7.51,0,0,0-1-2.29l.14-.06A22.76,22.76,0,0,0,138.23,58.71Z"/><path class="cls-43" d="M138.54,57.58c.12.2.23.42.34.65l-.65.48A2.7,2.7,0,0,0,138.54,57.58Z"/><path class="cls-43" d="M137.62,52c.14,1.29,1,3.75.93,5.55h0l0,0a2.7,2.7,0,0,1-.31,1.13,22.76,22.76,0,0,1-4.34,2.4l-.14.06c-.5.23-1,.45-1.54.64-1.19-1.3-2.46-2.88-3.89-4.22-2.17-2.07-5.07-3.25-7.6-4.87A27.85,27.85,0,0,1,113.26,46a8.78,8.78,0,0,1-.73-3.22,5.17,5.17,0,0,1,1-2.09c1.37,3.79,4.36,6.22,8.08,7.75,3.29,1.29,6.72,1.13,10.09,1.26a24.78,24.78,0,0,1,4.55.52,8,8,0,0,1-1.29,3A9.62,9.62,0,0,0,137.62,52Z"/><path class="cls-44" d="M137,72.23a5.91,5.91,0,0,0-.56,1.22,2.29,2.29,0,0,0-.12.37h0a.14.14,0,0,0,0,.06c-.66-3-2.18-7.29-3.91-9.6l0-.09c.44-.14.87-.26,1.25-.36l.59-.18C135.2,66.45,136.29,69.34,137,72.23Z"/><path class="cls-44" d="M136.39,74.21c0,.16.06.32.08.48,0-.14-.05-.28-.08-.43Z"/><path class="cls-38" d="M136.33,73.82l.06.39v.05c-.74,8.9-6.07,23.8-9.43,31-3.48,7.7-7.46,16.6-12.14,23l0,.07a.32.32,0,0,0,0-.09,11,11,0,0,1-4.27-2.82l.1-.08c1.08-3.79,3.62-7.77,5.43-11.38,4.17-8,6-16.62,8.34-25.29,2.14-7.1,4.44-16.46,3-23.29.45,0,.91-.12,1.37-.2a4.87,4.87,0,0,1,.11.82,4.32,4.32,0,0,0,1-.27v-.07a3.21,3.21,0,0,1-.34-.64c.66-.15,1.31-.34,1.93-.52l1-.3,0,.09c1.73,2.31,3.25,6.55,3.91,9.6A.14.14,0,0,1,136.33,73.82Z"/><path class="cls-45" d="M134.76,63.46l-.55.19-.59.18c-.38.1-.81.22-1.25.36l-1,.3c-.29-.68-.69-1.35-1-2.08.62-.18,1.23-.38,1.82-.6s1-.41,1.54-.64A7.51,7.51,0,0,1,134.76,63.46Z"/><path class="cls-16" d="M132.21,61.81c-.59.22-1.2.42-1.82.6s-1,.3-1.58.41a5.52,5.52,0,0,0-.2-.65,3.64,3.64,0,0,0-1,.17c.1.2.21.42.31.65a18.8,18.8,0,0,1-3.09.3.75.75,0,0,0-.07-.12c-.39-.55-1-1.29-1.36-1.78a25.64,25.64,0,0,0-6.4-5.33c-1-2.83-2.17-5.75-3.21-8.66-.16-.42-.36-.91-.56-1.44a27.85,27.85,0,0,0,7.46,6.76c2.53,1.62,5.43,2.8,7.6,4.87C129.75,58.93,131,60.51,132.21,61.81Z"/><path class="cls-40" d="M130.39,62.41c.26.73.66,1.4,1,2.08-.62.18-1.27.37-1.93.52a22.51,22.51,0,0,1-.6-2.19C129.34,62.71,129.87,62.57,130.39,62.41Z"/><path class="cls-31" d="M129.75,65.65v.07a4.32,4.32,0,0,1-1,.27,4.87,4.87,0,0,0-.11-.82A9.81,9.81,0,0,0,128,63c-.1-.23-.21-.45-.31-.65a3.64,3.64,0,0,1,1-.17,5.52,5.52,0,0,1,.2.65,22.51,22.51,0,0,0,.6,2.19A3.21,3.21,0,0,0,129.75,65.65Z"/><path class="cls-40" d="M128,63a9.81,9.81,0,0,1,.73,2.18c-.46.08-.92.16-1.37.2a7.11,7.11,0,0,1-1.53,0,2.89,2.89,0,0,1-.6-.09,13.75,13.75,0,0,0-.36-2h0A18.8,18.8,0,0,0,128,63Z"/><path class="cls-42" d="M127.31,65.37c1.47,6.83-.83,16.19-3,23.29C122,97.33,120.17,106,116,114c-1.81,3.61-4.35,7.59-5.43,11.38l-.1.08a3.06,3.06,0,0,1-.54-.92l0-.08c4.5-7.4,7.51-16.31,9.45-24.55,2.13-8.45,5.18-18,6.16-27a47,47,0,0,0,.27-7.46A7.11,7.11,0,0,0,127.31,65.37Z"/><path class="cls-26" d="M126.34,48.06v0a11.5,11.5,0,0,1-1.45-.45c-4.95-1.89-9.43-5.64-11.09-10.61a12.79,12.79,0,0,1-.68-3.84h0c0-.11,0-.24,0-.36V32.7a11.88,11.88,0,0,1,2.41-2.06.92.92,0,0,0,0,.16h0a5.25,5.25,0,0,0,.06.79,11.68,11.68,0,0,0,1.88,4.7,16.43,16.43,0,0,0,4.93,4.93s-2.94.93-3.62,1.2C123.26,43.63,124.19,47.45,126.34,48.06Z"/><path class="cls-37" d="M117,56.06a25.64,25.64,0,0,1,6.4,5.33c.4.49,1,1.23,1.36,1.78a.53.53,0,0,0,0,.12,13.75,13.75,0,0,1,.36,2,2.89,2.89,0,0,0,.6.09,47,47,0,0,1-.27,7.46c-2.18.58-5.23,3.2-5.5,5.56-.41-1.15-.9-2.16-1.25-3.33-.1-.58-.22-1.12-.33-1.62h0c-.92-4.09-1.8-6.14-2.52-11.53.17-.41.32-.82.46-1.23a49.24,49.24,0,0,1-2.12-6.35C115.17,54.89,116.11,55.47,117,56.06Z"/><path class="cls-6" d="M120,78.39a11.65,11.65,0,0,1,.52,2c-3.07-1.26-5.25-3.43-8.15-4.69l-2.12-.59a27.66,27.66,0,0,0,2.19-9.77c.47.44.94.86,1.41,1.23.69-1.48,1.44-3,2-4.63.72,5.39,1.6,7.44,2.52,11.53h0a11,11,0,0,0,.33,1.62C119.11,76.23,119.6,77.24,120,78.39Z"/><path class="cls-25" d="M116.37,60.67c-.14.41-.29.82-.46,1.23-.61,1.59-1.36,3.15-2,4.63-.47-.37-.94-.79-1.41-1.23A22.5,22.5,0,0,1,110,62.65c-.15-2.8,0-5.73,0-8.68,0-.67,0-1.33,0-2v-.45c0-3,0-6.48-.07-9.67,0-.06,0-.12,0-.18.3,0,.61-.08,1-.12l.09.3c1.2,3.91,2.06,8.31,3.2,12.47A49.24,49.24,0,0,0,116.37,60.67Z"/><path class="cls-40" d="M114.77,128.32c.23.94.51,1.94.15,2.43l-.1.07c-.74.49-3.57.65-4.43.65-2.83.18-11.06.44-11.06-.63a.28.28,0,0,1,0-.09c.91-2,5.07-2.71,7.06-3.8,1.06-.79,2.32-1.58,3.4-2.37l.13-.09a3.06,3.06,0,0,0,.54.92,11,11,0,0,0,4.27,2.82A.32.32,0,0,1,114.77,128.32Z"/><path class="cls-39" d="M114.82,130.82c0,.36-.08.75-.08,1.15-2.33.52-15.58,2.62-15.48-1.13h.07c0,1.07,8.23.81,11.06.63C111.25,131.47,114.08,131.31,114.82,130.82Z"/><path class="cls-35" d="M105.2,22.46a11.14,11.14,0,0,1,2,4.12,3.74,3.74,0,0,0,2-.31s0,0,.06,0h0c1,0,1.87-2.59.55-2.79-.88-.18-1,.88-1,1.82-.18-.47-.39-.95-.6-1.43-.27-1.91.84-2.61,1.91-2.24a2.88,2.88,0,0,1,1.72,2.76c0,1.46-.32,3.24-2.23,3a10.11,10.11,0,0,1,.26,1.54,9.81,9.81,0,0,1-.53,4.24,7.6,7.6,0,0,1-1.24,2.15,5.86,5.86,0,0,1-1.69,1.36,5.45,5.45,0,0,1-.55.25c1.9-1.34,2.31-4.41,2-6.45-.35-2.88-2-4.87-3.54-7.2-.25-.39-.54-1.19-1-1.29-.6-.1-1.85.9-2.39,1.15-1.25.59-2.74.79-3.84,1.68,0,1.63-1,4.47-2.45,5.51-.11-.21-.22-.43-.32-.64a9.73,9.73,0,0,0,2-5.27c0-.12,0-.25,0-.37a31.21,31.21,0,0,0,7.36-3.6C104.21,21.11,104.72,21.78,105.2,22.46Z"/><path class="cls-46" d="M111.33,39a17.42,17.42,0,0,0-.28,2.58H111c-.35,0-.66.1-1,.12l-.1,0a8.28,8.28,0,0,1-.88-2l.1,0a23.79,23.79,0,0,0,.18-3.37h.09A4.84,4.84,0,0,0,111.33,39Z"/><path class="cls-6" d="M110.08,51.72V52c0,.67,0,1.33,0,2-.76-.78-1.48-1.63-2.22-2.55a36.47,36.47,0,0,1-5.25,16.29,20.17,20.17,0,0,1-12,8.13h-.09a8.07,8.07,0,0,0-.49-2,17.94,17.94,0,0,0-1.13-2.48h0c-.22-.42-.44-.82-.65-1.19a19.92,19.92,0,0,0,2.11-.94,6.07,6.07,0,0,1,1.51,3c4.63-1.49,9.26-4.91,9.26-9.68.44.3.89,0,1.49.45,1.3-3.87,5.5-12.59.86-15.48.06-.61.11-1.22.17-1.83.08.21.17.42.27.62.23-.55.47-1.14.74-1.71a8.81,8.81,0,0,1,.62-1.14,9.53,9.53,0,0,1,.18,2.82A14.62,14.62,0,0,0,108,49.7a19.59,19.59,0,0,0,1.87,1.64Z"/><path class="cls-5" d="M110.08,51.52l-.22-.18c-.22-.35-.42-.72-.62-1.09-.56-2.64-.23-5.27-.8-7.81-.27-1.45-1-1.83-2-2.56,0-.56,0-1.11,0-1.64a3.61,3.61,0,0,0,.8.71,6.64,6.64,0,0,0,1.87.74,8.28,8.28,0,0,0,.88,2l.11.16C110.08,45,110.08,48.49,110.08,51.52Z"/><path class="cls-32" d="M109.86,23.45c1.32.2.48,2.8-.55,2.79h-.1c-.11-.32-.23-.63-.36-1C108.85,24.33,109,23.27,109.86,23.45Z"/><path class="cls-38" d="M109.9,124.41l0,.08-.13.09A1,1,0,0,0,109.9,124.41Z"/><path class="cls-47" d="M110.16,21.6c-1.07-.37-2.18.33-1.91,2.24.21.48.42,1,.6,1.43s.25.64.36,1v0a3.74,3.74,0,0,1-2,.31,11.14,11.14,0,0,0-2-4.12,14.9,14.9,0,0,0,.46-1.47c1.34.39,2.24.3,1.74-1.24a4,4,0,0,0,1.72-.29C109.5,20.15,109.84,20.86,110.16,21.6Z"/><path class="cls-10" d="M109.3,36.34a23.79,23.79,0,0,1-.18,3.37l-.1,0a6.64,6.64,0,0,1-1.87-.74,3.61,3.61,0,0,1-.8-.71c0-.55,0-1.09.1-1.62a5.86,5.86,0,0,0,1.69-1.36,2.83,2.83,0,0,0,1,1v.07Z"/><path class="cls-14" d="M108,30.42c.26,2-.15,5.11-2,6.45a6,6,0,0,1-2.34.41,8.36,8.36,0,0,1-1.09-.08c-2.48-.37-4.6-2.22-6.22-4.46-.39-.55-.75-1.12-1.09-1.7-.15-.26-.29-.52-.42-.77,1.5-1,2.45-3.88,2.45-5.51,1.1-.89,2.59-1.09,3.84-1.68.54-.25,1.79-1.25,2.39-1.15.45.1.74.9,1,1.29C105.9,25.55,107.6,27.54,108,30.42Z"/><path class="cls-48" d="M109.12,19.46a4,4,0,0,1-1.72.29c.5,1.54-.4,1.63-1.74,1.24a14.9,14.9,0,0,1-.46,1.47c-.48-.68-1-1.35-1.48-2.07a8.94,8.94,0,0,0,3.53-4.1C107.9,17.33,108.54,18.38,109.12,19.46Z"/><path class="cls-48" d="M96.7,20.2a10.63,10.63,0,0,1-1.16.4,3.78,3.78,0,0,0-3.46-2.34,4,4,0,0,0-3.49,2.36h0a4.94,4.94,0,0,1,2.6-3.46c-1.49.37-2.85,1-4.21,1.36a4.8,4.8,0,0,1,5-2.46l.1.12c.79.4,1.69.7,2.48,1,1.2.6,1.85.21,1.9-1.28a3.18,3.18,0,0,0,1.79.74c0-.35-.15-.8.15-1.09s.4-.05.85,0c1,.14,1.58-.35,2.48-.75a40.43,40.43,0,0,1,4.32-2,3.7,3.7,0,0,1,1.84,1.59l-.35-.06a9.92,9.92,0,0,0-1.6-.18,4.61,4.61,0,0,1-.28-.38h-.24A25.38,25.38,0,0,1,96.7,20.2Z"/><path class="cls-38" d="M107.37,15.87a2.9,2.9,0,0,1-.12.42,8.94,8.94,0,0,1-3.53,4.1A31.21,31.21,0,0,1,96.36,24a8.53,8.53,0,0,0-.82-3.39,10.63,10.63,0,0,0,1.16-.4,3.69,3.69,0,0,1,.69,2.23,23.75,23.75,0,0,0,5.53-3.13,33.26,33.26,0,0,0,2.89-2.93c.35-.35.77-.64,1.12-1Z"/><path class="cls-49" d="M106.93,15.38c-.35.35-.77.64-1.12,1a33.26,33.26,0,0,1-2.89,2.93,23.75,23.75,0,0,1-5.53,3.13,3.69,3.69,0,0,0-.69-2.23,25.38,25.38,0,0,0,8.71-6.38h.24a4.61,4.61,0,0,0,.28.38C106.23,14.6,106.58,15,106.93,15.38Z"/><path class="cls-47" d="M103.74,12.25a9.67,9.67,0,0,1,2.3.6,40.43,40.43,0,0,0-4.32,2c-.9.4-1.49.89-2.48.75-.45-.05-.45-.4-.85,0s-.2.74-.15,1.09a3.18,3.18,0,0,1-1.79-.74c0,1.49-.7,1.88-1.9,1.28-.79-.34-1.69-.64-2.48-1l-.1-.12c1.72-3.29,5.76-4.33,9.22-4.33a15.48,15.48,0,0,0-.24-1.64,3.55,3.55,0,0,0-.62-1.45c1.36.5,1.73,1.86,2.35,3a3.33,3.33,0,0,0,.62-3.21,2.65,2.65,0,0,1,.49,3.58Z"/><path class="cls-41" d="M103.43,47.56c4.64,2.89.44,11.61-.86,15.48-.6-.45-1-.15-1.49-.45,0,4.77-4.63,8.19-9.26,9.68a6.07,6.07,0,0,0-1.51-3,30.45,30.45,0,0,0,4.1-2.51c3.08-2.52,6.29-5.86,7.38-9.47A45.67,45.67,0,0,0,103.43,47.56Z"/><path class="cls-20" d="M97.3,131.9a1.08,1.08,0,0,1-.74,1.24c-1.59-4.85-3.72-10.57-2.12-15.49C95.73,124,97.3,131.9,97.3,131.9Z"/><path class="cls-15" d="M96.56,133.14l-.11,0a1.08,1.08,0,0,1-1.28-.85s-1.38-6.86-2.6-13a22.17,22.17,0,0,0,1.11-5.52c.23,1.14.49,2.46.76,3.83C92.84,122.57,95,128.29,96.56,133.14Z"/><path class="cls-50" d="M92,29.54h0a2.87,2.87,0,0,0,1.64-1,1.24,1.24,0,0,0,.18-.22c2.63-3.45-.77-11.72-3.84-7.6l0,0a3,3,0,0,0-.5.82C88.28,24.28,89.56,29.87,92,29.54ZM96.36,24c0,.12,0,.25,0,.37a9.73,9.73,0,0,1-2,5.27,5.94,5.94,0,0,1-.72.77,4.08,4.08,0,0,1-.86.56h0c-1.21.58-2.62.3-4.06-1.5a7.91,7.91,0,0,1-1.11-6.31h0a10.19,10.19,0,0,1,1-2.52,4,4,0,0,1,3.49-2.36,3.78,3.78,0,0,1,3.46,2.34A8.53,8.53,0,0,1,96.36,24Z"/><path class="cls-35" d="M96.25,32.74A3.08,3.08,0,0,1,92.84,31h0a4.08,4.08,0,0,0,.86-.56c.34.65.88,1,1.46.64C95.5,31.62,95.86,32.19,96.25,32.74Z"/><path class="cls-8" d="M95,107.33c.33,2.11,1.13,3.85-1.29,4.34a12.86,12.86,0,0,0-.68-3.5c0-.1-.08-.19-.13-.29C93.68,107.67,94.3,107.55,95,107.33Z"/><path class="cls-19" d="M95,107.26l0,.07h0c-.68.22-1.3.34-2.1.55A9.61,9.61,0,0,0,91,105.12C92.42,105.52,94.55,105.54,95,107.26Z"/><path class="cls-51" d="M94.74,30.27c.13.25.27.51.42.77-.58.38-1.12,0-1.46-.64a5.94,5.94,0,0,0,.72-.77C94.52,29.84,94.63,30.06,94.74,30.27Z"/><path class="cls-52" d="M90,20.69c3.07-4.12,6.47,4.15,3.84,7.6a1.24,1.24,0,0,1-.18.22,2.87,2.87,0,0,1-1.64,1c1.62-1.47,2.37-4.12,1.26-6a4,4,0,0,0-2.34-2.14,2.45,2.45,0,0,0-1.46.15,3,3,0,0,1,.5-.82Z"/><path class="cls-53" d="M93.26,23.52c1.11,1.9.36,4.55-1.26,6h0c-2.44.33-3.72-5.26-2.54-8a2.45,2.45,0,0,1,1.46-.15A4,4,0,0,1,93.26,23.52Zm-1.35,2.89c1.7-.85-.3-4.8-1.31-1.89v0C90.35,25.57,90.57,27,91.91,26.41Z"/><path class="cls-54" d="M90.6,24.52c1-2.91,3,1,1.31,1.89-1.34.57-1.56-.84-1.31-1.86Z"/><path class="cls-12" d="M88.26,133.78a.84.84,0,0,1-.45.25,9.73,9.73,0,0,1-3.11-1.25A4.64,4.64,0,0,1,86.49,131C87.46,131.9,88.25,132.79,88.26,133.78Z"/><path class="cls-55" d="M88.78,74.69c-.54.57-.92,1.27-1.37,1.84h0a4.41,4.41,0,0,1-3.5.55c.6-.9.8-1.71-.31-1.36a1.43,1.43,0,0,0,.1-.55l.06,0A7.6,7.6,0,0,0,88.78,74.69Z"/><path class="cls-23" d="M80.15,129.11a16.72,16.72,0,0,0,4.55,3.67A9.73,9.73,0,0,0,87.81,134c-2.22.64-8.92-3-9.66-6a1.93,1.93,0,0,1,.22-1.52h0a2.47,2.47,0,0,1,.76-.75C78.62,126.65,79.13,127.89,80.15,129.11Z"/><path class="cls-25" d="M83.33,127.26c.39,1.39,1.92,2.56,3.16,3.74a4.64,4.64,0,0,0-1.79,1.78,16.72,16.72,0,0,1-4.55-3.67,4.93,4.93,0,0,0,1-3.23,3.61,3.61,0,0,0,2.13,1.38Z"/><path class="cls-35" d="M83.6,75.72c1.11-.35.91.46.31,1.36-1,1.46-3,3.15-2.36.45h0a4.08,4.08,0,0,0,.86-.39A3.06,3.06,0,0,0,83.6,75.72Z"/><path class="cls-8" d="M83.32,127.25a0,0,0,0,0,0,0h0Z"/><path class="cls-11" d="M82.68,115a.84.84,0,0,1,0,.17c-.93.33-1.93.72-3,1.09a10.52,10.52,0,0,0-.71-2.91A2.61,2.61,0,0,0,78,112a20.78,20.78,0,0,1,2.13-.56A7.8,7.8,0,0,1,82.68,115Z"/><path class="cls-14" d="M82.72,74.7l-.23.06a.64.64,0,0,0,0-.23A1.75,1.75,0,0,1,82.72,74.7Z"/><path class="cls-35" d="M82.49,74.76c.16,1-1.19,1.63-2.39,1.79s-2.24-.12-1.52-.85c.83-.13,2-1.26,2.85-1.39a1.71,1.71,0,0,1,1,.22A.64.64,0,0,1,82.49,74.76Z"/><path class="cls-35" d="M77.34,90a4.08,4.08,0,0,1,.74-.48c.12.28.24.55.35.83a1.78,1.78,0,0,0-.65,1.76A21.41,21.41,0,0,0,79,96.35c.35,1.05.55,2.68,1.2,3.58.37.49,1,.49,1.72.43.13.41.25.82.37,1.22-.91-.11-1.82-.22-2.69-.41a55.7,55.7,0,0,0-3-7.83,21.68,21.68,0,0,0-.17-2.65C76.75,90.49,77,90.25,77.34,90Z"/><path class="cls-14" d="M81.94,100.36c-.69.06-1.35.06-1.72-.43-.65-.9-.85-2.53-1.2-3.58a21.41,21.41,0,0,1-1.24-4.22,1.78,1.78,0,0,1,.65-1.76c.11.26.22.51.32.78.38.94.75,1.9,1.1,2.87C80.63,96.17,81.33,98.35,81.94,100.36Z"/><path class="cls-35" d="M82.43,71.1a34.53,34.53,0,0,0-3.52,2.6v0l-.55.1c-.65.12-1.58.3-2.54.52a4.54,4.54,0,0,0-.5.12l.52-.3c1-.55,2.52-1.38,3.6-1.88h0A29.83,29.83,0,0,1,82.43,71.1Z"/><path class="cls-8" d="M79.75,116.29l0,0c-.74.27-1.51.54-2.29.78a20.71,20.71,0,0,1-5.12,1,13.31,13.31,0,0,1-.64-4.44A26.1,26.1,0,0,0,78,112a2.61,2.61,0,0,1,1,1.35A10.52,10.52,0,0,1,79.75,116.29Z"/><path class="cls-56" d="M78.43,90.37c-.11-.28-.23-.55-.35-.83a2.37,2.37,0,0,1,.86-.25H79a.61.61,0,0,1,.6.28.3.3,0,0,1,0,.1,1.33,1.33,0,0,1-.41,1.1,1.55,1.55,0,0,1-.52.38C78.65,90.88,78.54,90.63,78.43,90.37Z"/><path class="cls-11" d="M76.65,93.34a55.7,55.7,0,0,1,3,7.83,8.71,8.71,0,0,1-2.44-.89l-.11-.06a9.43,9.43,0,0,1-.32-1.53A47,47,0,0,1,76.65,93.34Z"/><path class="cls-8" d="M78.2,84.83c0,.14.07.29.1.44a46.36,46.36,0,0,0-5.56-5.47,8,8,0,0,1,2.33.15C76.84,80.63,77.79,82.92,78.2,84.83Z"/><path class="cls-19" d="M75.62,111.07A10.09,10.09,0,0,1,78,112a26.1,26.1,0,0,1-6.38,1.62,9.9,9.9,0,0,1-2.28-.11,16.28,16.28,0,0,1-4.59-1.64c1.81.21,2.16-2.85,1-3.8a25.36,25.36,0,0,1,4.62,1.48C72.1,110.18,73.9,110.48,75.62,111.07Z"/><path class="cls-57" d="M72.22,76.28c-.54-.31-.38-.62.16-.91-.25,1,1.76.11,2.26-.07a24.26,24.26,0,0,0,3.18-.94,1.1,1.1,0,0,0,0,.92c-.63.16-1.52.41-2.4.63-.56.13-1.11.26-1.61.35a4.42,4.42,0,0,1-1.44.08Z"/><path class="cls-20" d="M77.28,118.1c2.11.47.84,7.18.2,10.54a.94.94,0,0,1-.5.06,1.08,1.08,0,0,1-.93-1.21S76.63,123,77.28,118.1Z"/><path class="cls-58" d="M77.34,90c-.3.23-.59.47-.86.67l-.07.06a17.43,17.43,0,0,0-.51-2.45c-.54-1.9-1.32-3.7-2.07-5.75l.15-.13a33,33,0,0,1,2.41,2.48A9,9,0,0,0,77.34,90Z"/><path class="cls-59" d="M76.65,93.34a47,47,0,0,0,.1,5.35A32,32,0,0,1,71.82,101c-1,.44-2.1.92-3.27,1.32a4.84,4.84,0,0,1-.88-1c-.2-.35-.75-1.39-.24-1.69.24-.15,1.24.24,1.64.24-.65-.79-1.85-2.08-1.45-3.22a8.1,8.1,0,0,0,2.39.89c-.2-.2-.4-.44-.6-.64-1.74-2.29-1.14-6.31-.64-9,.3-1.49.24-2.48,1.64-3.23a14.41,14.41,0,0,0,3.42-2.13c.75,2,1.53,3.85,2.07,5.75a17.43,17.43,0,0,1,.51,2.45l.07-.06A21.68,21.68,0,0,1,76.65,93.34Z"/><path class="cls-35" d="M76.43,67.48c.61.82.22,2.87-1,2.9-.06-.23-.13-.47-.21-.7,1.51-.35,0-2.41-.48-1.36-.09-.22-.18-.46-.29-.68A1.33,1.33,0,0,1,76,67.1,1.14,1.14,0,0,1,76.43,67.48Z"/><path class="cls-60" d="M74,66.66c-.18-.35-.36-.69-.55-1a2.14,2.14,0,0,0,.23-.82,13.55,13.55,0,0,0,.48-2c1.24-.42,1.57,1.24,1.13,2.12A1.53,1.53,0,0,1,76,67.08v0a1.33,1.33,0,0,0-1.59.54C74.28,67.3,74.12,67,74,66.66Z"/><path class="cls-61" d="M74.71,68.32c.53-1,2,1,.48,1.36C75.05,69.22,74.89,68.77,74.71,68.32Z"/><path class="cls-15" d="M74.75,137.72a1.06,1.06,0,0,1-.41,1.07c-.27-3.82-1.59-7.5-2.24-11.26-.27-1.45-1.37-7.49-3.28-8.35-.12-.6-.23-1.14-.33-1.61l1.15.31a11,11,0,0,0,1.17.18C72,124,74.75,137.72,74.75,137.72Z"/><path class="cls-7" d="M63.63,70.75a5.1,5.1,0,0,1-2.58-.34c-1.55-.63-2.17-2-1.16-3.28.53,1.09,3,.14,2.43-.74,2.69,1.27,4.26-1.56,4.78-3.65a2.45,2.45,0,0,0,2.29,1.49c2.25,0,4.91-2.57,4.29-4.43.63.51.64,1.77.44,3a13.55,13.55,0,0,1-.48,2,2.14,2.14,0,0,1-.23.82c-1,2-4.9,3.28-6.79,1.72a.75.75,0,0,0-.05-.16h-.13a1.37,1.37,0,0,0,.18.16C67,69,65.4,70.2,63.75,70.53a1.19,1.19,0,0,1,.15.18A1.26,1.26,0,0,1,63.63,70.75Z"/><path class="cls-20" d="M74.34,138.79a1.12,1.12,0,0,1-.44.21,1.1,1.1,0,0,1-1.28-.85s-2.55-12.74-3.8-19c1.91.86,3,6.9,3.28,8.35C72.75,131.29,74.07,135,74.34,138.79Z"/><path class="cls-24" d="M73.67,82.12c.1.1.21.19.31.3l-.15.13C73.77,82.41,73.72,82.26,73.67,82.12Z"/><path class="cls-62" d="M59.82,67c-2.42.38-.58-2.37-.58-3.67l.16,0c-.53-1.58-.4-2.11.66-3.44.93-1,3.32-3,4.64-1.71-.66-4,8.74-2.91,7.15,1.71.88-.37,1.47-.33,1.83,0,.62,1.86-2,4.43-4.29,4.43a2.45,2.45,0,0,1-2.29-1.49c-.52,2.09-2.09,4.92-4.78,3.65.54.88-1.9,1.83-2.43.74.06-.07.12-.15.19-.22A1.32,1.32,0,0,1,59.82,67Z"/><path class="cls-35" d="M63.9,70.71a1.19,1.19,0,0,0-.15-.18C65.4,70.2,67,69,66.62,67.36c1.89,1.56,5.78.3,6.79-1.72.19.33.37.67.55,1-1,2.06-4.65,2.66-6.49,2.41C67.62,70.63,67.1,71,66,71.9c-.6.45-.68.22-.9,1.19a4.12,4.12,0,0,0,0,1.64c.71,2.48,3.78,4.28,6.2,4.45a5.89,5.89,0,0,1-2.17-.06,9.27,9.27,0,0,1-1.55-.44,2.66,2.66,0,0,0-.16-.39,2.2,2.2,0,0,1-.2.23,13.56,13.56,0,0,1-2.8-1.64,1.78,1.78,0,0,1-3.13-1.49c0-1.32,1.06-2.25,2.12-1.32l0,.19C64.46,74.54,64.78,71.94,63.9,70.71Zm-.15,5.76c.5-.54-.81-2.26-1.18-1.22h0C62.12,76.1,63,77.28,63.75,76.47Z"/><path class="cls-33" d="M73,81.19c.23.63-.16,1-.46,1.69a3.18,3.18,0,0,1-1.75-1.43,1.2,1.2,0,0,0,.81-.88,3.77,3.77,0,0,1,1.4.62Z"/><path class="cls-63" d="M72.35,76.34a4.42,4.42,0,0,0,1.44-.08c-.09.82-1.23,1.17-2,.95a1.23,1.23,0,0,1-.35-.15L71.36,77a5.9,5.9,0,0,1,.86-.71Z"/><path class="cls-1" d="M71.27,73.58a1.48,1.48,0,0,1,1.72.15,6.51,6.51,0,0,0-2.37,1.46A1.77,1.77,0,0,1,71.27,73.58Z"/><path class="cls-61" d="M71.63,79.11a.29.29,0,0,0,0,.09,1.88,1.88,0,0,1-.33,0A2.41,2.41,0,0,0,71.63,79.11Z"/><path class="cls-61" d="M71.28,79.18a1.88,1.88,0,0,0,.33,0,6.6,6.6,0,0,0-.09.68,2.46,2.46,0,0,0,0,.67l.06,0a1.2,1.2,0,0,1-.81.88l-.22.07h0a2.82,2.82,0,0,1-1.46-2.39A5.89,5.89,0,0,0,71.28,79.18Z"/><path class="cls-61" d="M70.57,81.51h0a2.56,2.56,0,0,1-2.72-.79s0,0,0,0h0a3.72,3.72,0,0,0,0-.67,4.06,4.06,0,0,0-.3-1.36,9.27,9.27,0,0,0,1.55.44A2.82,2.82,0,0,0,70.57,81.51Z"/><path class="cls-33" d="M70.55,81.53c-.2.73-.29,1.53-.46,2.25a5.67,5.67,0,0,1-3.72-2,4.48,4.48,0,0,1,1.46-1.05A2.56,2.56,0,0,0,70.55,81.53Z"/><path class="cls-33" d="M67.74,84.1A3.75,3.75,0,0,1,68,86.22c-.1.18-.2.36-.29.54a32.34,32.34,0,0,1-.36,4.69A5.12,5.12,0,0,0,65,90c-1-.4-.79-.85-.6-1.94.25-1.25,1.65-4,3.27-4.08Z"/><path class="cls-11" d="M67.86,80a3.72,3.72,0,0,1,0,.67h0s0,0,0,0a4.48,4.48,0,0,0-1.46,1.05,6.18,6.18,0,0,0-.78,1h0l-.09.09c-1.46,1.37-3.45,6-4.41,7.7a.22.22,0,0,0,0,.08A1.06,1.06,0,0,0,61.85,92c-.13.41-.25.81-.36,1.21a46.9,46.9,0,0,0-1.63,14.16l-.36.08a11.16,11.16,0,0,1-.86-2,10.11,10.11,0,0,0,.12-2.31c-.1-3.47-.1-6.95,1.1-10.32a2.69,2.69,0,0,1-1.5-.5c1.71-4.37,2.52-9.06,6.49-11.91.46-.06.93-.11,1.39-.15C66.47,80.22,67.33,80.08,67.86,80Z"/><path class="cls-56" d="M65.3,92.32l.29-.81a5.36,5.36,0,0,1,.43.4c.52.65.58,1.2.35,1.5s-.75.36-1.41,0C65.07,93.05,65.19,92.69,65.3,92.32Z"/><path class="cls-11" d="M65.42,104.64a9.26,9.26,0,0,0,1.5,1.26c-1.27.24-2.92.53-3.7,1.31a61.15,61.15,0,0,1,.42-7.3,6.54,6.54,0,0,0,.69,3.2A6.87,6.87,0,0,0,65.42,104.64Z"/><path class="cls-60" d="M67.2,78.52c-.92,1-2.24,1-3.54.83-1-.12-5.21-1.89-3.22-2.71-2.22.79-4.22-1.55-4.1-3.7.76.83,2.08.06,2.77-.82.15,1.2,2.09,1.34,3,1a2.63,2.63,0,0,0,1.53-2.34,1.26,1.26,0,0,0,.27,0c.88,1.23.56,3.83-.54,3.55l0-.19c-1.06-.93-2.12,0-2.12,1.32a1.78,1.78,0,0,0,3.13,1.49A13.56,13.56,0,0,0,67.2,78.52Z"/><path class="cls-35" d="M64.65,110.52c-.12.25-.41.38-1,.32-.94-.14-.69-1.87-2-1.9A2.81,2.81,0,0,1,64.65,110.52Z"/><path class="cls-61" d="M62.57,75.25c.37-1,1.68.68,1.18,1.22-.72.81-1.63-.37-1.15-1.21Z"/><path class="cls-64" d="M63.63,70.75a2.63,2.63,0,0,1-1.53,2.34c-.9.37-2.84.23-3-1-.69.88-2,1.65-2.77.82a3,3,0,0,1,.43-1.39c-2.19-.38-2.13-4.28.08-4.48-.72-1.53.6-3.55,2.39-3.78,0,1.3-1.84,4.05.58,3.67a.87.87,0,0,0,.07.17c-1,1.28-.39,2.65,1.16,3.28A5.1,5.1,0,0,0,63.63,70.75Z"/><path class="cls-56" d="M61,90.66h1.26c-.16.43-.3.87-.44,1.3A1.06,1.06,0,0,1,61,90.66Z"/><path class="cls-8" d="M64.85,80.37c-4,2.85-4.78,7.54-6.49,11.91a2.69,2.69,0,0,0,1.5.5c-1.2,3.37-1.2,6.85-1.1,10.32a10.11,10.11,0,0,1-.12,2.31c-.34-1-.58-2.15-.82-3.25-.54-3-1.4-5.37-2.13-9.26-.44-2.36-1.08-5.78.28-7.94a9,9,0,0,1,4.64-3.6l0-.12A30.77,30.77,0,0,1,64.85,80.37Z"/><path class="cls-15" d="M60.32,113.45q.48.4,1,.81c-.32,1.84-.71,4-1.11,6.25,0-2.19-.19-4.61-1.26-5.25.11-.62.21-1.22.31-1.78a1.13,1.13,0,0,0,.82,0Z"/><path class="cls-20" d="M59,115.26c1.07.64,1.28,3.06,1.26,5.25h0l-2,11.28a1.09,1.09,0,0,1-2.14-.37S57.81,121.89,59,115.26Z"/><path class="cls-64" d="M60.08,66.91c-.07.07-.13.15-.19.22a.87.87,0,0,1-.07-.17A1.32,1.32,0,0,0,60.08,66.91Z"/><path class="cls-65" d="M67,74.43a1.45,1.45,0,0,0,.87.16,3.58,3.58,0,0,0,.86-.13.74.74,0,0,0,.53-.69.71.71,0,0,0-.53-.69,2.54,2.54,0,0,0-.95,0,2,2,0,0,0-.78.27.62.62,0,0,0,0,1Z"/><path class="cls-65" d="M73.22,72c.51.14.92-.26,1.25-.58.64-.62-.35-1.61-1-1-.28.29-.66.61-.66,1a.54.54,0,0,0,.39.51Z"/><path class="cls-66" d="M66.42,71.89c.88,1,2.48.21,2.6-1,0-.38-.57-.38-.6,0a.93.93,0,0,1-1.58.59c-.25-.3-.67.13-.42.42Z"/><path class="cls-66" d="M71.45,69.54a1.05,1.05,0,0,0,1.66.39c.49-.37.78-1.12.14-1.49A.3.3,0,0,0,73,69c.22.12-.06.4-.22.51a.47.47,0,0,1-.77-.23c-.16-.35-.67,0-.51.3Z"/><path class="cls-66" d="M70.49,70.55a3.39,3.39,0,0,0,.82.91c.3.2.81.1,1.14.17s-.43.88-.51,1c-.24.2-.59.33-.76.59a.09.09,0,0,0,0,.13c.34.12.73-.19,1-.34a1.46,1.46,0,0,0,.8-1,.7.7,0,0,0-.52-.74c-.82-.1-1.41.08-2-.69,0,0,0,0,0,0Z"/><path class="cls-60" d="M65.47,71a2.34,2.34,0,0,0,.27-.49,1.67,1.67,0,0,1,.7-.67A7.88,7.88,0,0,0,67.73,69a.08.08,0,0,0,0-.12,1.57,1.57,0,0,0-1.65.53,4.59,4.59,0,0,0-.56.89.8.8,0,0,0-.11.76.06.06,0,0,0,.08,0Z"/><path class="cls-60" d="M73.33,67.28c-.65-.8-2.44-.2-2.71.7a.09.09,0,0,0,.09.12,2.3,2.3,0,0,0,1-.42,3.58,3.58,0,0,1,1.58-.32s.06,0,0-.08Z"/><path class="cls-67" d="M70.64,81.69a28.34,28.34,0,0,1,1,4.38c.16,1.36.17,2.72.31,4.08,0,.3.51.3.48,0-.26-2.73-.12-6.12-1.56-8.55a.12.12,0,0,0-.22.09Z"/><path class="cls-67" d="M71.62,90.43a1,1,0,0,0,1.23-.27c.05-.11,0-.27-.15-.26a2.71,2.71,0,0,0-.6.22,1.46,1.46,0,0,0-.5.2.07.07,0,0,0,0,.11Z"/><path class="cls-67" d="M70.76,84.67a.34.34,0,0,0,0-.67.34.34,0,0,0,0,.67Z"/><path class="cls-67" d="M71.15,86.64l0,0a.33.33,0,0,0,0-.55h0a.34.34,0,1,0,0,.58Z"/><path class="cls-67" d="M70.84,88.49a.44.44,0,0,0,.14.13c.56.25.56-.78,0-.52a.35.35,0,0,0-.14.13.24.24,0,0,0,0,.26Z"/><path class="cls-67" d="M65.53,103.29c.13.23.23.47.36.7s.21.45.44.53a.08.08,0,0,0,.09-.06c.14-.44-.52-.93-.74-1.25-.06-.09-.2,0-.15.08Z"/><path class="cls-67" d="M66.7,103a7.26,7.26,0,0,0,.46.63c.15.18.35.49.61.46a.1.1,0,0,0,.11-.1c0-.24-.25-.38-.4-.54a4,4,0,0,0-.62-.61c-.09-.07-.22.07-.16.16Z"/><path class="cls-67" d="M68.26,102.46a2.05,2.05,0,0,0,1.08,1.42c.25.08.38-.23.24-.4s-.4-.37-.59-.57a4,4,0,0,0-.54-.55c-.08-.07-.22,0-.19.1Z"/><path class="cls-67" d="M69.68,102.09a2,2,0,0,0,1.07,1.44c.27.11.44-.32.2-.46A2.6,2.6,0,0,1,69.89,102c-.06-.11-.26,0-.21.09Z"/><path class="cls-67" d="M71.21,101.65c.12.2.27.39.4.58a2.33,2.33,0,0,0,.46.64c.25.19.61,0,.45-.34s-.7-1.21-1.26-1c-.05,0-.08.07-.05.11Z"/><path class="cls-67" d="M72.74,100.71a5.81,5.81,0,0,0,.49.88c.17.23.34.57.67.56a.17.17,0,0,0,.16-.12c.06-.32-.21-.54-.39-.78a3.41,3.41,0,0,0-.76-.71c-.11-.09-.22.07-.17.17Z"/><path class="cls-67" d="M74.2,100.06a4.8,4.8,0,0,1,.39.7c.13.23.21.56.46.67a.23.23,0,0,0,.33-.13,1,1,0,0,0-.25-.73,2.66,2.66,0,0,0-.67-.71c-.13-.12-.39,0-.26.2Z"/><path class="cls-67" d="M76,99.29c.1.39-.07,1,.29,1.24a.1.1,0,0,0,.13,0c.44-.31.17-1,0-1.41-.11-.23-.46-.06-.4.17Z"/><path class="cls-67" d="M82.86,129.52a4.39,4.39,0,0,1,.85-.47c.26-.13.58-.3.59-.63a.3.3,0,0,0-.3-.29c-.28,0-.55.29-.76.46a1.75,1.75,0,0,0-.62.75.15.15,0,0,0,.24.18Z"/><path class="cls-67" d="M84.05,130.3a3.31,3.31,0,0,0,1.17-.77.33.33,0,0,0-.37-.48c-.47.17-1.07.64-.95,1.19a.11.11,0,0,0,.15.06Z"/><path class="cls-67" d="M88.48,127.7l.91-.08c.37,0,.68.16,1,.16a.3.3,0,0,0,.21-.51c-.53-.68-1.66-.18-2.21.2-.09.07-.07.25.06.23Z"/><path class="cls-67" d="M88.81,129a2.18,2.18,0,0,0,1.19.1c.4,0,.9.19,1.25,0a.27.27,0,0,0,.08-.35c-.32-.75-2.08-.36-2.55.08a.14.14,0,0,0,0,.22Z"/><path class="cls-68" d="M69.64,105.37a5,5,0,0,0,1,.4.3.3,0,0,0,.16-.57,4.89,4.89,0,0,1-.82-.34c-.34-.17-.65.34-.3.51Z"/><path class="cls-68" d="M72.17,106.37c.32.08.65.16,1,.22s.54-.5.16-.57l-1-.23c-.37-.09-.53.49-.16.58Z"/><path class="cls-68" d="M74.72,107.23a5,5,0,0,0,1.19.55c.36.15.51-.43.16-.57a4.8,4.8,0,0,1-1-.49c-.32-.22-.62.29-.3.51Z"/><path class="cls-68" d="M77,108.38a4,4,0,0,0,1.18.6c.36.14.51-.44.16-.58a3,3,0,0,1-.91-.44c-.29-.26-.71.16-.43.42Z"/><path class="cls-68" d="M79.64,109.76c.27.17.55.31.82.45s.65-.34.31-.51-.56-.28-.83-.45-.62.31-.3.51Z"/><path class="cls-68" d="M81.81,111.18a2.07,2.07,0,0,1,.49.49c.22.31.74,0,.51-.3a2.59,2.59,0,0,0-.7-.7c-.31-.23-.61.29-.3.51Z"/><path class="cls-68" d="M83.09,112.62a2.59,2.59,0,0,1,.67.91c.13.36.71.21.58-.15a3.06,3.06,0,0,0-.83-1.18.3.3,0,0,0-.42.42Z"/><path class="cls-68" d="M84.09,115.24a1.9,1.9,0,0,1,.11.82.3.3,0,0,0,.6,0,2.7,2.7,0,0,0-.19-1.12c-.16-.35-.68,0-.52.3Z"/><path class="cls-68" d="M84.27,117.62a4.39,4.39,0,0,1-.06.89c-.07.38.51.54.58.16a6.11,6.11,0,0,0,.08-1,.3.3,0,0,0-.6,0Z"/><path class="cls-68" d="M84.13,120.23a1.46,1.46,0,0,1-.19.74c-.2.33.32.63.52.3a2.09,2.09,0,0,0,.26-1,.3.3,0,0,0-.59,0Z"/><path class="cls-68" d="M83,123.13a3.24,3.24,0,0,1-.27.67.3.3,0,0,0,.51.3,3.36,3.36,0,0,0,.33-.81c.12-.37-.46-.52-.57-.16Z"/><path class="cls-68" d="M81.93,125.37a1.7,1.7,0,0,0-.18.44c-.15.36.43.51.57.16a1.57,1.57,0,0,1,.12-.3c.22-.32-.3-.61-.51-.3Z"/><path class="cls-68" d="M78.3,104.22a3,3,0,0,1,.67.06c.37.09.53-.49.16-.57a4.68,4.68,0,0,0-.83-.09.3.3,0,0,0,0,.6Z"/><path class="cls-68" d="M80.76,104.59a3.8,3.8,0,0,1,.82.14.3.3,0,0,0,.16-.57,4.56,4.56,0,0,0-1-.16.3.3,0,0,0,0,.59Z"/><path class="cls-68" d="M83.15,105.1a1.86,1.86,0,0,1,.76.37c.29.26.71-.16.43-.42a2.45,2.45,0,0,0-1-.52.3.3,0,0,0-.16.57Z"/><path class="cls-68" d="M85.24,105.92l.9.23c.37.09.53-.49.16-.58l-.9-.22c-.37-.1-.53.48-.16.57Z"/><path class="cls-68" d="M87.85,107.26a1.45,1.45,0,0,1,.62.37c.28.27.7-.15.42-.42a2,2,0,0,0-.88-.52.3.3,0,0,0-.16.57Z"/><path class="cls-68" d="M89.77,108.62a4.35,4.35,0,0,0,.57.65.3.3,0,0,0,.42-.42,4.12,4.12,0,0,1-.48-.54c-.22-.31-.73,0-.51.31Z"/><path class="cls-68" d="M90.62,110.48v.89a.3.3,0,0,0,.6,0v-.89a.3.3,0,0,0-.6,0Z"/><path class="cls-68" d="M90.55,113.08v.9a.3.3,0,0,0,.59,0v-.9a.3.3,0,0,0-.59,0Z"/><path class="cls-68" d="M90.17,116.06v.82a.3.3,0,0,0,.6,0v-.82a.3.3,0,0,0-.6,0Z"/><path class="cls-68" d="M89.65,118.89a3.7,3.7,0,0,1-.06.74c-.09.37.49.53.57.16a3.87,3.87,0,0,0,.09-.9.3.3,0,0,0-.6,0Z"/><path class="cls-68" d="M89.28,121.12a2,2,0,0,1-.07.6.3.3,0,0,0,.58.15,2.66,2.66,0,0,0,.08-.75.3.3,0,0,0-.59,0Z"/><path class="cls-68" d="M88.87,122.91a1.22,1.22,0,0,0-.12.6.3.3,0,0,0,.6,0,.51.51,0,0,1,0-.3c.21-.32-.31-.62-.52-.3Z"/><path class="cls-69" d="M59.5,68.79c.78,3.41,6.45,2.19,7-.81a.09.09,0,0,0-.17-.07c-1.35,1.79-5.71,4.32-6.74.85,0-.07-.12,0-.11,0Z"/><path class="cls-69" d="M67.68,67.27a6,6,0,0,0,4.92-.65,3.34,3.34,0,0,0,1.31-3.93.1.1,0,0,0-.19,0,20,20,0,0,1-.29,2,3.19,3.19,0,0,1-1.5,1.73,7.25,7.25,0,0,1-4.23.67c-.07,0-.09.1,0,.12Z"/><path class="cls-69" d="M67.42,66c1,.5,3,.39,3.46-.87,0-.11-.1-.19-.18-.14a7.26,7.26,0,0,1-1.32.85,2.7,2.7,0,0,1-1.88,0c-.11,0-.18.14-.08.19Z"/><path class="cls-69" d="M60.1,62.54a5,5,0,0,1,1.19-2.45,2.15,2.15,0,0,1,1.28-.68c.43,0,.76.28,1.17.25a.12.12,0,0,0,.12-.15c-.2-1.22-2-.61-2.58-.12a3.69,3.69,0,0,0-1.37,3.15.1.1,0,0,0,.19,0Z"/><path class="cls-69" d="M66,58.5c.17-1.34,1.88-1.35,2.85-1a.08.08,0,0,0,.09-.12c-.73-1.14-3.54-.37-3.16,1.12,0,.13.2.08.22,0Z"/><path class="cls-69" d="M64.07,62.85a1.63,1.63,0,0,1,1-1c.44-.16.87,0,1.28-.12a.13.13,0,0,0,.09-.15c-.25-.58-1.1-.41-1.56-.19a1.75,1.75,0,0,0-1.06,1.42c0,.13.19.14.22,0Z"/><path class="cls-69" d="M68.64,60.91c.15-.66.85-.7,1.4-.54a1.25,1.25,0,0,1,.67.48c.14.21.14.45.32.65a.14.14,0,0,0,.2,0c.75-.67-.55-1.57-1.13-1.7a1.3,1.3,0,0,0-1.71,1.08c0,.14.22.17.25,0Z"/><path class="cls-70" d="M57.17,67.92a1.25,1.25,0,0,0-1.12,1.24,1.3,1.3,0,0,0,1,1.51c.1,0,.13-.12.08-.19-.54-.59-.87-2,.1-2.34.11,0,.1-.24,0-.22Z"/><path class="cls-70" d="M58.33,70.05c-.53.84.49,1.66,1.3,1.57a.09.09,0,0,0,0-.17c-.53-.34-1.29-.52-1.12-1.3a.13.13,0,0,0-.23-.1Z"/><path class="cls-70" d="M58.47,73a1.28,1.28,0,0,0,.24,1.88,1.85,1.85,0,0,0,1.06.33c.32,0,.84-.1.93-.46a.18.18,0,0,0-.13-.21c-.23-.07-.46.07-.68.12a1.23,1.23,0,0,1-.78-.11,1,1,0,0,1-.41-1.42.13.13,0,0,0-.23-.13Z"/><path class="cls-70" d="M60.63,72.35a1.83,1.83,0,0,0,1.24.34A1.22,1.22,0,0,0,62.94,72a.18.18,0,0,0-.17-.23,4.81,4.81,0,0,0-.85.36,1.77,1.77,0,0,1-1.22,0c-.1,0-.15.11-.07.16Z"/><path class="cls-70" d="M74.54,64.38a3.52,3.52,0,0,0,0,.86.16.16,0,0,0,.19.11c.53-.11.51-.83.21-1.15a.26.26,0,0,0-.43.18Z"/><path class="cls-70" d="M75,65.92c.06.21-.09.41-.11.62s.09.14.17.13a.54.54,0,0,0,.24-.93c-.12-.13-.34,0-.3.18Z"/><path class="cls-70" d="M59.27,64.83a1.32,1.32,0,0,0,0,.68,1.21,1.21,0,0,0,.39.51,1.24,1.24,0,0,0,1.41.13.19.19,0,0,0,0-.29c-.3-.2-.71-.11-1-.29a2.06,2.06,0,0,1-.65-.78c0-.06-.11,0-.12,0Z"/><path class="cls-70" d="M62.49,78c0,1,2,1.06,2.31.27a.17.17,0,0,0-.12-.22c-.32-.07-.66.13-1,.16S63,78,62.65,77.88a.14.14,0,0,0-.16.13Z"/><path class="cls-71" d="M58.49,82.21c-2.34,1.62-3.74,3.19-3.75,6.14A19.58,19.58,0,0,0,55.57,93a39.59,39.59,0,0,0,1.51,5.37s0,0,0,0c-.5-2.68-.66-5.4-1.19-8.07a10.14,10.14,0,0,1-.08-4.68c.38-1.42,1.77-2.27,2.7-3.3,0,0,0-.1,0-.07Z"/><path class="cls-72" d="M64,111.59c2,.85,3.64,2,5.84,2.33,2.53.33,4.81-1,7.15-1.72,0,0,0,0,0,0a38.07,38.07,0,0,1-6.64,1c-2.2,0-4.24-1.14-6.35-1.62Z"/><path class="cls-73" d="M137.12,63.13a35.88,35.88,0,0,1,1.95,6.05c.68,2.29,1.25,4.61,1.73,7a142.82,142.82,0,0,1,1.88,16.25,162.42,162.42,0,0,1,.23,19.61,155.4,155.4,0,0,1-1.38,19.16c-.07.42.57.6.64.18a156.91,156.91,0,0,0,1.38-18.76,179,179,0,0,0-.22-20.19c-.44-5.34-.72-10.76-2-16-.59-2.45-1.27-4.88-2-7.3-.61-2-1.48-4-2.18-6,0,0-.07,0,0,0Z"/><path class="cls-73" d="M127.19,65.35c1,4.42.34,9.41-.65,13.79-.83,3.72-1.76,7.44-2.71,11.14s-2,7.68-3.1,11.48c-.56,1.92-1.27,3.79-2,5.65s-1.4,3.43-2.13,5.14a34.87,34.87,0,0,1-1.8,4.1s0,0,0,0c1.81-2.36,2.84-5.33,4-8.07.87-2.13,1.71-4.27,2.38-6.47,1.17-3.86,2.15-7.79,3.12-11.72,2-8.06,4.81-16.69,2.94-25.06a0,0,0,0,0,0,0Z"/><path class="cls-73" d="M143.25,61.06a14.17,14.17,0,0,1,1.87.63c.47.18,1.2.73,1.72.54a.24.24,0,0,0,.17-.3c-.14-.56-1-.74-1.48-.88a7.09,7.09,0,0,0-2.24-.31.16.16,0,0,0,0,.32Z"/><path class="cls-73" d="M143.72,60.39a.54.54,0,0,0-.63.17.7.7,0,0,0-.12.79.25.25,0,0,0,.4,0,1,1,0,0,0,.18-.44,1.39,1.39,0,0,1,.22-.37.12.12,0,0,0-.05-.2Z"/><path class="cls-73" d="M145.92,61.2a1.63,1.63,0,0,0,.06.85.11.11,0,0,0,.19,0,1.53,1.53,0,0,0,.06-.85.16.16,0,0,0-.31,0Z"/><path class="cls-74" d="M137.39,136.12c.13-.39-.36-.76-.62-1a2.56,2.56,0,0,0-.58-.33.61.61,0,0,0-.64,0,.15.15,0,0,0-.05.19.6.6,0,0,0,.34.34,4.3,4.3,0,0,1,.52.28c.29.17.52.53.86.58.08,0,.14-.07.17-.13Z"/><path class="cls-74" d="M138.34,135.15c.16-.31-.07-.7-.27-.94a1.82,1.82,0,0,0-1-.63.34.34,0,0,0-.26.63c.23.15.48.25.71.43s.35.46.6.57a.15.15,0,0,0,.2-.06Z"/><path class="cls-74" d="M139.46,133.88a1.42,1.42,0,0,0-1.55-1.21.35.35,0,0,0-.15.59,4,4,0,0,0,.7.4,5.81,5.81,0,0,1,.57.4c.15.12.45.07.43-.18Z"/><path class="cls-74" d="M104.67,129.57a2.27,2.27,0,0,0-.7-1.88.33.33,0,0,0-.52.4c.13.25.29.48.42.72a6.82,6.82,0,0,0,.41.81.22.22,0,0,0,.39-.05Z"/><path class="cls-74" d="M106.12,129c.61-.56.19-1.6-.39-2-.34-.24-.72.21-.54.54a5.4,5.4,0,0,1,.4.65,4.36,4.36,0,0,1,.14.72.24.24,0,0,0,.39.1Z"/><path class="cls-74" d="M107.91,127.87a1.45,1.45,0,0,0-.1-1.25c-.2-.36-.62-.74-1-.52a.14.14,0,0,0-.08.14c0,.34.27.5.46.76a5.92,5.92,0,0,1,.45.91c.07.15.26.08.31,0Z"/><circle class="cls-75" cx="112.35" cy="42.63" r="0.45"/><circle class="cls-75" cx="114.74" cy="46.21" r="0.45"/><circle class="cls-75" cx="117.95" cy="49.41" r="0.45"/><circle class="cls-75" cx="122.21" cy="52.13" r="0.45"/><circle class="cls-75" cx="126.95" cy="55.07" r="0.45"/><circle class="cls-75" cx="131.73" cy="59.58" r="0.45"/><path class="cls-76" d="M96.06,21.23a.63.63,0,0,0,.68-.05c.27-.16.09-.61-.21-.51A.77.77,0,0,0,96,21a.17.17,0,0,0,.06.23Z"/><path class="cls-76" d="M97.81,20.48c.26-.06.6-.08.57-.43a.1.1,0,0,0-.07-.1c-.31-.05-.42.17-.58.38a.09.09,0,0,0,.08.15Z"/><path class="cls-76" d="M99.18,19.6a.72.72,0,0,0,.95-.52A.11.11,0,0,0,100,19a1.29,1.29,0,0,0-.88.47.12.12,0,0,0,0,.18Z"/><path class="cls-76" d="M100.93,18.81a.66.66,0,0,0,.64-.65.09.09,0,0,0-.1-.09.66.66,0,0,0-.65.64.11.11,0,0,0,.11.1Z"/><path class="cls-76" d="M102.33,17.81c.24-.13.49-.28.46-.59a.13.13,0,0,0-.12-.13c-.36,0-.47.33-.51.62,0,.09.1.13.17.1Z"/><path class="cls-76" d="M103.61,16.76a.71.71,0,0,0,.63-.42c.1-.22-.14-.55-.38-.37a1,1,0,0,0-.43.55.19.19,0,0,0,.18.24Z"/><path class="cls-76" d="M105.2,15.23c.23-.14.66-.32.52-.68a.13.13,0,0,0-.11-.09c-.32,0-.44.31-.62.5a.17.17,0,0,0,.21.27Z"/><path class="cls-76" d="M96.71,23.14c.29,0,.69.05.74-.31a.11.11,0,0,0-.06-.09c-.23-.17-.51,0-.71.18s-.08.2,0,.22Z"/><path class="cls-76" d="M98.82,22.21a1.29,1.29,0,0,0,.41-.16c.13-.08.14-.16.22-.28a.07.07,0,0,0-.07-.11.6.6,0,0,0-.35.05,1.3,1.3,0,0,0-.34.28.13.13,0,0,0,.13.22Z"/><path class="cls-76" d="M100.81,21.24a1.29,1.29,0,0,0,.66-.3.26.26,0,0,0-.31-.41,1.28,1.28,0,0,0-.48.55.11.11,0,0,0,.13.16Z"/><path class="cls-76" d="M102.4,20.31a1.3,1.3,0,0,0,.72-.36.19.19,0,0,0,0-.2.16.16,0,0,0,0-.09.19.19,0,0,0-.2-.05,1.35,1.35,0,0,0-.63.5.12.12,0,0,0,.11.2Z"/><path class="cls-76" d="M104.16,19.12a.54.54,0,0,0,.59-.48.21.21,0,0,0-.26-.2.67.67,0,0,0-.49.47.18.18,0,0,0,.16.21Z"/><path class="cls-76" d="M105.21,18.07a.61.61,0,0,0,.66-.69s-.07-.09-.11-.08a.74.74,0,0,0-.66.63.11.11,0,0,0,.11.14Z"/><path class="cls-76" d="M106.58,16.66c.22-.12.46-.37.36-.63a.15.15,0,0,0-.14-.11c-.3,0-.42.34-.46.6a.16.16,0,0,0,.24.14Z"/><path class="cls-77" d="M89.67,19.73c2.16-1,4-.07,4.83,2.05s.41,4.23,0,6.35c0,.08.07.11.12.05a7,7,0,0,0,0-8.19,3.18,3.18,0,0,0-5-.32s0,.08,0,.06Z"/><path class="cls-77" d="M93.55,29.13a1,1,0,0,0-.45.34c-.18.17-.45.23-.56.46a.34.34,0,0,0,.29.5c.3,0,.59-.25.78-.45a.58.58,0,0,0,.15-.79.21.21,0,0,0-.21-.06Z"/><path class="cls-77" d="M91.7,30a1.82,1.82,0,0,0-.57,0c-.4.06-.25.62.09.65a.8.8,0,0,0,.54-.14c.18-.11.18-.44-.06-.48Z"/><path class="cls-65" d="M103.35,29.39h.13a.88.88,0,0,0,.29-.07l.5-.2a2.42,2.42,0,0,0,.78-.52.82.82,0,0,0-1-1.28c-.13.08-.24.18-.36.27s.14-.09,0,.05l-.28.22a2.26,2.26,0,0,0-.54.65.6.6,0,0,0,.52.89Z"/><path class="cls-65" d="M98.5,30.72c-.54-.54-1.35-.27-1.93,0a.95.95,0,1,0,1,1.63l.22-.12c-.16.08.09,0,.11,0a1.35,1.35,0,0,0,.76-.56.79.79,0,0,0-.12-1Z"/><path class="cls-66" d="M98.36,27.69A6.2,6.2,0,0,1,99.88,33a.31.31,0,0,0,.22.29,2.61,2.61,0,0,0,2.85-.5.12.12,0,0,0-.11-.2,4.54,4.54,0,0,1-2.58.13l.21.28a7.69,7.69,0,0,0-.65-3.19,4.21,4.21,0,0,0-1.41-2.13s-.08,0,0,.06Z"/><path class="cls-66" d="M102.49,34.52c1.56.84,2.61-.87,2.77-2.22l-.12.21a.46.46,0,0,0,.22-.32c.21-.76-1.13-.47-.71.09a.57.57,0,0,0,.3.25l-.17-.17a1.86,1.86,0,0,1-2.28,2.15s0,0,0,0Z"/><ellipse class="cls-78" cx="96.93" cy="29.23" rx="1.01" ry="1.04"/><ellipse class="cls-78" cx="102.12" cy="27.07" rx="1.01" ry="1.04"/><path class="cls-79" d="M99,25.19c.52-.63,1-1.19,1.85-1.22a6.14,6.14,0,0,1,1,0,1.52,1.52,0,0,0,.67,0,.15.15,0,0,0,.09-.22c-.32-.59-1.42-.61-2-.3s-1.57.9-1.83,1.69a.08.08,0,0,0,.13.08Z"/><path class="cls-79" d="M96.8,25.81a.64.64,0,0,0-.78.59s0,.05.07.05a2.12,2.12,0,0,0,.74-.36.15.15,0,0,0,0-.28Z"/><text class="cls-80" transform="translate(36.47 205.66)">L<tspan class="cls-81" x="6.6" y="0">o</tspan><tspan class="cls-82" x="13.8" y="0">r</tspan><tspan class="cls-83" x="18.45" y="0">em ipsum dolor</tspan></text><text class="cls-84" transform="translate(32.11 227.34)">Lo<tspan class="cls-85" x="7.9" y="0">r</tspan><tspan x="10.73" y="0">em ipsum dolor sit amet, </tspan><tspan x="0" y="11.2">consectetuer adipiscing elit, sed diam </tspan><tspan x="0" y="22.4">nonummy nibh euismod tincidunt ut </tspan><tspan x="0" y="33.6">lao</tspan><tspan class="cls-85" x="9.97" y="33.6">r</tspan><tspan x="12.79" y="33.6">eet dolo</tspan><tspan class="cls-85" x="39.61" y="33.6">r</tspan><tspan x="42.43" y="33.6">e magna aliquam e</tspan><tspan class="cls-85" x="105.46" y="33.6">r</tspan><tspan x="108.28" y="33.6">at </tspan><tspan x="0" y="44.8">volutpat. Ut wisi enim ad minim </tspan><tspan x="0" y="56">veniam, quis </tspan></text></g></g></svg>