<svg xmlns="http://www.w3.org/2000/svg" xmlns:xlink="http://www.w3.org/1999/xlink" viewBox="0 0 182 323.56"><defs><style>.cls-1{fill:#fff;}.cls-2{fill:url(#linear-gradient);}.cls-3{fill:#dcd5cf;}.cls-4{fill:#99b0cd;}.cls-5{fill:#8397b0;}.cls-6{fill:#dc868c;}.cls-7{fill:#e38d4f;}.cls-8{fill:#ab9ccc;}.cls-9{fill:#ffca9f;}.cls-10{fill:#d2721a;}.cls-11{fill:#f9a877;}.cls-12{fill:#fac7c6;}.cls-13{fill:#f5949a;}.cls-14{fill:#6376b9;}.cls-15{fill:#d8767f;}.cls-16{fill:#f8b5b6;}.cls-17{fill:#919bce;}.cls-18{fill:#435c9d;}.cls-19{fill:#fcd6d4;}.cls-20{fill:#6471aa;}.cls-21{fill:#f7a3a6;}.cls-22{fill:#d46171;}.cls-23{fill:#1f2d5a;}.cls-24{fill:#512e09;}.cls-25{fill:#2d3e70;}.cls-26{fill:#58909c;}.cls-27{fill:#3c1e00;}.cls-28{fill:#faaf79;}.cls-29{fill:#633913;}.cls-30{fill:#ee9c61;}.cls-31{fill:#a33248;}.cls-32{fill:#ef4e6c;}.cls-33{fill:#f26f7e;}.cls-34{fill:#4b2a05;}.cls-35{fill:#2e1000;}.cls-36{fill:#49578a;}.cls-37{fill:#6a421f;}.cls-38{fill:#f68c2e;}.cls-39{fill:#f47b2d;}.cls-40{fill:#de6a1e;}.cls-41{fill:#d55725;}.cls-42{fill:#836eba;}.cls-43{fill:#bcc9dd;}.cls-44{fill:#573f85;}.cls-45{fill:#745ca8;}.cls-46{fill:#ccdbf1;}.cls-47{fill:#e1e9f6;}.cls-48{fill:#bdd1ec;}.cls-49{fill:#aec7e8;}.cls-50{fill:#353425;}.cls-51{fill:#272714;}.cls-52{fill:#3d3a2a;}.cls-53{fill:#555042;}.cls-54{fill:#a2bcdd;}.cls-55{fill:#2a0200;}.cls-56{fill:#f9a98d;}.cls-57{fill:#cf8558;}.cls-58{fill:#f79b5e;}.cls-59{fill:#a5acd7;}.cls-60{fill:#272816;}.cls-61{fill:#7a5532;}.cls-62{fill:#fbb98a;}.cls-63{fill:#716b5e;}.cls-64{fill:#4d2902;}.cls-65{font-size:7px;fill:#808d9c;font-family:NotoSans, Noto Sans;}.cls-66{letter-spacing:-0.01em;}.cls-67{font-size:11px;fill:#52b7c5;font-family:Montserrat-Bold, Montserrat;font-weight:700;}.cls-68{letter-spacing:0em;}.cls-69{letter-spacing:0em;}.cls-70{letter-spacing:-0.01em;}.cls-71{letter-spacing:0em;}</style><linearGradient id="linear-gradient" x1="115.57" y1="386.01" x2="83.03" y2="-8.03" gradientUnits="userSpaceOnUse"><stop offset="0" stop-color="#8fccff"/><stop offset="1" stop-color="#fff"/></linearGradient></defs><title>card3</title><g id="Camada_2" data-name="Camada 2"><g id="OBJECTS"><rect class="cls-1" width="182" height="323.56" rx="15"/><path class="cls-2" d="M182,15V137.75c-.3.5-.62,1-1,1.52-.19.29-.39.59-.6.88a36.74,36.74,0,0,1-4.1,4.88l-.62.6c-.25.25-.51.49-.78.73s-.8.71-1.22,1-.76.62-1.16.92l-.2.15-.74.55c-.51.36-1,.72-1.58,1.07-.38.24-.76.48-1.15.71-.79.47-1.61.92-2.47,1.35l-1,.5c-.49.24-1,.46-1.52.68-.34.15-.68.29-1,.42l-.84.32-.86.31c-.3.11-.59.21-.89.3-.9.29-1.82.56-2.77.81l-1,.24c-.66.16-1.34.31-2,.45l-1.05.2-1.52.25c-.57.09-1.16.17-1.75.24l-1.42.16-1.66.14-1.24.08q-1.29.08-2.64.09l-1.37,0c-1.73,0-3.53-.06-5.39-.18-1.41-.09-2.8-.14-4.15-.14-.61,0-1.22,0-1.82,0l-1.57.07h0c-.54,0-1.08.07-1.61.12l-.59,0c-.47,0-.94.09-1.4.15q-1.1.14-2.16.3l-.67.12c-.83.14-1.64.3-2.44.48h0l-1.26.3-.54.14c-.34.08-.68.17-1,.27l-.07,0-.09,0h0l-.61.17-.93.28-1.31.43q-.42.13-.84.3h0c-.5.18-1,.36-1.47.55s-1.2.48-1.79.73a1.45,1.45,0,0,1-.22.09h0l-1.53.68-1.71.83-.57.28-.28.15c-1.9,1-3.75,2.05-5.55,3.17l-1,.59-.57.37-.21.14c-.72.47-1.43.95-2.13,1.43s-1.15.79-1.71,1.19l-.59.42c-2.57,1.83-5.07,3.74-7.56,5.63L85,177.68l-.73.55q-1.1.84-2.19,1.65l-1.68,1.24-1.29.94h0l-1.43,1-.42.29-.86.59-1.17.79c-.68.45-1.36.89-2,1.32h0c-.78.49-1.57,1-2.36,1.42-.29.18-.6.35-.9.52l-1.5.81-1.27.65-1.1.53c-1,.47-2,.9-3,1.3l-.87.33-.75.28-.38.14-.38.13c-.51.18-1,.35-1.53.5l-1.39.41-1,.27-.69.16-.86.19c-.76.17-1.54.31-2.32.43l-.86.13c-.38.06-.76.11-1.15.14a.3.3,0,0,1-.13,0l-1.23.11-.21,0c-.31,0-.61.05-.92.06s-.77.05-1.16.06l-.76,0H46.3c-.45,0-.92,0-1.38,0h-.07l-1,0c-.49,0-1,0-1.49-.07-.71-.05-1.4-.1-2.09-.18s-1.36-.15-2-.25-1.32-.2-2-.32-1.28-.25-1.9-.39-1-.24-1.56-.38l-1.66-.47-1-.31c-.47-.15-.93-.3-1.38-.47-1-.36-2-.75-2.92-1.18l-.67-.31c-.83-.37-1.63-.78-2.41-1.21-.22-.11-.43-.23-.64-.36-.91-.5-1.79-1-2.64-1.6-.38-.25-.76-.51-1.12-.77s-.85-.61-1.26-.93-.6-.45-.89-.69-.46-.36-.68-.55c-.73-.6-1.43-1.22-2.11-1.86-.45-.42-.89-.85-1.32-1.28-.22-.22-.43-.43-.63-.65l-.62-.66c-.41-.45-.81-.89-1.19-1.34s-.76-.91-1.13-1.36c-.11-.14-.23-.28-.34-.43a55,55,0,0,1-3.56-5.06l-.56-.91c-.89-1.47-1.69-2.93-2.41-4.36-.63-1.25-1.19-2.47-1.7-3.64V15A15,15,0,0,1,15,0H167A15,15,0,0,1,182,15Z"/><path class="cls-3" d="M117.36,134.87a52.63,52.63,0,0,0-9.46.81c-6.08-3.17-18.29-5.34-32.38-5.34-20.14,0-30.29,5.46-30.29,10.92s10.15,8.86,30.29,8.86c11.6,0,21.92-1.47,28.6-3.75a47.75,47.75,0,0,0,13.24,1.69c10.92,0,19.78-2.95,19.78-6.59S128.28,134.87,117.36,134.87Z"/><path class="cls-4" d="M87,104.36l1,.07h.08v-.06c1.29-.81,2.7-1.54,4.12-2.26,0,1,.1,2.91.19,4.19L87,109.55Z"/><path class="cls-5" d="M94.93,101.49a1.52,1.52,0,0,1,.94.37h0c0,.07,0,.13-.07.2l.06,0c-.1.74-.17,1.49-.24,2.26l-3.25,2c-.09-1.28-.19-3.14-.19-4.19h0l1.36-.69,1.45-.76A2.89,2.89,0,0,0,94.93,101.49Z"/><path class="cls-6" d="M122.09,139.68c0,.11-.06.21-.1.32l-.22-.16Z"/><path class="cls-7" d="M69.59,64.55a15.69,15.69,0,0,0,1.58,1.27c-.73.52-1.7,1-2-.06A1.13,1.13,0,0,1,69.59,64.55Z"/><path class="cls-7" d="M80.77,56.34c.06-.24.28-.63.67-.53.93.29.3,1.37-.16,1.82Q81.05,57,80.77,56.34Z"/><path class="cls-8" d="M82.88,66.93c-.08.1-.14.2-.21.3a1.39,1.39,0,0,0,.06-.31Z"/><path class="cls-8" d="M79.3,68.92A4,4,0,0,0,80.42,67a7.23,7.23,0,0,1,2.31-.11,1.39,1.39,0,0,1-.06.31h0c-.43.64-.8,1.3-.6,1.49a1,1,0,0,0,.25.06c-.67,1.19-2.14,1.61-3,.16h0A.06.06,0,0,0,79.3,68.92Z"/><path class="cls-9" d="M87.07,72.72a1.67,1.67,0,0,1,.36,1A4.2,4.2,0,0,1,87,72.68S87.05,72.71,87.07,72.72Z"/><path class="cls-9" d="M82.07,68.73c-.2-.19.17-.85.6-1.49a2.89,2.89,0,0,1-.35,1.55A1,1,0,0,1,82.07,68.73Z"/><path class="cls-9" d="M88.8,69.21a7.2,7.2,0,0,0,2-.17h.25a2.36,2.36,0,0,1,1.19,1.22,6.67,6.67,0,0,0,.45.72s0,0,0,0l.05,0a8.26,8.26,0,0,0,2.71-.32,18.21,18.21,0,0,0,.58,2,3.43,3.43,0,0,1-1.44.49,1.17,1.17,0,0,1-.87-.37,2.87,2.87,0,0,1-.28,1.81.27.27,0,0,0-.1.06,3.77,3.77,0,0,0-.48.26h0a4.86,4.86,0,0,0-1.07.38.78.78,0,0,0-.36.42c-.16-.37-.34-.76-.52-1.16a31.74,31.74,0,0,0-2.7-5.26.2.2,0,0,1,.11,0A3.9,3.9,0,0,1,88.8,69.21Z"/><path class="cls-10" d="M86.08,73.37a1.55,1.55,0,0,1-2.27,1.87,1.65,1.65,0,0,1-1-1.35,2.19,2.19,0,0,0,.31.65C83.84,75.48,85.2,74.35,86.08,73.37Z"/><path class="cls-11" d="M93.77,72.84a1.17,1.17,0,0,0,.87.37,3.43,3.43,0,0,0,1.44-.49c.13.41.27.81.41,1.2a7.43,7.43,0,0,1-2.11.29c-.21.09-.53.25-.89.44A2.87,2.87,0,0,0,93.77,72.84Z"/><path class="cls-9" d="M87,72.51s0,.11.05.17l-.13-.13Z"/><path class="cls-9" d="M87.43,73.88a2.42,2.42,0,0,1-.52-1.33l.13.13a4.2,4.2,0,0,0,.39,1.06h0Z"/><path class="cls-9" d="M87.19,68.07a6.25,6.25,0,0,0-1.2-1c-.21-.12-.45-.26-.69-.37-1,.61-2.11,2.13-3,2.1a2.89,2.89,0,0,0,.35-1.55h0c.07-.1.13-.2.21-.3h-.15c0-.26-.12-.42-.68-.55a3,3,0,0,0-1.48.07,3.2,3.2,0,0,1,2.88-1.33c.9,0,2.6.71,3.58.52a19.13,19.13,0,0,1,1.27,3.52,1.16,1.16,0,0,1,0,.18.2.2,0,0,0-.11,0A10.28,10.28,0,0,0,87.19,68.07Z"/><path class="cls-9" d="M91.81,75.36A4.86,4.86,0,0,1,92.88,75a7.52,7.52,0,0,0-1.36,1,.87.87,0,0,1-.07-.17A.78.78,0,0,1,91.81,75.36Z"/><path class="cls-12" d="M96.08,72.72a18.21,18.21,0,0,1-.58-2c-.08-.36-.15-.73-.21-1.09l.3-.19,1.31-.35,0,.1a3.16,3.16,0,0,0,3,2.57c2.86.2,5.53-2.66,7.2-4.54,4.84-5.43,8.19-11.64,9.07-18.94.18-1.93.44-7.4-1.75-8.91,0-.35,0-.69,0-1a2.53,2.53,0,0,1,1.2-.44,3.17,3.17,0,0,1,3.34,1.57c1.64,2.7,1,8.17.3,11.43v0a37.49,37.49,0,0,1-7.9,16.61c-.1.12-.2.25-.31.36-3.78,4.29-8.39,5.72-14.12,7.12-.13-.35-.26-.7-.4-1.06S96.21,73.13,96.08,72.72Z"/><path class="cls-11" d="M91.52,76a7.52,7.52,0,0,1,1.36-1h0c1.28.15.75,1.12-.18,1.67a2.13,2.13,0,0,1-1.09-.39Z"/><path class="cls-11" d="M86.54,72.82l-.46.55c-.88,1-2.24,2.11-3,1.17a8.28,8.28,0,0,0,2.31-1.73c.44-.37,1-1.15,1.52-1.26a4,4,0,0,0,.06,1l-.08,0A1.26,1.26,0,0,0,86.54,72.82Z"/><path class="cls-9" d="M92.74,76.64A2.92,2.92,0,0,1,92,77c-.1-.23-.2-.47-.31-.71A2.13,2.13,0,0,0,92.74,76.64Z"/><path class="cls-9" d="M87,72.68c0-.06,0-.12-.05-.17a1,1,0,0,1,.21-.07c0,.08-.06.15-.13.28S87.05,72.69,87,72.68Z"/><path class="cls-9" d="M91.52,76l.13.3a.45.45,0,0,1-.2-.47A.87.87,0,0,0,91.52,76Z"/><path class="cls-11" d="M80.57,66.44a3,3,0,0,1,1.48-.07c.56.13.71.29.68.55a7.23,7.23,0,0,0-2.31.11l-.36.09C80.24,66.87,80.41,66.64,80.57,66.44Z"/><path class="cls-9" d="M86.93,71.55c-.56.11-1.08.89-1.52,1.26a8.28,8.28,0,0,1-2.31,1.73,2.19,2.19,0,0,1-.31-.65,8.66,8.66,0,0,0,1.8-1.63l1-1.11a6.92,6.92,0,0,1,1.46-1.31h0a5.48,5.48,0,0,1,1.18-.47,31.74,31.74,0,0,1,2.7,5.26c.18.4.36.79.52,1.16a.45.45,0,0,0,.2.47c.11.24.21.48.31.71a1.72,1.72,0,0,1-.87,0v0a9.93,9.93,0,0,1-3.66-3.09v-.14h0a1.67,1.67,0,0,0-.36-1c.07-.13.13-.2.13-.28a1,1,0,0,0-.21.07A4,4,0,0,1,86.93,71.55Z"/><path class="cls-9" d="M92.91,75h0Z"/><path class="cls-12" d="M129.13,71c.55,2.34,1.21,6.73-.48,9.07,0-1.83-.23-3.64-.35-5.08a16.57,16.57,0,0,0-.78-3.56C128.08,71.28,128.62,71.14,129.13,71Z"/><path class="cls-13" d="M128.1,101.81c.3,2.37.74,4.88,1,7.25-.74.74-1.63,1.48-2.37,2.37.74.15,1.63.15,2.52.29a17.69,17.69,0,0,1-2.37,2.37c3.11.74.3,12.73,0,15.39-.3,1.78,0,5.92-1.18,7.25a3.48,3.48,0,0,1-2.77.91c.19-1.71.23-3.44.36-5.26,1.07-14,.32-27.61-1.34-42.82,2.08.26,3.49.19,4.34,2C127.81,94.56,127.66,98.55,128.1,101.81Z"/><path class="cls-6" d="M127.72,86.1a32.41,32.41,0,0,0,4.89-1.18c.28,5-.42,13.86-.42,17.61,0,5-.73,9.69-.93,14.84a88.7,88.7,0,0,1-4.75,23.48l-.16.48a6.89,6.89,0,0,1-3.87-1l.07-.12c.08-.34.15-.69.21-1s.15-1,.21-1.5a3.48,3.48,0,0,0,2.77-.91c1.18-1.33.88-5.47,1.18-7.25.3-2.66,3.11-14.65,0-15.39a17.69,17.69,0,0,0,2.37-2.37c-.89-.14-1.78-.14-2.52-.29.74-.89,1.63-1.63,2.37-2.37-.3-2.37-.74-4.88-1-7.25-.44-3.26-.29-7.25-1.77-10.21-.85-1.85-2.26-1.78-4.34-2l-.33-3A36.17,36.17,0,0,0,127.72,86.1Z"/><path class="cls-14" d="M127.22,142.62a49.35,49.35,0,0,1-9,2.58,5.47,5.47,0,0,0-2.66-2.25c.56-.32,1.15-.63,1.74-.94s1.24-.62,1.84-.92l.91-.44c1.23,1.77,4.58,2.06,6.93,1.47A4.55,4.55,0,0,1,127.22,142.62Z"/><path class="cls-6" d="M122.36,118.82c0-8.32-1.7-20.6-3.26-29.72.84.15,1.72.29,2.64.43l.25,0c1.66,15.21,2.41,28.86,1.34,42.82-.13,1.82-.17,3.55-.36,5.26a1.67,1.67,0,0,1-.4-.08l0-.16C123.59,131.41,122.36,124.77,122.36,118.82Z"/><path class="cls-6" d="M123,137.64c-.06.5-.12,1-.21,1.5a1.59,1.59,0,0,1-.56.14c.15-.56.27-1.14.37-1.72A1.67,1.67,0,0,0,123,137.64Z"/><path class="cls-15" d="M119.1,89.1c1.56,9.12,3.26,21.4,3.26,29.72,0,6,1.23,12.59.24,18.58l-.14,0c-.51-.29-1-.47-1.53-.71a2.28,2.28,0,0,0,0-.26c.48-7.18-4-37.67-6.42-48.64A17.55,17.55,0,0,0,119.1,89.1Z"/><path class="cls-16" d="M127.72,86.1a36.17,36.17,0,0,1-6.06.5,29.92,29.92,0,0,1-3-.17,19.4,19.4,0,0,1-4.66-1,11.23,11.23,0,0,1-1.68-.78,77.16,77.16,0,0,0-.93-14.29c3.21-2.33,6.37-4.9,7.47-8.76a11,11,0,0,1,.18,2A15.26,15.26,0,0,1,117.55,70a13.52,13.52,0,0,0,5.92-6,26.47,26.47,0,0,1,3.15,5.19,19.56,19.56,0,0,1,.9,2.3,24.65,24.65,0,0,1-7.48.92l-.23-.06c-.86,3,1.82,9.36,5.45,9.36a3.88,3.88,0,0,0,3.39-1.58A14.47,14.47,0,0,1,127.72,86.1Z"/><path class="cls-6" d="M122.09,139.68c0-.14.08-.27.11-.4h0a1.59,1.59,0,0,0,.56-.14c-.06.35-.13.7-.21,1l-.07.12a4.94,4.94,0,0,1-.49-.3C122,139.89,122.06,139.79,122.09,139.68Z"/><path class="cls-17" d="M126.68,141.29c.13.3.25.58.35.83-2.35.59-5.7.3-6.93-1.47l1.67-.81.22.16a4.94,4.94,0,0,0,.49.3,6.89,6.89,0,0,0,3.87,1Z"/><path class="cls-15" d="M122,89.56l-.25,0c-.92-.14-1.8-.28-2.64-.43-.17-.93-.32-1.82-.47-2.67a29.92,29.92,0,0,0,3,.17Z"/><path class="cls-18" d="M121.77,139.84l-1.67.81-.91.44c-1.23-.08-2.53-.1-3.85-.14-.34-.61-.75-1.19-1.08-1.75a47.63,47.63,0,0,0,5-1.9c.64.91,1.83,2,2.92,2,0,.13-.07.26-.11.4Z"/><path class="cls-19" d="M120,72.34a24.65,24.65,0,0,0,7.48-.92A16.57,16.57,0,0,1,128.3,75c.12,1.44.32,3.25.35,5.08a3.88,3.88,0,0,1-3.39,1.58c-3.63,0-6.31-6.4-5.45-9.36Z"/><path class="cls-20" d="M120.72,136.55a1,1,0,0,0,.21.11c.48.24,1,.42,1.53.71l.14,0,0,.16c-.1.58-.22,1.16-.37,1.72h0c-1.09,0-2.28-1.07-2.92-2C119.78,137.06,120.27,136.82,120.72,136.55Z"/><path class="cls-21" d="M119.43,39.12a80,80,0,0,1,5.64,11.53,110.65,110.65,0,0,1,9.3,33.51l0,.09c-.56.23-1.16.46-1.8.67a32.41,32.41,0,0,1-4.89,1.18,14.47,14.47,0,0,0,.93-6c1.69-2.34,1-6.73.48-9.07-.51.15-1,.29-1.61.43a19.56,19.56,0,0,0-.9-2.3,26.47,26.47,0,0,0-3.15-5.19,13.52,13.52,0,0,1-5.92,6A15.26,15.26,0,0,0,119,63.57a11,11,0,0,0-.18-2c-1.1,3.86-4.26,6.43-7.47,8.76-.12-.83-.23-1.65-.35-2.46.11-.11.21-.24.31-.36a37.49,37.49,0,0,0,7.9-16.61v0c.75-3.26,1.34-8.73-.3-11.43Z"/><path class="cls-22" d="M118.63,86.43c.15.85.3,1.74.47,2.67a17.55,17.55,0,0,1-4.57-1.34c-.2-.94-.39-1.74-.56-2.37A19.4,19.4,0,0,0,118.63,86.43Z"/><path class="cls-17" d="M118.27,145.2c-2.76.51-5.21.64-6-.11l.33-.14a20.94,20.94,0,0,1,3-2A5.47,5.47,0,0,1,118.27,145.2Z"/><path class="cls-23" d="M117.35,142c-3-.16-6.18,0-9.13-.43a18.21,18.21,0,0,1,2-.92c1.66.19,3.41.25,5.13.29,1.32,0,2.62.06,3.85.14C118.59,141.39,118,141.69,117.35,142Z"/><path class="cls-24" d="M115.08,25.34a2.06,2.06,0,0,0,3,.5c.2,2.11.67,7.25,3.83,5.34a3.44,3.44,0,0,0,1.16-1.1c-.42,1.5-.68,2.92-2.15,4.15,1.09.3,2-1.08,2.66-1.78a9.14,9.14,0,0,1-1.26,4.68,5.26,5.26,0,0,1-3.18-1.32c-1.23-1.23-1.57-3-2.07-4.63a24.78,24.78,0,0,0-2.3-5.63Z"/><path class="cls-20" d="M114.26,139.2c.33.56.74,1.14,1.08,1.75-1.72,0-3.47-.1-5.13-.29C111.49,140.13,112.87,139.67,114.26,139.2Z"/><path class="cls-19" d="M111.38,55.78A32.82,32.82,0,0,0,114,46.63a43.31,43.31,0,0,0,.42-7.3c2.19,1.51,1.93,7,1.75,8.91-.88,7.3-4.23,13.51-9.07,18.94-1.67,1.88-4.34,4.74-7.2,4.54a3.16,3.16,0,0,1-3-2.57l0-.1c2.09-.6,4.5-1.51,5.89-2.91L103,66a24.93,24.93,0,0,0,5.91-5.86A26.86,26.86,0,0,0,111.38,55.78Z"/><path class="cls-19" d="M114.41,39.33a2,2,0,0,0-.67-.31,2.34,2.34,0,0,1,.64-.72C114.39,38.64,114.41,39,114.41,39.33Z"/><path class="cls-19" d="M114,46.63c-.45-1.83-1.37-5.67-.25-7.61a2,2,0,0,1,.67.31A43.31,43.31,0,0,1,114,46.63Z"/><path class="cls-16" d="M113.28,38.81c.77-1.37,1.78-3.5,1.32-5.09a26.75,26.75,0,0,1,4.27,4.53l.4.62a2.13,2.13,0,0,1,.16.25l-.51.31a3.17,3.17,0,0,0-3.34-1.57,2.53,2.53,0,0,0-1.2.44,2.34,2.34,0,0,0-.64.72L113.5,39Z"/><path class="cls-25" d="M127.22,142.62c.39,1.25-.12,1.87-4.18,2.57-3.78.72-9.59,2.17-13.08,1.21.79-.44,1.33-.87,2.29-1.31.81.75,3.26.62,6,.11A49.35,49.35,0,0,0,127.22,142.62Z"/><path class="cls-26" d="M113.22,32.57l-.16.18c0-.1,0-.2,0-.3Z"/><path class="cls-16" d="M112.67,33.19l.39-.44a8.72,8.72,0,0,1-.07,1Z"/><path class="cls-27" d="M111.36,21.65c.62.54,1.19,1.14,1.75,1.73a11.67,11.67,0,0,1,1.64,2.17,24.78,24.78,0,0,1,2.3,5.63c.5,1.62.84,3.4,2.07,4.63a5.26,5.26,0,0,0,3.18,1.32,3.25,3.25,0,0,1-2.88,1.64l-.15.1-.4-.62a26.75,26.75,0,0,0-4.27-4.53c-.47-.4-.93-.79-1.38-1.15a13.88,13.88,0,0,0,1.54-2.12c1.24-2.49-.37-6.42-2.7-7.18,0,0,0-.05,0-.08a2.3,2.3,0,0,0-.7-1.52Z"/><path class="cls-26" d="M112,32.09l.14-.18.08-.11.85.65c0,.1,0,.2,0,.3l-.39.44Z"/><path class="cls-26" d="M112.22,31.8c1.46-1.93,2.18-5.48.3-6.87a2.54,2.54,0,0,0-.61-.34,3.22,3.22,0,0,0,.15-1.32c2.33.76,3.94,4.69,2.7,7.18a13.88,13.88,0,0,1-1.54,2.12l-.15-.12Z"/><path class="cls-26" d="M110.69,33.69c.46-.53.9-1.06,1.31-1.6l.67,1.1c-.55.6-1.13,1.19-1.73,1.81A8.41,8.41,0,0,0,110.69,33.69Z"/><path class="cls-16" d="M112,32.09l-.49-.81c.23.16.47.33.71.52l-.08.11Z"/><path class="cls-26" d="M111.37,24.43a1.94,1.94,0,0,0,.08-1.29,2.66,2.66,0,0,1,.61.13,3.22,3.22,0,0,1-.15,1.32A3.08,3.08,0,0,0,111.37,24.43Z"/><path class="cls-26" d="M111,23.15a3,3,0,0,1,.42,0,1.94,1.94,0,0,1-.08,1.29l-.48-.07A1.89,1.89,0,0,1,111,23.15Z"/><path class="cls-28" d="M110.94,35a8.49,8.49,0,0,1-.33,3.51,18,18,0,0,1-1.21,2.94c-.31-1.29-.66-2.59-.93-3.88C109.25,36.7,110.1,35.84,110.94,35Z"/><path class="cls-7" d="M111.45,23.14a3,3,0,0,0-.42,0,1.89,1.89,0,0,0-.14,1.21l.48.07c-.2.5-.57.89-1.07.8a.54.54,0,0,1-.45-.35c.13-.54.2-2.54,1.21-2.16A.63.63,0,0,1,111.45,23.14Z"/><path class="cls-29" d="M110.35,18.6a16,16,0,0,0-.84-2.5l0,0a2.52,2.52,0,0,0,2.07-.2,8.55,8.55,0,0,0,1.76-1.27c.67,1.08,1.29,2.19,2,3.25A21.51,21.51,0,0,1,118,25.65c0,.06,0,.12,0,.19a2.06,2.06,0,0,1-3-.5l-.33.21a11.67,11.67,0,0,0-1.64-2.17c-.56-.59-1.13-1.19-1.75-1.73a9.89,9.89,0,0,0-1.31-1c-.64-.45-1.82-1.08-1.88-2,0-.17.06-.35.06-.53A6.31,6.31,0,0,1,110.35,18.6Z"/><path class="cls-30" d="M110.61,38.51a8.49,8.49,0,0,0,.33-3.51c.6-.62,1.18-1.21,1.73-1.81l.32.57c-.39,3.15-2.08,6.72-3.22,9.33-.11-.55-.24-1.09-.37-1.64A18,18,0,0,0,110.61,38.51Z"/><path class="cls-27" d="M111.91,24.59a2.54,2.54,0,0,1,.61.34c1.88,1.39,1.16,4.94-.3,6.87-.24-.19-.48-.36-.71-.52a28.62,28.62,0,0,1-2.24-4.1c.07-.16.13-.32.19-.48C110.38,27.19,111.51,25.94,111.91,24.59Z"/><path class="cls-11" d="M109.46,26.7c-.06.16-.12.32-.19.48a2.91,2.91,0,0,1-.21-.85A1.25,1.25,0,0,0,109.46,26.7Z"/><path class="cls-16" d="M111.38,55.78a26.86,26.86,0,0,1-2.48,4.31c-.35-1.08-.8-2.21-1.21-3.35-.21-.6-.41-1.19-.56-1.79A4.47,4.47,0,0,0,111.38,55.78Z"/><path class="cls-28" d="M108.35,34.86c-.49-.78-1-1.75-1.65-2.58.76-.35,1.44-1,2.28-1,1,0,1.18.77,1.44,1.56a8,8,0,0,1,.27.87c-.59.67-1.2,1.33-1.82,2C108.71,35.44,108.53,35.17,108.35,34.86Z"/><path class="cls-12" d="M113,39.26c-1.18,2.17-2.07,4.44-3.06,6.71a25.56,25.56,0,0,1-2.7-7c.37-.48.79-1,1.22-1.44.27,1.29.62,2.59.93,3.88.13.55.26,1.09.37,1.64,1.14-2.61,2.83-6.18,3.22-9.33a8.72,8.72,0,0,0,.07-1l.16-.18c.45.36.91.75,1.38,1.15.46,1.59-.55,3.72-1.32,5.09Z"/><path class="cls-12" d="M108.35,34.86c.18.31.36.58.52.81-.6.61-1.19,1.21-1.79,1.8,0-.13,0-.26,0-.38A19.35,19.35,0,0,0,108.35,34.86Z"/><path class="cls-27" d="M110.05,20.62a9.89,9.89,0,0,1,1.31,1l0,0c-.8-.63-2,.23-2.43,1.25-1.93.16-2.46-2.36-3.84-3.09,1.07-.25,2.05-.82,3.1-1a.74.74,0,0,1,0-.21C108.23,19.54,109.41,20.17,110.05,20.62Z"/><path class="cls-31" d="M107.35,113.74a6.25,6.25,0,0,0,.31-1.49,9.46,9.46,0,0,1-.08,1.68Z"/><path class="cls-9" d="M105.91,103.51a8,8,0,0,1,2-1,29.57,29.57,0,0,1-.77,5.11h0a11.07,11.07,0,0,1,.31,1.12,8.24,8.24,0,0,1-.3,1.6,2,2,0,0,1-1.67.1c-.67-.59-.59-2.73-.67-3.55C104.72,105.43,104.5,104.33,105.91,103.51Z"/><path class="cls-32" d="M107.43,108.76a13.18,13.18,0,0,1,.21,1.35,3,3,0,0,1-.51.25A8.24,8.24,0,0,0,107.43,108.76Z"/><path class="cls-26" d="M107.25,39a11.51,11.51,0,0,1-.17-1.54c.6-.59,1.19-1.19,1.79-1.8s1.23-1.31,1.82-2a8.41,8.41,0,0,1,.25,1.31c-.84.84-1.69,1.7-2.47,2.57C108,38.05,107.62,38.53,107.25,39Z"/><path class="cls-21" d="M110,46c1-2.27,1.88-4.54,3.06-6.71l.27-.45.22.16.24.05c-1.12,1.94-.2,5.78.25,7.61a32.82,32.82,0,0,1-2.61,9.15,4.47,4.47,0,0,1-4.25-.83,10.57,10.57,0,0,1-.36-2.12c-.15-2.77,1-5.67.87-8.57h0c-.09-.79-.22-1.57-.34-2.36,0-.25-.08-.51-.11-.77s0-.41-.07-.61c0-.42-.07-.84-.07-1.26l.19-.25A25.56,25.56,0,0,0,110,46Z"/><path class="cls-29" d="M101,9.62c.88,0,1.75-.25,2.63-.25a4.89,4.89,0,0,1,3.31,1.73,18,18,0,0,1,1.87,3.4c-.3,1.19-1.78,2.07-2.67,1.29-.79,3-4.63,2-4.93-.7-.49,2.27-3.25,3.85-4.44,1.38-.08,1.81-2.5.88-3.18-.34l.09-.29h0c0-1.48,1.19-3.4,2.08-4.44a5.2,5.2,0,0,1,5.26-2Z"/><path class="cls-33" d="M107.35,113.74a2.54,2.54,0,0,1-1.89,1.84c-1.08-.23-1.56-1.24-1.75-2.57A3.9,3.9,0,0,1,107.35,113.74Z"/><path class="cls-16" d="M106.69,37.68l.38-.59c0,.12,0,.25,0,.38l-.17.18-.12.11Z"/><path class="cls-30" d="M112,32.09c-.41.54-.85,1.07-1.31,1.6a8,8,0,0,0-.27-.87c-.26-.79-.44-1.56-1.44-1.56-.84,0-1.52.67-2.28,1l-.27-.36a9,9,0,0,0,1.52-2,20.54,20.54,0,0,0,1.32-2.74,28.62,28.62,0,0,0,2.24,4.1Z"/><path class="cls-15" d="M105.93,48.15a23.29,23.29,0,0,0,1.38-6.25c.12.79.25,1.57.34,2.36h0c.14,2.9-1,5.8-.87,8.57a10.57,10.57,0,0,0,.36,2.12c.15.6.35,1.19.56,1.79a23.56,23.56,0,0,1-5.44,6,19,19,0,0,0,2.37-6.65,8.85,8.85,0,0,0,1.19-4.36C105.81,50.44,105.85,49.31,105.93,48.15Z"/><path class="cls-34" d="M106.69,37.68l-.43.65a7.32,7.32,0,0,0-.92,1.24h0c-3-2.5-6.68-5.5-8.48-9.27l.2-.1c.74,1.25,1.71.39,2.64.15a7.69,7.69,0,0,0,3.1,2.5,12.08,12.08,0,0,0,2,2.78A15.62,15.62,0,0,0,106.69,37.68Z"/><path class="cls-16" d="M106.79,37.76l-.53.57.43-.65Z"/><path class="cls-35" d="M108.35,34.86a19.35,19.35,0,0,1-1.28,2.23l-.38.59a15.62,15.62,0,0,1-1.92-2.06,12.08,12.08,0,0,1-2-2.78,3.33,3.33,0,0,0,3.66-.92l.27.36C107.3,33.11,107.86,34.08,108.35,34.86Z"/><path class="cls-21" d="M105,50.31c.32-.68.61-1.41.89-2.16-.08,1.16-.12,2.29-.12,3.54a8.85,8.85,0,0,1-1.19,4.36A32.63,32.63,0,0,0,105,50.31Z"/><path class="cls-26" d="M107.08,37.47a11.51,11.51,0,0,0,.17,1.54l-.19.25q-.37.5-.69,1a.83.83,0,0,0-.07.13,7.22,7.22,0,0,0-.75,1.57c-.37,0-.71,0-1.06.09a8.18,8.18,0,0,1,.85-2.47,7.32,7.32,0,0,1,.92-1.24l.53-.57.12-.11Z"/><path class="cls-36" d="M105,50.31a32.63,32.63,0,0,1-.42,5.74,14,14,0,0,1-2,2.69,24,24,0,0,0,1.15-6.17A19.63,19.63,0,0,0,105,50.31Z"/><path class="cls-36" d="M104.34,44.74a2.25,2.25,0,0,0,.58,0c0,1.64.1,3.54.12,5.57a19.63,19.63,0,0,1-1.22,2.26c.2-2.89,0-5.62,0-7.91Z"/><path class="cls-9" d="M104.76,19.7a1.44,1.44,0,0,1,.31.13,3.41,3.41,0,0,1-.54.1l-.22,0A4.83,4.83,0,0,0,104.76,19.7Z"/><path class="cls-11" d="M107.89,102.52a8,8,0,0,0-2,1c-1.41.82-1.19,1.92-1.12,3.4.08.82,0,3,.67,3.55a2,2,0,0,0,1.67-.1c-.26.88-.73,1.55-1.6,1.52-1.56-.06-1.43-1.41-1.39-2.58-.07-.49-.19-1.09-.32-1.71a31.09,31.09,0,0,1-.7-4.5h.76c0-.47,0-.94-.07-1.4a8.52,8.52,0,0,0,4.15-.29C107.94,101.77,107.91,102.15,107.89,102.52Z"/><path class="cls-37" d="M108.17,18.63a.74.74,0,0,0,0,.21c-1,.17-2,.74-3.1,1a1.44,1.44,0,0,0-.31-.13,4.83,4.83,0,0,1-.45.26,12.88,12.88,0,0,1-8.24.82,12.42,12.42,0,0,1-1.78-.51A7.74,7.74,0,0,1,93,19.68a13.77,13.77,0,0,1,.52-3.55c.68,1.22,3.1,2.15,3.18.34,1.19,2.47,4,.89,4.44-1.38.3,2.67,4.14,3.66,4.93.7.89.78,2.37-.1,2.67-1.29.06.14.13.27.2.4.18.38.36.79.54,1.2a16,16,0,0,1,.84,2.5,6.31,6.31,0,0,0-2.12-.5C108.23,18.28,108.17,18.46,108.17,18.63Z"/><path class="cls-32" d="M107.66,112.25a6.25,6.25,0,0,1-.31,1.49,3.9,3.9,0,0,0-3.64-.73,15.8,15.8,0,0,1-.08-2.61h0v0c.05-1,.13-1.91.19-2.77.13.62.25,1.22.32,1.71,0,1.17-.17,2.52,1.39,2.58.87,0,1.34-.64,1.6-1.52a3,3,0,0,0,.51-.25A10.21,10.21,0,0,1,107.66,112.25Z"/><path class="cls-31" d="M107.58,113.93a4.36,4.36,0,0,1-.52,1.51,1.73,1.73,0,0,1-3,.36,4.67,4.67,0,0,1-.64-2.71,1.38,1.38,0,0,1,.27-.08c.19,1.33.67,2.34,1.75,2.57a2.54,2.54,0,0,0,1.89-1.84Z"/><path class="cls-21" d="M88.63,64.83c8.81-2.19,12.59-8.07,14.94-11.86.08-.13.17-.26.25-.4a24,24,0,0,1-1.15,6.17,40.38,40.38,0,0,1-5.15,4.6C95.86,64.61,88.36,70.07,88.63,64.83Z"/><path class="cls-38" d="M104.92,44.74a2.25,2.25,0,0,1-.58,0l-.49-.08c-.73-.12-.89-.24-1.06-1.37,0-.06,0-.11,0-.16a4.39,4.39,0,0,0,3.52-.34A1.52,1.52,0,0,1,104.92,44.74Z"/><path class="cls-31" d="M103.63,110.4a15.8,15.8,0,0,0,.08,2.61,1.38,1.38,0,0,0-.27.08C103.46,112.16,103.59,111.22,103.63,110.4Z"/><path class="cls-39" d="M102.58,101.41a10,10,0,0,0,.93-2.54c.08.88.2,1.76.27,2.64A5.41,5.41,0,0,1,102.58,101.41Z"/><path class="cls-38" d="M104.16,42.08l.33,0c.35,0,.69-.07,1.06-.09h.24a2.11,2.11,0,0,1,.5.85,4.39,4.39,0,0,1-3.52.34,2.24,2.24,0,0,1,0-1h.4C103.51,42.14,103.83,42.11,104.16,42.08Z"/><path class="cls-40" d="M101.51,103.07a9.6,9.6,0,0,0,1.07-1.66,5.41,5.41,0,0,0,1.2.1c0,.06,0,.12,0,.18h0c0,.46.06.93.07,1.4h-.76C102.6,103.09,102.06,103.09,101.51,103.07Z"/><path class="cls-40" d="M104.11,87.74l.1,0c2.63.9,4.65,2.56,5.21,5.53h0c.34,1.35.34,3.79.67,5.56-1.71.65-3.88,1.17-4.49.22-.37-.67-.07-2.37-.07-3.12.07-1.48.66-1.84,1.25-3a8.76,8.76,0,0,0-2-.07,4.64,4.64,0,0,0,.52-1.34,4.05,4.05,0,0,0-1.48,1A11.26,11.26,0,0,0,99.17,90c-.9-.31-2.27-.48-3.3-.77a3.91,3.91,0,0,0,1-2.53c.72,0,1.45,0,2.18.09a10.66,10.66,0,0,0,1,.62c.34.09,1.84.44,2.13.09a.42.42,0,0,0,.14-.28A13.76,13.76,0,0,1,104.11,87.74Z"/><path class="cls-36" d="M99,65.15a18.11,18.11,0,0,0,3.69-6.41,14,14,0,0,0,2-2.69,19,19,0,0,1-2.37,6.65C101.22,63.55,100.11,64.38,99,65.15Z"/><path class="cls-39" d="M94.89,90.2c2.56.31,5.21,1,6.93,2.48a6.13,6.13,0,0,1,1.69,6.19,10,10,0,0,1-.93,2.54l-.67-.12c-1.11-.14-2.74-.07-3.7-.59-1.55-.81-.44-3.7,1.19-3.7A3.93,3.93,0,0,0,97,96.33c.44-.59,1-.88,1.48-1.4a22.11,22.11,0,0,0-3,.66A13.36,13.36,0,0,1,93,95.52a32.05,32.05,0,0,1-5.92-1,23.59,23.59,0,0,0,4.37-2.14,11.38,11.38,0,0,1,3.11-1.92l.07-.08A1.42,1.42,0,0,0,94.89,90.2Z"/><path class="cls-24" d="M103.59,9.37c-.88,0-1.75.26-2.63.25V9.4c2.77-.76,5.41-1.23,8.1.47a13.55,13.55,0,0,1,4.33,4.74,8.55,8.55,0,0,1-1.76,1.27,2.52,2.52,0,0,1-2.07.2l0,0c-.18-.41-.36-.82-.54-1.2-.07-.13-.14-.26-.2-.4a18,18,0,0,0-1.87-3.4A4.89,4.89,0,0,0,103.59,9.37Z"/><path class="cls-4" d="M101.05,113.7v.3l-.15-.28Z"/><path class="cls-5" d="M100.4,104.26c.18-.17.36-.34.53-.52h.12v10l-.15,0c-.22-.43-.44-.87-.68-1.31-.11-.24-.24-.47-.35-.7a15.73,15.73,0,0,1-1.36-3.44C99.24,106.71,99.8,105.45,100.4,104.26Z"/><path class="cls-4" d="M101.05,103.62v.11h-.12Z"/><path class="cls-4" d="M101.05,103.62l-.12.12h-.27c.13-.24.25-.47.39-.7Z"/><path class="cls-4" d="M100.93,103.74c-.17.18-.35.35-.53.52.08-.17.17-.34.26-.51Z"/><path class="cls-9" d="M100.66,103.75c-.09.17-.18.34-.26.51-.6,1.19-1.16,2.45-1.89,4a15.73,15.73,0,0,0,1.36,3.44c-2.3,1.64-3.56-3.69-3.14-5.24C97.35,104.19,98.62,103.85,100.66,103.75Z"/><path class="cls-33" d="M101.75,115.51a3.36,3.36,0,0,1-3.63-.31,4.72,4.72,0,0,1,2.78-1.48l.15.28c.26.51.51,1,.73,1.5Z"/><path class="cls-11" d="M99.06,86.83a25.06,25.06,0,0,1,3.29.43.42.42,0,0,1-.14.28c-.29.35-1.79,0-2.13-.09A10.66,10.66,0,0,1,99.06,86.83Z"/><path class="cls-4" d="M98,140.06v-22h.16c0,1.34,1.79,1.47,2.94,1.47v20.5a1.55,1.55,0,1,1-3.1,0Z"/><path class="cls-27" d="M99.15,29.69c.17.23.35.44.52.65-.93.24-1.9,1.1-2.64-.15l-.2.1a10.84,10.84,0,0,1-1-3.59,3.62,3.62,0,0,0,1.85.42A13.85,13.85,0,0,0,99.15,29.69Z"/><path class="cls-5" d="M98,116.06a3.57,3.57,0,0,0,3.1.76v2.74c-1.15,0-2.94-.13-2.94-1.47H98Z"/><path class="cls-31" d="M98,116.06l-.16-.11,0-.08a1.46,1.46,0,0,1,.28-.67,3.36,3.36,0,0,0,3.63.31h0c.09.21.18.43.27.63a2.41,2.41,0,0,1-1,.69A3.57,3.57,0,0,1,98,116.06Z"/><path class="cls-9" d="M98.39,85.56c1.73,0,5.4-.13,5.82,2.21l-.1,0c-1.33-1.39-3.47-1.32-5.24-1.62-1-.14-2.36-.22-2.66-1.4a.86.86,0,0,1,.32-1.07,11.45,11.45,0,0,0,1.81,1.86Z"/><path class="cls-41" d="M99.17,90a11.26,11.26,0,0,1,4.66,2.45,4.05,4.05,0,0,1,1.48-1,4.64,4.64,0,0,1-.52,1.34,8.76,8.76,0,0,1,2,.07c-.59,1.19-1.18,1.55-1.25,3,0,.75-.3,2.45.07,3.12.61,1,2.78.43,4.49-.22a5.8,5.8,0,0,0,.37,1.32A6.19,6.19,0,0,1,108,101.4a8.52,8.52,0,0,1-4.15.29h0c0-.06,0-.12,0-.18-.07-.88-.19-1.76-.27-2.64a6.13,6.13,0,0,0-1.69-6.19c-1.72-1.48-4.37-2.17-6.93-2.48a4,4,0,0,0,1-.93C96.9,89.56,98.27,89.73,99.17,90Z"/><path class="cls-11" d="M111.45,23.14a.63.63,0,0,0-.39-.42c-1-.38-1.08,1.62-1.21,2.16a.54.54,0,0,0,.45.35c.5.09.87-.3,1.07-.8a3.08,3.08,0,0,1,.54.16c-.4,1.35-1.53,2.6-2.45,2.11a1.25,1.25,0,0,1-.4-.37,2.91,2.91,0,0,0,.21.85A20.54,20.54,0,0,1,108,29.92a14.67,14.67,0,0,0,.18-2.76,6.66,6.66,0,0,0-1.74-4.41c-.67-.55-1.44-1.44-2.44-1.55a13.16,13.16,0,0,0-2.74.37c-1.55.14-3.47.57-5,.14,0-.31-.07-.62-.11-.93a12.88,12.88,0,0,0,8.24-.82l.22,0a3.41,3.41,0,0,0,.54-.1c1.38.73,1.91,3.25,3.84,3.09.45-1,1.63-1.88,2.43-1.25a2.3,2.3,0,0,1,.7,1.52s0,0,0,.08A2.66,2.66,0,0,0,111.45,23.14Z"/><path class="cls-11" d="M95,85.66a5.57,5.57,0,0,1-.93-1.28,20.56,20.56,0,0,1,2-1.33l.47.6a.86.86,0,0,0-.32,1.07c.3,1.18,1.71,1.26,2.66,1.4,1.77.3,3.91.23,5.24,1.62a13.76,13.76,0,0,0-1.76-.48,25.06,25.06,0,0,0-3.29-.43c-.73,0-1.46-.08-2.18-.09H95.64A1.84,1.84,0,0,0,95,85.66Z"/><path class="cls-9" d="M102.77,32.84a7.69,7.69,0,0,1-3.1-2.5c-.17-.21-.35-.42-.52-.65a13.85,13.85,0,0,1-1.51-2.57c-.2-.47-.39-.94-.55-1.42a16.35,16.35,0,0,1-.53-1.85q-.14-.59-.24-1.17c0-.32-.1-.65-.14-1,1.56.43,3.48,0,5-.14A13.16,13.16,0,0,1,104,21.2c1,.11,1.77,1,2.44,1.55a6.66,6.66,0,0,1,1.74,4.41,14.67,14.67,0,0,1-.18,2.76,9,9,0,0,1-1.52,2A3.33,3.33,0,0,1,102.77,32.84Z"/><path class="cls-7" d="M95.84,23.91a.92.92,0,0,1,.72-.06,16.35,16.35,0,0,0,.53,1.85,1.65,1.65,0,0,1-1,.2.72.72,0,0,1-.58-.72,1.66,1.66,0,0,1,.38-.11A2.4,2.4,0,0,0,95.84,23.91Z"/><path class="cls-11" d="M100.18,112.44c-1.71,2.48-4.65-2-5-3.24,0-.33.07-.68.11-1,.13-1.3.24-2.59.36-3.85.07-.77.14-1.52.24-2.26l-.06,0c0-.07,0-.13.07-.2s0,0,0,0a11.94,11.94,0,0,0,5.16,1.23c-.14.23-.26.46-.39.7-2,.1-3.31.44-3.93,2.72-.42,1.55.84,6.88,3.14,5.24.11.23.24.46.35.7Z"/><path class="cls-27" d="M94.62,24.05c-.17-1.29-.26-2.53-.33-3.78a12.42,12.42,0,0,0,1.78.51c0,.31.07.62.11.93s.09.65.14,1a1.57,1.57,0,0,0-1.44,1.26Z"/><path class="cls-40" d="M95,100.66c.25-1.08.93-2.15.87-3.3a3.45,3.45,0,0,1,.45,2.57C95.89,100.18,95.45,100.43,95,100.66Z"/><path class="cls-26" d="M95.45,24.74a.9.9,0,0,1,.39-.83,2.4,2.4,0,0,1,0,1.16,1.66,1.66,0,0,0-.38.11A2.16,2.16,0,0,1,95.45,24.74Z"/><path class="cls-11" d="M94.83,25.47a3.24,3.24,0,0,1,.63-.29.72.72,0,0,0,.58.72,1.65,1.65,0,0,0,1-.2c.16.48.35.95.55,1.42a3.62,3.62,0,0,1-1.85-.42A2.12,2.12,0,0,1,94.83,25.47Z"/><path class="cls-26" d="M94.83,25.47a2.5,2.5,0,0,1,0-1.53,5.53,5.53,0,0,1,.87-.27,1.34,1.34,0,0,1,.09.24.9.9,0,0,0-.39.83,2.16,2.16,0,0,0,0,.44A3.24,3.24,0,0,0,94.83,25.47Z"/><path class="cls-32" d="M98.12,115.2a9.59,9.59,0,0,1-3.83-6.15,1.61,1.61,0,0,1,.86-.88l.12,0c0,.33-.07.68-.11,1,.37,1.25,3.31,5.72,5,3.24l0,0c.24.44.46.88.68,1.31A4.72,4.72,0,0,0,98.12,115.2Z"/><path class="cls-28" d="M94.88,23.94a1.57,1.57,0,0,1,1.44-1.26q.11.59.24,1.17a.92.92,0,0,0-.72.06,1.34,1.34,0,0,0-.09-.24A5.53,5.53,0,0,0,94.88,23.94Z"/><path class="cls-41" d="M94.89,90.2c-1-.12-2-.19-2.88-.21l.5-.24A8.43,8.43,0,0,0,95,88.08a2,2,0,0,0,.68-1.34h1.24a3.91,3.91,0,0,1-1,2.53A4,4,0,0,1,94.89,90.2Z"/><path class="cls-8" d="M94.14,86.76s0-.09,0-.13a9.15,9.15,0,0,0,.9-1,1.84,1.84,0,0,1,.61,1.08Z"/><path class="cls-40" d="M95,100.66c.45-.23.89-.48,1.32-.73a11.14,11.14,0,0,1-.43,1.89s0,0,0,0h0a1.52,1.52,0,0,0-.94-.37A2.89,2.89,0,0,1,95,100.66Z"/><path class="cls-8" d="M89.59,89.68a17.73,17.73,0,0,0,4.54-3.05s0,.09,0,.13l1.5,0A2,2,0,0,1,95,88.08a8.43,8.43,0,0,1-2.45,1.67A13,13,0,0,1,89.59,89.68Z"/><path class="cls-26" d="M94.54,25.66a3,3,0,0,1-.51-1.3,4.75,4.75,0,0,1,.59-.31l.26-.11a2.5,2.5,0,0,0,0,1.53Z"/><path class="cls-42" d="M94.1,84.38A5.57,5.57,0,0,0,95,85.66a9.15,9.15,0,0,1-.9,1c0-.76-.11-1.46-.19-2.13A1.67,1.67,0,0,1,94.1,84.38Z"/><path class="cls-31" d="M97.79,116c-2.3-1.69-4.25-5.12-3.5-6.9a9.59,9.59,0,0,0,3.83,6.15,1.46,1.46,0,0,0-.28.67Z"/><path class="cls-8" d="M96.06,83.05a20.56,20.56,0,0,0-2,1.33l0,0a.84.84,0,0,1-.19-.33c-.06-.48-.14-.93-.22-1.38a15.34,15.34,0,0,1,1.4-1C95.39,82.13,95.73,82.6,96.06,83.05Z"/><path class="cls-42" d="M94.08,84.35l0,0a1.67,1.67,0,0,0-.16.12c0-.16,0-.32,0-.48A.84.84,0,0,0,94.08,84.35Z"/><path class="cls-43" d="M95,100.66l-1.45.76A15.32,15.32,0,0,0,92.86,99c1-.52,2-1,3-1.6C95.93,98.51,95.25,99.58,95,100.66Z"/><path class="cls-40" d="M93.41,96.85a14.6,14.6,0,0,1-11.7-3.1,22.25,22.25,0,0,0,7.91-2.52A20.6,20.6,0,0,1,92,90c.91,0,1.89.09,2.88.21a1.42,1.42,0,0,1-.23.14l-.07.08a11.38,11.38,0,0,0-3.11,1.92,23.59,23.59,0,0,1-4.37,2.14,32.05,32.05,0,0,0,5.92,1,13.36,13.36,0,0,0,2.45.07,22.11,22.11,0,0,1,3-.66c-.45.52-1,.81-1.48,1.4A3.93,3.93,0,0,1,99.4,97c-1.63,0-2.74,2.89-1.19,3.7,1,.52,2.59.45,3.7.59l.67.12a9.6,9.6,0,0,1-1.07,1.66l-.46,0a11.94,11.94,0,0,1-5.16-1.23,11.14,11.14,0,0,0,.43-1.89,3.45,3.45,0,0,0-.45-2.57A2.32,2.32,0,0,0,93.41,96.85Z"/><path class="cls-26" d="M92.53,30.89c-1.32-3.06-.49-5.34,1.5-6.53a3,3,0,0,0,.51,1.3A3.44,3.44,0,0,0,93,28.26,9.16,9.16,0,0,0,95.7,34c2.22,2.32,8.84,3.78,8.45,7.94v.15c-.33,0-.65.06-1,.06-.06-2.56-3.55-3.84-5.32-5.19C95,34.78,94.08,34.38,92.53,30.89Z"/><path class="cls-36" d="M92.71,71a6.67,6.67,0,0,1-.45-.72A24,24,0,0,0,99,65.16h0c1.13-.77,2.24-1.6,3.27-2.45a20.35,20.35,0,0,1-6.66,6.7l-.3.19c-.77.49-1.6,1-2.5,1.41Z"/><path class="cls-44" d="M93.67,82.64a24.63,24.63,0,0,0-1.37-4.81l.12,0c.87,1.16,1.74,2.54,2.65,3.87A15.34,15.34,0,0,0,93.67,82.64Z"/><path class="cls-44" d="M92.24,77.52c.06.09.13.17.18.26l-.12,0a2.49,2.49,0,0,1-.11-.29Z"/><path class="cls-45" d="M89.59,89.68c-.77.38-1.55.72-2.33,1a21.3,21.3,0,0,1-8.17,1.62c0-.61-.1-1.36-.14-2.17-.09-1.78-.18-3.79-.27-5-.9-3.24-2.25-6.33-3.21-9.62l0,0c2.81,2.88,5,6.06,8.58,8a10.35,10.35,0,0,1-3,.23c-.07,1.18,1.7,2.73,2.51,3.48a9.15,9.15,0,0,0,3.18,1.7A12,12,0,0,0,89.59,89.68Z"/><path class="cls-9" d="M90.82,69a7.2,7.2,0,0,1-2,.17A8.82,8.82,0,0,1,90.82,69Z"/><path class="cls-46" d="M92.19,102.11c-1.42.72-2.83,1.45-4.12,2.26v-2.83c1.49-.92,3.14-1.74,4.79-2.58a15.32,15.32,0,0,1,.69,2.46l-1.36.69Z"/><path class="cls-15" d="M88.3,69.15a4,4,0,0,0,.5.06,3.9,3.9,0,0,0-.46.12A1.16,1.16,0,0,0,88.3,69.15Z"/><path class="cls-47" d="M87,104.36c-7.41-.51-26.53-1.88-37-2.33-1.21,0-2.28-.1-3.22-.12v-2.7c5,.14,14.09.69,22.58,1.24,7.72.51,15,1,18.4,1.26l.27,0v2.64l-.08.06Z"/><path class="cls-48" d="M88.07,101.54v.19l-.27,0Z"/><path class="cls-15" d="M86.79,65.22c.64-.11,1.25-.25,1.84-.39-.27,5.24,7.23-.22,8.89-1.49a40.38,40.38,0,0,0,5.15-4.6A18.11,18.11,0,0,1,99,65.15h0A25.4,25.4,0,0,1,90.84,69h0a8.82,8.82,0,0,0-2,.17,4,4,0,0,1-.5-.06A19.13,19.13,0,0,0,87,65.63,3.72,3.72,0,0,0,86.79,65.22Z"/><path class="cls-49" d="M85.8,109.55l-3.1-.25-12.74-1-3.1-.24-12.15-.94-3.1-.25L50,106.78V102c10.44.45,29.56,1.82,37,2.33v5.19l-.14.08Z"/><path class="cls-49" d="M84.4,147.93c-.09-1.71-.25-3.38-.25-5.13-.14-5.92,0-11.84.15-17.76.13-2.38-1.63-11.88,1.5-13.42v34.69A1.61,1.61,0,0,1,84.4,147.93Z"/><path class="cls-4" d="M84.25,147.93a1.59,1.59,0,0,1-1.55-1.62v-37l3.1.25v2.07c-3.13,1.54-1.37,11-1.5,13.42-.15,5.92-.29,11.84-.15,17.76,0,1.75.16,3.42.25,5.13Z"/><path class="cls-50" d="M83,54.5c-.2-.19,0-1.13-.1-1.42a6.85,6.85,0,0,0-.7.22,4.77,4.77,0,0,1,2.19-1.22l0,.07c-.26.55-.71,1-1,1.6,1.54-1.31,3.9-.3,4.85,1.29-1.27-.32-2.52.27-3.76.48a3.68,3.68,0,0,1,1.75,1.69,3.08,3.08,0,0,0-2-.34c-.71-.79.08-2.17.79-2.71C84.65,54.26,83.31,54.85,83,54.5Z"/><path class="cls-42" d="M93.67,82.64c.08.45.16.9.22,1.38,0,.16,0,.32,0,.48.08.67.15,1.37.19,2.13a17.73,17.73,0,0,1-4.54,3.05,12,12,0,0,1-2.85-.74,9.15,9.15,0,0,1-3.18-1.7c-.81-.75-2.58-2.3-2.51-3.48a10.35,10.35,0,0,0,3-.23c-3.63-1.92-5.77-5.1-8.58-8l0,0c0,3.28.11,7,.26,10.63-.54,0-1.09.06-1.64.05-.22-1.55-.15-3.1-.44-4.58-.37-2.14-1-4.07-.67-6.28.08-.67.15-2.15,1-2.45s1.55.67,2.15.81c1.26.38,4.22-.43,4.14-2.14.67,1.19,2.89-1.33,3.55-1.92,1-.89,2-1.7,3.41-1.63a10.28,10.28,0,0,1,1,1.29,5.48,5.48,0,0,0-1.18.47h0a6.92,6.92,0,0,0-1.46,1.31c-1.65-.85-3.44.53-3.79,1.9h0a2.69,2.69,0,0,0,0,1.29,3.66,3.66,0,0,0,.52,3.12c1.48,1.78,4.81.89,5.54-1.11a3.3,3.3,0,0,0,4.38,1.47A24.63,24.63,0,0,1,93.67,82.64Z"/><path class="cls-10" d="M84.59,72.26a8.66,8.66,0,0,1-1.8,1.63C82.73,72.88,83.75,71.9,84.59,72.26Z"/><path class="cls-51" d="M81.71,58.91a2.74,2.74,0,0,0,.83-1.23,4.4,4.4,0,0,1-.37,4A10.84,10.84,0,0,0,81.71,58.91Z"/><path class="cls-28" d="M82.39,57.31a1.69,1.69,0,0,1,.27-.1c0,.16-.08.31-.12.47A2.87,2.87,0,0,0,82.39,57.31Z"/><path class="cls-45" d="M91.09,77A1.72,1.72,0,0,0,92,77c.07.2.16.39.23.58a2.49,2.49,0,0,0,.11.29,3.3,3.3,0,0,1-4.38-1.47c-.73,2-4.06,2.89-5.54,1.11a3.66,3.66,0,0,1-.52-3.12,3.59,3.59,0,0,0,1.23,2c1.9,1.35,4.3-.68,4.34-2.48A9.93,9.93,0,0,0,91.09,77Z"/><path class="cls-38" d="M83.09,76.36a3.59,3.59,0,0,1-1.23-2,2.69,2.69,0,0,1,0-1.29h0c.35-1.37,2.14-2.75,3.79-1.9l-1,1.11c-.84-.36-1.86.62-1.8,1.63a1.65,1.65,0,0,0,1,1.35,1.55,1.55,0,0,0,2.27-1.87l.46-.55a1.26,1.26,0,0,1,.37-.27,2.42,2.42,0,0,0,.52,1.33C87.39,75.68,85,77.71,83.09,76.36Z"/><path class="cls-51" d="M79.7,54.13l.91-1.34.09,0a5.65,5.65,0,0,0,.91,1.64,1.58,1.58,0,0,1,.56-1.17,6.85,6.85,0,0,1,.7-.22c0,.29-.1,1.23.1,1.42.34.35,1.68-.24,2-.34-.71.54-1.5,1.92-.79,2.71a6.79,6.79,0,0,0-1.54.34,2.43,2.43,0,0,0-.16-1.47c-.69-1.23-1.9-1.2-2.13-.28-.13-.26-.25-.52-.38-.77S79.8,54.31,79.7,54.13Z"/><path class="cls-28" d="M82.54,57.68a2.74,2.74,0,0,1-.83,1.23c-.12-.43-.27-.86-.43-1.28.46-.45,1.09-1.53.16-1.82-.39-.1-.61.29-.67.53-.13-.29-.26-.59-.4-.88.23-.92,1.44-1,2.13.28a2.43,2.43,0,0,1,.16,1.47,1.69,1.69,0,0,0-.27.1A2.87,2.87,0,0,1,82.54,57.68Z"/><path class="cls-9" d="M78.44,67.24a5.31,5.31,0,0,1-.74.24v0h-.2a6.36,6.36,0,0,1-5-2.27c-.69-.89-1.23-1.87-.69-3s1.73-1.72,1.83-2.86c.49,1.63,3.6-1.82,3.5-2.81.84.93,1.08.39,1.72-.4A13.61,13.61,0,0,0,80,54.69c.13.25.25.51.38.77s.27.59.4.88.36.86.51,1.29.31.85.43,1.28a10.84,10.84,0,0,1,.46,2.75,5.45,5.45,0,0,1-3.63,5.53Z"/><path class="cls-42" d="M81.71,93.75a7,7,0,0,1-2.4,0,3.56,3.56,0,0,1-.22-1.39,21.3,21.3,0,0,0,8.17-1.62c.78-.31,1.56-.65,2.33-1a13,13,0,0,0,2.92.07L92,90a20.6,20.6,0,0,0-2.39,1.24A22.25,22.25,0,0,1,81.71,93.75Z"/><path class="cls-52" d="M77.8,49.82a2.55,2.55,0,0,1-.2,2.46,3.48,3.48,0,0,1-3.17,1.54c.45.64-.34,1.62-.88,2a2.71,2.71,0,0,1-2.12.2.65.65,0,0,0-.1.34c-.45,1.28-.54,2.81-2.17,3.06a5.28,5.28,0,0,1-3.79-1.09,4.3,4.3,0,0,1-.43-1.94,11.33,11.33,0,0,1,4-5.11,13.87,13.87,0,0,1,5.33-2.63A12.36,12.36,0,0,1,77.8,49.82Z"/><path class="cls-48" d="M76,93.51c0-1.1,0-2.24-.08-3.4l2.13,0c-1.11,1,.06,2.15-.71,3.09C77.11,93.48,76.44,93.53,76,93.51Z"/><path class="cls-28" d="M78.6,67.82a4.4,4.4,0,0,1,1.46-.7l.36-.09a4,4,0,0,1-1.12,1.89,3.67,3.67,0,0,1-.85.61c-1,.24-2.13-.73-2.84-1.59.17-.08.33-.18.5-.28a6.16,6.16,0,0,0,1.59-.18,5.31,5.31,0,0,0,.74-.24l.1,0A1.45,1.45,0,0,0,78.6,67.82Z"/><path class="cls-28" d="M75.33,67.59a6.85,6.85,0,0,0,.78.07c-.17.1-.33.2-.5.28C75.51,67.82,75.41,67.7,75.33,67.59Z"/><path class="cls-9" d="M75.79,87.81l.09,2.3-1.33,0a6.7,6.7,0,0,0-.14-2.33C74.87,87.76,75.34,87.78,75.79,87.81Z"/><path class="cls-11" d="M74.41,87.75a6.7,6.7,0,0,1,.14,2.33l-1.93,0c-.06-.83-.16-1.67-.27-2.51A13.14,13.14,0,0,0,74.41,87.75Z"/><path class="cls-8" d="M74.09,86.26c.55,0,1.1,0,1.64-.05l.06,1.6c-.45,0-.92,0-1.38-.06-.09-.48-.22-1-.32-1.48Z"/><path class="cls-8" d="M74.43,69.15a3.46,3.46,0,0,1,.18.47l-.22-.5A.05.05,0,0,0,74.43,69.15Z"/><path class="cls-28" d="M74.1,68.5a5.69,5.69,0,0,1,.33.65.05.05,0,0,1,0,0Z"/><path class="cls-8" d="M78.45,69.53a3.67,3.67,0,0,0,.85-.61.06.06,0,0,1,0,0c1.22,4.65-4.48,3.67-6.55,1.35a9.71,9.71,0,0,1,1.27-1l.32-.25a.05.05,0,0,0,0,0l.22.5a3.46,3.46,0,0,0-.18-.47A3.68,3.68,0,0,0,78.45,69.53Z"/><path class="cls-30" d="M75.61,67.94c.71.86,1.79,1.83,2.84,1.59a3.68,3.68,0,0,1-4-.38,5.69,5.69,0,0,0-.33-.65L74,68.39A4.9,4.9,0,0,0,75.61,67.94Z"/><path class="cls-30" d="M72.77,66.76a8.33,8.33,0,0,0,2.56.83c.08.11.18.23.28.35a4.9,4.9,0,0,1-1.57.45h0A10.65,10.65,0,0,0,72.77,66.76Z"/><path class="cls-8" d="M74,68.39l.06.11a.41.41,0,0,1-.07-.11Z"/><path class="cls-45" d="M72.76,70.31c2.07,2.32,7.77,3.3,6.55-1.35h0c.82,1.45,2.29,1,3-.16.87,0,2-1.49,3-2.1.24.11.48.25.69.37a6.25,6.25,0,0,1,1.2,1c-1.41-.07-2.37.74-3.41,1.63-.66.59-2.88,3.11-3.55,1.92.08,1.71-2.88,2.52-4.14,2.14-.6-.14-1.41-1-2.15-.81s-.88,1.78-1,2.45c-.29,2.21.3,4.14.67,6.28.29,1.48.22,3,.44,4.58a5.42,5.42,0,0,1-2-.33c-.21-1.44-.42-2.86-.52-4.19-.29-2.76-1.81-7.54-.08-10.16a0,0,0,0,1,0,0A14.52,14.52,0,0,1,72.76,70.31Z"/><path class="cls-8" d="M72.13,85.93a5.42,5.42,0,0,0,2,.33h0c.1.51.23,1,.32,1.48a13.14,13.14,0,0,1-2.06-.22C72.28,87,72.2,86.46,72.13,85.93Z"/><path class="cls-11" d="M66,95.88c1.27-.5,4.55-1.87,6.45-1.87h.08a17,17,0,0,0,.06-4l1.93,0a2.7,2.7,0,0,1-.09.48c-.22,1-.74,3.41-1.33,4-1,.89-3.11.89-4.22,1S67,95.8,66,95.88Z"/><path class="cls-48" d="M87.8,101.71c-3.42-.23-10.68-.75-18.4-1.26l.12-1.72c4.33.42,8.66-2.4,12.91-2-.6,2.57,5.52,2.37,7,2.27.6-.1,2.67-.59,3.26-.2a.74.74,0,0,1,.17.21c-1.65.84-3.3,1.66-4.79,2.58Z"/><path class="cls-4" d="M70,108.32v29.56a1.55,1.55,0,1,1-3.1,0v-29.8Z"/><path class="cls-51" d="M74,68.39a7.94,7.94,0,0,1-4.22-.88h0a2.52,2.52,0,0,0,2-1.24,9,9,0,0,0,.91.5A10.65,10.65,0,0,1,74,68.39Z"/><path class="cls-11" d="M69.92,62c1.69-.9,3.36-2.73,2.63-4.78a4.64,4.64,0,0,1,1.18,1.59A23.77,23.77,0,0,0,76,56.63c-.19-.54-.11-1.19-.44-1.68a3.88,3.88,0,0,1,1.82,1.21,13.32,13.32,0,0,0,2-1.67l.32-.36c.1.18.19.37.29.56a13.61,13.61,0,0,1-1.12,1.44c-.64.79-.88,1.33-1.72.4.1,1-3,4.44-3.5,2.81-.1,1.14-1.38,1.92-1.83,2.86s0,2.07.69,3a6.36,6.36,0,0,0,5,2.27h.2v0a6.16,6.16,0,0,1-1.59.18,6.85,6.85,0,0,1-.78-.07,8.33,8.33,0,0,1-2.56-.83,9,9,0,0,1-.91-.5c-.23-.14-.46-.28-.69-.44a15.69,15.69,0,0,1-1.58-1.27c-.35-.3-.68-.63-1-1a3.94,3.94,0,0,0,0-2.67A3.94,3.94,0,0,1,69.92,62Z"/><path class="cls-50" d="M68.59,60.92a3.94,3.94,0,0,1,0,2.67,1.82,1.82,0,0,1-.15.27.31.31,0,0,0-.15.08h0a3.84,3.84,0,0,1-1.83-.45c-.46,1.27-1.69.3-2.61,0A8,8,0,0,1,62.74,60a5.23,5.23,0,0,0,1.58.12,1,1,0,0,0-.1-.3c.65-.39.94.89,1.58.89.25,0,.4-.39.64-.54a2,2,0,0,1,.45-.18C67.43,60.35,68,60.6,68.59,60.92Z"/><path class="cls-11" d="M69.17,65.76c.3,1.06,1.27.58,2,.06.23.16.46.3.69.44a2.52,2.52,0,0,1-2,1.24A1.62,1.62,0,0,1,68.7,67,2.81,2.81,0,0,1,68,65.79a1,1,0,0,1-.06-.23,2.24,2.24,0,0,1,.12-1.34,1.54,1.54,0,0,0,.36-.36,1.82,1.82,0,0,0,.15-.27c.32.33.65.66,1,1A1.13,1.13,0,0,0,69.17,65.76Z"/><path class="cls-9" d="M68.44,63.86a1.54,1.54,0,0,1-.36.36.89.89,0,0,1,.21-.28A.31.31,0,0,1,68.44,63.86Z"/><path class="cls-53" d="M72.55,57.25c.73,2-.94,3.88-2.63,4.78a3.94,3.94,0,0,0-1.33-1.11c-.55-.32-1.16-.57-1.7-.92a3.74,3.74,0,0,1-1.44-1.48,1.3,1.3,0,0,0-.08-.17,5.28,5.28,0,0,0,3.79,1.09c1.63-.25,1.72-1.78,2.17-3.06a.65.65,0,0,1,.1-.34,2.71,2.71,0,0,0,2.12-.2c.54-.4,1.33-1.38.88-2a3.48,3.48,0,0,0,3.17-1.54,2.55,2.55,0,0,0,.2-2.46,7,7,0,0,1,3,2.51c-.07.16-.14.31-.22.46l-.91,1.34-.32.36a13.32,13.32,0,0,1-2,1.67A3.88,3.88,0,0,0,75.59,55c.33.49.25,1.14.44,1.68a23.77,23.77,0,0,1-2.3,2.21A4.64,4.64,0,0,0,72.55,57.25Z"/><path class="cls-32" d="M68,65.79A2.81,2.81,0,0,0,68.7,67a2.17,2.17,0,0,0-.33.71A4.31,4.31,0,0,1,66.25,66a1.59,1.59,0,0,1-.12-.27l0,0a1.35,1.35,0,0,1,1.85-.1A1,1,0,0,0,68,65.79Z"/><path class="cls-51" d="M66.25,66a4.31,4.31,0,0,0,2.12,1.78,3.28,3.28,0,0,0,.07,1.91l-.52-.43c-.88-.7-.29-.2-1.13.19s-.79-1.33-1.18-2a5.05,5.05,0,0,0-1.36.6,4.13,4.13,0,0,1,2-2.07Z"/><path class="cls-9" d="M68.91,95.52c1.11-.07,3.26-.07,4.22-1,.59-.59,1.11-3,1.33-4a2.7,2.7,0,0,0,.09-.48l1.33,0c0,1.16.06,2.3.08,3.4,0,.34,0,.68,0,1h.15c.5,2-3.28,2.61-5.6,2.83C69.65,97,72.19,96,73,95.57v-.06c-1.88.16-6.07,1.58-7.56.78a.09.09,0,0,1-.06,0,.73.73,0,0,1,.59-.35h0l.08,0C67,95.8,67.89,95.57,68.91,95.52Z"/><path class="cls-51" d="M68.08,64.22A2.24,2.24,0,0,0,68,65.56a1.35,1.35,0,0,0-1.85.1s0,0,0,0l-.3-.21a6.38,6.38,0,0,1-1.93-2c.92.3,2.15,1.27,2.61,0a3.84,3.84,0,0,0,1.83.45h0A.89.89,0,0,0,68.08,64.22Z"/><path class="cls-53" d="M74.24,48.67a13.87,13.87,0,0,0-5.33,2.63,11.33,11.33,0,0,0-4,5.11,7.24,7.24,0,0,1,.41-2.13h0c1.92-2.49,3.05-4.16,6.43-5.28l1-.3A4.11,4.11,0,0,1,74.24,48.67Z"/><path class="cls-50" d="M66.79,69.4c.84-.39.25-.89,1.13-.19l.52.43h0C68.79,70.81,69.51,72,69.8,73a3.94,3.94,0,0,1-1.92-1.94c-.57,1.43,0,2.94,0,4.46-2.47-1.29-2.38-4.1-2.42-6.39A22.3,22.3,0,0,0,64,71.51,4.39,4.39,0,0,1,64.25,68a5.05,5.05,0,0,1,1.36-.6C66,68.07,66.1,69.75,66.79,69.4Z"/><path class="cls-54" d="M79.09,92.33a3.56,3.56,0,0,0,.22,1.39,7,7,0,0,0,2.4,0,14.6,14.6,0,0,0,11.7,3.1,2.32,2.32,0,0,1,2.46.51c-1,.56-2,1.08-3,1.6a.74.74,0,0,0-.17-.21c-.59-.39-2.66.1-3.26.2-1.48.1-7.6.3-7-2.27-4.25-.35-8.58,2.47-12.91,2a7.2,7.2,0,0,1-1.5-.28,6.69,6.69,0,0,1,.5-1.27c-.6,0-3.56.88-3.85.09-.16-.41.25-.74.75-1,1.49.8,5.68-.62,7.56-.78v.06c-.8.44-3.34,1.42-2.47,1.78,2.32-.22,6.1-.8,5.6-2.83H76c0-.33,0-.67,0-1,.48,0,1.15,0,1.34-.28.77-.94-.4-2,.71-3.09l.94,0C79,91,79,91.72,79.09,92.33Z"/><path class="cls-48" d="M72.62,90a17,17,0,0,1-.06,4h-.08c-1.9,0-5.18,1.37-6.45,1.87l-.08,0h0a.73.73,0,0,0-.59.35.09.09,0,0,0,.06,0c-.5.24-.91.57-.75,1,.29.79,3.25-.09,3.85-.09a6.69,6.69,0,0,0-.5,1.27,7.2,7.2,0,0,0,1.5.28l-.12,1.72c-8.49-.55-17.53-1.1-22.58-1.24v-.16c4-2.22,8.85-3.91,13-5.79,2.71-1.16,5.61-2.32,8.32-3.29h.19C69.48,90,71,90,72.62,90Z"/><path class="cls-51" d="M65.45,58.52A3.74,3.74,0,0,0,66.89,60a2,2,0,0,0-.45.18c-.24.15-.39.54-.64.54-.64,0-.93-1.28-1.58-.89a1,1,0,0,1,.1.3A5.23,5.23,0,0,1,62.74,60a15.17,15.17,0,0,1,.33-4.65c1.29-3.26,5.55-6.88,8.71-6.36-3.38,1.12-4.51,2.79-6.43,5.28h0a7.24,7.24,0,0,0-.41,2.13,4.3,4.3,0,0,0,.43,1.94A1.3,1.3,0,0,1,65.45,58.52Z"/><path class="cls-49" d="M54.71,108.77v35.36a1.62,1.62,0,0,1-1.16,1.57c0-2-.35-4.2-.47-6.16-.3-6.21.44-12.28.29-18.34C53.24,119,51.72,109.58,54.71,108.77Z"/><path class="cls-4" d="M51.61,106.89l3.1.25v1.63c-3,.81-1.47,10.25-1.34,12.43.15,6.06-.59,12.13-.29,18.34.12,2,.45,4.13.47,6.16a1.31,1.31,0,0,1-.39.05,1.58,1.58,0,0,1-1.55-1.62Z"/><path class="cls-55" d="M75.92,61.76a.89.89,0,1,1-.89-.89A.88.88,0,0,1,75.92,61.76Z"/><path class="cls-55" d="M80.45,58.6a.89.89,0,1,1-.88-.89A.88.88,0,0,1,80.45,58.6Z"/><path class="cls-55" d="M99.79,25.26a.89.89,0,1,1-.89-.89A.88.88,0,0,1,99.79,25.26Z"/><path class="cls-55" d="M105,24.17a.89.89,0,1,1-.89-.89A.89.89,0,0,1,105,24.17Z"/><path class="cls-56" d="M104.26,26.85c.3.22.77,0,1.06-.15.44-.23.83-.41,1-.92a.76.76,0,0,0-.73-1c-.57,0-.9.43-1.24.82s-.55.88-.11,1.21Z"/><path class="cls-56" d="M99.47,27.09a1.46,1.46,0,0,0-.56-.39.68.68,0,0,0-.9.24.65.65,0,0,0,.24.89,1,1,0,0,0,1.22-.17.42.42,0,0,0,0-.57Z"/><path class="cls-56" d="M76.28,63.06a1.53,1.53,0,0,0-1.79.18.7.7,0,0,0-.18.7.74.74,0,0,0,.69.53,2.34,2.34,0,0,0,1.28-.38.6.6,0,0,0,0-1Z"/><path class="cls-56" d="M80.66,61.16c.49-.24,1.28-1.25.62-1.68s-1.41.84-1.25,1.42a.44.44,0,0,0,.63.26Z"/><path class="cls-57" d="M100.7,24.27c.11,1.11.37,2.25-.62,3.05a.36.36,0,0,0,.07.56,2.77,2.77,0,0,0,2.59.07.09.09,0,0,0,0-.17c-.33,0-.65,0-1,0a2.59,2.59,0,0,1-1.21-.5c0,.16.09.32.13.48a4.35,4.35,0,0,0,.21-3.5c0-.08-.16-.08-.15,0Z"/><path class="cls-57" d="M76.86,60c.38.75,1,.39,1.67.6,1,.31.09,1.35,0,1.91a.1.1,0,0,0,.1.13c.78,0,1.05-1.22.89-1.8a.9.9,0,0,0-.81-.64c-.7-.06-1.15.27-1.77-.26,0,0-.11,0-.08.06Z"/><path class="cls-57" d="M80.05,62.64A2.23,2.23,0,0,1,79.16,64c-.35.2-1.17.46-1.38-.05a.25.25,0,1,0-.45.19c.31.63,1.11.54,1.67.35a1.75,1.75,0,0,0,.85-.61,1.72,1.72,0,0,0,.22-1.2Z"/><path class="cls-58" d="M85.69,94c.19.11,1.16.69,1.21.21s-.85-.69-1.21-.53a.18.18,0,0,0,0,.32Z"/><path class="cls-58" d="M87.71,94.55a1.47,1.47,0,0,0,.7.27.3.3,0,0,0,.33-.14.37.37,0,0,0,0-.15.28.28,0,0,0-.22-.28,1,1,0,0,0-.85.17.09.09,0,0,0,0,.13Z"/><path class="cls-58" d="M90.32,95c.27.3.82.24,1.19.22a.35.35,0,0,0,0-.69c-.37,0-.92-.08-1.19.22a.2.2,0,0,0,0,.25Z"/><path class="cls-58" d="M92.85,95.34c.17,0,.31.11.48.13a3.37,3.37,0,0,0,.55,0,.34.34,0,0,0,0-.67,1.61,1.61,0,0,0-1.06.3.12.12,0,0,0,0,.22Z"/><path class="cls-58" d="M95.5,95.46a3.63,3.63,0,0,0,.66.21.35.35,0,0,0,.18-.68.85.85,0,0,0-.91.19.17.17,0,0,0,.07.28Z"/><path class="cls-58" d="M97.25,95.9c.1.14.09.41.14.57a.31.31,0,0,0,.61-.08.71.71,0,0,0-.12-.49c-.1-.17-.27-.19-.44-.25a.17.17,0,0,0-.19.25Z"/><path class="cls-58" d="M97.45,97.57a1.83,1.83,0,0,0-.17.8.34.34,0,0,0,.68,0,1.83,1.83,0,0,0-.17-.8.2.2,0,0,0-.34,0Z"/><path class="cls-58" d="M97.43,99.55a1,1,0,0,0-.24.82.36.36,0,0,0,.71,0,1,1,0,0,0-.24-.82.17.17,0,0,0-.23,0Z"/><path class="cls-58" d="M95.74,100.73c.21.2.58.48.86.27a.2.2,0,0,0,.08-.2c-.1-.35-.53-.35-.84-.32a.15.15,0,0,0-.1.25Z"/><path class="cls-58" d="M97.67,101.54a4.67,4.67,0,0,1,.51.23,2.21,2.21,0,0,0,.51.11c.35,0,.43-.55.09-.61a1.58,1.58,0,0,0-.53,0,2.61,2.61,0,0,1-.56.08c-.12,0-.14.18,0,.21Z"/><path class="cls-58" d="M100.25,102a6.37,6.37,0,0,1,.74.07.28.28,0,0,0,.27-.2.38.38,0,0,0,0-.15.29.29,0,0,0-.27-.21,3.31,3.31,0,0,0-.82.22c-.18,0-.1.3.08.27Z"/><path class="cls-58" d="M102.21,102.19c.2,0,.44-.07.46-.31,0,0,0-.09-.09-.09s-.24.07-.37.08-.21.34,0,.32Z"/><path class="cls-58" d="M97.28,90.38c.28.22.71.48,1,.27a.1.1,0,0,0,0-.17c-.26-.18-.68-.13-1-.19,0,0-.1,0-.06.09Z"/><path class="cls-58" d="M99.51,90.84a1.36,1.36,0,0,0,.76.23c.28,0,.3-.37.06-.46a.86.86,0,0,0-.82.12.07.07,0,0,0,0,.11Z"/><path class="cls-58" d="M101.83,91.53a2,2,0,0,0,1,.45.28.28,0,0,0,.22-.51,1.4,1.4,0,0,0-1.21-.13.11.11,0,0,0,0,.19Z"/><path class="cls-58" d="M104.34,93a1,1,0,0,1,.31.46c.17.34.59.12.63-.17a.61.61,0,0,0-.94-.58.17.17,0,0,0,0,.29Z"/><path class="cls-58" d="M105,95a3.56,3.56,0,0,0-.09,1.21.27.27,0,0,0,.53,0,3.55,3.55,0,0,0-.08-1.21.18.18,0,0,0-.36,0Z"/><path class="cls-58" d="M104.89,97.59a7.22,7.22,0,0,0,0,.93.28.28,0,0,0,.54,0,1.73,1.73,0,0,0-.15-1c-.08-.19-.41-.19-.4,0Z"/><path class="cls-58" d="M105.1,99.63c-.08.22-.21.33-.11.59a.26.26,0,0,0,.5,0c.1-.26,0-.37-.11-.59a.15.15,0,0,0-.28,0Z"/><path class="cls-58" d="M104.5,101.14a1.77,1.77,0,0,0,.56,0,.27.27,0,0,0,.18-.18.56.56,0,0,0,0-.13.26.26,0,0,0-.25-.19,3.57,3.57,0,0,0-.55.11c-.26.05-.17.41.06.43Z"/><path class="cls-58" d="M106.39,100.85c.22,0,.44,0,.66-.07a.23.23,0,0,0,.16-.16.19.19,0,0,0,0-.13.26.26,0,0,0-.23-.17,1.87,1.87,0,0,0-.71.24c-.17.09,0,.32.12.29Z"/><path class="cls-58" d="M109,100.43l.49-.14a.23.23,0,0,0,.17-.22.2.2,0,0,0,0-.11.23.23,0,0,0-.26-.11,3,3,0,0,0-.51.25.18.18,0,0,0,.14.33Z"/><path class="cls-59" d="M118,142.88a2,2,0,0,0-1-1.14.37.37,0,0,0-.37.64c.37.21.59.56.94.8s.45-.09.4-.3Z"/><path class="cls-59" d="M119.23,142.55a2.06,2.06,0,0,0-.91-1.7c-.45-.26-.81.31-.52.68.16.2.36.36.52.55a4.12,4.12,0,0,0,.57.61.2.2,0,0,0,.34-.14Z"/><path class="cls-59" d="M116.73,139.64a2.49,2.49,0,0,0-.42-1.43c-.23-.46-.9-.06-.68.4a2.47,2.47,0,0,0,.84,1.14c.09,0,.24,0,.26-.11Z"/><path class="cls-59" d="M118,139.1c.48-.35,0-1.23-.27-1.56s-1.11.15-.77.59c.18.23.34.47.51.71s.34.41.53.26Z"/><path class="cls-60" d="M72.86,61.46c.2-.45.06-.87.48-1.23s.75-.56,1.06-.88a.08.08,0,0,0-.06-.14A1.5,1.5,0,0,0,73,60a2.64,2.64,0,0,0-.2.78,1.07,1.07,0,0,0,0,.71Z"/><path class="cls-60" d="M79.54,56.47c-.49-.69-1.69-.22-2.12.31a.25.25,0,0,0,.36.35,3.86,3.86,0,0,1,.66-.55,1.08,1.08,0,0,1,1.07-.08s0,0,0,0Z"/><path class="cls-24" d="M97.2,23.55c.34-.37.44-.78.92-1a5.17,5.17,0,0,1,.75-.27,2,2,0,0,0,.61-.2.17.17,0,0,0,0-.27c-.42-.38-1.24-.06-1.59.3s-.91.92-.79,1.46a0,0,0,0,0,.06,0Z"/><path class="cls-24" d="M105.26,22.12a1.56,1.56,0,0,0-1.05-.9c-.42-.14-1.27-.29-1.6,0a.16.16,0,0,0,0,.24c.28.27.78.17,1.14.16a2.33,2.33,0,0,1,1.48.48s0,0,0,0Z"/><path class="cls-61" d="M97.76,10.9c-1.93,1.59-3.7,5.26-3.14,7.8a.19.19,0,0,0,.37,0c.36-1.2.35-2.48.64-3.7a12.22,12.22,0,0,1,2.25-4c.05-.08-.06-.14-.12-.09Z"/><path class="cls-61" d="M98,12.5A7,7,0,0,0,96.66,18c0,.12.22.12.25,0,.2-.85.2-1.74.36-2.6a15,15,0,0,1,.9-2.78c0-.11-.11-.18-.18-.11Z"/><path class="cls-61" d="M99.29,14A7.31,7.31,0,0,0,99,18.38a.12.12,0,0,0,.24,0c.15-1.43.15-2.86.33-4.29,0-.19-.26-.21-.31,0Z"/><path class="cls-61" d="M101.13,13a11.07,11.07,0,0,0,.26,5.63c0,.13.26.12.26,0,0-1.88-.5-3.68-.33-5.58,0-.11-.18-.13-.19,0Z"/><path class="cls-61" d="M103.8,13c0,1.74.25,4.26,1.51,5.58a.14.14,0,0,0,.24-.14c-.31-.91-.74-1.74-1-2.68S104.26,13.9,104,13a.08.08,0,0,0-.16,0Z"/><path class="cls-61" d="M105.41,13.47a6.48,6.48,0,0,0,1.25,3.62A.16.16,0,0,0,107,17c.06-1.26-1.08-2.37-1.34-3.58,0-.12-.19-.08-.2,0Z"/><path class="cls-61" d="M114.66,19.16c1.93,3.07,1.73,6.79,2.36,10.23.34,1.87,2.06,5.32,4.37,3.26a.13.13,0,0,0-.13-.22c-3.29,1-3.66-3.42-4.05-5.62-.46-2.64-.91-5.47-2.49-7.69,0,0-.09,0-.06,0Z"/><path class="cls-61" d="M118.27,33a5,5,0,0,0,1.81,2.2c.56.43,1.84.88,2.19,0a.2.2,0,0,0-.18-.24,3.59,3.59,0,0,0-.89.25,1.79,1.79,0,0,1-1.44-.48A7.92,7.92,0,0,1,118.31,33s0,0,0,0Z"/><path class="cls-61" d="M111.29,18.94a26.89,26.89,0,0,1,2.34,2.78c.6,1,1,2.11,1.66,3.05a.1.1,0,0,0,.19-.06c-.06-1.17-1-2.18-1.61-3.13a13.49,13.49,0,0,0-2.49-2.74.07.07,0,0,0-.09.1Z"/><path class="cls-61" d="M107.17,10.47c.54.69,1.2,1.28,1.76,1.95a14.89,14.89,0,0,1,1.56,2.71c0,.06.13,0,.12-.05a7.92,7.92,0,0,0-3.41-4.64s0,0,0,0Z"/><path class="cls-61" d="M108.88,11.26a5.25,5.25,0,0,1,1.21.89c.34.33.59.75.94,1.07a.08.08,0,0,0,.12-.09,4.14,4.14,0,0,0-2.22-2c-.07,0-.12.09-.05.13Z"/><path class="cls-61" d="M97.15,29.23c1.34,1.65,2.44,3.46,3.83,5.08,1.13,1.31,2.64,3,4.35,3.48a.11.11,0,0,0,.11-.18A46.61,46.61,0,0,0,101,33.49c-.68-.66-1.38-1.29-2-2s-1.14-1.61-1.8-2.34a0,0,0,1,0-.06.06Z"/><path class="cls-62" d="M82.24,72.94A2.75,2.75,0,0,0,83.15,76a2.18,2.18,0,0,0,1.59.33A1.76,1.76,0,0,0,86,75.41a.14.14,0,0,0-.16-.16,7.47,7.47,0,0,1-1.17.32,2.54,2.54,0,0,1-1.3-.24c-.9-.43-.76-1.57-1-2.39a0,0,0,0,0-.07,0Z"/><path class="cls-62" d="M86.82,73.79v0c0-.32-.54-.32-.5,0v0a.25.25,0,0,0,.5,0Z"/><path class="cls-63" d="M72.61,49.77a6.42,6.42,0,0,1,3.8,1.12c.94.56,1.79,1.3,2.76,1.79.09,0,.21-.06.15-.15a6.41,6.41,0,0,0-6.71-2.76s0,0,0,0Z"/><path class="cls-63" d="M73.13,51.28a8.74,8.74,0,0,1,3.81,1.87s.06,0,0,0a6.87,6.87,0,0,0-3.82-2c-.09,0-.11.15,0,.16Z"/><path class="cls-63" d="M71.81,51.76a19.79,19.79,0,0,1,1.91,1.63,6.58,6.58,0,0,1,.91,1.19c.21.33.33.72.55,1a.17.17,0,0,0,.31-.08c.07-.8-.72-1.54-1.25-2a26.21,26.21,0,0,0-2.32-1.89c-.08-.06-.19.07-.11.14Z"/><path class="cls-63" d="M69.57,53.09a9.42,9.42,0,0,1,2.48,2c.66.73,1.1,1.65,1.8,2.35.21.21.61-.08.42-.33a26.44,26.44,0,0,0-2-2.22A7.77,7.77,0,0,0,69.64,53c-.09,0-.16.08-.07.13Z"/><path class="cls-63" d="M68.86,54.46a15.27,15.27,0,0,1,1.73,1.95c.44.58.68,1.33,1.16,1.87a.1.1,0,0,0,.17-.07,3.54,3.54,0,0,0-1-2,11.9,11.9,0,0,0-2-1.87c-.08-.06-.19,0-.11.11Z"/><path class="cls-63" d="M67.36,55.59a5.87,5.87,0,0,0,1.26,2.86C69.1,59.11,70,60,70.84,60a.12.12,0,0,0,.08-.2,4.69,4.69,0,0,0-.79-.52A5.34,5.34,0,0,1,68.87,58a17.14,17.14,0,0,1-1.37-2.48c0-.06-.15,0-.14,0Z"/><path class="cls-63" d="M66.77,57.65a2,2,0,0,0,1.13,1.2.11.11,0,0,0,.12-.16c-.29-.42-.75-.7-1-1.14-.08-.11-.28,0-.23.1Z"/><path class="cls-63" d="M63.74,58c-.73,2.26.29,5.09,1.9,6.78.08.09.19,0,.15-.11-.35-.82-.9-1.55-1.3-2.35a7.26,7.26,0,0,1-.67-4.3,0,0,0,0,0-.08,0Z"/><path class="cls-63" d="M64.68,60.07A7.71,7.71,0,0,0,66.49,64c.05.05.16,0,.13-.08a9.81,9.81,0,0,0-.83-1.69A10.5,10.5,0,0,1,65,60a.15.15,0,0,0-.28.08Z"/><path class="cls-63" d="M66.54,61.16c.11.4.26.8.41,1.19a4.74,4.74,0,0,0,.5,1.07.12.12,0,0,0,.2-.08,2.61,2.61,0,0,0-.31-1,11.8,11.8,0,0,1-.49-1.29c-.06-.19-.37-.11-.31.09Z"/><path class="cls-63" d="M64.87,53.42c.25-.27.58-.26.9-.38a.07.07,0,0,0,0-.13.91.91,0,0,0-1,.43.07.07,0,0,0,.11.08Z"/><path class="cls-63" d="M65.85,52.24a2,2,0,0,0,.78-.19.07.07,0,0,0,0-.13,1.1,1.1,0,0,0-.76.22s0,.11,0,.1Z"/><path class="cls-63" d="M66.69,51.56a.91.91,0,0,0,.63-.14c.05,0,.06-.14,0-.15a2.18,2.18,0,0,0-.62.06c-.14,0-.15.23,0,.23Z"/><path class="cls-63" d="M67.68,50.74c.16-.07.29,0,.41-.14s0-.07,0-.1c-.15-.19-.39-.06-.52.09a.1.1,0,0,0,.12.15Z"/><path class="cls-63" d="M68.63,50.13a.27.27,0,0,1,.07-.08,0,0,0,0,0,0-.08c-.08,0-.09,0-.17,0s0,.23.11.14Z"/><path class="cls-63" d="M64.71,68.59a7.4,7.4,0,0,1,.69-1,3.81,3.81,0,0,1,1.07-.7s0-.08,0-.07c-.84,0-1.47,1.06-1.82,1.69,0,0,.05.1.08,0Z"/><path class="cls-63" d="M66.78,67c-.63,1-1,2.74-.22,3.75a.1.1,0,0,0,.18,0c.05-.61-.14-1.23-.15-1.85A14.55,14.55,0,0,1,66.8,67s0,0,0,0Z"/><path class="cls-63" d="M67.37,68.19c-.19.52-.17,1.51.39,1.82a.13.13,0,0,0,.2-.11,2.18,2.18,0,0,0-.25-.77,2,2,0,0,1-.11-.91c0-.14-.19-.15-.23,0Z"/><path class="cls-63" d="M82.37,54.4a2.76,2.76,0,0,0,.28-.39A2.12,2.12,0,0,0,83,53.4a.11.11,0,0,0-.1-.13c-.38,0-.85.76-.65,1.12,0,0,.08,0,.1,0Z"/><path class="cls-63" d="M82.94,54.78a4.86,4.86,0,0,1,1.27-.63,4.75,4.75,0,0,0,1.33-.4.1.1,0,0,0-.05-.18,3.47,3.47,0,0,0-1.64.35,1.6,1.6,0,0,0-1,.82s0,0,0,0Z"/><path class="cls-63" d="M83.05,55.73a2,2,0,0,0,.63.23,2.55,2.55,0,0,0,.67.12.1.1,0,0,0,.07-.16,1.31,1.31,0,0,0-1.37-.27,0,0,0,0,0,0,.08Z"/><path class="cls-64" d="M101.94,30.32a1.8,1.8,0,0,0,.44.12,3.69,3.69,0,0,0,.94,0h0a4,4,0,0,1-.77,0,3.62,3.62,0,0,1-.47-.13l-.19-.1a5.2,5.2,0,0,1-.1-.59,2.2,2.2,0,0,1-.56-.26,2.11,2.11,0,0,0,1,1.59h0A1.15,1.15,0,0,1,101.94,30.32Z"/><path class="cls-64" d="M105.17,29.23a2.22,2.22,0,0,1,.14.31c-.1.09-.19.19-.29.27a3,3,0,0,1-1.25.53h0a3.63,3.63,0,0,0,1.63-.57,3.59,3.59,0,0,1,.14.48,4.35,4.35,0,0,0,.42-1.72A2.33,2.33,0,0,1,105.17,29.23Z"/><path class="cls-1" d="M103.77,30.34h0a3,3,0,0,0,1.25-.53c.1-.08.19-.18.29-.27a2.22,2.22,0,0,0-.14-.31,4.42,4.42,0,0,1-3.38.33,5.2,5.2,0,0,0,.1.59l.19.1a3.62,3.62,0,0,0,.47.13,4,4,0,0,0,.77,0h0a3.69,3.69,0,0,1-.94,0,1.8,1.8,0,0,1-.44-.12,1.15,1.15,0,0,0,.33.57h0a2.49,2.49,0,0,0,1.75.54,2.1,2.1,0,0,0,1.53-1.18,3.59,3.59,0,0,0-.14-.48A3.63,3.63,0,0,1,103.77,30.34Z"/><text class="cls-65" transform="translate(29.91 227.34)">Lo<tspan class="cls-66" x="7.9" y="0">r</tspan><tspan x="10.73" y="0">em ipsum dolor sit amet, </tspan><tspan x="0" y="11.2">consectetuer adipiscing elit, sed diam </tspan><tspan x="0" y="22.4">nonummy nibh euismod tincidunt ut </tspan><tspan x="0" y="33.6">lao</tspan><tspan class="cls-66" x="9.97" y="33.6">r</tspan><tspan x="12.79" y="33.6">eet dolo</tspan><tspan class="cls-66" x="39.61" y="33.6">r</tspan><tspan x="42.43" y="33.6">e magna aliquam e</tspan><tspan class="cls-66" x="105.46" y="33.6">r</tspan><tspan x="108.28" y="33.6">at </tspan><tspan x="0" y="44.8">volutpat. Ut wisi enim ad minim </tspan><tspan x="0" y="56">veniam, quis </tspan></text><text class="cls-67" transform="translate(116.12 194.73)"><tspan class="cls-68">L<tspan class="cls-69" x="6.6" y="0">o</tspan><tspan class="cls-70" x="13.8" y="0">r</tspan><tspan class="cls-71" x="18.45" y="0">em</tspan></tspan><tspan x="-32.39" y="13.2">Ipsum dolor</tspan></text></g></g></svg>