<svg xmlns="http://www.w3.org/2000/svg" viewBox="0 0 339.9 322.09"><defs><style>.cls-1{fill:#e3e0ff;}.cls-1,.cls-10,.cls-12,.cls-2,.cls-4,.cls-5,.cls-6,.cls-7,.cls-8,.cls-9{fill-rule:evenodd;}.cls-2{fill:#fff;}.cls-3,.cls-4{fill:#cfc7ff;}.cls-5{fill:#ffabcc;}.cls-6{fill:#2678fa;}.cls-7{fill:#ed87ab;}.cls-8{fill:#4d128f;}.cls-9{fill:#5712a6;}.cls-10{fill:#78e3cc;}.cls-11,.cls-12{fill:#e3e3fa;}</style></defs><title>Ativo 2</title><g id="Camada_2" data-name="Camada 2"><g id="Layer_1" data-name="Layer 1"><path class="cls-1" d="M247.66,322.09a79.26,79.26,0,1,0-79.25-79.25,79.4,79.4,0,0,0,79.25,79.25"/><path class="cls-1" d="M216.18,247.43c68.14,0,123.72-55.57,123.72-123.71S284.32,0,216.18,0,92.47,55.58,92.47,123.72,148,247.43,216.18,247.43"/><path class="cls-1" d="M94.39,309.94A94.39,94.39,0,1,0,0,215.56a94.56,94.56,0,0,0,94.39,94.38"/><path class="cls-1" d="M113.14,229.13A106.77,106.77,0,1,0,6.37,122.36,107,107,0,0,0,113.14,229.13"/><polygon class="cls-1" points="175.6 315.54 170.91 318.26 166.21 320.97 166.21 315.54 166.21 310.12 170.91 312.83 175.6 315.54"/><path class="cls-2" d="M111.4,267h0a4.4,4.4,0,1,0,4.4,4.4,4.39,4.39,0,0,0-4.4-4.4m-6.67,7.69a2.19,2.19,0,1,0,2.19,2.19A2.19,2.19,0,0,0,104.73,274.68Z"/><path class="cls-2" d="M281.83,152.8h0a4.4,4.4,0,1,0,4.4-4.4,4.4,4.4,0,0,0-4.4,4.4m7.7,6.66a2.19,2.19,0,1,0,2.19-2.18A2.18,2.18,0,0,0,289.53,159.46Z"/><polygon class="cls-2" points="94.91 43.71 90.21 46.43 85.51 49.14 85.51 43.71 85.51 38.28 90.21 41 94.91 43.71"/><polygon class="cls-1" points="144.38 11.3 139.69 8.59 134.98 5.88 139.69 3.17 144.38 0.45 144.38 5.88 144.38 11.3"/><polygon class="cls-1" points="310.4 24.21 309 18.96 307.59 13.72 312.83 15.12 318.08 16.53 314.24 20.37 310.4 24.21"/><path class="cls-2" d="M6.45,118.37A106.15,106.15,0,0,1,19.36,71.29H83.91c7,0,6.57,8,5.08,12.29s-12.07,29.23-12.07,29.23-.53,2.33-1.43,5.56Z"/><path class="cls-2" d="M146.44,111.17H259.53s9.21,0,7.18-9.94-24.74-55-31.13-61.71S151.9,57.34,132,66.39s-20.83,31.76-16.48,39.47,30.88,5.31,30.88,5.31"/><polygon class="cls-1" points="25.26 94.82 20.56 92.1 15.86 89.39 20.56 86.67 25.26 83.96 25.26 89.39 25.26 94.82"/><path class="cls-1" d="M154.1,47.46s-5.66,8.28-5.43,11.74,12.89,53.1,12.89,53.1h-5.74L141.16,53.4Z"/><rect class="cls-3" x="102.43" y="90" width="4.77" height="26.72" transform="matrix(0.94, -0.34, 0.34, 0.94, -28.64, 41.24)"/><polygon class="cls-4" points="143.75 210.05 140.79 259.74 218.33 259.74 205.61 185.9 158.16 178.7 143.75 210.05"/><path class="cls-4" d="M133,118.83l-11.36-11.52H69.73A13.71,13.71,0,0,0,58,115.2c-3.6,7.84-2.23,17.16-2.23,17.16H43.35V259.74H179.19V172.18Z"/><path class="cls-4" d="M77.53,78.55c-13.31-.84-14.24,4.87-9.47,17.63a10,10,0,0,0,8.65,6.44H98.54c8.88,0,11.26-.68,12.69-2S110.4,90.43,108,85c-2.68-6.12-7.28-6.44-8.64-6.44Z"/><rect class="cls-3" x="76.69" y="87.56" width="4.77" height="26.72" transform="translate(-29.32 32.44) rotate(-19.64)"/><path class="cls-4" d="M43.35,259.74l23.73-70.48c-12.16-10.5-45.65-9.81-52.08-24.78a94.5,94.5,0,0,0-4,95.26Z"/><path class="cls-4" d="M15,164.48c6.43,15,35.17,48.51,47.33,59l5.42-64-24.4-27.17H6.83A106.15,106.15,0,0,0,15,164.48"/><rect class="cls-3" x="107.84" y="190.87" width="84.4" height="15.47"/><polygon class="cls-2" points="60.19 140.42 79.99 190.1 121.69 190.1 121.69 191.63 80.6 191.63 79.48 191.63 20.5 191.63 20.5 190.1 78.35 190.1 58.77 140.98 60.19 140.42"/><polygon class="cls-5" points="223.41 227.35 223.41 246.63 210 250.12 203.67 226.51 223.41 227.35"/><polygon class="cls-5" points="249 197.24 255.59 196.31 260.79 205.34 252.13 214.2 240.06 202.14 249 197.24"/><path class="cls-6" d="M132.4,128.69s20.13-7.67,24.75-6.31,20.45,17.32,24,24.24,3.38,11.87,3.38,11.87L133.25,176.7s-13-24.57-12.71-30.36,11.86-17.65,11.86-17.65"/><polygon class="cls-7" points="178.38 132 179.86 133.46 182.86 140.51 183.85 148.13 177.01 153.17 166.9 131.89 178.38 132"/><path class="cls-1" d="M186.44,157.9l-12-4.15,17.49-32.62a4.41,4.41,0,0,1,3-1.9l22-3.88s1.1-.2,1.44.52.52,1.1.52,1.1a2.38,2.38,0,0,1-.24,2.37l-8.34,14.44L208,148.17Z"/><path class="cls-2" d="M190.68,123.45l1.23-2.32a4.41,4.41,0,0,1,3-1.9l1.61-.29,4.59,4.59-5.15,5.16Z"/><path class="cls-4" d="M186.44,157.9l-9-3.1,16.8-31.34a4.41,4.41,0,0,1,2.95-1.9L219,117.71a2.87,2.87,0,0,1-.44,1.63l-8.34,14.44L208,148.17Z"/><path class="cls-7" d="M120.23,101.54,120,98.82l3.28-1.88s11.08,6.83,12.81,6.58,3.3-.64,3.3-.64l2.89.4s2.22,3.71.49,5.93-4.2,2.48-7.42,2-8.42-3.47-15.1-9.66"/><path class="cls-5" d="M212.53,144.84s-7.68,2-9.65,2.73a9.43,9.43,0,0,1-2.73.74s3.22-7.92,4-8.42a28.72,28.72,0,0,1,3.47-1.48l2.67-4.63s2.77,1.17,3.51,3.15-1.23,7.91-1.23,7.91"/><path class="cls-8" d="M175.41,179.48l-21.28,17.33s38.11-6.44,39.1-5.94c.66.33,6.21,22.42,9.8,37,1.77,7.18,3.07,12.52,3.07,12.52,5.42,3,12.39,1.83,17.31,0V170.58s-15.83-9.4-20.78-7.42-27.22,16.32-27.22,16.32"/><path class="cls-9" d="M149.05,74.74a12.71,12.71,0,0,0,8.84-4.6c3.64-4.48,2.55-8.72-1-11.63s-9.45-.6-12.84-1S130.77,53.07,124,59c-7.37,6.45-7.73,26.17-.42,34.06s25.48-18.32,25.48-18.32"/><polygon class="cls-7" points="131.8 85.95 122.54 80.84 124.89 83.88 120.62 99.81 137.57 109.59 144.29 84.52 131.8 85.95"/><path class="cls-5" d="M127.14,77.07c-6.16-10.64-10.76,8.8-1.73,9.17,0,0,.11,7,1.39,8.47s7.65,6.15,12.3,7,7.19-1.39,8.82-7.66c.07-.28.14-.6.22-.93h0c.41-1.8.85-4.26,1.28-6.89h0c.34-2,2.31-5.49,2.55-6.66.15-.81,0-5.07-.13-7.68a26.62,26.62,0,0,1-4.94-.46c-7.66-1.41-11.47-3.49-11.47-3.49s-1.45,4.2-2.26,5.83-2.09,3.48-2.32,5.33-.69,4.07-.69,4.07l-3.26-2.33Z"/><path class="cls-7" d="M144.27,95.9s-4.91,1.26-7.13-4.41l1.41-.56c1.74,4.42,5.37,3.49,5.37,3.49Z"/><path class="cls-6" d="M112.07,151.77h-8.41L91.78,131c-2.22-3.87-2-10.39,4-17.32S120,98.82,120,98.82s4.46,6.43,11.39,7.92a11.25,11.25,0,0,0,10.89-3.46s16.82,2.47,24.24,8.9,13.36,21.28,13.36,21.28l-34.14,7.92-18.31,15.34Z"/><path class="cls-2" d="M116.85,118.32s5,11.9,7,17.88l-1.45.46c-1.9-5.92-6.89-17.71-6.9-17.75Z"/><path class="cls-9" d="M130.37,167.61s79.18-24.74,81.67-24.74,10.39.49,16.82,9.4c2.93,4,8.73,13.55,14.18,22.69,6.53,10.93,12.54,21.35,12.54,21.35-1.74,5.63-4.41,8.58-12.86,11.38l-35.14-33.15s-15.62,8.4-30.23,15.9c-10.47,5.37-20.41,10.28-23.71,11.32-7.92,2.47-14.85,2-21.78-6.44S120,168.1,120,168.1Z"/><path class="cls-2" d="M166.4,139.65h7.18l2.3-19.05H178v-2H175.7l-.88-2.48H158l-.88,2.48h-2.34v2h2.15l2.3,19.05Z"/><path class="cls-10" d="M167.22,134.59c3,0,5.41-2.73,5.41-6.07s-2.43-6.06-5.41-6.06-5.41,2.72-5.41,6.06,2.43,6.07,5.41,6.07"/><path class="cls-5" d="M156.5,144.84c-1.36.61-26.62,31.18-31.57,32.17a8.15,8.15,0,0,1-8.91-3.46c-1.48-2-12.36-21.78-12.36-21.78s3.46-5.44,7.91-8.41,11.88-5,11.88-5l4.21,8.66,19.55-11.63a26.15,26.15,0,0,1,4.68-6.73,8.54,8.54,0,0,1,5.76-2.22l.31,2.61s8,.4,11.51-.09a15.29,15.29,0,0,0,5.62-1.88,4.29,4.29,0,0,1,1.27,4.39,19.48,19.48,0,0,0-1,3.43c-1.44,7.86-6.08,7.17-14.06,9.06-2.16.51-3.5.23-4.85.83"/><polygon class="cls-6" points="222.03 189.22 207.45 175.47 179.77 190.05 179.06 188.7 207.22 173.86 207.71 173.61 208.1 173.98 223.07 188.11 222.03 189.22"/><polygon class="cls-7" points="127.85 147.33 120.23 151.86 119.46 150.55 127.08 146.02 127.85 147.33"/><path class="cls-7" d="M154.32,129a17,17,0,0,1,3.52-.74l.13.94a15.45,15.45,0,0,0-3.28.68Z"/><rect class="cls-11" x="159.43" y="120.49" width="16.03" height="0.76"/><path class="cls-12" d="M204.06,129c1.49,0,2,1.2,1.14,2.68a5.59,5.59,0,0,1-4.24,2.68c-1.48,0-2-1.2-1.13-2.68a5.56,5.56,0,0,1,4.23-2.68"/><path class="cls-7" d="M209,136l-1.37,2.39,2.08-.78,2.26-.84-2.12-.1s-.32-.28-.85-.67"/><polygon class="cls-2" points="188.01 128.41 182.27 139.12 181.12 141.26 183.24 143.38 183.44 143.6 190.34 130.74 188.01 128.41"/><path class="cls-8" d="M208.1,246.63v13.11h37.19s1-5.37-1.8-6.4l-18.4-6.79v-2.72s-.16-1-.92-1H221s-1.1,0-1.1.88v2.92c-3.28,2-7.41,1.42-11.82,0"/><path class="cls-8" d="M249.19,211.26,255.57,223l32.21-18.58s-1.86-5.15-4.76-4.65l-19.33,3.32-1.35-2.36s-.64-.79-1.3-.41l-2.74,1.58s-.95.53-.5,1.31,1.45,2.53,1.45,2.53c-2.3,2.74-5,4.68-10.06,5.53"/><rect class="cls-3" x="124.85" y="190.87" width="66.94" height="19.09"/></g></g></svg>