<svg xmlns="http://www.w3.org/2000/svg" viewBox="0 0 350.56 336.12"><defs><style>.cls-1{fill:#e3e0ff;}.cls-1,.cls-10,.cls-12,.cls-13,.cls-2,.cls-3,.cls-4,.cls-5,.cls-6,.cls-7,.cls-8,.cls-9{fill-rule:evenodd;}.cls-2{fill:#fff;}.cls-3{fill:#cfc7ff;}.cls-4{fill:#993dff;}.cls-5{fill:#5712a6;}.cls-6{fill:#7d21e8;}.cls-7{fill:#b06bff;}.cls-8{fill:#e3e3fa;}.cls-9{fill:#ed87ab;}.cls-10{fill:#ffabcc;}.cls-11,.cls-12{fill:#3d94ff;}.cls-13{fill:#2678fa;}</style></defs><title>Ativo 5</title><g id="Camada_2" data-name="Camada 2"><g id="Layer_1" data-name="Layer 1"><path class="cls-1" d="M235.43,230.25c63.41,0,115.13-51.71,115.13-115.12S298.84,0,235.43,0,120.3,51.72,120.3,115.13,172,230.25,235.43,230.25"/><path class="cls-1" d="M113.85,321.27c61.44,0,111.55-50.11,111.55-111.55S175.29,98.17,113.85,98.17,2.3,148.28,2.3,209.72,52.41,321.27,113.85,321.27"/><path class="cls-1" d="M265.34,336.12a85.22,85.22,0,1,0-85.21-85.22,85.39,85.39,0,0,0,85.21,85.22"/><path class="cls-1" d="M182.86,317.6a4.08,4.08,0,1,0-4.07-4.08,4.08,4.08,0,0,0,4.07,4.08"/><polygon class="cls-1" points="52.34 318.75 52.34 313.2 52.34 307.66 47.53 310.43 42.74 313.2 47.53 315.98 52.34 318.75"/><polygon class="cls-2" points="210.81 52.11 210.81 46.56 210.81 41.02 206 43.79 201.2 46.56 206 49.34 210.81 52.11"/><path class="cls-1" d="M24.75,90.1A4.08,4.08,0,1,0,20.68,86a4.07,4.07,0,0,0,4.07,4.07"/><polygon class="cls-1" points="83.94 63.3 83.94 57.76 83.94 52.21 79.13 54.98 74.33 57.76 79.13 60.53 83.94 63.3"/><polygon class="cls-2" points="228.35 144.06 228.35 138.51 228.35 132.96 223.55 135.74 218.74 138.51 223.55 141.29 228.35 144.06"/><path class="cls-3" d="M237.32,196.43s-4.16-11.32-10.66-13-8.5,2-13.11-2.31-5.19-7.34-11.53-6.62-7.63-1-10.37-7.64-10.22-14.55-18.44-13.1-11.23-1.45-13.11-4.9-7.23-13.14-15.25-12.56S134,139.52,131.14,146c-6.19,13.95-17.38-5-28.09,25.65S64.52,167,64.52,167L48.06,206.5h191Z"/><path class="cls-3" d="M183.62,138.17V94.78h23.59V139.9H186.62Zm-47.84-18H115.85V106.69h19.93Zm5.67,0V65.75h35V134l-24-13.84Z"/><path class="cls-3" d="M12.72,208.8a2.31,2.31,0,0,1,0-4.61H245a2.31,2.31,0,0,1,0,4.61Z"/><path class="cls-4" d="M91.21,135.35l-.87-5.2h33.89s14.58.47,26.65,4.62,39.67,19.89,39.67,19.89A151.87,151.87,0,0,1,212,161c10.81,4.15,13.06,6.94,13.06,6.94l-13.36,15.51s-78.39-8.88-86.31-16-34.2-32-34.2-32"/><path class="cls-5" d="M136.39,155.34l53.2,1.26s-21.32-13-36.49-18.54-48.46-4.25-48.46-4.25Z"/><path class="cls-5" d="M194.41,204.29l-6-2.52h-157L97.82,151.9s59.35,5,66.79,15.79,29.8,36.6,29.8,36.6"/><path class="cls-5" d="M82.74,173.38c-.27,0-.55,0-.83,0-7.55,0-13.71,8-13.71,17.84S74.36,209,81.91,209H89c7.57,0,13.7-8,13.7-17.84,0-9.48-5.68-17.23-12.85-17.8h0l-.84,0-.84,0Z"/><path class="cls-5" d="M195.93,173.38c-.28,0-.55,0-.83,0-7.55,0-13.7,8-13.7,17.84S187.55,209,195.1,209h7.08c7.57,0,13.7-8,13.7-17.84,0-9.48-5.68-17.23-12.85-17.8h0c-.27,0-.55,0-.83,0s-.56,0-.83,0Z"/><polygon class="cls-5" points="9.89 182.99 9.89 198.99 48.25 198.99 48.25 168.8 16.5 168.8 9.89 182.99"/><path class="cls-5" d="M149.58,173.35c.29,0,.56,0,.84,0h0c7.16.57,12.84,8.32,12.84,17.8,0,9.86-6.13,17.84-13.7,17.84H142.5l-3.12-5.94h0a22,22,0,0,1-.06-23.71h0l3.18-6h6.25c.27,0,.55,0,.83,0"/><path class="cls-6" d="M142.5,209c7.54,0,13.7-8,13.7-17.84s-6.16-17.84-13.7-17.84-13.7,8-13.7,17.84S135,209,142.5,209"/><path class="cls-1" d="M141.76,203.74c5.3,0,9.63-5.64,9.63-12.55s-4.33-12.55-9.63-12.55-9.64,5.64-9.64,12.55,4.33,12.55,9.64,12.55"/><path class="cls-5" d="M35.47,173.35c.28,0,.55,0,.83,0h0c7.17.57,12.85,8.32,12.85,17.8,0,9.86-6.13,17.84-13.7,17.84H28.39l-3.13-5.94a22,22,0,0,1-.06-23.71h0l3.19-6h6.24l.84,0"/><path class="cls-6" d="M28.39,209c7.54,0,13.69-8,13.69-17.84s-6.15-17.84-13.69-17.84-13.7,8-13.7,17.84S20.84,209,28.39,209"/><path class="cls-1" d="M27.64,203.74c5.3,0,9.63-5.64,9.63-12.55s-4.33-12.55-9.63-12.55S18,184.28,18,191.19s4.32,12.55,9.63,12.55"/><path class="cls-7" d="M47.79,199h78.93c-6.08-20.76,12.86-38.64,26.14-25.12,6,6.08,8,16.33,5.42,25.12h42.29c2.57-1.34,5-2.71,5.36-2.88,1.23-.53.8-4.58.8-6.3,0-2.66-1.28-4.52-3.48-6.72-4.94-5,4.2-9.14-9.26-15.87-8.11-4.06-36.5-10.08-48.78-13.32S114.4,129.22,84.5,130s-47.61,11.12-58,16.1-18.54,5.5-19.93,6.2-.11,3.88-2.36,6.67-2.09,5-2.09,5v16.34c0,4.87-3.08,7.76-1.74,12.57S7.9,199,7.9,199h4.7c-6-21.38,13.1-38.4,26.15-25.12,6,6.08,8,16.33,5.41,25.12Z"/><path class="cls-2" d="M194,168.21l-41.18-7s7.53,6.14,16.39,7.59,27.75,3,27.75,3Z"/><path class="cls-4" d="M191.23,199l10.57-6.1a2.73,2.73,0,0,0,.85-3.37c-.93-2.14-12.11-13.14-13.44-13.38s-11.12-.17-11.12-.17,5.79,11.64,5.5,12.8-2.55,3.48-4.28,4.64-10.72.81-10.72.81l7.42-19s.36-2.48,4.7-2.48,19.33.57,19.33.57l-4.47-5.26c-4.08-4.79,28.07-5.51,30.07.8l1.42,4.46s2.32,2.37,2.32,4.51-.25,12.75.09,13.73,1.68,3.07,1.33,4.23c-.23.77-3,2.28-5.43,3.21Z"/><path class="cls-5" d="M229.34,181.22l.13,10.33c.36,1,1.51,2.78,1.37,4H197.17c7.09-4.11,9-3.64-1.82-14.17-4.7-4.59-5.24-5.27-7.48-5.35-.07,0,7.15-.08.1-.08,10.2,0,8.38-.87,15.44,6.44,6.25,6.49,4.62,6.05,15,6.05,5.09,0,5.95-2,9.82-6.05Z"/><path class="cls-5" d="M37.2,159.77h6.74A1.07,1.07,0,0,1,45,160.84h0a1.07,1.07,0,0,1-1.07,1.07H37.2a1.07,1.07,0,0,1-1.07-1.07h0a1.07,1.07,0,0,1,1.07-1.07"/><path class="cls-5" d="M76.31,159.77H83a1.08,1.08,0,0,1,1.08,1.07h0A1.08,1.08,0,0,1,83,161.92H76.31a1.07,1.07,0,0,1-1.08-1.07h0a1.07,1.07,0,0,1,1.08-1.07"/><path class="cls-5" d="M81,134.14c-2.28,7.73-2.48,14.91-2.66,21.47l46.87,2.14a9.34,9.34,0,0,0,1.45-5.12c.15-3.48-12.65-12.62-22.64-16.44s-23-2.05-23-2.05"/><path class="cls-7" d="M116,151.37s-2.71-3.91-5.46-4.7-6.85-.95-7.92-.49c-5,2.15-2.73,8.43,2.76,8.43h9.17c.43,1.6.14,1.81,1.91,1.81,3,0,4.75.38,5.07-.7.17-.58-1.82-4.11-2.08-4.23s-3.45-.12-3.45-.12"/><path class="cls-5" d="M46.24,154.15a73.84,73.84,0,0,1,4.14-14.55,87.8,87.8,0,0,0-8.41,3c-3.6,1.53-7.74,11-7.74,11Z"/><path class="cls-5" d="M52.74,138.86a74.35,74.35,0,0,0-4.47,15.37l22.58,1C71.34,150,73.7,139.4,76,134.48a109.28,109.28,0,0,0-23.27,4.38"/><path class="cls-5" d="M4.77,158.09c5.74-.15,11.42-1.53,15.9-5.11l-14.14-.65c-1.24.62-.35,3.23-1.76,5.76"/><path class="cls-5" d="M182.27,184.9c-.77-1.8-1.76-3.91-2.58-5.63-.9-1.89-1.6-3.3-1.6-3.3l-1.23-2.12a2.48,2.48,0,0,0-.85,1.37l0,.09,1,3.56,1.87,7,.12.46s1.13,2.68-2.06,4.22-8.26,3.71-8.26,3.71,9,.34,10.72-.81a16.34,16.34,0,0,0,2.09-1.72,17.44,17.44,0,0,0,1.2-1.28,4.88,4.88,0,0,0,1-1.64,13,13,0,0,0-1.32-3.87"/><path class="cls-5" d="M195.57,168.05l4.47,5.26h27L225.7,169c-1.27,1.76-6.5,1.88-10.15,2.05-8.81.4-20-3-20-3"/><path class="cls-5" d="M216.55,176.07c1.21,0,2.2,1.41,2.2,3.15s-1,3.16-2.2,3.16-2.2-1.41-2.2-3.16,1-3.15,2.2-3.15"/><polygon class="cls-8" points="49.85 122.41 45.05 119.63 40.24 116.86 40.24 122.41 40.24 127.95 45.05 125.18 49.85 122.41"/><polygon class="cls-2" points="71.48 172.75 71.48 167.2 71.48 161.65 66.69 164.43 61.88 167.2 66.69 169.97 71.48 172.75"/><path class="cls-5" d="M61.44,109.75,59.62,111s-.71-3.47-1.61-6.29-.87-6.06-.31-7.22a2.22,2.22,0,0,1,1.67-1.25,5.36,5.36,0,0,1,4.28-2.63c3-.15,6.56.1,8.63-.7s4.13,1.31,2.93,4.58-5.81,2.78-5.81,2.78-1.1,7.77-8,9.44"/><path class="cls-9" d="M69.88,115.39l-2.15-2-1.3-.6,1.15-3.53-5-3.48-1.21,0L59.3,112l-1.42.24-.28,2.93S68,119.5,69.5,118.92s.38-3.53.38-3.53"/><polygon class="cls-10" points="78.97 226.27 72.78 227.28 72.95 234.14 82.09 235.15 83.24 227.86 78.97 226.27"/><path class="cls-5" d="M80.72,234.14H72.41l-.5,5.65H91.84s-.61-3-2-3.93c-1.06-.72-5.06-1-7-1.73l.39-2h-.71c-1.29,0-1.65,1.65-1.72,2"/><polygon class="cls-10" points="51.27 226.27 45.01 227.28 44.68 234.14 54 234.14 55.97 225.47 51.27 226.27"/><path class="cls-5" d="M42.68,159s3.15,28.91,3,33.06S44.05,206.86,44,215.9c0,4.63-.07,10.25-.14,14.64H55.67c2.81-12.78,8.07-36.85,8.26-39.71.26-3.9,1.13-13,1.13-13s2.32,10.46,2.79,12.39-.07,7.8.5,10.25c.5,2.17,2.84,20.32,4,30.09h11.2c.27-13,1.52-40.61,1.22-41.73s-5.82-30-5.82-30Z"/><path class="cls-5" d="M52.58,233.58l-.14.56H44.12l-.91,5.65H63.14s-.39-3-1.76-3.93c-1-.72-5-1-6.9-1.73l.55-2.06h-.86c-1,0-1.4.89-1.59,1.51"/><path class="cls-10" d="M62.56,102.61s-.5-1.37-1.46-1.32-1.76,1.72-1.35,3.33,1.35,2.12,1.76,2.12a1.72,1.72,0,0,0,.7-.15,7.48,7.48,0,0,0,1.37,3.78c1.16,1.27,4.33,2.37,5.69,2s1.57-3.78,1.82-6a71.65,71.65,0,0,0-.1-7.92l-3.28.15a5.16,5.16,0,0,1-1.06,2.37c-.71.56-1.31.61-1.66,1.46a20.51,20.51,0,0,0-.66,3.43l-1.51-1.11Z"/><path class="cls-10" d="M108.12,86.49a12.29,12.29,0,0,1-.06,3.88s0,0,0,0L107.19,93h0c-.22.49-6.49,14.38-8.23,16.76s-12.8,4.64-12.8,4.64,2.21,4,2.43,7.28a18.24,18.24,0,0,1-.22,5.08s13-5.74,16.11-8.39S114.23,96,114.23,96c2.19-.89,3-3.2,3.37-4.5a13.89,13.89,0,0,1,1.23-2.62l.29-.38c.63-.88,1.21-1.52,1.61-2a2.26,2.26,0,0,0,.55-1c0-.66-.68-.28-1.21.16-.19.15-.52.49-.89.87a9.45,9.45,0,0,1-1.91,1.7.24.24,0,0,1-.08-.19c0-.06.38-.71.85-1.51a31.05,31.05,0,0,0,1.61-3c.42-1.09-.06-1.37-.53-1a44.14,44.14,0,0,0-2.87,4,.49.49,0,0,0-.08.12c-.25.3-.68.32-.61-.12a.3.3,0,0,0,0-.1c.17-.55,1.9-4.92,1.9-5.69s-.21-1.2-.79-.82-2.64,5.32-2.9,5.7-.8.6-.75.16,1.17-5,1.22-5.36-.26-.93-.79-.44-1.53,3.71-2.1,5.24a8.53,8.53,0,0,1-.63,1.31c-.35.56-.65.74-.75.5l-.22-.5c-.2-.45-.48-1-.62-1.42-.21-.54-.79-1-1,.11a6.88,6.88,0,0,0,0,1.31"/><path class="cls-9" d="M111.5,92.84s.91-3.27-1.27-5.23l.48-.54c2.53,2.26,1.49,6,1.49,6Z"/><path class="cls-5" d="M67.73,113.44h0c.27,0,8.94,1.56,10.34,1.85s10.6-2.23,10.6-2.23S91.1,115,92,120.15s.14,7,.14,7-12.16,5-12.73,5.43-2.82,9.14-2,15.88l.14.9v.1l0,.3c1.07,7.12,2.78,14.19,2.78,14.19s-9.49,5.47-20.39,5.57-16.8-3-16.8-3A233.47,233.47,0,0,1,41.07,143c0-.91,0-1.79,0-2.65l-.59.12-5.23-6.54s4.08-15.69,6.91-17.72,15.75-4,15.75-4,.3,2.62,4.63,3.52,5.22-2.29,5.22-2.29"/><path class="cls-10" d="M33.27,144.21l1.95-10.28,12.58,3.29-3.22,11c-.39.68,1.79,19.71,1.79,19.71a13.36,13.36,0,0,1,2.78,2.24,62,62,0,0,1,4.08,4.88s-5.61,2-8.5-.94A14.82,14.82,0,0,1,41,168s-9.62-17.31-7.73-23.81"/><path class="cls-10" d="M69.1,101.65l-1.39-3.13a23.11,23.11,0,0,1,4.22-.25,14.83,14.83,0,0,1,1.87.21,62.25,62.25,0,0,1,0,7.51c-.3,2.72-1.74,6.06-4.53,6.35a8.23,8.23,0,0,1-5.17-1.5Z"/><path class="cls-5" d="M72.93,107.42a2.9,2.9,0,0,0-1.14-1.14,3.79,3.79,0,0,0-4.73,2c-.5,1.07-3.34.48-2.66-3l.95-4.82-2.42,1.15a55.77,55.77,0,0,0-.47,6.42c0,2.45,2,3.66,3.32,4.3a7.39,7.39,0,0,0,4.65.36c2.09-.54,3.63-3.74,3.23-5.77Z"/><path class="cls-5" d="M67.77,109.15l-.24-1.64-1,.87L64,105.21a2.45,2.45,0,0,0-.22,2.91c1,1.56,4,1,4,1"/><path class="cls-5" d="M74.48,96.8l-.64,2.52s2.15-.62,2.74-4c.91-5.21-6.16-5.79-7.07-2.64-1.61-2.07-6.29-1.8-6.82.67a2.65,2.65,0,0,0-3.32,3c.18,2,15.11.52,15.11.52"/><rect class="cls-11" x="45.4" y="131.39" width="9.85" height="0.73" transform="translate(-90.24 143.19) rotate(-73.74)"/><path class="cls-12" d="M78,121.93c.21,1.11.42,2.5.56,4a28.57,28.57,0,0,1,.07,4.53l-.74-.06a26,26,0,0,0-.07-4.41c-.13-1.45-.34-2.82-.54-3.91Z"/><polygon class="cls-8" points="293.62 100.53 293.62 94.98 293.62 89.44 288.81 92.21 284.01 94.98 288.81 97.76 293.62 100.53"/><path class="cls-2" d="M315.57,187.81h0a4.5,4.5,0,1,1,4.5-4.5,4.5,4.5,0,0,1-4.5,4.5m-6.82-7.88A2.23,2.23,0,1,1,311,177.7,2.23,2.23,0,0,1,308.75,179.93Z"/><polygon class="cls-2" points="280.52 176.4 280.52 170.86 280.52 165.31 275.71 168.08 270.91 170.86 275.71 173.63 280.52 176.4"/><path class="cls-13" d="M253.14,161l39.5-24.12c41,9.34,42,50.49,42.37,93.63.19,20.13,2.58,55.14,2.58,58.83s-33.93,17.7-67.86,16.23c-18.63-.81-32.27-7.38-39.72-14.2-2.93-2.69-.68-49.22-.93-58.27-.55-20.1,24.06-72.1,24.06-72.1"/><path class="cls-10" d="M216.31,202.86s-11.3,15.71-14.08,14.85c-1.22-.38-3.64-4.4-6.8-10.17-3.51-5.86-22.82-39.91-23-44.27-.2-5.32,3.43-12.11,3.66-15.72s-1.89-2.58-2.94-1.1-2.51,3.18-3.28,4.21-2.18-1.42-2.77-6.48-1.9-14.61-3.11-16.5-2.59-.47-2.73.72-.13,15.76-.34,17.12-1.63.3-2.14-1.06-3-17.79-4.46-19.38-2.43-.44-3,1.87,1.36,16.83,1.42,18.6-1.37,1.41-1.91.22-4.58-13.43-5.77-14.78-2.82-.88-2.38,2.74,4.09,15,4,15.45a.72.72,0,0,1-.39.52c-1.47-.89-5.23-8.15-6.5-9.86s-3.19-3.44-3.53-1.42,1.91,5.21,4.21,10.87c.19.48.39.94.59,1.38a43.45,43.45,0,0,1,1.71,8.82c.26,4.25,4.63,11.67,10.58,16,8.89,29.91,16.37,73.18,31,88.64,15.23,16.12,36.58,5.8,53.57-14s20.25-32.94,20.25-32.94Z"/><path class="cls-5" d="M178.61,177.14c-1.25-2.4-2.39-4.67-3.34-6.65-4.14.46-9.11,1.3-12.42,2.81a51.68,51.68,0,0,0-9.13,3.42c.7,2.39,1.39,4.87,2.08,7.41,2.32-.86,13.1-4.82,19-6.22,1.36-.33,2.62-.58,3.77-.77"/><path class="cls-10" d="M292.44,130.29l6.94,8.52c-7.37,2.58-34.06,20.14-36.86,13.05l-9.2-23.35,11-17.11Z"/><path class="cls-5" d="M242.6,88.59S235,87,232.23,81s-.17-17.66,9.76-18,11.24,2.73,18.79,1,17.87-4.63,25.48.52c28.92,19.6,6.18,65.86,6.18,65.86l-15,1.6-12-16.95-11,8.35S243,116.43,242.6,88.59"/><path class="cls-10" d="M268.8,134.79s-12.25,10.13-18,4.37-7.09-16.56-7.09-16.56a5.78,5.78,0,0,1-3.84-2c-1.73-2,2-8.78.77-13.34s.05-18.69.28-20.79,4.62-.76,4.62-.76-.62,8.7.79,11.42,4.21,3.69,4.91,4.57,3.26,16.69,3.26,16.69L258,114l-1.58-11.86s-.09-5,3.69-6,8.25,4.66,8,10.55-2.63,8.25-2.63,8.25l2.32,14Z"/><path class="cls-13" d="M296.66,136.64s-14.69-.21-28.29,4.57-33.8,17.85-41.76,30.79-25.31,44-25.31,44a57.31,57.31,0,0,0,19.35,20.64,55,55,0,0,0,27.64,8.49Z"/><path class="cls-9" d="M203.29,237.61s-3.86-10.29-1.95-18.54l1.43.32c-1.81,7.83,1.89,17.68,1.9,17.71Z"/><polygon class="cls-2" points="265.34 218.38 247.01 244.35 245.81 243.51 264.14 217.54 265.34 218.38"/><path class="cls-13" d="M298,143.28l9-.85s-2.2-2.11-4.23-4-2.91-3-3.84-3.73-13.15-.51-22.9,1.52-19.09,10.12-19.09,10.12Z"/><path class="cls-5" d="M168.6,182.42a7.28,7.28,0,1,0-7.28-7.28,7.29,7.29,0,0,0,7.28,7.28"/><path class="cls-5" d="M269.73,305.55c-18.63-.81-32.27-7.38-39.72-14.2a3.62,3.62,0,0,1-.67-1.73s-2,11.39-4.52,18.11c-1.29,3.48-3.77,9.59-5.86,14.68A85.25,85.25,0,0,0,335.9,298.69a84.46,84.46,0,0,0,1.68-9.23c-.85,3.9-34.35,17.54-67.85,16.09"/></g></g></svg>