<svg xmlns="http://www.w3.org/2000/svg" viewBox="0 0 332.5 357.22"><defs><style>.cls-1{fill:#e3e0ff;}.cls-1,.cls-12,.cls-13,.cls-14,.cls-2,.cls-3,.cls-4,.cls-5,.cls-6,.cls-7,.cls-8,.cls-9{fill-rule:evenodd;}.cls-2{fill:#fff;}.cls-3{fill:#cfc7ff;}.cls-4{fill:#2678fa;}.cls-5{fill:#78e3cc;}.cls-6{fill:#ffabcc;}.cls-10,.cls-7{fill:#ed87ab;}.cls-8{fill:#5712a6;}.cls-11,.cls-9{fill:#7d21e8;}.cls-12{fill:#26e0fa;}.cls-13{fill:#ed29a1;}.cls-14{fill:#ff737d;}</style></defs><title>Ativo 3</title><g id="Camada_2" data-name="Camada 2"><g id="Layer_1" data-name="Layer 1"><path class="cls-1" d="M164.36,340.55a92.61,92.61,0,1,0-92.61-92.61,92.79,92.79,0,0,0,92.61,92.61"/><path class="cls-1" d="M121.23,249.17c66.76,0,121.22-54.45,121.22-121.22S188,6.72,121.23,6.72,0,61.17,0,128,54.46,249.17,121.23,249.17"/><path class="cls-1" d="M239.89,223.12a92.61,92.61,0,1,0-92.6-92.61,92.79,92.79,0,0,0,92.6,92.61"/><path class="cls-2" d="M54.62,76.4h0a4.89,4.89,0,1,1-4.88,4.89,4.89,4.89,0,0,1,4.88-4.89M62,85a2.43,2.43,0,1,1-2.42,2.43A2.43,2.43,0,0,1,62,85Z"/><polygon class="cls-1" points="245.31 7.7 238.65 11.54 231.98 15.39 231.98 7.7 231.98 0 238.65 3.85 245.31 7.7"/><polygon class="cls-1" points="289.23 230.82 289.23 241.15 289.23 251.47 280.29 246.31 271.34 241.15 280.29 235.99 289.23 230.82"/><path class="cls-2" d="M308.25,150.24h0a4.89,4.89,0,1,0,4.89,4.89,4.89,4.89,0,0,0-4.89-4.89m-7.4,8.55a2.43,2.43,0,1,0,2.43,2.43A2.42,2.42,0,0,0,300.85,158.79Z"/><path class="cls-1" d="M54,9.13a4.43,4.43,0,1,0-4.42-4.42A4.43,4.43,0,0,0,54,9.13"/><polygon class="cls-1" points="47.64 245.97 39.62 250.6 31.61 255.23 31.61 245.97 31.61 236.72 39.62 241.35 47.64 245.97"/><polygon class="cls-2" points="270.17 162.63 270.17 168.66 270.17 174.69 264.94 171.68 259.73 168.66 264.94 165.65 270.17 162.63"/><polygon class="cls-2" points="43 166.6 43 172.63 43 178.66 37.78 175.65 32.56 172.63 37.78 169.62 43 166.6"/><path class="cls-3" d="M106.72,133.35h0V178.6a156.31,156.31,0,0,0-10.08-14.33s3.14-10.41,8.11-23.17a38.36,38.36,0,0,0,2-7.75M59.12,275l4.49,23.66c-3.21,5.27-6.11,9.93-8,13l8-13a13.84,13.84,0,0,0-1.36,10.74l.17.15c9.88,8.73,17.83,23,17.83,23S95.6,342.45,109.08,320l18.07,12.79c2.27,1,4.59,1.9,6.95,2.72l10.68-17.86,3.52-2.13c19.15-11.61,49.1-29.91,64.35-40h.59a19.21,19.21,0,0,0,19.16-19.15v-3c6-2,11.44-4,12-4.94,1.22-2,11.28-15.32,12.12-17.95s.83-5.6-5.7-11.87a41.51,41.51,0,0,0,4.65-3,9.73,9.73,0,0,0,2.86-10.07c-1.45-4.49-4.31-9.6-4.83-11.21s-5.7-3.69-10.12-.48l-2.06,1.26c4.91-6.56,11.4-16.49,12.14-18.46a10.69,10.69,0,0,0-2.26-11.3c-3.68-3.68-9.05-7.26-10.37-8.58-1.08-1.08-5.38-.9-8.41,2.16v-8.35c1-.46,3-1.3,5.28-2.36A58.64,58.64,0,0,0,287.85,43.49h0a58.44,58.44,0,0,0-44-8.67,59.29,59.29,0,0,0-11.56,3.57,19.22,19.22,0,0,0-19-17.06H125.88a19.21,19.21,0,0,0-19.16,19.16v74.42c-1.35-7.73-4.67-13.15-10.41-10.61,0,0-22.62,29.9-27.47,38.4S64,162.12,64,179.11v68S65.19,261.65,59.12,275Z"/><path class="cls-4" d="M240,28a58.64,58.64,0,1,1-46,69,58.63,58.63,0,0,1,46-69"/><path class="cls-5" d="M247,83.06h0m.06-.22a11.21,11.21,0,0,0,0,1.48l2.45.63c.52-.58.31.74.56-1.24m41.79,34.79c.57-.88.4-.6,1.69-.84s4.42-.62,4.66-2c-3.21.92-3.36,2.9-7.73,1-5.59-2.5-7.45-.35-8.48-.28-.95-.91-.28-.41-.8-1.33l-2-.06.89,2.2s.06.15.1.22a15.08,15.08,0,0,1,4.62.61l-1.62,1.94c4.05,1.26,3.16.49,5-.5,2.33-1.24,2.51.52,5.18.68C292.78,119.46,292.11,119.5,291.87,118.51Zm-6.14-36.26c-5.61,3.34-2.43,1.46-4.76,1.94-2.17.45-3.28,3.35-.51,4.66,1.14-2.56.6-1.74,3.05-2.51L287.24,85c-.25-3.76,1-5.49-1.74-6.14C285.77,80.29,286.09,80.53,285.73,82.25ZM273,104.16c-.1,1.27-.62.63-.6,2.16,0,1.09.52-.27-.63,1.7a7.37,7.37,0,0,1,2.57,2c1-1.58,1.89-1.59,1.3-3.82a3.25,3.25,0,0,0-.25-.73l-1-1.57c-.56-.94-.53-.68-1.41-1.22-1.67-1-.67-1.39-1.27-2.77-2.08.09-1.7,2.43-1.42,3.11C271.12,105,271.67,103.76,273,104.16Zm-66.5,9.51c0,2.49-.55,2.67.74,4.21.79.94,1.21,1.82,2.82,2.09.36-2.41.54-6.26-.54-8.15-.91.6-.68.93-1.23,1.37s-.25.21-.93.38Zm60.37-32.24c1.57-1.73,2.35-.62,2.17,1.62-2.26,0-3.9-.64-4.18,2.28-.74.8.76.9-1.1.59-.14-.32-.12,0-.23-.8l.08-1.9c.15-.94.41-1.93.63-2.86,2.33.82.36-.5,1.37,1.74Zm-.21,4.2c0-.06-.62.33-.07-1,.37-.89,1.4-.8,2.19-.63C268.54,85.5,267.88,86.2,266.66,85.63ZM269,114.9c1.07-1.25,3.36-.38,5.16-1-.07-.09.56-.9-2.81-.78a14.76,14.76,0,0,0-2.77.43l-1.08,4.94c.66-.12,1-.24,1.83-.36,2.11-.31,1.83.21,2.07-2.78Zm16.43-39.64-.76,2.09c2.64.51,3.13,1.14,4-1.34a7.31,7.31,0,0,0-4.23-2.34ZM217,39c1.76-.35,3.8-2.43,4.91-3.64C219.14,37.2,218,36.87,217,39Zm53.73,57.34c1.26.22,1.54-1.81,1.54-1.9-.09-1.35-.12-.5-.74-.83A2.21,2.21,0,0,0,270.77,96.36Zm0,25.77a14.3,14.3,0,0,1,2.79-.59s-.36-1.09-1.81-.61C271.11,121.15,271.13,121.44,270.79,122.13ZM275.4,115c1.12-.2,1.23-.51,1.73-1.82C275.87,113.42,275.34,113.39,275.4,115Zm1.8,5.84c1.3-.2.62.13,1.31-.77a7.28,7.28,0,0,0-.79-.78C277.25,119.89,277.05,120,277.2,120.82Zm-9.13-13.17c1.16-.31,1.58-.41,1.95-1.79-1.13.44-1.21.75-1.95,1.79a17.77,17.77,0,0,1-4.22,3.4c-1.16.44-1.7.32-2.65,1.07-2.18,1.75-.75.4-2.14,1.17,0,1.2.13.68.68,1.94,1.32,3,3.16,2.6,5.46.56,1.67-1.48,3-3.24,2.69-6C267.75,108.67,267.21,109,268.07,107.65Zm8,9.48a1.34,1.34,0,0,0,2.15-.57C277.29,116.38,277.1,116.61,276.11,117.13Zm-3.38.55a2.61,2.61,0,0,0,2.12-.66l.37-.41A3.26,3.26,0,0,0,272.73,117.68ZM211.91,42.21c.53-.48,1.07-1,1.62-1.42l1.24-.38C213.41,41.21,213.68,41.78,211.91,42.21ZM288.46,131a58.35,58.35,0,0,1-18.6,10.17l-.43-.67c-3.39-.47-3.64.61-5,1.3a14.29,14.29,0,0,1-1.55.62l-3.08,1.11c-1.12.16-2.25.29-3.37.38a24.45,24.45,0,0,1,1.36-8.09c1.49-4.05.8-3.46,4.51-4.67a27,27,0,0,0,3.11-1.19c2-.95.61-.63,3.74-3,.57-.43.63-.67,1.2-1.1,2-1.55,1.13-.17,2.53.25,2.09-1.45,3.59-4.49,8.05-2.68-1.29,1.19-1.17,1.77-.58,3.37,1.84.2,2.49-.5,3.39-1.9a21.13,21.13,0,0,1,2.52-3.45.32.32,0,0,1,0,.23l.14,1.27c.38,1.66.58-.09.72,2.4C287.33,128.23,288.59,129.59,288.46,131ZM301,116.91c-.13.21-.27.42-.41.63-.63,0-.57,0-1.22-.77,1.05-.28.2-.31.89-.11C300.61,116.77,300.85,116.85,301,116.91ZM241.65,27.69a58.68,58.68,0,0,1,6.67-.75c.34.82-.65,2.3-1,3.38a3.1,3.1,0,0,0,1.55-.81l.87,1.11,1.61-.87c1,.58.91.86,2.4,1,.48-.94.34-1.82,1.1-2.25a2.35,2.35,0,0,1,2.28.26c.91.79.2,2.64,2.44,3.74l.17-.52c.56-1.51,1.07-1.61,3.44-2,.12-.85.08-1.49.18-2a58.48,58.48,0,0,1,7.28,2l.3.3a.93.93,0,0,0,.13-.15q2.22.8,4.35,1.75a3.47,3.47,0,0,0,.74.92,3.29,3.29,0,0,0,.75-.23,59.19,59.19,0,0,1,18.86,14.39l.08.36c-1.49-.89-2.69-3.46-4.37-3.19-.78,2.46,3.09,4.65,4.08,6.67-2.07.65-1.39,1.74-1.55,4.15a3.89,3.89,0,0,0-3.14-.74c-.92,2.78,1.13,2.31,2.84,6.44,1.35,3.23.55,4.59,0,8.19-.42-.9-.33-1.8-.78-2.67-1.11-2.2-2.53-2.51-4.06-6.11-1.16-2.72-.39-3.29-.18-6.32.28-4.06-1.17-2.58-2.53-2.26-.45-.92-.56-2.4-2-1.52-1.23,1.17.26,3.05.6,4.48-3.08-.67-3.41-2.52-7.31-1.21-2,.67-2.53,5-1.89,7,.8,1.17,6.55,2.75,6.64,2.8,1.49,5.29,3.65,5.4,2.47,6.69a3.69,3.69,0,0,1-.38.26l1.41,2.14a2.82,2.82,0,0,1,.41.74c-1.78-.38-1.66-.8-2.32-2.2l-1-2.88c-.36.34-1,3.43-1.39,4.48-.5,1.38-1.11,2.71-1.57,4l-2.22-.3a8.86,8.86,0,0,0-2.47,3.48c.86,1.35,2.64,2.6,2.62,4.57-1.39.63-3.19,1-3.66-1.18l-.61-1.9c-.42-1,0-1-.68-1.54-2.45-1.14-.49.2-2.63.31l-.84-2c-2,.24-2,1.48-2.08,1.12,0,0-.09.08-.14.11-.07.84-.12.59.13,1.19,1.25,0,3.89.62,3.27,2.33l-.37,2.28-.17.52c1.28,1.25.23.89,1,2.55s.92,1.29-1.28,4.15c-.93,1.21-.54,1.08-1.1,2.3l-3.61.88-2.82.81,0,2a6.92,6.92,0,0,1-2.26.44,4.16,4.16,0,0,0,.77-2.13,3.33,3.33,0,0,0-3.77.43c-.47,2,.4,2,1.49,3.07s3.74,3,.44,5.11a23.08,23.08,0,0,1-2.78,1.58c.15-2,.17-1.18-1.43-2.34-.87-.63-1.34-1.5-2.8-1.62-1.24,2,.75,4.67,1.54,5.77,2.79,3.88.87,4.13.19,4.77,2.61,2.37,1.73,2.67,2.55,5.77,7.7,2.9,12.06,1.89,14,2.24l-.64.29a8.16,8.16,0,0,0-.84.36c-.72.4-.74.65-1.5,1.1-1.55-.89-.36-1.1-3.05-1.44-5.45-.68-4.82-.08-10.12-3.15-1.93-1.12-2.19-2.91-3.27-5-2.59-5-1.4-2.19-3.48-4.44,2.34-.78,3.45,2.61,5.26,2.46.06-1.43-1.75-3.15-1.77-6,0-2.22.31-2-.28-4-.35-1.15-.32-2-1.35-2.79-1.37.41-1.12.59-2.21,1.24l-1.14-4.23-.72-.67c-.52-.53-.28-.47-.94-.78a8.4,8.4,0,0,0-3.17-.37c-.44.88-3.05,2.11-4,3.09-1.85,2-2.24.34-3.26,4a8,8,0,0,1-1.58,3.49c-2.57-.57-2-3.84-2.92-5.89-1.43-3.17-1.37-5.15-4.87-6.07-.87-3.23-5-4.57-9-5-2.29-.26-1.62-.38-3-1a24.09,24.09,0,0,0-3-.65c-2.54-.65-3.32-2.15-4.9-2.32a3,3,0,0,0,1.55,2c1.51,1,.82.4,1.85,1.72,1.8.39,3.29-.38,4.5.59.53.43.35.69,1.26,1.34s.58.05,1.44,1c-1,4-9.88,4.21-14.29,3.55.74,2,1.18,1.57,3.39,2L208,96c.23,1.56,0,1.78-1,2.72a23.74,23.74,0,0,1-5.94,3.53l-1.25.8c.2,2.86,3,4.59,2.65,7-1.2.83-1.85.45-2.87,1.07.51,1.57.86,1.11,1.64,2.5-1,1.42,1.2-1.32-.54.46l-.18.32a59,59,0,0,1-7.62-29.37,16,16,0,0,1,2.34,2.84c1,1.48,2.56,3.8,4.7,4.38,0-1.72-.64-2.13-1.49-3.11l-4.15-4.88a5.7,5.7,0,0,0-1.34-1.54,60.15,60.15,0,0,1,.94-8.09,9,9,0,0,0,1.56.18c1.53,0,1.72-.2,2.16-1.22a9.1,9.1,0,0,1-2.85-1,3.77,3.77,0,0,1-.38-.31A58.77,58.77,0,0,1,200,57.37a3.16,3.16,0,0,0,.77-.81l-.38.11c.26-.46.53-.93.81-1.38.07.28.17.59,1.16.65,1-.5.73-1.31,2.2-2.5l1.17.63c.05-.06.13.1.2.13a29.77,29.77,0,0,1,4.87-2.56c1.87-.43,4.28-.7,4.92-2.62a37.7,37.7,0,0,0-5.54.4c.52-2.09,7.45-7.7,9.49-8.75,1.35-.69,2-2.05,3.5-2.19-.65,1.68-1.18,1.36-2.54,2.32-1.52,1.09-7.66,5.2-6.9,7.38,1.21.52,5.82.18,6.82-.8.15-.21.73-5.17,3.79-5,.77,1.15-.19.56.76,1.73a2,2,0,0,0,.16-.21l.81-1.74c1.51,1.09,1.42-.06,2.59-.69a.88.88,0,0,1,.22-.1c.72-.31.38.13,1.51-.27-.32-1.11-1.1-1.24.26-2.22a10.45,10.45,0,0,0,2.15-1.38c1-1,1.41-2.39,3-3.95s3.2-2.12,4-3A16.73,16.73,0,0,0,241.65,27.69Z"/><path class="cls-2" d="M252.76,97.71c4.66,0,8.47-.76,8.47-1.7s-3.81-1.7-8.47-1.7-8.48.76-8.48,1.7,3.81,1.7,8.48,1.7"/><path class="cls-6" d="M54.61,268.19,35.92,301.13c-3.22,5.27-6.12,9.93-8,13l8-13a14,14,0,0,0-1.07,11.66,15.4,15.4,0,0,0,4.39,6C49.12,327.54,92.5,355,92.5,355s15.35,9.94,28.83-12.53l29.27-49-45.27-5.81Z"/><path class="cls-7" d="M226.86,236s-1.8,18.9-9.7,26.17-90.94,57.09-90.94,57.09L87.77,195.07l114.1-61v7.43H213.1s3-.33,4.21.66-1.85,35-1.85,35l-8.37,38.05,4.59,4.51Z"/><path class="cls-6" d="M214.47,264.31c-16.35,11.85-88.25,55-88.25,55l-8.53-27.55,8.42-20.16v10.09s2.16,7.78,8.12,8.44,80-25.73,80.24-25.81"/><path class="cls-6" d="M219.72,114l23.07-4.1s7.28-.45,9.71,6.22,2.73,12.45-3.34,16.84S227,144.15,227,144.15Z"/><path class="cls-8" d="M121.36,14.53h87.36a19.21,19.21,0,0,1,19.16,19.15V249.51a19.21,19.21,0,0,1-19.16,19.16H121.36a19.21,19.21,0,0,1-19.16-19.16V33.68a19.21,19.21,0,0,1,19.16-19.15"/><path class="cls-2" d="M122.48,21.69h12v2a7.8,7.8,0,0,0,7.78,7.78h45.56a7.81,7.81,0,0,0,7.78-7.78v-2h12A13.46,13.46,0,0,1,221,35.11V249.32a13.46,13.46,0,0,1-13.43,13.42H122.48a13.46,13.46,0,0,1-13.42-13.42V35.11a13.46,13.46,0,0,1,13.42-13.42"/><path class="cls-1" d="M221,87V249.32a13.46,13.46,0,0,1-13.43,13.42H122.48a13.46,13.46,0,0,1-13.42-13.42V87a13.46,13.46,0,0,1,13.42-13.42H207.6A13.46,13.46,0,0,1,221,87"/><path class="cls-3" d="M221,87v8.78H203.12L198.7,112.3H136l10.36-38.68H207.6A13.46,13.46,0,0,1,221,87"/><path class="cls-9" d="M117.3,48.32h7.52V50H117.3Zm0,3.07h7.52v1.69H117.3Zm0-6.14h7.52V47H117.3Z"/><polygon class="cls-5" points="128.38 112.3 132.91 95.39 120.97 95.39 116.44 112.3 128.38 112.3"/><polygon class="cls-5" points="176.8 134.58 166.06 134.58 161.92 150.06 179.19 150.06 181.95 139.76 183.34 134.58 176.8 134.58"/><polygon class="cls-5" points="200.14 114.99 191.67 146.6 203.17 146.6 208.63 126.22 210.07 120.86 211.81 114.38 212.36 112.3 211.39 112.3 207.21 112.3 200.87 112.3 200.14 114.99"/><polygon class="cls-5" points="212.46 157.74 188.69 157.74 183.71 176.32 207.48 176.32 212.46 157.74"/><polygon class="cls-5" points="176.63 175.94 133.04 175.94 123.15 193.08 148.12 218.05 167.5 218.05 176.63 175.94"/><path class="cls-2" d="M221,146.6v11.14H188.69l-28.14,105H149l10-37.28H109.06V214.33H162l37.7-140.71h7.93a13,13,0,0,1,3.5.47L191.67,146.6Z"/><polygon class="cls-3" points="205.39 207.97 198.04 207.97 185.2 207.97 179.08 230.8 178.42 233.29 198.61 233.29 205.39 207.97"/><path class="cls-2" d="M147.05,200.78c4.66,0,8.47-.76,8.47-1.7s-3.81-1.7-8.47-1.7-8.47.77-8.47,1.7,3.8,1.7,8.47,1.7"/><polygon class="cls-3" points="130.68 150.06 109.06 150.06 109.06 138.93 133.66 138.93 130.68 150.06"/><path class="cls-6" d="M91.79,97.5s-22.62,29.9-27.47,38.4-4.86,19.42-4.86,36.41v68s1.21,14.56-4.85,27.91a158.9,158.9,0,0,1-13.47,23.74l85.08,32.32V235.42a101.89,101.89,0,0,0-13.36-46.12c-13.35-23.06-20.73-31.83-20.73-31.83s3.13-10.41,8.1-23.18,3.53-42.09-8.44-36.79"/><path class="cls-6" d="M106.06,316.59l20.16,7.66V268.68c0,.56-.15,18.38-6.86,28.44-2,3-7.08,10.41-13.3,19.47"/><path class="cls-6" d="M226.12,154.58S215.38,171.92,213.68,178s.75,13.19,4.9,15.27,10,3.58,13.57.56,15.74-21.2,16.77-23.93a10.71,10.71,0,0,0-2.26-11.31c-3.67-3.67-9-7.25-10.36-8.57s-7.45-.76-10.18,4.61"/><path class="cls-6" d="M245.6,211.14S206.18,232.41,203,235.28s-2.67,9.49.11,13.34,5.15,3.59,7.33,3.21,28.22-8.18,29.45-10.22S251.14,226.3,252,223.67s.83-5.81-6.38-12.53"/><path class="cls-6" d="M238.84,187.05S223,196.6,219.13,200.77s-4.85,11-2.36,14.35,6.58,7,10.72,6.07,21.48-10.61,23.44-12.38a9.74,9.74,0,0,0,2.86-10.07c-1.45-4.49-4.31-9.6-4.83-11.21s-5.7-3.69-10.12-.48"/><path class="cls-7" d="M244.85,213.37s-10.27,5.37-15.49,7.83l-.9-1.91c5.18-2.45,15.38-7.78,15.41-7.79Z"/><path class="cls-7" d="M226.49,194.42c4.13,0,5.65-1.89,8-4.82l.47-.59,1.65,1.31-.47.59c-2.7,3.42-4.47,5.66-9.62,5.62Z"/><rect class="cls-10" x="81.54" y="146.3" width="2.12" height="15.94" transform="translate(-86.94 197.63) rotate(-76.18)"/><path class="cls-7" d="M128.47,270.1s-5.41,9.27-19.37,17.79l-1.1-1.81c13.5-8.24,18.64-17,18.65-17.06Z"/><path class="cls-11" d="M188.61,45.92a3.11,3.11,0,0,0-2.44,1V46h-1.58v7.08h1.66V49.5a1.88,1.88,0,0,1,2-2.13c1.06,0,1.68.61,1.68,1.87v3.84h1.66V49a2.77,2.77,0,0,0-3-3.11M165.37,46l-2.26,5.25L160.91,46h-1.73l3,7.08h1.71L167,46Zm-8.87,7.08h1.66V46H156.5Zm.84-8.24a1,1,0,0,0,1.06-1,1,1,0,0,0-1.06-.95,1,1,0,1,0,0,2ZM152.57,47V46H151v7.08h1.65V49.65a1.94,1.94,0,0,1,2.06-2.19,1.91,1.91,0,0,1,.39,0V45.92A2.8,2.8,0,0,0,152.57,47Zm-10.65,4.59V45.26h2.26a3.19,3.19,0,1,1,0,6.37Zm-1.72,1.45h4.06c3,0,5.06-1.85,5.06-4.64s-2-4.64-5.06-4.64H140.2Z"/><path class="cls-11" d="M170.86,47.25a1.94,1.94,0,0,1,2,1.44l-4,.77h0a2,2,0,0,1,2-2.2m.31,4.52A2.17,2.17,0,0,1,169,50.52l5.43-1.06a3.42,3.42,0,0,0-3.59-3.54,3.53,3.53,0,0,0-3.65,3.63,3.61,3.61,0,0,0,3.92,3.63A3.55,3.55,0,0,0,174,52l-.87-1A2.59,2.59,0,0,1,171.17,51.77Z"/><path class="cls-11" d="M179.22,51.76a2.22,2.22,0,1,1,2.11-2.21,2.07,2.07,0,0,1-2.11,2.21m0,1.42a3.63,3.63,0,1,0-3.76-3.63A3.58,3.58,0,0,0,179.22,53.18Z"/><path class="cls-12" d="M174.9,49a4.34,4.34,0,1,1,8.13,1.7c-.24.43-2.7,3.91-3.12,4.52-.12.18-.39.64-.56.7-.33.14-.53-.31-.68-.51l-2.09-3c-.85-1.23-1.49-1.85-1.68-3.4m4.66-2.36a1.87,1.87,0,0,0-.68,3.68,1.87,1.87,0,1,0,.68-3.68Z"/><path class="cls-2" d="M233.9,51.51a23.43,23.43,0,0,1,5.53,3l2-2.71a26.67,26.67,0,0,0-6.32-3.48Zm-9.36-1.71a28.2,28.2,0,0,1,6.34.77l.81-3.29a32,32,0,0,0-7.09-.88Zm-9.68,1.12,6.45-1-.26-3.38-6.94,1.09Zm-9.26,3.22,6.11-2.37-1-3.24-6.53,2.53ZM197,59.06l5.62-3.44-1.59-3-5.94,3.64Zm-7.75,6.2L194.37,61l-2.06-2.7L187,62.75Zm-6.91,7.18,4.52-4.88-2.39-2.4-4.69,5.07Zm-6.08,7.93,4-5.36-2.65-2.11-4.1,5.53ZM171,88.86l3.46-5.71L171.6,81.3,168,87.18Zm-4.6,8.92,3-6-3-1.59-3.07,6.14Zm-4,9.24,2.57-6.19-3.1-1.37-2.63,6.33Zm-3.37,9.49,2.18-6.34L158.05,109l-2.23,6.48Zm-2.84,9.68,1.83-6.46-3.24-1-1.87,6.59ZM153.86,136l1.51-6.55-3.29-.82-1.54,6.66Zm-1.92,9.93,1.23-6.63-3.33-.67-1.24,6.71Zm-1.52,10,1-6.67-3.35-.53-1,6.75Zm-.9,7.38.47-4-3.37-.42-.47,4.06ZM241.81,56.6a17.75,17.75,0,0,1,3.68,4.92h0l3.09-1.4a21.14,21.14,0,0,0-4.37-5.92Z"/><path class="cls-13" d="M146.49,192.83h1.7c.63,0,1.05-.84,1.35-1.27l4.89-7c.61-.89,2-2.72,2.45-3.52a10.15,10.15,0,1,0-17.54-.47c.55,1,6.33,9.15,7.31,10.6l.07.1h-.23Zm1-21.8a4.38,4.38,0,1,1-3.55,5.06A4.37,4.37,0,0,1,147.47,171Z"/><path class="cls-14" d="M156.55,176.55h0a10.15,10.15,0,1,0-19,4c.55,1,6.33,9.15,7.31,10.6.29.42.91,1.47,1.31,1.64.77.32,1.24-.73,1.58-1.21l4.9-7c.61-.89,2-2.72,2.44-3.52a10.28,10.28,0,0,0,1.48-4.45M145.67,171a4.38,4.38,0,1,1-3.56,5.06A4.36,4.36,0,0,1,145.67,171Z"/><path class="cls-13" d="M252.15,90.28h1.7c.64,0,1.05-.84,1.36-1.26l4.89-7c.61-.9,1.95-2.73,2.44-3.53a10.12,10.12,0,0,0-1.88-12.9A10.15,10.15,0,0,0,245,78c.55,1,6.33,9.16,7.31,10.6l.07.11h-.23Zm1-21.79a4.38,4.38,0,1,1-3.56,5.05A4.35,4.35,0,0,1,253.14,68.49Z"/><path class="cls-14" d="M262.21,74h0a10.15,10.15,0,1,0-19,4c.56,1,6.33,9.16,7.31,10.6.29.42.91,1.48,1.31,1.64.77.32,1.24-.73,1.59-1.2l4.89-7c.61-.9,1.95-2.73,2.44-3.53A10.06,10.06,0,0,0,262.21,74m-10.88-5.52a4.38,4.38,0,1,1-3.55,5.05A4.35,4.35,0,0,1,251.33,68.49Z"/></g></g></svg>