<svg xmlns="http://www.w3.org/2000/svg" viewBox="0 0 348.84 347.19"><defs><style>.cls-1{fill:#e3e0ff;}.cls-1,.cls-10,.cls-11,.cls-12,.cls-13,.cls-14,.cls-15,.cls-16,.cls-17,.cls-19,.cls-2,.cls-20,.cls-22,.cls-3,.cls-4,.cls-5,.cls-6,.cls-9{fill-rule:evenodd;}.cls-2{fill:#fff;}.cls-3{fill:#cfc7ff;}.cls-4{fill:#5712a6;}.cls-5{fill:#78e3cc;}.cls-6{fill:#cff2eb;}.cls-19,.cls-7{fill:#454582;}.cls-10,.cls-8{fill:#7d21e8;}.cls-9{fill:#26e0fa;}.cls-11{fill:#ed87ab;}.cls-12{fill:#ffabcf;}.cls-13{fill:#4d128f;}.cls-14{fill:#1a8aeb;}.cls-15{fill:#2678fa;}.cls-16{fill:#bdb5ed;}.cls-17{fill:#595c9e;}.cls-18{fill:#e3e3fa;}.cls-20{fill:#d1ccff;}.cls-21{fill:#a399e3;}.cls-22{fill:#1c1761;}</style></defs><title>Ativo 4</title><g id="Camada_2" data-name="Camada 2"><g id="Layer_1" data-name="Layer 1"><path class="cls-1" d="M207.16,123.66A111.77,111.77,0,1,1,95.39,235.42,111.76,111.76,0,0,1,207.16,123.66"/><path class="cls-1" d="M93,109.25a93,93,0,1,1-93,93,93,93,0,0,1,93-93"/><path class="cls-1" d="M216.09,17.28a109,109,0,1,1-109,109,109,109,0,0,1,109-109"/><polygon class="cls-1" points="106.94 310.25 106.94 319.27 106.94 328.29 99.14 323.78 91.33 319.27 99.14 314.76 106.94 310.25"/><polygon class="cls-1" points="40.44 86.29 44.18 92.76 47.92 99.23 40.44 99.23 32.97 99.23 36.7 92.76 40.44 86.29"/><polygon class="cls-2" points="240.05 72.05 238.1 79.32 236.15 86.59 230.83 81.27 225.51 75.95 232.78 74 240.05 72.05"/><path class="cls-3" d="M275.58,106.36s1-4.66,2.18-8.45c1.3-4.07,1.81-11.06-1.84-11.39A7.2,7.2,0,0,0,270.16,83c-4-.21-8.82.13-11.59-1-5.18-2-7.2,8.83,1.59,9.85-.14,3.41-.45,15.36,2.44,16.21a6.79,6.79,0,0,0,3.5-.33l.33,1-1.76.8s-12.16,3-15.3,5.63c-1.57,1.32-3.45,4.72-4.94,7.8l-44.84-12-29.67,8,21.72,21.72,1.63.44s6.13,5.29,10,7a11.48,11.48,0,0,0,7.28.74s21.27,16.88,28.22,14.56c2.32-.77,5-4.06,7.62-8.1l5.33,1.43c-1.42,10.08-4,20.72-4,20.72l.51.28c-2.16,11.29-6.12,31.93-6.44,33.11-.4,1.51,1.28,38.64,1.64,56.09h.94l.34,2.15H244l.52,2.67c-2.65,1-8,1.38-9.45,2.34-1.94,1.3-2.75,5.28-2.75,5.28h26.77l-.65-7.59h-.74l.12-4.85h.73c1.53-13.12,4.66-37.53,5.34-40.43.76-3.3,0-11.19.67-13.79s3.75-16.65,3.75-16.65,1.17,12.26,1.52,17.51c.26,3.83,7.32,36.19,11.11,53.36H282l.47,2.06h-.75l.74,2.76c-2.57,1-7.92,1.38-9.27,2.34-1.85,1.3-2.37,5.28-2.37,5.28h26.79l-1.22-7.59h-.75l-.24-4.85h1.28c-.09-5.89-.19-13.45-.19-19.68,0-12.14-2-26.51-2.19-32.09-.14-3.7,1.68-22.06,2.92-34l.49-.24s.68-4.59,1.38-11.5c5.48,1.46,26,7.11,27.53,7.28,3.27.36,5.73-.65,7.33-3.54l1-2.64L338.68,157c1.78-6.63-2.06-9-5-10L313,141.39c-1.87-5.7-9.23-24.72-13.91-28.08-3.87-2.77-21.46-5.42-23.08-5.69Z"/><path class="cls-3" d="M170.28,41.5H82.79A19.25,19.25,0,0,0,63.6,60.69V276.82c0,.58,0,1.15.08,1.72H189.39c.05-.57.08-1.14.08-1.72V60.69A19.25,19.25,0,0,0,170.28,41.5"/><polygon class="cls-1" points="164.28 0 168.02 6.47 171.76 12.94 164.28 12.94 156.81 12.94 160.55 6.47 164.28 0"/><polygon class="cls-2" points="205.25 298.85 203.79 304.3 202.33 309.76 198.34 305.77 194.35 301.77 199.8 300.31 205.25 298.85"/><path class="cls-4" d="M184,24.78H96.49A19.25,19.25,0,0,0,77.3,44V260.1a19.24,19.24,0,0,0,19.19,19.18H184a19.24,19.24,0,0,0,19.18-19.18V44A19.24,19.24,0,0,0,184,24.78"/><path class="cls-2" d="M182.86,32h-12v2a7.81,7.81,0,0,1-7.79,7.8H117.43a7.82,7.82,0,0,1-7.8-7.8V32h-12A13.48,13.48,0,0,0,84.17,45.4V259.9a13.48,13.48,0,0,0,13.44,13.44h85.25A13.48,13.48,0,0,0,196.3,259.9V45.4A13.48,13.48,0,0,0,182.86,32"/><path class="cls-5" d="M140.23,72.06a16.82,16.82,0,1,0,16.82,16.82,16.82,16.82,0,0,0-16.82-16.82"/><path class="cls-6" d="M140.23,77.76h0A6.22,6.22,0,1,0,146.45,84a6.22,6.22,0,0,0-6.22-6.22M128,100.41a16.82,16.82,0,0,0,24.47,0,12.72,12.72,0,0,0-24.47,0Z"/><path class="cls-6" d="M183.31,116H96.55a2.1,2.1,0,0,0-2.1,2.09v8.73a2.1,2.1,0,0,0,2.1,2.09h86.76a2.1,2.1,0,0,0,2.1-2.09V118a2.1,2.1,0,0,0-2.1-2.09"/><path class="cls-6" d="M183.31,141.77H96.55a2.1,2.1,0,0,0-2.1,2.09v8.72a2.1,2.1,0,0,0,2.1,2.1h86.76a2.1,2.1,0,0,0,2.1-2.1v-8.72a2.1,2.1,0,0,0-2.1-2.09"/><path class="cls-5" d="M154.13,167.59h-28.4a2.63,2.63,0,0,0-2.62,2.62v7.66a2.63,2.63,0,0,0,2.62,2.63h28.4a2.63,2.63,0,0,0,2.63-2.63v-7.66a2.63,2.63,0,0,0-2.63-2.62"/><path class="cls-7" d="M99.59,123.62h0a.43.43,0,0,1-.11-.6.44.44,0,0,1,.6-.11c2.1,1.44,5.34-.57,8.67-2.66,4.13-2.57,8.38-5.23,11.46-2.1a3.89,3.89,0,0,1,1.34,2.81,23.08,23.08,0,0,1,4,.39c3.67.69,6.5-.54,8.79-1.53a9.07,9.07,0,0,1,4-1.12c2.2.18,2.28,2,2.13,3.06a1.36,1.36,0,0,1,.28-.22c2.17-1.23,7-4,10-3,1.84.62,1.92,1.74,1.58,2.74a4.89,4.89,0,0,1-.48,1A40.2,40.2,0,0,0,162,119.92c6.16-2.06,12.15-4,21-.25a.43.43,0,0,1-.33.79c-8.6-3.67-14.44-1.72-20.44.28a39.22,39.22,0,0,1-10.92,2.48c-.35.07-.54-.06-.61-.35v0c-.05-.24.09-.49.29-.82a6,6,0,0,0,.48-1c.2-.59.13-1.25-1-1.64-2.64-.89-7.2,1.71-9.26,2.89-.78.44-1.27.72-1.55.54a.41.41,0,0,1-.14-.61c.1-.34.67-2.51-1.22-2.66a8.44,8.44,0,0,0-3.63,1c-2.41,1-5.37,2.33-9.29,1.59a21.49,21.49,0,0,0-4-.37,1.11,1.11,0,0,1-.07.16v0a3.69,3.69,0,0,1-.89,1.23,5.15,5.15,0,0,1-1.3.86c-1.36.65-2.94.73-3.66,0a1.34,1.34,0,0,1-.38-.72h0a1.3,1.3,0,0,1,.59-1.17,4.83,4.83,0,0,1,1.51-.72,13.89,13.89,0,0,1,3.5-.53,3.12,3.12,0,0,0-1.08-2.22c-2.59-2.64-6.56-.17-10.39,2.23-3.58,2.23-7,4.4-9.62,2.63m20.24-1a2.72,2.72,0,0,0,.6-.76,12.75,12.75,0,0,0-3,.49,4.05,4.05,0,0,0-1.23.57c-.18.15-.27.28-.26.37a.37.37,0,0,0,.14.22c.45.46,1.62.34,2.67-.17A4.16,4.16,0,0,0,119.83,122.61Z"/><path class="cls-8" d="M161.35,55.92a2.74,2.74,0,0,0-2.19.89V56h-1.42v6.36h1.49V59.13A1.69,1.69,0,0,1,161,57.21c1,0,1.51.55,1.51,1.69v3.45H164V58.7a2.48,2.48,0,0,0-2.66-2.78M140.46,56l-2,4.72-2-4.72H134.9l2.72,6.36h1.54L141.9,56Zm-8,6.36H134V56h-1.49Zm.75-7.41a.91.91,0,0,0,.95-.93.88.88,0,0,0-.95-.86.9.9,0,1,0,0,1.79Zm-4.28,2V56h-1.42v6.36H129V59.26a1.73,1.73,0,0,1,1.85-2l.34,0V55.92A2.51,2.51,0,0,0,129,56.91ZM119.38,61V55.32h2a2.87,2.87,0,1,1,0,5.72Zm-1.54,1.31h3.64c2.71,0,4.56-1.67,4.56-4.17S124.19,54,121.48,54h-3.64Z"/><path class="cls-8" d="M145.4,57.11a1.73,1.73,0,0,1,1.76,1.29l-3.6.7h0a1.8,1.8,0,0,1,1.84-2m.27,4.06a1.93,1.93,0,0,1-1.93-1.12l4.88-.95a3.07,3.07,0,0,0-3.22-3.18,3.15,3.15,0,0,0-3.28,3.25,3.23,3.23,0,0,0,3.52,3.26,3.17,3.17,0,0,0,2.55-1l-.79-.92A2.3,2.3,0,0,1,145.67,61.17Z"/><path class="cls-8" d="M152.91,61.16a2,2,0,1,1,1.9-2,1.85,1.85,0,0,1-1.9,2m0,1.27a3.26,3.26,0,1,0-3.39-3.26A3.21,3.21,0,0,0,152.91,62.43Z"/><path class="cls-9" d="M149,58.7a3.9,3.9,0,0,1,1.29-3.26,4,4,0,0,1,3.5-.88,3.9,3.9,0,0,1,2.52,5.66c-.22.4-2.44,3.52-2.81,4.07-.11.16-.35.57-.51.63s-.47-.28-.6-.46l-1.88-2.7A6.07,6.07,0,0,1,149,58.7m4.18-2.12a1.68,1.68,0,1,0-.6,3.3,1.68,1.68,0,1,0,.6-3.3Z"/><path class="cls-10" d="M94.25,57.2h6.6v1.49h-6.6Zm0,2.69h6.6v1.49h-6.6Zm0-5.39h6.6V56h-6.6Z"/><path class="cls-2" d="M266.48,150.74h0a4.59,4.59,0,1,1-4.59,4.59,4.59,4.59,0,0,1,4.59-4.59m-6.62-2.56a2.3,2.3,0,1,1-2.29,2.3A2.3,2.3,0,0,1,259.86,148.18Z"/><path class="cls-4" d="M282.85,104.48l2.44,1.74s.95-4.65,2.17-8.45,1.15-8.13.4-9.69a3,3,0,0,0-2.23-1.7,7.23,7.23,0,0,0-5.77-3.52c-4-.21-8.81.14-11.59-1s-5.56,1.76-3.93,6.17,7.79,3.73,7.79,3.73,1.5,10.44,10.72,12.67"/><path class="cls-11" d="M271.49,112.08l2.89-2.63,1.76-.8-1.56-4.74,6.74-4.68,1.63.07,2.76,8.18,1.91.31.38,3.95s-14,5.86-16,5.09-.51-4.75-.51-4.75"/><polygon class="cls-12" points="259.28 261.12 267.59 262.47 267.36 271.69 255.08 273.04 253.54 263.24 259.28 261.12"/><path class="cls-13" d="M256.92,271.69h11.19l.65,7.59H242s.81-4,2.75-5.28c1.43-1,6.81-1.38,9.45-2.34l-.51-2.67h.94c1.73,0,2.22,2.21,2.31,2.7"/><polygon class="cls-12" points="296.5 261.12 304.92 262.47 305.37 271.69 292.84 271.69 290.19 260.03 296.5 261.12"/><path class="cls-4" d="M308.05,170.63s-4.23,38.86-4,44.44,2.17,20,2.18,32.09c0,6.23.11,13.79.2,19.68H290.6c-3.79-17.17-10.85-49.53-11.11-53.36C279.14,208.23,278,196,278,196s-3.12,14.05-3.75,16.65.1,10.49-.67,13.79c-.68,2.9-3.81,27.31-5.33,40.43H253.17c-.37-17.45-2-54.58-1.64-56.09s7.82-40.35,7.82-40.35Z"/><path class="cls-14" d="M286.21,124.24l20.21-2s4.34,10.35,3.8,27a314.1,314.1,0,0,1-2.78,31.66s-7.94,4.14-22.58,4-27.41-7.49-27.41-7.49S263,154.45,262.27,144s23.94-19.75,23.94-19.75"/><path class="cls-15" d="M287.62,107.79s-.39,3.52-6.21,4.74-7-3.08-7-3.08-12.17,3-15.31,5.63-7.53,13.65-7.53,13.65l18,8.61L311,145.78,318.42,130s-5.82-14.12-9.63-16.85-21.17-5.38-21.17-5.38"/><path class="cls-12" d="M265.86,136.18S255.43,161,248.48,163.31s-28.21-14.56-28.21-14.56A11.45,11.45,0,0,1,213,148c-3.89-1.73-10-7-10-7Z"/><path class="cls-16" d="M201.35,140.54l7.94-29.68L343.43,146.8c2.89,1,6.74,3.38,5,10l-3.62,13.49c-1.77,6.62-6.29,6.77-9.29,6.18Z"/><path class="cls-17" d="M322.88,141.3l20.55,5.5c2.89,1,6.74,3.38,5,10l-3.62,13.49c-1.77,6.62-6.29,6.77-9.29,6.18L314.93,171Z"/><rect class="cls-18" x="304.08" y="151.82" width="30.72" height="8.91" transform="translate(85.9 424.46) rotate(-75.02)"/><polygon class="cls-19" points="179.62 118.81 184.97 117.38 183.54 122.74 179.62 118.81"/><polygon class="cls-20" points="183.54 122.74 184.97 117.38 209.29 110.86 201.35 140.54 183.54 122.74"/><path class="cls-4" d="M319.77,172.27l2.13-8,22.84,6.11c-1.8,6.5-6.28,6.63-9.26,6Z"/><rect class="cls-21" x="253.2" y="94.43" width="8.23" height="113.69" transform="translate(44.54 360.61) rotate(-74.98)"/><polygon class="cls-16" points="203.47 132.59 201.35 140.54 183.54 122.74 183.93 121.3 203.47 132.59"/><polygon class="cls-22" points="183.93 121.3 183.54 122.74 179.62 118.81 183.93 121.3"/><polygon class="cls-20" points="311.16 169.96 313.29 162.01 317.06 163.02 321.89 164.32 319.77 172.27 314.93 170.97 311.16 169.96"/><path class="cls-12" d="M318.42,130a119.2,119.2,0,0,1,5.92,16.85c2.24,9.08-30.51,18.45-30.51,18.45a20.13,20.13,0,0,1-9.37,2.27c-5.5,0-9-7.18-9-7.18a80.61,80.61,0,0,1,8.52-.76,27.36,27.36,0,0,1,6.2.82s17.37-15.88,17.71-17.12c.21-.81-2-5.19-3.51-8.11Z"/><path class="cls-13" d="M294.75,270.93l.18.76h11.19l1.22,7.59H280.56s.52-4,2.36-5.28c1.36-1,6.7-1.38,9.27-2.34l-.74-2.76h1.16c1.28,0,1.88,1.2,2.14,2"/><path class="cls-12" d="M281.32,94.89s.68-1.83,2-1.76,2.37,2.3,1.83,4.47-1.83,2.85-2.37,2.85a2.38,2.38,0,0,1-.95-.2s-.27,3.39-1.83,5.08-5.83,3.19-7.66,2.65-2.1-5.09-2.44-8.14A95.52,95.52,0,0,1,270,89.2l4.41.2s.47,2.44,1.42,3.19,1.76.81,2.24,2a29,29,0,0,1,.88,4.61l2-1.49Z"/></g></g></svg>